<?xml version="1.0" encoding="utf-8"?>
<!-- Generator: Adobe Illustrator 19.1.1, SVG Export Plug-In . SVG Version: 6.00 Build 0)  -->
<svg version="1.1" id="fondo_ilustraciones_web_x5F_20170803_x5F_0001_xA0_Image_1_"
	 xmlns="http://www.w3.org/2000/svg" xmlns:xlink="http://www.w3.org/1999/xlink" x="0px" y="0px" viewBox="0 0 193.3 482"
	 style="enable-background:new 0 0 193.3 482;" xml:space="preserve">
<style type="text/css">
	.st0{clip-path:url(#SVGID_2_);fill:#B0385A;}
	.st1{clip-path:url(#SVGID_4_);fill:#45819D;}
</style>
<g>
	<defs>
		<rect id="SVGID_3_" x="8.4" y="4.7" width="167.7" height="458"/>
	</defs>
	<clipPath id="SVGID_2_">
		<use xlink:href="#SVGID_3_"  style="overflow:visible;"/>
	</clipPath>
	<path style="clip-path:url(#SVGID_2_);fill:#45819D;" d="M14.2,336.2c-0.4,0.9-0.7,1.4-0.1,2C14.6,337.7,14.8,337.2,14.2,336.2
		 M22.5,371.6c-0.2-1.1-0.5-2.3-0.7-3.4C21.3,369.5,21.6,370.6,22.5,371.6 M49.1,375.9c1.9-2.9,4.5-11,4.2-13
		C51.1,367.1,51.2,371.8,49.1,375.9 M39.8,414.7c1.5-0.6,2.8-1.2,3.6-2.5c0.3-0.4,0.5-0.9,0.5-1.4c0.1-1.2,0.2-2.4,0.3-3.7
		c0.1-0.8,0-1.6-1-2.2c0,0.6-0.1,0.9-0.1,1.3c0,0.6,0.1,1.3-0.2,1.6c-0.3,0.3-1,0.3-1.6,0.5C40.6,410.3,39.7,412.3,39.8,414.7
		 M30,388.3c-0.1,0.1-0.2,0.2-0.3,0.3c1.4,2.1,2.8,4.2,4.2,6.3c0.9,1.3,1.9,2.6,2.8,4c0.6,0.9,1.1,1.8,1.8,2.6
		c0.9,1.1,1.4,1.1,2.8,0.4c0-3.4,2-6.4,2.1-9.9c-0.6-0.2-1.3-0.6-1.8-0.5c-1.6,0.5-3,0-4.4-0.5c-0.7-0.2-1.3-0.5-2-0.6
		C33.3,390.1,31.5,389.5,30,388.3 M16.7,342.7c-0.3,0.5-0.4,0.7-0.5,0.9c-0.6,0.8,0,1.7-0.1,2.6c-0.4,2-0.5,4.1-0.3,6.2
		c0.2,2.4-0.1,4.8,0.3,7.1c0.7,4,1.8,8,3,11.9c1.1,3.7,2.7,7.1,4.9,10.2c0.4,0.6,0.8,1.1,1.9,1.1c-0.3-0.8-0.4-1.6-0.8-2.2
		c-1.7-2.8-2.9-5.8-4-8.8c-0.5-1.3-0.9-2.7-0.7-4.1c0.5-3.7-0.2-7.2-1.5-10.6c-0.8-2.2-1.8-4.4-1.1-6.9c0.1-0.3-0.2-0.8-0.3-1.1
		c-0.1-0.3-0.2-0.6-0.3-1C17,346.3,16.9,344.7,16.7,342.7 M16.3,336.2c0.9-0.8,1.3-1.8,0.6-3.2C16.3,334.2,15.8,335.1,16.3,336.2
		c-0.5,1.1-0.3,3.4,0.3,4.9c0.6-1.6,0.3-3.1,0.4-4.5C17,336.5,16.6,336.4,16.3,336.2 M57.1,356.7c1.3-1.8,2.6-3.6,4-5.3
		c1.9-2.4,3.9-4.9,5.8-7.2c0.4-0.4,1-0.6,1.4-1c0.1,0.1,0.2,0.2,0.3,0.3c-0.1,0.2-0.1,0.4-0.2,0.6c-1.6,2.1-3.3,4.2-4.9,6.4
		c-0.7,0.9-1.3,1.8-1.9,2.7c-1.6,2.4-3.3,4.7-4.8,7.1c-0.9,1.5-1.3,3.3-1.8,4.9c-0.7,2-1.1,4.1-1.9,6c-1.2,3.2-2.8,6.2-4,9.4
		c-0.8,2.3-1.9,4.4-2.8,6.7c-0.3,0.8,0,1.7,0,2.5c0.8,0.5,1.6,0.9,2.4,1.4c0,0.1-0.1,0.2-0.1,0.2c-0.7-0.1-1.4-0.3-2.1-0.3
		c-0.6,0-0.6,0.5-0.2,0.9c-0.7,0.8-1.1,1.7-0.9,2.9c0.1,0.7,0.1,1.6-0.8,2.3c-0.1-0.8-0.2-1.3-0.2-1.8c-0.1,0-0.2,0-0.3,0
		c-0.4,1.6-0.9,3.3-1.3,5c0.9,0.2,1.2,0.1,1.3-0.5c0.2-1.1,0.9-1.5,1.7-2.1c1.9-1.4,3.8-2.8,5.7-4.1c-0.6-1-1.4-0.8-2.1-0.6
		c-1.3,0.5-2.2,0-3.1-1c0.9,0.2,1.8,0.4,2.7,0.6c1.3,0.3,2.5,0,3.6-0.5c2.1-1,4.1-2.1,6.2-3.2c0.8-0.4,1.6-1,2.4-1.4
		c0.4-0.2,0.9-0.1,1.3-0.1l0,0c-0.8,0.6-1.6,1.1-2.4,1.7c1.6,0.1,2.9-1,4.5-1c0,0.1,0.1,0.2,0.1,0.4c-0.5,0.2-1.1,0.3-1.6,0.5
		c-0.8,0.3-1.5,0.6-2.3,0.9c-0.4,0.2-0.8,0.5-1.1,0.5c-1-0.2-1.5,0.5-2.3,0.8c-0.8,0.4-1.6,0.6-2.3,1.1c-2.3,1.6-4.6,3.3-6.9,4.9
		c-1.2,0.9-1.7,1.5-2.4,3.1c0.4,0,0.8,0.1,1.2,0.1c1.7-0.2,3.5-0.4,5.2-0.6c0.4-0.1,1-0.2,1.3-0.5c1.6-1.3,3.6-1.3,5.4-1.9
		c0.1,0,0.2,0.1,0.7,0.3c-3,0.4-5.3,1.7-7.5,3.3c2.1-0.1,4-1.2,6.1-1.2c-1.6,0.6-3.2,1.3-4.8,1.9c0.1,0.3,0.2,0.4,0.2,0.4
		c2.4,0.3,4.8,0.3,7-0.9c0.9-0.5,1.7-1,2.6-1.5c0.6-0.3,1.2-0.7,2-0.4c0.3,0.1,0.7,0,1-0.1c1.6-0.7,3.2-1.5,4.7-2.3
		c1.8-0.9,3.3-2.1,4.9-3.3c0.4-0.3,0.8-0.4,1.2-0.6c0,0-0.1-0.1-0.1-0.1c-1.1,1-2.2,2.1-3.4,3c-2.8,2.1-5.8,3.7-9.2,4.6
		c-2.2,0.6-4.3,1.5-5.9,3.2c-0.5,0.5-1.2,1-2,0.4c-0.2-0.1-0.4-0.2-0.7-0.2c-3.3,0-6.6,0.1-10,0.2c-0.1,0.8-0.2,1.4-0.3,2.1
		c0,1.1,0,2.2,0,3.4c0.8-0.3,1.3-0.6,1.9-0.9c0.4,0.8,1,1,1.8,1c-0.3,0.2-0.5,0.3-0.8,0.5c-2,1-2.9,2.5-2.6,4.8
		c0.5,3.8,1,7.6,1.9,11.2c0.9,3.9,2.3,7.7,3.5,11.6c1.2,4,3.2,7.7,5.6,11.1c0.6,0.9,1.2,1.9,1.7,2.9c0.7,1.7,1.8,2.7,3.7,3
		c0.1-0.4,0.3-0.8,0.3-1.3c0-2.2-0.1-4.5-0.2-6.7c-0.1-1.1-0.3-2.3,1-2.9c0.2-0.1,0.3-0.5,0.3-0.8c0.3-1.8,1.5-3.1,2.5-4.6
		c0,0.3,0,0.6,0,0.9c0,1-0.1,2,0.1,3c0.9,3.7,0.6,7.6,0.9,11.3c0.1,1.4-0.2,2.9-0.3,4.4c-0.1,1.4,0.1,2.6,1.4,3.3
		c0.1,0.1,0.2,0.3,0.2,0.5c-0.2,0.7-0.8,0.8-1.4,0.6c-2.4-0.5-4.8-0.9-7.1-1.6c-2.2-0.7-4.3-1.7-6.2-3.1c-0.8-0.6-0.8-1.2,0-1.9
		c-2.3-1.3-4.7-2.2-6.5-4.1c0.2-0.7,0.6-0.9,1.2-0.7c0.4,0.1,0.8,0.2,1.2,0.4c0.5,0.3,1,0.7,1.5,0.9c0.9,0.3,1.8,0.3,2.9,0.5
		c0.2-0.4,0.4-0.8,0.6-1.2c0.6,0.3,1.1,0.5,1.9,0.9c-0.2-0.6-0.3-0.9-0.4-1.1c-3.5-5.2-5.9-10.9-7.6-16.9c-0.7-2.6-1.6-5.3-2.2-7.9
		c-0.5-2.3-0.9-4.7-1.3-7c-0.3-1.4-0.5-2.9-0.9-4.6c-0.5,0.5-0.9,0.8-1.3,1.1c-0.3,0.3-0.6,0.6-0.9,0.8c-0.4,0.4-0.9,0.9-1.5,0.4
		c-0.3-0.2-0.1-0.9-0.2-1.4c-2.2-0.3-2.5-0.8-1.9-3.1c0.4-1.4,1-2.7,1.4-4.1c0.4-1.2,0.7-2.4-0.6-3.3c-0.7-0.5-1.3-1.2-1.8-1.9
		c-0.5-0.5-0.5-1.3-0.9-1.9c-2.3-3.3-4.5-6.7-6.7-10.1c-0.8-1.2-1.3-2.6-2.1-3.8c-0.9-1.4-1.8-2.8-3-3.9c-3.1-3-5-6.8-6.4-10.8
		c-0.7-2.1-1.1-4.4-1.7-6.6c-0.3-1.2-0.7-2.5-1.1-3.7c-0.6-2.1-1-4.2-0.5-6.4c0.1-0.5-0.4-1.1-0.4-1.6c-0.1-2-0.2-4-0.1-6
		c0.1-2,0.4-3.9,0.6-5.9c0.1-0.6,0-1.3-0.1-1.9c-0.1-0.8-0.3-1.6-0.4-2.6c-1,0.4-2.1,1-2.9,1.9c-0.5,0.6-1,1.3-1.6,1.9
		c-0.5,0.5-1,0.8-1.8,0c0.2-0.3,0.3-0.8,0.6-1.1c1.2-2,2.6-3.9,3.8-5.9c1-1.7,1.6-3.5,2.6-5.2c1-1.6,1.7-3.2,2.4-4.9
		c0.8-1.9,2.1-3.5,3.5-5.2c-0.1,5.7,1.6,11,2.5,16.4c0,0.1-0.1,0.3-0.2,0.5c-0.8,0.1-1.1-0.4-1.3-1.1c-0.5-2.1-1.1-4.2-1.7-6.3
		c-0.2-0.8-0.5-1.5-0.7-2.3c-0.1,0-0.3,0-0.4,0c-0.2,0.6-0.5,1.3-0.5,1.9c-0.6,4.1-1,8.3-0.8,12.5c0.1,2.6,0.1,5.3,0.3,7.9
		c0.2,2.4,0.6,4.7,1.4,7c0.1,0.2,0.1,0.5,0.3,0.6c1.8,1.2,1.4,3.2,2.1,4.9c0.1,0.2,0,0.6-0.1,0.7c-1.2,0.8-0.6,1.9-0.4,2.7
		c1,4,2.2,8,3.8,11.8c0.7,1.6,1.1,3.2,1.9,4.7c1,1.9,2.1,3.7,3.3,5.5c0.5,0.7,1.3,1.3,2.1,1.5c1.9,0.6,3.8,1,5.7,1.5
		c1.2,0.3,1.2,0.3,2.6-0.2c-0.5-0.4-1-0.8-1.5-1.2c0,0,0,0,0,0c0.6,0.1,1.1,0.2,1.8,0.3c0.1-1.4-0.6-2.8,0.5-4.1
		c0.8,0.6,0.5,1.3,0.4,2c-0.3,1.6-0.3,1.6,0.7,3c0.2-0.3,0.6-0.6,0.6-0.9c0.3-1.3,0.6-2.5,0.6-3.8c0-1.6,0.5-3.1,1-4.6
		c1-2.8,1.8-5.7,2.8-8.5c0.7-2,1.9-3.8,2.5-5.8c0.2-0.8,1.1-1.3,1.5-2c0.8-1.4,1.4-3,2.1-4.4c0.2-0.4,0.5-0.8,0.9-1
		C55.9,358.8,56.7,357.9,57.1,356.7L57.1,356.7z"/>
	<path style="clip-path:url(#SVGID_2_);fill:#45819D;" d="M92.6,315.7c-0.1-0.1-0.2-0.2-0.3-0.2c-0.4,0.3-1,0.4-1.1,1.5
		C91.9,316.4,92.2,316.1,92.6,315.7 M68,309.3h2.9C69.7,307.8,69.3,307.8,68,309.3 M83.6,315.3c1.3-1.1,1.4-2.3,0.4-3.5
		C83.1,312.8,83.9,313.9,83.6,315.3 M67.6,310.6c0.7,0.5,1.4,0.9,2.3,1.4c0.4-0.5,0.7-1,1-1.5C69.7,310,68.7,309.7,67.6,310.6
		 M78.5,323.9c0.9-1.3,1.5-2.3,2.2-3.4c-0.1-0.1-0.1-0.1-0.2-0.2c-1.1,0.4-2.3,0.8-3.4,1.1C77.6,322.3,78,323,78.5,323.9
		 M68.5,313.9c-0.7-0.8-1.2-1.5-1.8-2.3c-1,1.5-1.3,2.9-1.5,4.4C66.7,315.9,67.4,314.8,68.5,313.9 M85.7,309.3
		c2.9-0.1,3.9-0.8,4.5-2.7C88,306.4,86.4,307.3,85.7,309.3 M93.1,347.2c-0.9-0.4-1.4-0.6-1.9-0.9c-1,0.7-1.7,1.5-1.8,2.7
		c-0.1,0.6-0.3,1.4,0.5,1.6c0.4,0.1,1.2-0.2,1.5-0.6C92,349.3,92.5,348.3,93.1,347.2 M87.9,312.7c0.3,0.2,0.5,0.4,0.8,0.6
		c1.5,1.1,2.6,1,3.6-0.7c0.5-0.9,0.7-1.8,0.8-2.8c0.1-1.8,0.2-1.8-1.5-2.5c-0.6,0.9-1.1,1.7-1.7,2.6
		C89.2,310.8,88.6,311.7,87.9,312.7 M68.8,335.5c-0.1-1.3,1-2.2,1.5-3.2c1.1-1.9,2.4-3.8,3.6-5.7c0.1-0.2,0.2-0.5,0.5-1.2
		c-0.9,0.6-1.5,1-2.2,1.5c0.4-1.2,0.4-1.2,1.5-2.2c1.1-0.9,1.3-1.6,0.6-2.7c-1.6-2.5-3.4-4.9-5.2-7.4c-0.7,0.4-1.2,0.8-1.6,1.1
		c-0.4,0.3-0.9,0.7-1.3,0.8c-0.6,0.2-1.3,0.4-1.8,0.2c-0.7-0.3,0-1.1-0.2-1.5c-0.9-2.9,1.5-4.4,2.7-6.4c0.8-1.4,2.8-1.6,4.1-1
		c0.9,0.4,1.2,1,0.9,2c-0.3,0.9-0.8,1.8-1.2,2.7c1.5,2.3,3.1,4.6,4.7,6.9c0.5,0.8,1.3,0.9,2,0.7c1.9-0.5,3.4-1.7,4.8-3.1
		c0.3-0.3,0.4-1,0.3-1.4c-1-3.6,0.1-6.5,2.7-8.9c1.4-1.3,3.2-1.9,5.1-1.7c0.1,0,0.1,0,0.2,0c2.8-0.7,3.4,2,5,3.3
		c0.2,0.2,0.3,0.5,0.3,0.8c0.5,3.8-0.2,7.2-3.2,9.9c-0.3,0.3-0.8,0.6-1.2,0.6c-2.4,0.1-4.8,0.2-7.1-1.3c-0.4,0.6-0.8,1.2-1.2,1.8
		c-0.9,1.3-1.8,2.6-2.8,3.8c-0.8,1-0.6,1.8,0.1,2.7c0.9,1.2,1.7,2.4,2.6,3.6c2.5,3.1,4.6,6.5,6.5,10c0.7,1.3,1.7,2.5,2.5,3.7
		c2.2-0.1,2.6,0.4,2.4,2.4c-0.1,1.3-0.6,2.3-1.1,3.5c-0.5,1-1.3,1.4-2.3,1.8c-1.1,0.4-2.5-0.8-2.4-2.1c0.1-1.2,0.3-2.4,1.2-3.4
		c0.3-0.3,0.5-0.7,0.7-1c-3.9-6.1-6.9-12.7-12.2-18c-0.8,1.2-1.4,2.1-2.1,3.1c-0.7,1-1.2,2-2,2.9c-0.7,0.8-1.6,1.5-2.5,2.3
		c-0.4,2.7-2.5,4.6-4,6.9c-0.1-0.1-0.3-0.1-0.4-0.2c0.4-1.1,0.7-2.3,1.3-3.3c1.2-1.8,2.6-3.4,3.8-5.2c1.1-1.5,2.3-3,2.7-4.9
		c-0.6,0.8-1.8,0.9-2.3,1.8c-0.1,0.2-0.5,0.3-0.5,0.4c-0.1,1.9-2,2.6-2.7,4.1C69.4,335.3,69,335.4,68.8,335.5L68.8,335.5"/>
	<path style="clip-path:url(#SVGID_2_);fill:#45819D;" d="M154.6,206.9c0.1-0.6-0.1-1.3,0.2-1.9c2.4-5.3,3.9-10.9,5.7-16.4
		c1.5-4.7,3-9.5,4.5-14.2c0.5-1.5,1.2-2.9,1.7-4.4c1.2-3.7,2.4-7.4,3.3-11.1c0.8-3.2,1.1-6.5,1.5-9.7c0.6-5.6,1.2-11.3,1.7-17
		c0.3-3.3,0.2-6.6,0.3-9.9c0.1-3.5,0.3-6.9,0.4-10.4c0.1-3.7,0.3-7.4,0.4-11.1c0.1-5.9,0-11.8,0-17.8c0-2.8,0.2-5.6,0.3-8.4
		c0-0.7-0.1-1.4-0.3-2.1c-0.5-2-1-4-1.5-6c-1.3-5.1-2.5-10.3-3.8-15.4c-0.8-3.1-1.7-6.2-2.6-9.3c-1.1-3.7-2.4-7.4-3.6-11.1
		c-1.6-5-3.3-10-4.9-15c-0.8-2.4-1.5-4.8-2.3-7.2c-0.3-1-0.4-2-0.7-3.1c0-0.2-0.3-0.4-0.4-0.5l0,0c0.3-0.1,0.7-0.1,1-0.2
		c0.8,2.8,1.6,5.6,2.4,8.3c0.5,1.4,1.1,2.8,1.7,4.2c0.2,0.5,0.4,1.1,0.6,1.6c1.6,4.7,3.3,9.4,4.7,14.1c1.4,4.5,2.6,9,3.9,13.5
		c0.9,3,1.7,6.1,2.5,9.1c0.5,2.2,0.8,4.4,1.3,6.5c0.7,3,0.6,6.3,2.1,9.1c0.8,1.5,0.8,2.9,1,4.4c0.3,2.5,0.3,4.8-0.2,7.3
		c-0.6,3.2-0.3,6.5,0.1,9.8c0.1,1,0.2,2.1,0.2,3.1c-0.1,4.2-0.2,8.3-0.4,12.5c-0.4,6-0.6,11.9-0.4,17.9c0.1,1.8-0.2,3.6-0.3,5.4
		c-0.2,3.9-0.5,7.8-1.1,11.7c-0.8,4.6-1.3,9.2-1.9,13.8c-0.5,3.7-1.5,7.4-2.7,10.9c-1.4,4.1-2.8,8.2-4.2,12.3
		c-1.3,3.8-2.3,7.7-3.7,11.5c-1.6,4.3-3.3,8.6-5.1,12.8C155.8,205.4,155.1,206.1,154.6,206.9L154.6,206.9z"/>
	<path style="clip-path:url(#SVGID_2_);fill:#45819D;" d="M76,389c0-1.1,0.1-2.1,1.5-2.3c0.2,0,0.4-0.4,0.9-1
		c-1,0.2-1.7,0.3-2.3,0.3c0-0.1-0.1-0.2-0.1-0.3c0.7-0.2,1.5-0.4,2.2-0.6c0.5-0.1,1-0.3,1.5-0.5c1.2-0.5,1.3-0.7,1.1-1.8
		c1-0.7,2-1.3,2.8-2.1c0.4-0.4,0.5-1.1,0.7-1.7c0.2-0.6,0.5-1.1,0.8-1.7c-1-0.1-2-0.2-3.2-0.4c1.2-1,2.2-2,3.8-2.2
		c1.1-0.2,2.1-1.2,3-2.1c-0.7,0-1.4,0-2.1,0c-0.8,0-1.6,0.2-2.5,0.2c-1.1,0-1.1,0-1.1-1.2c1-0.4,1.9-0.8,2.8-1.2
		c1.8-0.9,3.6-1.9,5.5-2.6c1.4-0.6,2.9-0.8,4.4-1.2c0.7-0.2,1.3-0.7,2-1c0.2-0.1,0.6-0.3,0.7-0.2c0.2,0.1,0.3,0.5,0.3,0.7
		c-0.7,4.2-1.5,8.4-2.3,12.6c-0.2,1-0.3,2-0.5,2.9c-0.1,0.4-0.3,0.8-0.5,1.3c-0.9-0.4-1.2-1-1.1-1.8c0.2-1.5,0.4-2.9,0.5-4.4
		c0.1-0.8,0.1-1.6,0.2-2.4c-0.1-0.1-0.3-0.1-0.4-0.2c-0.6,0.9-1.2,1.8-1.8,2.7c-1.6,2.3-3.4,4.3-5.9,5.6c-0.9,0.5-1.8,1.1-2.7,1.7
		c-1.2,0.7-1.6,1.7-1.4,3.3c-0.5-0.3-0.9-0.5-1.3-0.7c-0.1,0.1-0.3,0.1-0.3,0.2c-1.5,3.3-4.5,5.2-7.5,7c-2.1,1.3-4.3,2.3-6.7,3.2
		c0.5-0.3,1.1-0.7,1.6-1c2.8-1.8,5.7-3.5,8.4-5.4c1.3-0.9,2.3-2.1,3-4.1c-1,0.7-1.7,1.2-2.5,1.6C77.1,388.5,76.5,388.7,76,389
		L76,389z"/>
	<path style="clip-path:url(#SVGID_2_);fill:#45819D;" d="M138.2,235.9c0.5-0.8,1.1-1.6,1.5-2.5c1.3-2.7,2.3-5.6,3.9-8.2
		c1.4-2.3,2.4-4.7,3.6-7c0.8-1.5,1.7-3,2.6-4.5c0.2-0.3,0.6-0.3,1-0.4c-0.3,1-0.1,2.2-1.3,2.6c-0.1,0-0.1,0.4-0.2,0.6
		c-0.3,0.6-0.4,1.3-0.9,1.6c-0.5,0.4,0.3,1-0.5,1.4c-0.5,0.2-0.7,1.3-1,2c-0.4,1.3-1.1,2.4-2,3.4c-0.5,0.6-0.6,1.6-0.8,2.5
		c-0.1,0.3-0.1,0.6-0.3,0.8c-1.3,2.3-2.7,4.6-4.1,6.9C139.5,235.7,139,236,138.2,235.9C138.2,235.9,138.2,235.9,138.2,235.9"/>
	<path style="clip-path:url(#SVGID_2_);fill:#45819D;" d="M96.1,305.8c0.7-1.5,1.2-3.2,2.2-4.4c0.8-0.9,0.9-2.4,2.2-3
		c0.4-0.2,0.3-1.2,0.7-1.7c0.5-0.8,1.2-1.3,1.8-2.1c0.4-0.5,0.7-1.2,1.1-1.7c0.4-0.7,0.8-1.5,1.3-2.1c0.7-0.9,1.4-1.8,2.1-2.7
		c0.2-0.2,0.3-0.5,0.4-0.7c0.3-0.8,0.6-1.6,1-2.3c0.6-0.9,1.5-1.7,2.4-2.7c-0.2,0.7-0.3,1.1-0.5,1.5c-2,3.3-4,6.7-6,10
		c-1.1,1.8-2.4,3.5-3.7,5.3c-0.3,0.4-0.5,0.8-0.7,1.1c-0.2,0.4-0.4,0.9-0.8,1.1c-1.3,0.6-1.7,1.8-2.2,3c-0.3,0.6-0.6,1.2-1,1.8
		C96.4,306,96.3,305.9,96.1,305.8"/>
	<path style="clip-path:url(#SVGID_2_);fill:#45819D;" d="M135.2,243.8c0.4,0.4,0.3,0.8,0.1,1.3c-1.2,2.5-2.4,5-3.7,7.5
		c-0.8,1.5-1.5,3-2.7,4.2c-0.6,0.5-0.8,1.4-1.2,2.1l0,0c-0.4-0.9-0.4-1.6,0.2-2.4c2.5-3.9,4.4-8.2,6.5-12.4c0.1-0.2,0.4-0.3,0.6-0.5
		C135.1,243.7,135.2,243.8,135.2,243.8"/>
	<path style="clip-path:url(#SVGID_2_);fill:#45819D;" d="M57.1,356.7c-0.3,0.1-0.6,0.3-1,0.4c-0.2-0.4-0.4-0.7-0.6-1.1
		c1.5-0.9,1.7-1.3,1.4-2.5c3.2-3.3,5.5-7.3,8.7-10.5c0,1.1-0.8,1.8-1.4,2.5c-2,2.6-4.1,5.2-5.6,8.2c-0.4,0.8-1,1.4-1.5,2.1
		C56.8,356.2,56.5,356.5,57.1,356.7C57.1,356.7,57.1,356.7,57.1,356.7"/>
	<path style="clip-path:url(#SVGID_2_);fill:#45819D;" d="M164.7,182.2L164.7,182.2c0.3,1.4-0.7,2.5-1.2,3.7c-0.6,1.4-1.3,2.7-2.1,4
		c-0.7,1.2-1.4,2.4-2.1,3.6c-0.2,0.4-0.3,0.8-0.6,1.5c-0.3-1.3,0-2,0.4-2.8c1.2-2.3,2.4-4.6,3.6-6.8c0.4-0.8,0.8-1.7,1.2-2.5
		C164,182.6,164.4,182.4,164.7,182.2"/>
	<path style="clip-path:url(#SVGID_2_);fill:#45819D;" d="M51.6,362.2c-1,1.8-1.8,3.2-2.6,4.6c-0.1,0.2-0.3,0.4-0.3,0.6
		c-0.5,2.6-2.3,4.6-2.7,7.2c0,0.3-0.4,0.5-0.8,1c0-2,0.7-3.4,1.4-4.9c0.7-1.5,1.4-3,2.1-4.5C50,363.4,50.4,362.8,51.6,362.2"/>
	<path style="clip-path:url(#SVGID_2_);fill:#45819D;" d="M71.3,387.9c0-0.2,0.1-0.4,0.1-0.8c-1,0.1-1.9,0.2-2.8,0.2l0,0
		c0.5-0.2,1-0.7,1.5-0.7c1.7,0,3.1-0.6,4.4-1.7c0.2,0.5,0.3,0.8,0.4,1C73.7,386.7,72.5,387.3,71.3,387.9L71.3,387.9z"/>
	<path style="clip-path:url(#SVGID_2_);fill:#45819D;" d="M76.9,326.3L76.9,326.3c-0.1,0.3-0.1,0.6-0.3,0.9
		c-0.9,1.4-1.8,2.7-2.7,4.1c-0.2,0.2-0.4,0.4-0.7,0.8C73.7,329.9,75.4,327.2,76.9,326.3"/>
	<path style="clip-path:url(#SVGID_2_);fill:#45819D;" d="M62.6,387.4c-0.4-0.6,0-0.8,0.4-1.1c1.6-0.8,3.3-1.5,5-2.1
		c-0.4,1.4-1.7,1.1-2.6,1.6C64.6,386.4,63.6,386.8,62.6,387.4C62.6,387.4,62.6,387.4,62.6,387.4"/>
	<path style="clip-path:url(#SVGID_2_);fill:#45819D;" d="M42.5,383.7c-0.9-1.4,0.4-2.1,0.5-3c0.1-0.9,0.6-1.8,0.9-2.8
		C44.5,378.8,44.1,380.4,42.5,383.7"/>
	<path style="clip-path:url(#SVGID_2_);fill:#45819D;" d="M71.3,387.9c-0.9,1.2-1.8,2.5-2.7,3.7C69.2,390.1,69.9,388.8,71.3,387.9
		C71.3,387.9,71.3,387.9,71.3,387.9"/>
	<path style="clip-path:url(#SVGID_2_);fill:#45819D;" d="M135.4,245.1c-0.8-0.6-0.3-1.2,0.2-1.7C136.3,244,136.3,244,135.4,245.1
		C135.3,245.1,135.4,245.1,135.4,245.1"/>
	<path style="clip-path:url(#SVGID_2_);fill:#45819D;" d="M70.4,383.3c0.4-0.2,0.7-0.4,1.1-0.5c0.3-0.1,0.5-0.2,0.9,0
		c-0.6,0.3-1.2,0.6-1.7,0.9C70.5,383.6,70.4,383.4,70.4,383.3"/>
	<path style="clip-path:url(#SVGID_2_);fill:#45819D;" d="M44.1,377.1c0.3-0.6,0.5-1.1,0.9-1.7C45.2,377,45.2,377,44.1,377.1"/>
	<path style="clip-path:url(#SVGID_2_);fill:#45819D;" d="M37.6,387.8c-0.5-0.6-0.9-1.2-1.5-1.9C37.3,386.4,37.5,386.7,37.6,387.8
		L37.6,387.8z"/>
	<path style="clip-path:url(#SVGID_2_);fill:#45819D;" d="M78.5,390.9c0.6-0.3,1.2-0.7,1.8-1C79.8,390.4,79.6,391.3,78.5,390.9
		L78.5,390.9z"/>
	<path style="clip-path:url(#SVGID_2_);fill:#45819D;" d="M78.5,390.9c0.3,1.3-0.9,1.5-1.5,2.1c0,0,0.1,0.1,0.1,0.1
		c0.3-0.4,0.5-0.8,0.8-1.2C78,391.5,78.3,391.2,78.5,390.9C78.5,390.9,78.5,390.9,78.5,390.9"/>
	<path style="clip-path:url(#SVGID_2_);fill:#45819D;" d="M68.6,387.4c-0.7,0.2-1.4,0.4-2.1,0.5c0-0.1,0-0.3-0.1-0.4
		C67.1,387.2,67.9,387.2,68.6,387.4C68.6,387.4,68.6,387.4,68.6,387.4"/>
	<path style="clip-path:url(#SVGID_2_);fill:#45819D;" d="M75.5,380.9c0.4-0.2,0.8-0.4,1.2-0.6c0.1,0.1,0.1,0.2,0.2,0.4
		c-0.4,0.2-0.8,0.4-1.2,0.5C75.6,381.1,75.6,381,75.5,380.9"/>
	<path style="clip-path:url(#SVGID_2_);fill:#45819D;" d="M106.7,287.5c0.1-0.3,0.2-0.6,0.3-1c0.1,0,0.2,0.1,0.3,0.1
		c-0.1,0.3-0.2,0.6-0.3,0.9C106.9,287.5,106.8,287.5,106.7,287.5"/>
	<path style="clip-path:url(#SVGID_2_);fill:#45819D;" d="M37.6,387.8c1.2-0.1,1.5,0,1.9,1.4c0,0,0,0,0,0
		C38.8,388.7,38.2,388.3,37.6,387.8C37.6,387.8,37.6,387.8,37.6,387.8"/>
	<path style="clip-path:url(#SVGID_2_);fill:#45819D;" d="M58.9,349.4c0.1-0.2,0.2-0.5,0.4-0.7c0.1,0,0.2,0.1,0.3,0.1
		c-0.1,0.2-0.2,0.5-0.2,0.7C59.1,349.5,59,349.4,58.9,349.4"/>
	<path style="clip-path:url(#SVGID_2_);fill:#45819D;" d="M76,389L76,389c-0.1,0.2-0.2,0.4-0.3,0.6c-0.1-0.1-0.2-0.2-0.3-0.2
		C75.6,389.2,75.8,389.1,76,389"/>
	<path style="clip-path:url(#SVGID_2_);fill:#45819D;" d="M60.4,396.6c0.2-0.1,0.5-0.3,0.7-0.4c0,0.1,0.1,0.1,0.1,0.2
		c-0.2,0.2-0.5,0.3-0.7,0.5C60.5,396.8,60.5,396.7,60.4,396.6"/>
	<path style="clip-path:url(#SVGID_2_);fill:#45819D;" d="M52.6,408c0.3-0.2,0.5-0.4,0.8-0.6c0.1,0.1,0.1,0.1,0.2,0.2
		c-0.3,0.2-0.5,0.4-0.8,0.6C52.8,408.2,52.7,408.1,52.6,408"/>
	<path style="clip-path:url(#SVGID_2_);fill:#45819D;" d="M69.4,383.5c0.2,0.2,0.3,0.3,0.4,0.4c-0.2,0.2-0.3,0.3-0.5,0.5
		c0,0-0.3-0.2-0.3-0.3C69.1,383.8,69.2,383.7,69.4,383.5"/>
	<path style="clip-path:url(#SVGID_2_);fill:#45819D;" d="M88.7,311.1c0.1,0.1,0.1,0.1,0.2,0.2c-0.7,1-1.4,2.1-2.2,3.4"/>
</g>
</svg>
