<?xml version="1.0" encoding="utf-8"?>
<!-- Generator: Adobe Illustrator 19.1.1, SVG Export Plug-In . SVG Version: 6.00 Build 0)  -->
<svg version="1.1" id="fondo_ilustraciones_web_x5F_20170803_x5F_0001_xA0_Image_1_"
	 xmlns="http://www.w3.org/2000/svg" xmlns:xlink="http://www.w3.org/1999/xlink" x="0px" y="0px" viewBox="0 0 210 361.3"
	 style="enable-background:new 0 0 210 361.3;" xml:space="preserve">
<style type="text/css">
	.st0{clip-path:url(#SVGID_2_);fill:#B0385A;}
	.st1{clip-path:url(#SVGID_4_);fill:#45819D;}
</style>
<g>
	<defs>
		<rect id="SVGID_1_" x="3.5" y="5.8" width="203.1" height="354.6"/>
	</defs>
	<clipPath id="SVGID_2_">
		<use xlink:href="#SVGID_1_"  style="overflow:visible;"/>
	</clipPath>
	<path class="st0" d="M8.4,350.3c1.1-0.2,1.5-1.3,2-2.1c2.3-3,4.6-6.1,6.9-9.2c0.1-0.2,0.4-0.3,0.6-0.5c2.5,0.2,4.5,1.6,6.6,2.7
		c0.9-0.7,0.6-1.4,0-1.9c-0.7-0.6-1.5-1-2.2-1.5c-0.7-0.5-1.3-0.9-2.1-1.5c2.9-2.5,5.8-4.8,8.5-7.2c2.3-2.1,4.5-4.2,6.6-6.4
		c4.3-4.7,8.7-9.2,13.7-13.2c0.9-0.7,1.7-0.8,2.8-0.4c2.3,0.9,4.6,1.6,6.9,2.4c0.6,0.2,1.1,0.4,1.4-0.3c0.3-0.8-0.2-1.2-0.8-1.5
		c-1.8-0.8-3.6-1.6-5.4-2.4c-0.3-0.1-0.5-0.3-1.1-0.5c1.4-1.1,2.6-2.2,3.9-3.1c2.4-1.8,4.8-3.8,7.4-5.3c1.5-0.9,2.6-2,4-2.9
		c1.4-0.9,2.8-1.9,4.1-3c0.7-0.6,1.4-0.7,2.2-0.3c1.6,0.8,3.2,1.5,4.8,2.2c0.7,0.3,1.5,1,2.2,0.1c0.4-0.6-0.1-1.2-1.4-1.9
		c-1.5-0.7-2.9-1.4-4.5-2.2c1-1.3,2.2-2,3.5-2.7c3.4-1.9,6.8-3.6,10.2-5.4c0.3-0.2,0.7-0.3,1-0.5c0.8-0.6,1.6-1.1,2.6-0.1
		c0.5-0.8,0.8-1.6,1.3-2c1-0.7,2.2-1.3,3.3-1.8c0.4-0.2,1.1,0.1,1.6,0.4c0.9,0.5,1.8,1.1,2.8,1.7c0.4,0.2,0.8,0.3,1.4,0.5
		c-0.1-2.3-2-2.7-3.2-3.8c4-2.5,8.1-4.8,12-7.4c3.9-2.5,7.7-5.3,11.7-8c1.9,1.6,3.6,3.1,5.3,4.7c0.6,0.5,1.1,1,2.2,0.3
		c-1.4-2.6-4-4-6-6.2c0.9-0.9,1.8-1.8,2.7-2.6c3.9-3.4,7.2-7.4,10.1-11.6c1.8-2.5,3.4-5.2,5-7.8c0.5-0.8,0.9-1.7,1.2-2.5
		c2-4.8,4-9.6,6-14.4c0.2-0.5,0.5-1,0.8-1.5c3.3,0.9,5.8,3.5,9.4,3.8c-0.4-1.5-1.7-1.6-2.5-2.2c-1-0.7-2-1.2-3.1-1.9
		c-1-0.6-1.9-1.2-3-2c0.9-3.8,2.3-7.6,4-11.2c0.6,0.1,1.2,0.4,1.6,0.3c0.4-0.1,0.6-0.7,0.9-1.2c-0.3-0.4-0.6-0.7-0.9-1
		c-0.7-0.6-0.7-1.2-0.5-2c1.1-4.2,2.4-8.3,3.2-12.6c0.4-1.9,1-3.7,1.1-5.6c0.2-1.9,0.6-3.7,0.8-5.6c0.1-0.6,0-1.1-0.2-1.7
		c-0.1,0.3-0.3,0.6-0.4,0.8c-0.2,0.8-0.5,1.5-0.7,2.3c-0.3,1.2-0.5,2.5-0.7,3.7c-0.6,2.8-1,5.7-1.8,8.4c-0.9,3.4-2,6.8-3.1,10.3
		c-1.9-0.6-2.8-2.5-4.4-3.3c-0.8,0.5-0.8,1.1-0.2,1.7c0.9,0.9,1.8,1.7,2.7,2.6c1.1,1,1.1,1,0.6,2.4c-1,2.8-1.8,5.8-2.8,8.6
		c-1.5,4-2.7,8.1-4.6,11.9c-1,2-1.7,4.2-2.6,6.2c-0.6,1.5-1.3,3-2,4.4c-0.3,0.5-0.8,0.9-1.3,1.5c-1.9-2.8-3.7-5.4-4.9-8.4
		c-0.3-0.8-0.4-1.7-1.8-1.9c0,0.6-0.2,1.3,0,1.7c1.1,2.6,2.4,5.1,3.6,7.7c0.2,0.4,0.7,0.7,1,1c1.2,0.8,1.3,1.3,0.6,2.5
		c-1.4,2.2-2.7,4.5-4.2,6.7c-0.9,1.3-2,2.4-3.1,3.6c-1.3-1.1-1.6-2.8-3-3.6c-0.2-0.1-0.3-0.4-0.6-0.5c-0.3-0.1-0.9-0.2-1-0.1
		c-0.2,0.3-0.2,0.8-0.1,1.1c0.1,0.3,0.5,0.6,0.7,0.8c0.8,0.9,1.6,1.8,2.3,2.7c0.2,0.3,0.4,1,0.2,1.3c-0.7,0.9-1.5,1.7-2.3,2.4
		c-1,1-2,2-3.1,3c-0.5,0.5-1.2,0.8-1.8,1.3c-1.6,1.2-3.1,2.6-4.7,3.8c-2.2,1.6-4.4,3.2-6.8,4.5c-1.9,1-4.1,1.8-5.5,3.6
		c-0.2,0.2-0.5,0.3-0.8,0.5c-1.9,1-3.9,2-5.8,3.1c-0.9,0.6-1.7,0.9-2.8,0.6c-0.6,1.8-2,2.3-3.6,2.5c-1-1.8-2-3.6-2.9-5.3
		c-1.1,0-1.3,0.5-1.1,1.1c0.2,0.7,0.5,1.3,0.8,1.9c0.6,1.1,1.1,2.2,1.8,3.4c-1.5,1-2.5,2.2-4.3,2.4c-1,0.1-1.9,0.9-2.8,1.4
		c-2.1,1.1-4.2,2.3-6.2,3.5c-1.5,0.9-2.9,1.9-4.4,2.9c-1.2,0.8-2.4,1.6-3.5,2.7c-1,1-2.4,1.7-3.7,2.6c-1.5,1.1-1.8,1.1-3.1-0.4
		c-1-1.1-2-2.2-3-3.4c-1,0.8-0.6,1.6-0.1,2.3c0.9,1.2,1.8,2.4,2.8,3.7c-0.3,0.7-0.7,1.2-1.5,1.6c-2.1,1.2-4,2.7-6,4.1
		c-1.6,1.2-2.8,3.2-5.2,3.4c-0.6,0.1-1,0.8-1.6,1.3c-1.1,1-2.3,1.9-3.4,2.9c-1.6,1.5-3.2,3-4.7,4.5c-2.8,2.9-5.6,5.9-8.3,8.9
		c-0.8-0.5-0.6-1.1-0.4-1.6c0.8-2.1,1.6-4.1,2.4-6.2c0.6-1.5,1.1-3.1,1.5-4.7c0.1-0.5-0.1-1.1-0.2-1.7c-0.1,0-0.3-0.1-0.4-0.1
		c-0.3,0.3-0.7,0.5-0.8,0.9c-1.3,3.4-2.5,6.7-3.7,10.1c-0.2,0.6-0.2,1.2-0.2,1.8c0.3,2.5-0.6,4.3-2.8,5.5c-0.7,0.4-1.3,1-1.9,1.5
		c-2.2,1.9-4.2,4-6.8,5.4c-0.5,0.3-1.2,0.4-1.8,0.6c-0.9,1.5-1.9,3.1-3.1,5c-0.3-0.6-0.6-1-0.6-1.3c-0.1-2,0-3.9-0.1-5.9
		c0-0.4-0.2-0.8-0.3-1.2c-0.2-0.1-0.3-0.2-0.5-0.2c-0.2,0.3-0.5,0.6-0.5,1c-0.2,2.5-0.7,5,0.3,7.4c0.5,1.1,0.3,1.9-0.4,2.8
		c-1.5,2.1-3,4.2-4.6,6.2C8.1,349.7,8.3,350,8.4,350.3L8.4,350.3z"/>
	<path class="st0" d="M171.8,33.7c-0.1,0.8-0.1,1.2-0.2,1.8C171,34.8,170.8,34.4,171.8,33.7 M171.7,41.4c-0.1,0-0.2-0.1-0.4-0.1
		c0.2-0.5,0.3-0.9,0.5-1.4c0.1,0,0.3,0.1,0.4,0.1C172.1,40.5,171.9,41,171.7,41.4 M171.2,28.9c-0.5-1.2-0.5-1.2,0.5-2.1
		C171.5,27.8,171.4,28.3,171.2,28.9 M170.5,37c1.1,0.9,0.8,1.6-0.2,2.6C170.4,38.5,170.5,37.9,170.5,37 M171.7,32.1
		c0.9-0.9,1.1-1.9,1.1-3c0-0.5,0-1,0.2-1.5c1-1.9,1.9-3.8,3.1-5.5c1.9-2.7,4-5.3,6.1-7.9c0.6-0.8,1.4-1.6,2-2.4
		c0.1,0.1,0.3,0.1,0.4,0.2c-0.1,0.6-0.1,1.3-0.3,1.9c-0.3,1.2-0.8,2.4-1.1,3.6c-0.6,3.1-1.2,6.1-1.8,9.2c-0.3,1.4-0.6,2.7-2.2,3.2
		c-0.6,0.2-1.1,0.8-1.6,1.3c-1.5,1.3-2.9,2.7-4.5,4.1C172.7,34.3,172.2,33.3,171.7,32.1 M168.8,44.5c-1.4,0.3-2.4,0.6-3.4,0
		c-1.1-0.6-2.2-1.2-3.3-1.7c-2.1-1-4-2.4-5.5-4.2c-1.1-1.3-1.9-2.8-2.9-4.1c-2.1-2.9-3.4-6.1-4.5-9.4c-0.1-0.3-0.1-0.7-0.1-1.1
		c0-1-0.1-2,0-3c0-0.3,0.1-0.6,0.2-1.4c0.5,0.9,0.8,1.5,1.2,2c1.5,2.4,2.8,4.9,5.3,6.3c0.1,0.1,0.3,0.3,0.3,0.4
		c-0.2,0.9,0.6,0.9,1.1,1.2c0.6,0.4,1.1,0.9,1.7,1.3c0.6,0.5,1.2,0.5,1.8-0.1C162.6,35.8,164.5,40.7,168.8,44.5 M162.6,32.5
		c2,0.1,3.5,0.3,5.4,0.4c-1.1-0.8-3.6-1.3-5-1.3c-0.9-1.7-1.1-3.7-1.4-5.6c-0.4-1.9-0.7-3.8-0.8-5.8c-0.2-2-0.1-4-0.2-6
		c-0.1-3.7,0-4.6,0.7-5.6c0.1,0.6,0.2,1.2,0.4,1.7c0.8,2.5,1.5,5.1,2.4,7.5c0.5,1.3,1.2,2.6,2.1,3.8c0.7,1,1.3,2,1.7,3.1
		c0.7,1.8,1.2,3.6,2,5.3c0.8,1.6,0.3,2.8-0.8,4c0.4,1.4,0.3,7.2-0.2,8.8C165.7,40,163.5,36.9,162.6,32.5 M174.1,45.8
		c2.9,0.3,5.2-1.2,7.6-2.4c2.8-1.3,5.5-3,8.4-4.3c2.1-0.9,3.6-2.4,5.1-4c0.7-0.8,1.6-1.4,2.4-2.1c1.8-1.9,2.8-4.3,3.6-6.8
		c0.7-2.2,2-4,3.5-5.8c0.7-0.8,1.2-1.7,1.8-2.5c-1.3-1.1-2.8-1.2-4.2-0.4c-0.5,0.3-1,0.6-1.4,1c-2.4,2.4-5.2,3.9-8.2,5.3
		c-3.2,1.5-6.4,2.8-10.1,4.4c0.2-1.3,0.3-2.1,0.5-2.9c0.6-2.8,1.1-5.6,1.8-8.4c0.5-2.2,1.3-4.3,1.9-6.5c0.3-0.9,0.4-1.8,0.6-2.7
		c-1-0.7-1.6-0.2-2.2,0.3c-1.8,1.7-3.4,3.7-4.8,5.7c-1.6,2.4-3.4,4.7-5.1,7c-0.5,0.7-0.9,1.4-1.3,2.1c-0.2,0.3-0.5,0.5-1,1.1
		c0.2-3.1,1.7-5.4,2.1-7.9c0.4-2.5,1.8-4.8,1.5-7.5c-1.5,3.5-2.5,7.1-3.7,10.7c-0.7-3-0.4-6.1-1.1-9.1c0,0.7-0.1,1.3-0.1,2
		c0,3.4,0.1,6.8,0,10.2c0,1-0.3,2.1-0.6,3.1c0,0.1-0.2,0.3-0.5,0.5c-0.2-0.5-0.4-0.9-0.4-1.3c-0.2-1.7-0.2-3.5-0.5-5.2
		c-0.3-1.6-0.2-3.3-1.3-4.7c-0.4-0.5,0-1.6-0.1-2.4c-0.1-0.6-0.4-1.1-0.9-1.5c0.1,1.3-0.2,2.9,0.4,3.9c0.7,1.3,0.2,2.6,0.5,3.9
		c0.4,1.3,0.3,2.7,0.5,4c-0.1,0-0.3,0.1-0.4,0.1c-0.2-0.2-0.5-0.5-0.6-0.7c-1.3-2.3-2.3-4.7-3-7.3c-0.9-3.1-2.2-6.1-3.3-9.1
		c-1.9,0-2.5,0.5-2.5,2.1c0,1.7-0.1,3.4,0,5.1c0.1,3.2,0.1,6.4,0.4,9.6c0.2,2,0.8,4.1,1.2,6.1c0.1,0.6,0.2,1.2,0.3,1.9
		c-1.6-0.2-2.4-1.1-3.2-1.9c-3.2-3.3-6-6.9-7.9-11.1c-0.1-0.2-0.2-0.4-0.3-0.7c-0.3-0.6-0.7-1.3-1.4-0.9c-0.4,0.2-0.9,1-0.8,1.5
		c0.2,4.6,0.6,9.1,2.7,13.3c1.5,3.1,3.4,5.8,5.6,8.4c1.2,1.4,2.8,2.3,4.1,3.5c2,2.1,4.7,2.7,7.3,3.7c1.8,0.7,3.7,0,5.6-0.3
		c0.5-0.1,1-0.2,1.5-0.2c0.1-0.3,0.3-0.6,0.2-0.9c-0.7-2.1,0-4,1-5.8c-0.4,0-0.8,0.1-1.2,0.1c-0.5-2.2-0.5-2.5,0.8-3.9
		c1.5-1.6,3.2-3,4.8-4.4c0.2-0.2,0.6-0.1,0.9-0.1c0.1,0.3,0.2,0.6,0.2,0.8c-0.6,2.4-1.2,4.8-3.8,5.9c-0.8,0.4-1.5,0.9-1.9,1.7
		c1.4-0.7,3.1-1.2,4-2.3c1.3-1.5,2.6-3.2,2.8-5.4c0.1-1.2,0.7-2,1.9-2.4c1.6-0.6,3.2-1.1,4.7-1.8c2.9-1.4,6-2.3,8.6-4.3
		c1.7-1.3,3.4-2.5,5.2-3.7c0.6-0.4,1.2-0.8,1.8-1.1c0.3-0.1,0.6-0.1,0.9-0.1c0.1,0.1,0.2,0.2,0.2,0.3c-2.8,1.7-3.7,4.5-4.7,7.3
		c-0.5,1.4-1.3,2.8-2.2,4.1c-1.9,2.8-4.5,5-7.1,7.2c-1.3,1.1-2.8,1.8-4.3,2.6c-2.1,1.1-4.3,1.9-6.5,2.9c-1.8,0.8-3.3,2.1-5.3,2.4
		C174.7,45.2,174.4,45.6,174.1,45.8"/>
	<path class="st0" d="M169,114.4c0.5-0.1,0.9-0.3,1-0.9c0.1-0.5,0.3-1.1,0.4-1.6c2.6-0.4,5.1,0.2,7.6,0.4c1.1,0.1,2.3,0.3,3.4,0.3
		c0.5,0,1.1-0.3,1.6-0.7c-2-1.1-4.1-0.5-6.1-0.8c-2.1-0.3-4.1-0.6-6.2-0.9c0-0.1-0.2-0.2-0.2-0.2c0-4.3-0.3-8.7,0.1-13
		c0.5-4.7-0.1-9.4-0.2-14c0-2.7-0.1-5.5-0.1-8.2c0-0.9-0.1-1.7-0.2-2.6c-0.1-1.3,0.2-1.7,1.4-1.5c2,0.3,4.1,0.6,5.8,1.9
		c0.2-1,0.2-1-0.3-2.6c-1.7-0.4-3.6-0.8-5.5-1.2c-1.1-0.2-1.4-0.5-1.3-1.6c0.2-2.8,0.6-5.6,0.9-8.3c0.3-3.6,0.6-7.3,0.9-10.9
		c0-0.3-0.1-0.6-0.1-0.9c-1.1-0.1-1.2,0.6-1.3,1.3c-0.3,2.1-0.5,4.2-0.8,6.4c-0.2,1.4-1.1,1.9-2.4,1.3c-1.5-0.6-3-1.4-4.5-2
		c-0.8-0.3-0.9-0.3-1.4,1c2.1,1.1,4.2,2.1,6.4,3.2c1.4,0.7,1.4,0.8,1.3,2.3c-0.1,1.9-0.1,3.9-0.3,5.8c-0.1,1.2-0.9,2.5-0.6,3.6
		c0.2,1.2,0.3,2.5,0.4,3.7c0.4,4,0,8,0.7,12c0.3,1.8,0.1,3.6,0.1,5.9c-0.8-0.6-1.2-1-1.6-1.3c-2.1-1.5-4.3-2.9-6.4-4.3
		c-0.5-0.3-1.1-0.4-1.5,0.2c-0.4,0.7,0.1,1,0.6,1.4c2.6,1.9,5.1,3.9,7.8,5.7c0.7,0.5,1,1,0.9,1.9c-0.1,4.1-0.1,8.2-0.2,12.2
		c0,0.4,0,0.8,0.1,1.1c0.4,1.1,0.1,1.9-1,2.4C169.2,111.9,168.8,113.2,169,114.4L169,114.4"/>
	<path class="st0" d="M169.5,153c0-1.8,0-1.8-1.5-2.2c-0.3-0.1-0.7-0.3-1.1-0.5c0.2-1.7,0.5-3.3,0.6-4.9c0.2-2.4,0.4-4.8,0.4-7.1
		c0-2.2-0.1-4.4-0.3-6.5c-0.3-2.5,0.2-5,0.4-7.4c0.1-2,0-4-0.1-6.1c-0.4,2-1.2,4-1.2,6.1c-0.1,5.5-0.1,11-0.4,16.5
		c-0.1,2.6-0.6,5.2-0.9,7.9c-0.3,2.6-0.5,5.2-0.9,7.8c-0.1,1-0.4,2.1-0.7,3.1c-0.8,2.8-1.2,5.6-1.1,8.5c0,0.8-0.3,1.7-0.5,2.8
		c-0.1,0-0.4,0.2-0.7,0.5c-0.6-0.5-1.2-1.1-1.8-1.6c-1-0.9-2.1-1.8-3.2-2.6c-0.5-0.4-1.1-0.3-1.5,0.5c0.7,0.7,1.5,1.4,2.3,2.1
		c0.8,0.8,1.7,1.3,2.3,2.4c0.4,0.8,1.5,1.3,2.4,1.7c0.6,0.3,1.2-0.2,1.1-1c-0.2-1.7,0-3.4,0.4-5.1c0.6-2.7,1-5.4,1.6-8.1
		c0.5-2.4,1.1-4.9,1.6-7.3c0-0.1,0.2-0.1,0.5-0.2c0.1,1.6,1.4,1.9,2.6,2.3c1.5,0.5,3,1,4.5,1.4c0.3,0.1,0.8,0.1,1.1,0.1
		c0.3-0.1,0.6-0.4,0.6-0.6c0-0.3-0.1-0.8-0.3-1c-0.5-0.3-1.2-0.5-1.8-0.6C172.6,153.6,171.1,153.3,169.5,153"/>
	<path class="st0" d="M156.3,125.4c0.9,0.9,1.5,1.5,2.1,2.1c1.8,1.8,3.5,3.6,5.3,5.4c0.6,0.6,1.1,0.9,1.8,0.3
		c-0.1-1.7-0.4-2-6.6-7.3C158.1,125.3,157.9,125.3,156.3,125.4"/>
	<path class="st0" d="M161.5,189.8c0.5,1,1,1.3,1.8,0.9c2.1-1,4.2-1.9,6.3-3c0.2-0.1,0.3-0.6,0.5-0.8c-0.3-0.1-0.7-0.4-0.9-0.4
		c-1.2,0.4-2.4,0.8-3.5,1.3C164.2,188.4,162.9,189.1,161.5,189.8"/>
	<path class="st0" d="M107.3,267.4c0.7,0.5,1.3,1,1.9,1.5c0.1,0,0.2-0.1,0.5-0.2c-0.3-2.3-1.3-4.4-2.4-6.5c-0.2-0.4-0.8-0.7-1.3-1
		c-0.7,0.8-0.3,1.4,0,2C107.2,265.3,107.2,265.3,107.3,267.4"/>
	<path class="st0" d="M8.4,350.4c-0.2,0-0.4,0-0.5,0.1c-1.1,1.1-2,2.3-2.6,3.9C6.3,353.9,7.6,352.1,8.4,350.4
		C8.4,350.3,8.4,350.4,8.4,350.4"/>
	<path class="st0" d="M169,114.4L169,114.4c-0.3-0.2-0.6-0.3-0.7,0.3c-0.1,0.8-0.1,1.6-0.1,2.3C169.3,116.8,169.6,116.1,169,114.4"
		/>
	<path class="st0" d="M4.3,358c-0.2,0.7-0.5,1.4-0.8,2.4C4.6,359.4,4.6,359.4,4.3,358L4.3,358z"/>
	<path class="st0" d="M167.7,8.9c0,0.2-0.1,0.3-0.1,0.5c0,0.1,0.1,0.1,0.2,0.2c0.1-0.1,0.2-0.3,0.2-0.4C168,9.1,167.8,9,167.7,8.9"
		/>
	<path class="st0" d="M4.4,356.3c1,0.3,0.6-0.6,0.5-1.1C4.8,355.6,4.6,355.9,4.4,356.3C4.5,356.3,4.4,356.3,4.4,356.3"/>
	<path class="st0" d="M4.2,358c1.2-0.4,0.4-1.1,0.2-1.7c0,0,0,0,0,0C4.4,356.9,4.3,357.4,4.2,358L4.2,358"/>
</g>
</svg>
