<?xml version="1.0" encoding="utf-8"?>
<!-- Generator: Adobe Illustrator 19.1.1, SVG Export Plug-In . SVG Version: 6.00 Build 0)  -->
<svg version="1.1" id="Layer_1" xmlns="http://www.w3.org/2000/svg" xmlns:xlink="http://www.w3.org/1999/xlink" x="0px" y="0px"
	 viewBox="0 0 106 38" style="enable-background:new 0 0 106 38;" xml:space="preserve">
<style type="text/css">
	.st0{clip-path:url(#SVGID_2_);fill:#FFFFFF;stroke:#FFFFFF;stroke-miterlimit:10;}
	.st1{clip-path:url(#SVGID_2_);fill:#FFFFFF;}
	.st2{clip-path:url(#SVGID_4_);fill:#00819F;}
</style>
<g>
	<defs>
		<rect id="SVGID_3_" x="9.6" y="10.2" width="86" height="23.3"/>
	</defs>
	<clipPath id="SVGID_2_">
		<use xlink:href="#SVGID_3_"  style="overflow:visible;"/>
	</clipPath>
	<path style="clip-path:url(#SVGID_2_);fill:#00819F;" d="M14.8,14.4c0.4-0.3,0.7,0.3,0.3,0.6c-0.5,0.3-0.9,0.7-1.3,1.1
		c2.9,1.1,5.8,4,5.5,7.3c-0.4,3.8-4.8,3.2-7,1.5c-0.4-0.3,0-0.9,0.3-0.6c1.1,0.8,2.3,1.5,3.7,1.2c2.1-0.4,2.6-2.4,2-4.2
		c-0.7-2.3-2.8-4-5-4.8c0,0,0,0,0,0c-1.8,2-3,4.6-3.1,7.4c-0.1,1.7,0.2,3.6,1.2,5c1.7,2.4,4.6,1.5,6.7,0.3c3.5-2,6.8-5.7,5-9.9
		c-1.6-3.7-5.8-7.5-10.1-6.3c-0.4,0.1-0.6-0.5-0.2-0.7c4.6-1.3,9.2,2.7,11,6.8c2,4.7-1.8,8.9-5.8,11c-1.7,0.9-3.9,1.7-5.7,0.6
		c-1.7-1-2.4-3-2.7-4.8C9,21.5,11.2,17,14.8,14.4"/>
	<path style="clip-path:url(#SVGID_2_);fill:#00819F;" d="M28.6,26.4c-0.3-1.2-0.5-2.5-0.7-3.8c-0.2-1.2-0.1-3.4-0.8-4.4
		c0.3,0.4,0.9,0,0.6-0.3c0,0-0.1-0.1-0.1-0.1c-0.1-0.1-0.2-0.2-0.4-0.2c-0.1,0-0.1,0-0.2,0c-0.1,0-0.2,0.1-0.2,0.2
		c-0.3,1.2,0.1,2.5,0.3,3.7c0.2,1.7,0.5,3.4,0.9,5C28.1,27,28.7,26.8,28.6,26.4"/>
	<path style="clip-path:url(#SVGID_2_);fill:#00819F;" d="M40.9,25.1c-1.4-1.6,0.7-3.8-0.5-5.1c-0.5-0.6-1.8-0.2-2.3,0.1
		c-1.1,0.6-0.3,1.5-0.7,2.6c-0.3,0.7-0.7,1.1-1.4,0.6c0.2-0.4,0.4-0.8,0.5-1.3c0.4-1.9-1.9-2.3-2.2-0.5c-0.1,0.5,0.2,1.3,0.6,1.9
		c-0.9,0.7-2.2,0.3-3.2-0.3c0.7-1.4,1.3-2.8,1.9-4.2c0.2-0.4-0.4-0.8-0.6-0.3c-0.5,1.2-1,2.3-1.6,3.4v-3.4c0-0.4-0.7-0.4-0.7,0v7.7
		c0,0.4,0.7,0.4,0.7,0v-2.6c1.4,0.8,2.9,1.1,3.9,0.3c0.6,0.6,1.3,0.9,2,0.4c0.5-0.4,0.6-1.4,0.7-1.9c0-0.3-0.1-0.9,0-1.1
		c0.5-1.4,1.6-0.2,1.7,0.9c0,1.4-0.4,2.3,0.6,3.4C40.7,25.9,41.2,25.4,40.9,25.1"/>
	<path style="clip-path:url(#SVGID_2_);fill:#00819F;" d="M48.5,20.5c0-0.4-0.6-0.5-0.7-0.1c0,0,0,0.1,0,0.1c0,0,0,0,0,0
		c0,0,0,0,0,0c-0.1,0.4-0.1,1.2-0.3,1.5c0,0.5-0.3,0.5-0.7,0c-0.7-0.1-0.9-0.5-0.7-1.2c0-0.4-0.7-0.4-0.7,0c0,0.9,0.4,2.7,1.5,2.9
		c0.4,0.1,0.7-0.2,0.9-0.5c0,3.3-0.3,6.7-1,9.9c-0.1,0.4,0.6,0.6,0.7,0.2C48.4,29,48.7,24.8,48.5,20.5"/>
	<path style="clip-path:url(#SVGID_2_);fill:#00819F;" d="M55.1,12.1c-0.2,1.1-0.6,2.2-1.2,3.2C54.2,14.2,54.6,13.1,55.1,12.1
		 M53.5,17.8c1-2.4,2.7-4.5,2.4-7.3c0-0.3-0.5-0.5-0.6-0.2c-1.2,2.3-2,4.7-2.4,7.2c-0.1,0.2-0.1,0.3-0.2,0.5c-0.1,0.2,0,0.3,0.1,0.4
		c-0.2,2.1-0.4,5.3,1.2,6.9c0.3,0.3,0.8-0.2,0.5-0.5C52.9,23.4,53.2,20,53.5,17.8"/>
	<path style="clip-path:url(#SVGID_2_);fill:#00819F;" d="M66.7,22.4c-0.1,0.2-0.1,0.3-0.2,0.5c-0.6-0.5-0.9-1.2-0.9-2.1
		c0-0.4-0.6-0.5-0.7-0.1c-0.2,0.7-1.1,2.4-1.4,0.8c-0.1-0.5,0.7-1.5,1-1.9c0.1-0.2,0-0.5-0.3-0.5c-1,0-2,0.4-2.6,1.2
		c-0.8,1-0.4,2.1-0.6,3.2c-0.6-1.7-0.9-3.5-1.2-5.3c0-0.4,0-0.7,0-1.1c0.4,0,0.8-0.1,1.2-0.1c0.4-0.1,0.3-0.7-0.2-0.7
		c-0.3,0-0.7,0.1-1,0.1c0-0.9-0.1-1.8-0.2-2.6c0-0.4-0.7-0.5-0.7,0c0,0.9,0,1.8,0,2.7c-0.7,0-1.3,0-2,0c-0.4,0-0.4,0.7,0,0.7
		c0.7,0,1.4,0,2,0c0,0.4,0.1,0.7,0.1,1.1c0,0.1,0,0.1,0,0.2c0,1.5,0,3.2-0.7,4.6c-0.3-0.6-0.5-1.2-0.7-1.8c-0.1-0.3-0.5-0.4-0.6-0.1
		c-0.3,0.6-0.6,1.1-1,1.5c0-0.5,0-1.1,0.2-1.4c0.4-0.6,1.2-0.8,1.8-0.7c0.4,0.1,0.6-0.6,0.2-0.7c-0.9-0.1-1.5-0.7-2.2,0.2
		c-0.7,0.8-0.7,2.3-0.6,3.3c0,0.3,0.3,0.4,0.6,0.2c0.5-0.4,0.9-0.9,1.3-1.4c0.2,0.6,0.5,1.1,0.8,1.7c0.1,0.2,0.4,0.2,0.6,0
		c0.5-0.8,0.7-1.8,0.9-2.7c0.3,1.2,0.6,2.4,1,3.5c0.1,0.3,0.5,0.4,0.6,0.1c0.4-0.6,0.4-1.1,0.3-1.8c-0.1-1.5,0.5-2.8,1.9-3.1
		c-0.6,1.1-1.6,3-0.5,3.7c0.9,0.5,1.6-0.5,2.1-1.4c0.2,0.6,0.7,1.2,1.3,1.6c0.2,0.1,0.4,0,0.5-0.2c0.1-0.3,0.2-0.6,0.4-0.9
		C67.6,22.2,66.9,22,66.7,22.4"/>
	<path style="clip-path:url(#SVGID_2_);fill:#00819F;" d="M66.7,16.3c-0.4,0-0.4,0.7,0,0.7C67.2,17,67.2,16.3,66.7,16.3"/>
	<path style="clip-path:url(#SVGID_2_);fill:#00819F;" d="M75.2,15.8c-0.9-1.8-3.5,0.5-1.5,2.1c0.3,0.3,0.8-0.2,0.5-0.5
		c0.2,0.2,0.3-1.5,0.4-0.1c0,0.5-0.1,1.1-0.1,1.6c-0.1,1.1-0.3,2.1-0.5,3.2c-0.1,0.4-0.4,2.4-0.9,2.7c-0.4,0.2-1-0.3-1.2-0.6
		c-0.3-0.4-0.5-1.1-0.6-1.6c-0.5-1.8-0.7-3.7-0.6-5.5c0-1,0.2-2,0.3-2.9c0-0.2,0.6-4.1,1.6-2.9c0.3,0.3,0.8-0.2,0.5-0.5
		c-2.3-2.6-2.9,4.4-3,5.4c-0.3,3.1-0.3,7.8,2.6,9.8c0.1,0.1,0.3,0,0.4-0.1c1.3-1.2,1.6-3.2,1.9-4.9C75.1,19.7,75.8,17.1,75.2,15.8"
		/>
	<path style="clip-path:url(#SVGID_2_);fill:#00819F;" d="M77.9,16.1c0-0.3,0.1-0.6,0.3-0.7c0.2-0.2,0.4-0.2,0.6,0
		c-0.1,0.7-0.4,1.4-0.9,1.9c0-0.2,0-0.4,0-0.6C77.9,16.5,77.9,16.3,77.9,16.1 M95.5,17.8c-0.7-2-2.6-0.6-3.9-0.1
		c0-0.2,0.1-0.4,0.2-0.6c0.7-0.3,1.3-0.8,1.7-1.6c0.1-0.3-0.1-0.6-0.4-0.5c-0.9,0.2-1.5,0.8-1.8,1.5c-0.9,0.3-1.8,0-2.6-0.7
		c-0.2-0.2-0.5-0.1-0.6,0.2c-0.1,0.3-0.1,0.6-0.2,0.9c-1.8,1.2-2.7,1.1-2.9-0.4c-0.2-1,0-2.2,0.2-3.2c0.1-0.4-0.4-0.6-0.6-0.3
		c-0.9,1.7-1.6,3.5-2,5.4c-0.2-0.5-0.4-0.9-0.7-1.4c-0.1-0.2-0.5-0.2-0.6,0c-0.2,0.4-0.5,0.8-0.7,1.2c-0.4-0.7-0.7-1.4-0.7-2.2
		c0-0.1-0.1-0.3-0.2-0.3c0,0,0,0,0,0c0-0.1,0-0.1,0-0.2c0-0.1,0-0.1-0.1-0.1c0,0,0,0,0-0.1c0-0.2-0.2-0.3-0.3-0.3
		c-0.4-0.3-1-0.3-1.4,0c-0.2,0.1-0.3,0.3-0.4,0.5c-0.1,0-0.2,0-0.3,0.2c-0.3,0.8-1.1,3.4,0.3,3.7c0.7,0.2,1.3-0.9,1.8-1.8
		c0.1,0.7,0.2,1.3,0.2,2c0.1,0.4,0.7,0.4,0.7,0c0-0.3-0.1-0.6-0.1-0.9c0.1,0.1,0.2,0.3,0.3,0.4c0.1,0.2,0.4,0.3,0.5,0.1
		c0.3-0.4,0.5-0.8,0.8-1.2c0.4,0.7,0.6,1.3,0.7,2.1c0.1,0.3,0.6,0.3,0.7,0c0.3-1.6,0.7-3.2,1.3-4.7c-0.1,1.5,0.2,3,1.5,3.6
		c1.6,0.7,2.5-0.8,2.9-2.1c0.7,0.6,1.5,0.8,2.3,0.7c-0.1,0.3-0.1,0.5-0.2,0.8c-0.1,0.3,0.2,0.5,0.4,0.4c0.7-0.1,3.2-1.6,3.6-0.6
		C95,18.4,95.7,18.3,95.5,17.8"/>
	<path style="clip-path:url(#SVGID_2_);fill:#00819F;" d="M88.8,12.6c-0.3-0.3-0.9-0.3-1.2,0c-0.3,0.4-0.1,0.9,0.3,1.1
		c0.3,0.2,0.6-0.2,0.5-0.4c0.2,0,0.4-0.1,0.5-0.4C88.9,12.8,88.8,12.7,88.8,12.6"/>
</g>
</svg>
