<?xml version="1.0" encoding="utf-8"?>
<!-- Generator: Adobe Illustrator 19.1.1, SVG Export Plug-In . SVG Version: 6.00 Build 0)  -->
<svg version="1.1" id="Layer_1" xmlns="http://www.w3.org/2000/svg" xmlns:xlink="http://www.w3.org/1999/xlink" x="0px" y="0px"
	 viewBox="0 0 31.3 68.7" style="enable-background:new 0 0 31.3 68.7;" xml:space="preserve">
<style type="text/css">
	.st0{clip-path:url(#SVGID_2_);fill:#CB355B;}
	.st1{clip-path:url(#SVGID_4_);fill:#CB355B;}
	.st2{clip-path:url(#SVGID_6_);fill:#CB355B;}
	.st3{clip-path:url(#SVGID_8_);fill:#CB355B;}
	.st4{clip-path:url(#SVGID_10_);fill:#CB355B;}
	.st5{clip-path:url(#SVGID_12_);fill:#FFFFFF;}
	.st6{clip-path:url(#SVGID_14_);fill:#FFFFFF;}
	.st7{clip-path:url(#SVGID_16_);fill:#FFFFFF;}
	.st8{clip-path:url(#SVGID_18_);fill:#FFFFFF;}
	.st9{clip-path:url(#SVGID_20_);fill:#00819F;}
	.st10{clip-path:url(#SVGID_22_);}
	.st11{clip-path:url(#SVGID_24_);fill:#1D0C06;}
</style>
<g>
	<defs>
		<rect id="SVGID_23_" x="4" y="5.1" width="23.6" height="60"/>
	</defs>
	<clipPath id="SVGID_2_">
		<use xlink:href="#SVGID_23_"  style="overflow:visible;"/>
	</clipPath>
	<path style="clip-path:url(#SVGID_2_);fill:#1D0C06;" d="M13.7,5.1c0.1,0.2,0.4,0.4,0.4,0.6c0.2,1.5,0.4,3,0.5,4.5
		c0.1,2.2,0.1,4.5,0.2,6.7c0,1,0.1,2.1,0.1,3.1c0.2,3.1,0.3,6.3,0.4,9.4c0.1,2,0,4,0.1,6c0,1.2,0.2,2.3,0.3,3.5c0,0.4,0.1,0.9,0,1.4
		c-0.2,1.5,0.4,2.9,0.3,4.4c-0.1,1.3-0.1,2.6-0.2,3.9c0,0.3,0.1,0.7,0.1,1c0.1,0,0.2,0,0.3,0c0.1-2.8,0.2-5.6,0.4-8.4
		c0.1-1.8,0.2-3.7,0.2-5.5c0-1.8-0.1-3.5-0.2-5.3c-0.1-2-0.1-4-0.2-6c-0.1-1.7-0.1-3.5-0.3-5.2c-0.1-1.9-0.3-3.8-0.5-5.7
		c-0.1-1-0.2-1.9-0.3-2.9c0-0.5,0.2-1,0.1-1.4c-0.2-1.4-0.2-1.5,1.5-1.7c0,0.6,0,1.1,0,1.7c-0.2,2.1,0.2,4.1,0.2,6.1
		c0,2.2,0.6,4.3,0.6,6.5c0,2,0.2,4,0.2,6c0.1,3.6,0.2,7.2,0.1,10.7c0,3-0.2,6-0.4,9.1c1.4-2,2.7-4.1,4.1-6.1c0.6-0.9,1.3-1.9,2-2.8
		c0.1-0.1,0.5-0.1,0.7,0c0.2,0.1,0.4,0.3,0.4,0.3c0.6-0.4,1.1-0.9,1.7-1.1c0.2-0.1,0.7,0,0.8,0.2c0.1,0.2,0.1,0.6,0,0.8
		c-1,1.4-2.1,2.7-3.2,4.1c-0.8,1-1.5,2-2.2,3c0,0,0.1,0,0.2,0c0.3,0,0.6-0.1,0.9-0.1c0,0.4,0.3,0.9,0.1,1.2
		c-0.5,1.2-1.2,2.3-1.8,3.6c-1.5,3.2-2.9,6.4-4.3,9.6c-0.5,1.2-1,2.5-1.5,3.7c-0.2,0.4-0.6,0.8-1,1.2c-1.4-1.4,0-2.8-0.3-4.1
		c-1.2-0.4-1.1-0.3-0.8-1.5c0.1-0.4,0-1-0.3-1.4c-0.7-1.1-1.4-2.3-2.3-3.2c-1-1-1.4-2.2-2.5-3.1c-0.5,0.3-1.1-0.1-1.3-1
		c-0.1-0.5-0.3-1.1-0.5-1.6c-0.1,0.1-0.2,0.1-0.2,0.2c-0.3-0.2-0.7-0.3-1-0.6c-0.1-0.1-0.1-0.5-0.1-0.7c-0.3-0.9-1.6-1.3-1.3-2.6
		C4.2,45.3,4,45.1,4,45c0-0.2,0.1-0.5,0.2-0.6c0.1-0.1,0.5-0.1,0.6,0c0.7,0.4,1.3,0.8,1.9,1.3c1.3,1,2.7,2,4,3.1
		c0.3,0.2,0.3,0.7,0.6,1c0.5,0.6,1,1.1,1.5,1.6c0.7,0.8,1.7,1.4,2.1,2.5c0,0.1,0.2,0.1,0.3,0.1c0.2-0.4,0.4-0.8,0.6-1.2
		c0.1-0.2,0.1-0.4,0.1-0.5c-1.1-1-0.6-2.3-0.7-3.4c0-0.2,0-0.5-0.3-0.7c0,0.5,0,1-0.1,1.4c-0.1,0.4-0.4,0.9-0.7,0.9
		c-0.6,0.1-0.6-0.4-0.8-0.9c-0.6-1.6,0.1-3.2,0-4.8c0-0.9,0.3-1.8,0.4-2.7c0-0.3-0.2-0.5-0.2-0.8c0-2.7,0-5.3,0-8c0-2.1,0-4.3,0-6.4
		c-0.1-2.8-0.2-5.5-0.3-8.3c0-0.2,0-0.4-0.1-0.5c-0.5-0.7-0.6-1.3-0.5-2.6c0.1,0.4,0.2,0.6,0.2,0.8c0,0.2,0.1,0.4,0.1,0.6
		c0.1,0,0.2,0,0.3,0c0-0.7,0-1.4,0-2.1c-0.1-1.7-0.2-3.4-0.3-5.1C13,8.3,13,7.2,13,6c0-0.3,0.1-0.6,0.2-0.9H13.7z M8,47.5
		c-0.1,0.3-0.2,0.5-0.1,0.6c0.4,0.4,0.8,0.7,1.2,1.2c0.4,0.4,0.7,0.9,1.1,1.4c0.3,0.4,0.5,1,0.9,1.4c0.4,0.4,0.9,0.8,1.3,1.2
		c0.4,0.4,0.8,0.8,1.3,1.4c0-0.5,0.2-0.8,0.1-0.9c-0.6-0.7-1.3-1.4-1.8-2.2C11,49.9,9.4,48.9,8,47.5 M18,54.2c0.1,0,0.2,0.1,0.3,0.1
		c1.3-2.6,2.5-5.2,3.8-7.8C20.1,48.8,19,51.5,18,54.2 M12.8,54.9c-0.1,0.1-0.2,0.2-0.2,0.2c0.7,0.5,1.4,0.9,2.1,1.4
		c-0.1-0.1-0.1-0.6-0.3-0.7C14,55.4,13.4,55.2,12.8,54.9 M23.5,41.8l0.3,0.3c0.5-0.4,1-0.9,1.4-1.3c-0.1-0.1-0.1-0.2-0.2-0.3
		C24.4,41,23.9,41.4,23.5,41.8"/>
</g>
</svg>
