<?xml version="1.0" encoding="utf-8"?>
<!-- Generator: Adobe Illustrator 19.1.1, SVG Export Plug-In . SVG Version: 6.00 Build 0)  -->
<svg version="1.1" id="Layer_1" xmlns="http://www.w3.org/2000/svg" xmlns:xlink="http://www.w3.org/1999/xlink" x="0px" y="0px"
	 viewBox="0 0 57.2 44.2" style="enable-background:new 0 0 57.2 44.2;" xml:space="preserve">
<style type="text/css">
	.st0{clip-path:url(#SVGID_2_);fill:#CB355B;}
	.st1{clip-path:url(#SVGID_4_);fill:#CB355B;}
	.st2{clip-path:url(#SVGID_6_);fill:#CB355B;}
	.st3{clip-path:url(#SVGID_8_);fill:#CB355B;}
	.st4{clip-path:url(#SVGID_10_);fill:#CB355B;}
	.st5{clip-path:url(#SVGID_12_);fill:#FFFFFF;}
	.st6{clip-path:url(#SVGID_14_);fill:#FFFFFF;}
	.st7{clip-path:url(#SVGID_16_);fill:#FFFFFF;}
	.st8{clip-path:url(#SVGID_18_);fill:#FFFFFF;}
	.st9{clip-path:url(#SVGID_20_);fill:#00819F;}
	.st10{clip-path:url(#SVGID_22_);}
	.st11{clip-path:url(#SVGID_24_);fill:#1D0C06;}
</style>
<g>
	<defs>
		<rect id="SVGID_3_" x="8.5" y="7.4" width="43.6" height="31"/>
	</defs>
	<clipPath id="SVGID_2_">
		<use xlink:href="#SVGID_3_"  style="overflow:visible;"/>
	</clipPath>
	<path class="st0" d="M47.6,34.9c-0.2,0-0.4,0-0.5,0c0.5-3.4,0.7-6.9,0.8-10.3C47.9,28.1,47.8,31.5,47.6,34.9 M47.5,36.3
		c-0.2,0-0.4,0-0.7,0c0.1-0.3,0.1-0.6,0.2-0.9c0.2,0,0.4,0,0.6,0C47.6,35.7,47.5,36,47.5,36.3 M47.5,22.9c0,2.7-0.1,5.3-0.4,8
		C47.3,28.2,47.4,25.6,47.5,22.9 M46.4,35c-6.9,0.4-13.7,1-20.5,1.8c-1.9-0.3-3.9-0.6-5.8-0.8c-3.3-0.4-6.5-0.6-9.8-0.5
		c0-0.8,0-1.6,0-2.4c0-0.2-0.2-0.2-0.3-0.2c0-0.5-0.1-0.9-0.1-1.4c1.4-6.4,1.6-13.1,0.5-19.6c0-0.2-0.4-0.2-0.4,0.1
		c-0.1,0.6-0.1,1.1-0.1,1.7c-0.1-0.9-0.2-1.8-0.3-2.8c0.9,0.6,1.8,1.2,2.6,1.7c2.2,2.4,4.6,4.7,7.3,6.5c0.2,0.2,0.4,0.4,0.6,0.5
		c1.8,1.6,3.6,3.1,5.4,4.6c0.9,0.7,2.5,1.6,3.2,0.2c0.1-0.2-0.1-0.4-0.2-0.3c0,0-0.1,0-0.1,0c0.1,0,0.1-0.1,0.2-0.1
		c0.8,0.5,1.6,0.6,2-0.3c0.2-0.4,0.2-0.7,0-0.9c2.9-1.6,6.2-2.6,9-4.4c2.9-1.8,5.6-4,7.8-6.6C47.3,19.6,47,27.3,46.4,35 M46.4,36.4
		c-4.3,0.3-8.5,0.5-12.8,0.7c-1.1,0.1-2.2,0.1-3.3,0.2c-0.9-0.1-1.7-0.1-2.5-0.2c6.2-0.7,12.5-1.2,18.7-1.6
		C46.4,35.7,46.4,36,46.4,36.4 M21.5,37.7c1.5-0.2,2.9-0.3,4.4-0.5c0.5,0.1,1,0.1,1.5,0.2C25.4,37.5,23.5,37.6,21.5,37.7 M9.8,29.7
		c0-0.3,0-0.6,0-1c0.4-4.1,0.5-8.2,0.2-12.2c0.1-0.9,0.1-1.8,0.2-2.7C10.9,19.1,10.8,24.5,9.8,29.7 M9.4,35.5
		c0.1-0.3,0.2-0.5,0.3-0.8c0,0.3,0,0.5,0.1,0.8C9.6,35.5,9.5,35.5,9.4,35.5 M9.4,9.9c0.2,0.2,0.5,0.4,0.7,0.7
		c-0.2-0.1-0.4-0.2-0.6-0.3C9.4,10.2,9.4,10,9.4,9.9 M14.6,13c-0.2-0.3-0.4-0.5-0.6-0.8c0.3,0.3,0.6,0.7,0.9,1
		C14.8,13.1,14.7,13,14.6,13 M18.2,15.8c1.1,0.7,2.2,1.5,3.1,2.4c-0.1-0.1-0.2-0.1-0.3-0.2c-0.7-0.4-1.4-0.9-2.2-1.3
		c-0.4-0.4-0.9-0.9-1.3-1.3C17.8,15.5,18,15.6,18.2,15.8 M22.4,20.5C22.4,20.5,22.4,20.5,22.4,20.5c-2.8-2-5.4-4.1-7.9-6.3
		c-0.4-0.4-0.8-0.7-1.2-1.1c0-0.1,0-0.1-0.1-0.2c-0.1-0.1-0.1-0.1-0.2-0.2c0.6,0.4,1.2,0.7,1.7,1.1c1.1,1.2,2.4,2.2,3.9,3.2
		C19.9,18.2,21.1,19.4,22.4,20.5 M22.3,19.3c0.3,0.4,0.6,0.9,0.8,1.3c-0.9-0.8-1.9-1.7-2.8-2.5C21,18.5,21.7,18.9,22.3,19.3
		 M25.7,21.7c0.3,0.2,0.9,0.9,1.5,1.5c0,0.1,0.1,0.3,0.2,0.3c0,0,0.1,0,0.1,0c0,0,0.1,0,0.1,0.1c-0.1,0.1,0,0.3,0.2,0.3
		c0,0,0.1,0,0.1,0c0,0,0.1,0,0.1,0c0,0,0,0,0.1,0c-0.3,0.2-0.6,0.4-0.9,0.7c-0.1,0.1-0.1,0.2,0,0.2c-1.5-0.3-3.7-2.7-4.4-3.3
		c-0.4-0.3-0.7-0.6-1.1-0.9c0.2,0.1,0.4,0.2,0.6,0.3c1,0.7,2,1.4,3,2.1c0.2,0.1,0.4-0.2,0.3-0.3c-0.5-0.4-1.1-0.9-1.6-1.3
		c-0.2-0.5-0.4-1-0.7-1.4C24.1,20.4,24.9,21,25.7,21.7 M28.2,23.5c0.1-0.1,0.2-0.2,0.4-0.3c0,0.1,0,0.3,0,0.4c0,0-0.1,0.1-0.1,0.1
		C28.4,23.6,28.3,23.5,28.2,23.5 M38.1,17.6c2.9-1.7,5.5-3.7,8-5.9c0.1-0.1,0.2-0.1,0.3-0.2c0,0,0,0,0,0c0,0.2,0.2,0.3,0.3,0.2
		c0.2-0.2,0.4-0.4,0.6-0.6c0,0.1,0,0.2,0,0.3c-2.5,2.8-5.4,5.3-8.6,7.2c-2.7,1.6-5.8,2.6-8.6,4.1c-0.2-0.1-0.4-0.1-0.6,0
		c0,0-0.1-0.1-0.1-0.1C32.1,20.5,35.3,19.3,38.1,17.6 M47.9,10C47.9,10,47.9,10,47.9,10c-0.1,0-0.1,0-0.1,0.1c0,0,0-0.1,0-0.1
		c0-0.2,0-0.4,0-0.7C47.8,9.5,47.9,9.8,47.9,10 M49.2,22.9c-0.1,2.6-0.4,5.1-0.8,7.6c-0.1,0.3-0.1,0.6-0.1,0.9
		c0.3-6.6,0.1-13.2-0.4-19.7c0,0,0,0,0,0c0-0.1,0-0.2,0-0.2c0.1-0.1,0.3-0.3,0.4-0.5C48.9,15,49.3,18.9,49.2,22.9 M49.1,34.9
		c-0.4,0-0.7,0-1.1,0.1c0.1-0.9,0.1-1.7,0.1-2.6C48.2,33.3,48.4,34.2,49.1,34.9 M18.2,9.5c-1.9,0.1-3.8,0.1-5.6-0.1
		C14.4,9.5,16.3,9.5,18.2,9.5 M16.6,8.8c3.8-0.3,7.6-0.4,11.5-0.4c2.8,0,5.7,0.1,8.5,0.3l-7.9,0.4c-1.8,0.1-3.7,0.2-5.5,0.2
		c-3.1-0.1-6.1-0.3-9.2-0.3C14.9,9,15.7,8.9,16.6,8.8 M41.4,8.5c-0.6,0-1.1,0.1-1.7,0.1c-0.5-0.1-1.1-0.1-1.6-0.1
		C39.2,8.4,40.3,8.5,41.4,8.5 M45,9.6C39.2,10,33.5,9.8,27.7,9.5c0.2,0,0.4,0,0.6,0c3.8-0.2,7.7-0.3,11.5-0.5
		C41.5,9.2,43.3,9.4,45,9.6 M51.9,35.9c-1.3,0.1-2.6,0.3-4,0.4c0-0.3,0-0.6,0.1-0.9c0.6,0,1.2-0.1,1.7-0.1c0.2,0,0.3-0.3,0.1-0.4
		c-2.3-1.3-1-4.8-0.7-6.9c0.3-2.3,0.5-4.6,0.4-6.9c0-3.5-0.4-7-1.1-10.4c0.1-0.1,0.1-0.1,0.2-0.2c0.1-0.2,0-0.4-0.2-0.3
		c0,0-0.1,0-0.1,0c-0.2-0.8-0.4-1.7-0.6-2.5c-0.1-0.2-0.4-0.2-0.4,0.1c0,0.8,0,1.6,0,2.4c0,0-0.1,0.1-0.1,0.1c0,0-0.1,0-0.1,0
		c-0.4,0.4-0.8,0.7-1.1,1c-0.1,0.1-0.2,0.1-0.4,0.2c-0.1,0-0.1,0.1-0.1,0.2c-2.6,2.3-5.4,4.3-8.3,6c-2.9,1.7-6.1,2.9-8.7,5
		c-0.4,0-0.7,0-1,0.2c-0.2-0.2-0.3-0.3-0.5-0.5c-0.6-0.6-1.3-1.2-2-1.7c-0.8-0.6-1.7-1.2-2.5-1.7c-0.9-1.2-2.1-2.1-3.3-3
		c-1-0.7-2-1.3-3-1.9c-1-1.1-2.1-2.2-3.1-3.4c-0.1-0.2-0.4,0-0.3,0.2c0.2,0.5,0.5,1,0.7,1.5c-1.2-0.9-2.4-1.8-3.5-2.7c0,0,0,0,0,0
		c2.9,0.6,5.8,0.5,8.8,0.4c1.4-0.1,2.9-0.1,4.3-0.2c7.9,0.4,15.8,0.9,23.7,0.2c0.2,0,0.3-0.4,0.1-0.4c-1.5-0.2-3-0.4-4.5-0.6
		c1.6-0.1,3.1-0.1,4.7-0.2c0.3,0,0.3-0.4,0-0.4C40.6,8,34,7.9,27.5,8c-3.6,0-7.2,0.1-10.7,0.4c-1.6,0.1-3.1,0.2-4.7,0.4
		c-0.1,0-0.1,0-0.2,0.1C11.3,9,10.7,9,10.1,9.1c-0.4,0-0.7,0-1.1,0c-0.1,0-0.2,0.1-0.2,0.3c0,0.2,0.1,0.4,0.1,0.7c0,0-0.1,0-0.1-0.1
		c-0.2-0.1-0.4,0.2-0.2,0.4c0.1,0.1,0.3,0.2,0.4,0.3c0.3,1.9,0.5,3.9,0.6,5.8c-0.3,4.1-0.3,8.2-0.2,12.3c-0.2,2.2-0.5,4.4-0.9,6.5
		c0,0.3,0.3,0.4,0.4,0.1c0.3-0.8,0.5-1.6,0.7-2.5c0,0.3,0,0.5,0,0.7c-0.3,0.6-0.5,1.3-0.8,1.9c0,0.1,0.1,0.3,0.2,0.3
		c0.2,0,0.5,0,0.7,0c0,0.5,0.1,1,0.1,1.6c0,0.3,0.4,0.3,0.4,0c0-0.5,0-1,0-1.6c3.3,0,6.6,0.1,9.8,0.5c1.4,0.2,2.8,0.4,4.2,0.6
		c-3,0.3-6.1,0.7-9.1,1.1c-0.3,0-0.3,0.4,0,0.4c5-0.3,10.1-0.5,15.1-0.8c0.1,0,0.2,0,0.2,0c5.2,0.3,10.6-0.2,15.8-0.7
		c0,0.1,0,0.1,0,0.2c0,0.2,0.4,0.3,0.4,0.1c0-0.1,0-0.2,0.1-0.3c0.2,0,0.5-0.1,0.7-0.1c0,0.2,0,0.4,0,0.7c0,0.3,0.4,0.3,0.4,0
		c0-0.2,0-0.5,0-0.7c1.3-0.2,2.7-0.3,4-0.5C52.2,36.3,52.2,35.8,51.9,35.9"/>
</g>
</svg>
