<?xml version="1.0" encoding="utf-8"?>
<!-- Generator: Adobe Illustrator 19.1.1, SVG Export Plug-In . SVG Version: 6.00 Build 0)  -->
<svg version="1.1" id="Layer_1" xmlns="http://www.w3.org/2000/svg" xmlns:xlink="http://www.w3.org/1999/xlink" x="0px" y="0px"
	 viewBox="0 0 26.3 24.3" style="enable-background:new 0 0 26.3 24.3;" xml:space="preserve">
<style type="text/css">
	.st0{clip-path:url(#SVGID_2_);fill:#CB355B;}
	.st1{clip-path:url(#SVGID_4_);fill:#CB355B;}
	.st2{clip-path:url(#SVGID_6_);fill:#CB355B;}
	.st3{clip-path:url(#SVGID_8_);fill:#CB355B;}
	.st4{clip-path:url(#SVGID_10_);fill:#CB355B;}
	.st5{clip-path:url(#SVGID_12_);fill:#FAF0E6;}
	.st6{clip-path:url(#SVGID_14_);fill:#FAF0E6;}
	.st7{clip-path:url(#SVGID_16_);fill:#FAF0E6;}
	.st8{clip-path:url(#SVGID_18_);fill:#FAF0E6;}
	.st9{clip-path:url(#SVGID_20_);fill:#00819F;}
	.st10{clip-path:url(#SVGID_22_);}
	.st11{clip-path:url(#SVGID_24_);fill:#1D0C06;}
</style>
<g>
	<defs>
		<rect id="SVGID_15_" x="8.4" y="2.9" width="9.5" height="18.5"/>
	</defs>
	<clipPath id="SVGID_2_">
		<use xlink:href="#SVGID_15_"  style="overflow:visible;"/>
	</clipPath>
	<path style="clip-path:url(#SVGID_2_);fill:#FAF0E6;" d="M14.1,18.3C14.1,18.3,14.1,18.3,14.1,18.3c0,0.4,0,0.7,0,1.1c0,0,0,0,0,0
		c0,0.2,0,0.4-0.1,0.6c0-0.1,0-0.2,0-0.3C14.1,19.3,14.1,18.8,14.1,18.3 M13.7,20.4c-0.1-0.6-0.2-1.3-0.2-1.9c0-0.3,0-0.6,0-1
		c0-0.1-0.1-0.1-0.1-0.1c0-0.8,0-1.5,0.1-2.3c0-0.3,0-0.5,0.1-0.8c0,0,0,0.1,0,0.1c0,0.3,0,0.6,0,0.8c0,0.1,0,0.1,0.1,0.1
		c0.1,0.7,0.2,1.3,0.3,2c0,0,0,0,0,0.1c0,0.8,0,1.5,0,2.3C13.8,20,13.7,20.2,13.7,20.4 M11.4,18.5c0-0.5,0-1,0-1.6
		c0,0.3,0,0.7,0.1,1C11.5,18.1,11.5,18.3,11.4,18.5 M12.6,6.5c0,0.1,0,0.1,0,0.2c0,0-0.1,0.1-0.1,0.1c0,0,0,0,0,0c0,0,0,0-0.1,0.1
		c-0.1,0.1,0,0.2,0.1,0.2c0,0,0,0.1,0,0.1c0,0.2-0.1,0.4-0.1,0.6c0-0.2-0.1-0.4-0.1-0.6c0-0.1-0.1-0.1-0.2-0.1c0,0,0-0.1,0-0.1
		C12.3,6.9,12.4,6.7,12.6,6.5 M12.3,6.4c0,0,0.1,0.1,0.1,0c-0.1,0.1-0.2,0.2-0.2,0.3C12.2,6.6,12.2,6.5,12.3,6.4 M12.7,8.4
		C12.7,8.4,12.7,8.4,12.7,8.4c-0.1-0.1-0.1-0.3-0.1-0.4C12.7,8.1,12.7,8.3,12.7,8.4 M12.9,7.4C12.9,7.4,12.9,7.4,12.9,7.4
		c0,0.1,0,0.1,0,0.1c0,0,0,0,0,0.1c0,0.1,0,0.3,0,0.4c0-0.1,0-0.3,0-0.4C12.8,7.5,12.9,7.4,12.9,7.4 M13.1,8.6
		C13.1,8.6,13.2,8.6,13.1,8.6l0.2,0.8c0,0.2,0,0.4,0,0.6c0,0,0,0.1,0,0.1c0,0-0.1,0-0.1,0c-0.1-0.4-0.1-0.9-0.2-1.3
		C13.1,8.7,13.1,8.7,13.1,8.6 M13.3,8l0.1-0.4c0,0.3,0.1,0.7,0.1,1c0,0.1,0.1,0.1,0.1,0.1c0,0.1,0,0.1,0,0.2c-0.1,0-0.1,0-0.1,0.1
		c0,0,0,0.1,0,0.1c-0.1-0.2-0.1-0.5-0.2-0.7L13.3,8z M13.3,6.6c0.3-0.2,0.5-0.4,0.8-0.5c0.1,0,0.2,0,0.3-0.1c0,0,0,0-0.1,0
		c-0.1,0.1,0,0.2,0.1,0.2c0.1-0.1,0.3-0.1,0.4-0.2c-0.2,0.1-0.4,0.3-0.5,0.5c0,0,0,0,0,0c-0.1,0.1-0.2,0.2-0.2,0.2c0,0,0,0,0,0
		c0-0.1-0.2-0.1-0.2,0c0,0.1,0,0.1,0,0.2c0,0-0.1,0-0.1,0.1c0,0.1,0,0.1,0,0.2c0,0,0,0,0,0c0,0,0,0.1,0,0.1c0,0.2-0.1,0.4-0.1,0.5
		c0-0.3-0.1-0.7-0.1-1c0-0.1-0.2-0.1-0.2,0c0,0.1,0,0.1,0,0.2C13.3,6.8,13.3,6.7,13.3,6.6 M13.4,4.3c0-0.1,0.1-0.1,0.1-0.2
		C13.6,4,13.7,4,13.8,3.9c0,0,0,0,0,0C14.1,4,14.4,4.1,14.7,4c0.1,0,0.2,0.1,0.3,0.1c-0.3,0.1-0.6,0.2-0.9,0.3
		c-0.1,0-0.1,0.1-0.2,0.1l0.2-0.4C14.2,4.1,14,4,13.9,4.1c-0.1,0.2-0.3,0.4-0.4,0.6c0-0.1-0.1-0.1-0.2-0.1c0,0,0,0,0,0c0,0,0,0,0,0
		v0c0,0,0,0,0,0c0.1-0.1,0-0.1-0.1-0.2C13.3,4.4,13.4,4.3,13.4,4.3 M13.6,3.7C13.6,3.7,13.6,3.6,13.6,3.7c0.3-0.1,0.6-0.1,0.8-0.2
		c0,0,0,0,0,0.1c-0.3,0-0.6,0.1-1,0.2C13.5,3.7,13.5,3.7,13.6,3.7 M14.7,3.7c0,0,0,0.1,0,0.1c-0.1,0-0.3,0-0.5,0
		c0.1,0,0.2,0,0.3-0.1C14.6,3.7,14.6,3.7,14.7,3.7 M14.8,3.1C14.8,3.2,14.8,3.2,14.8,3.1c0.1,0.1,0.1,0.1,0.2,0.1
		c-0.1,0-0.2,0-0.4,0C14.6,3.2,14.7,3.2,14.8,3.1 M14.6,5.6c0.1,0,0.3-0.1,0.4-0.1c-0.1,0-0.1,0.1-0.2,0.1c-0.1,0-0.2,0.1-0.4,0.1
		C14.5,5.7,14.5,5.7,14.6,5.6 M14.6,5l-1.2,1.1c0.3-0.3,0.5-0.7,0.7-1c0.1,0,0.2-0.1,0.3-0.1C14.5,4.9,14.6,4.9,14.6,5
		c0.1-0.1,0.1,0,0.1,0c0.1,0,0.1,0,0.2,0c-0.1,0-0.1,0.1-0.2,0.1C14.9,5,14.7,4.9,14.6,5 M15.2,6.2c-0.2,0.1-0.3,0.2-0.5,0.3
		c0.1-0.1,0.2-0.2,0.3-0.3C15,6.1,15.1,6.1,15.2,6.2C15.1,6.1,15.1,6.2,15.2,6.2 M15.2,3.9c0.1,0,0.2,0,0.3-0.1c0,0,0,0,0.1,0
		c0.1,0,0.2,0,0.3,0C15.8,3.9,15.6,4,15.4,4c-0.1,0-0.2,0-0.3-0.1C15.2,4,15.2,3.9,15.2,3.9 M15.8,3.2C15.8,3.2,15.8,3.3,15.8,3.2
		c0.5,0.1,1.1,0,1.5,0.1c0.1,0,0.2,0.2,0.2,0.3c0,0,0,0,0,0.1c0,0.1,0,0.2,0,0.3c-0.1-0.2-0.1-0.4-0.2-0.6c0-0.1-0.1-0.1-0.1-0.1
		c-0.1,0-0.2,0-0.2,0.1c0,0,0,0.1,0,0.1c0,0,0,0,0,0c-0.1,0-0.2-0.1-0.3-0.1c0,0,0,0-0.1,0c0,0-0.1,0-0.1,0c-0.2,0-0.5,0-0.7,0
		c0,0,0,0-0.1,0c0,0,0-0.1-0.1-0.1C15.7,3.2,15.8,3.2,15.8,3.2 M16.8,4.2C16.9,4.2,16.9,4.1,17,4c0,0,0,0,0,0c0,0.3,0,0.5,0,0.8
		c0,0,0,0-0.1,0c0,0,0,0,0,0c0,0-0.1-0.1-0.1-0.1c0,0,0-0.1,0-0.2C16.9,4.4,16.8,4.3,16.8,4.2 M17,5.6C17,5.6,17,5.6,17,5.6
		c-0.2,0-0.3,0-0.4,0c0,0,0.1,0,0.1,0c0,0,0.1,0,0.1-0.1c0.1,0,0.2-0.1,0.3-0.2c0.1,0,0.1,0,0.2,0c0,0.1,0,0.2,0,0.3
		C17.2,5.6,17.1,5.6,17,5.6 M16.4,4.4c-0.3,0-0.5,0-0.8,0c0.2,0,0.4-0.1,0.6-0.2C16.3,4.3,16.3,4.3,16.4,4.4
		C16.4,4.4,16.4,4.4,16.4,4.4 M15.9,4.8c-0.1,0-0.3,0-0.4,0C15.6,4.8,15.7,4.8,15.9,4.8C15.8,4.8,15.9,4.8,15.9,4.8
		C15.9,4.8,15.9,4.8,15.9,4.8 M14.4,14.9C14.3,14.9,14.3,14.9,14.4,14.9c-0.1-0.6-0.1-1.3-0.1-2c0.1,0,0.1,0,0.2,0
		C14.4,13.5,14.4,14.2,14.4,14.9 M13.7,14.6c0-0.6,0-1.1,0-1.7c0,0,0,0,0,0c0,0,0.1,0,0.1,0c0,0.8,0,1.7,0.1,2.5
		C13.8,15.1,13.7,14.8,13.7,14.6 M12.8,18C12.8,18,12.8,18,12.8,18c0-0.5-0.1-1-0.1-1.5c0-0.1,0-0.2,0-0.3c0.1,0.5,0.1,0.9,0.2,1.4
		c-0.1,0-0.1,0-0.1,0.1C12.8,17.8,12.8,17.9,12.8,18 M12.4,18.2c0,0,0.1,0,0.1-0.1c0,0,0,0,0,0c0,0.3,0.1,0.6,0.1,0.9
		c0,0.3-0.1,0.5-0.1,0.8C12.4,19.3,12.4,18.8,12.4,18.2 M8.9,13c0-0.1,0-0.2,0-0.2c0,0,0,0,0,0c0.4,0,0.8,0,1.2,0c0,0-0.1,0-0.1,0
		C9.7,12.9,9.3,12.9,8.9,13 M10.4,10.3c-0.2,0-0.3,0.1-0.5,0.1c-0.1-0.1-0.2-0.1-0.3-0.2C9.9,10.3,10.1,10.3,10.4,10.3 M12.3,9.5
		C12.3,9.5,12.3,9.5,12.3,9.5c0-0.1-0.1-0.1-0.1-0.1c0-0.1,0-0.2,0-0.3c0.1,0,0.1,0,0.1-0.1c0,0,0,0,0-0.1
		C12.3,9.1,12.3,9.3,12.3,9.5C12.3,9.5,12.3,9.5,12.3,9.5 M12.9,10c0-0.2,0-0.3,0-0.5c0-0.1-0.1-0.1-0.1-0.1c0-0.1,0-0.2,0-0.3
		c0,0,0-0.1,0-0.1c0-0.1,0-0.2,0-0.3C12.8,9.2,12.9,9.6,12.9,10C13,10,13,10,12.9,10 M14,15C14.1,15.1,14.1,15.1,14,15
		c0.1,0.1,0.2,0.1,0.3,0c0,0.5,0,0.9-0.1,1.4c0,0,0,0,0,0.1c0,0.1,0,0.2,0,0.3c0,0.3,0,0.7-0.1,1C14.1,16.9,14.1,16,14,15
		 M11.3,12.4C11.3,12.4,11.3,12.3,11.3,12.4C11.3,12.3,11.3,12.3,11.3,12.4c0.1-0.1,0.1-0.1,0.1-0.1c0,0,0,0,0,0c0,0,0.1,0,0.1,0
		c0,0.1-0.1,0.2-0.1,0.3c-0.1,0-0.1,0-0.2-0.1C11.3,12.5,11.3,12.4,11.3,12.4 M10.8,12.4c0.1,0,0.2,0,0.2,0c0,0,0,0.1,0,0.1
		c0,0,0,0,0,0L10.8,12.4z M10,10.8c0.1,0,0.2,0,0.3,0c0.1,0.1,0.2,0.1,0.3,0.2c-0.4,0.1-0.9,0.3-1.4,0.3c0-0.1,0-0.1,0.1-0.2
		C9.4,11,9.7,10.9,10,10.8 M14.4,9.6c0,0,0,0.1,0,0.1c0,0,0,0,0,0c0,0.1,0,0.2,0.1,0.3c-0.1-0.1-0.2-0.3-0.4-0.4
		c0-0.2,0-0.3,0.1-0.5c0,0,0,0,0,0c0,0,0,0.1,0.1,0.1c0,0,0,0,0,0.1C14.3,9.4,14.4,9.5,14.4,9.6 M15.2,9.8c0.5,0.1,0.9,0.1,1.4,0.1
		c-0.6,0.2-1.2,0.5-1.7,0.7c0,0,0,0,0,0c0,0,0.1-0.1,0.1-0.1c0-0.1-0.1-0.2-0.1-0.3c0,0,0,0,0-0.1c0-0.1,0-0.2,0-0.3
		C14.9,9.8,15.1,9.8,15.2,9.8 M16.8,11.3c0,0,0.1,0,0.1,0c0,0.2,0,0.5-0.1,0.7C16.8,11.8,16.8,11.4,16.8,11.3 M12.1,13.1
		c0,0.2,0,0.4,0,0.6L12.1,13.1c-0.1,0-0.1,0-0.2,0c0-0.1,0-0.1,0.1-0.2C12.1,13,12.1,13.1,12.1,13.1 M10.8,11.1
		C10.8,11.1,10.8,11.1,10.8,11.1c0,0.2,0,0.3,0.1,0.5c0,0-0.1,0-0.1,0c0,0,0,0,0,0c0.1,0,0.1-0.2,0-0.2c-0.3,0-0.5,0-0.8,0
		C10.2,11.3,10.5,11.2,10.8,11.1 M13.3,11.1c0-0.2-0.1-0.3-0.1-0.5c0.1,0,0.1-0.1,0.2-0.1C13.3,10.6,13.3,10.9,13.3,11.1
		C13.3,11.1,13.3,11.1,13.3,11.1 M14.5,10.7c-0.1,0-0.1,0.2,0,0.2c0,0,0.1,0,0.1,0c0,0,0,0,0,0.1c0,0,0,0,0,0c0,0-0.1,0-0.1,0
		c0,0,0,0,0,0c0,0,0,0,0,0c-0.1,0-0.3,0-0.4,0c0-0.2-0.1-0.5-0.1-0.7c0,0,0-0.1,0-0.1c0.1-0.1,0.1-0.2,0.1-0.3
		c0.2,0.2,0.3,0.5,0.5,0.7C14.6,10.7,14.5,10.7,14.5,10.7 M16.7,10.3c-0.5,0.1-0.9,0.2-1.4,0.3c0.5-0.2,1-0.4,1.5-0.6
		C16.8,10.1,16.7,10.2,16.7,10.3 M16.7,12.1C16.6,12.1,16.6,12.1,16.7,12.1l-1.5,0.2c0-0.1,0-0.1-0.1-0.2c0.4-0.2,0.9-0.3,1.3-0.5
		c0.1,0,0.1-0.1,0-0.2c0,0,0.1,0,0.1,0C16.6,11.6,16.6,11.9,16.7,12.1 M12.1,16.2C12,16.2,12,16.2,12.1,16.2c0-0.5,0-1,0-1.4
		c0,0.1,0,0.1,0,0.2C12,15.4,12,15.8,12.1,16.2 M9.2,11.8C9.2,11.8,9.2,11.9,9.2,11.8C9.4,11.9,9.5,12,9.6,12c0,0,0,0,0,0
		c0,0-0.1,0-0.1,0.1c-0.1,0-0.3,0-0.3-0.1C9.2,11.9,9.1,11.9,9.2,11.8C9.1,11.8,9.2,11.8,9.2,11.8 M10.8,11.9c-0.2,0-0.5,0-0.7,0
		c-0.1,0-0.1,0-0.2,0C10.2,11.8,10.5,11.8,10.8,11.9C10.8,11.8,10.8,11.8,10.8,11.9 M15.3,11.4c0.4-0.1,0.8-0.2,1.3-0.3
		C16.1,11.3,15.7,11.4,15.3,11.4 M15,11.7c0.2,0,0.3,0,0.5,0c-0.2,0.1-0.3,0.1-0.5,0.2C15,11.8,15,11.7,15,11.7 M14.8,12.3
		c0,0,0-0.1,0-0.1c0,0,0.1,0,0.1-0.1c0,0.1,0,0.1,0,0.2C14.9,12.3,14.8,12.3,14.8,12.3 M12.4,11.8C12.5,11.8,12.5,11.7,12.4,11.8
		c0.1,0.3,0.1,0.6,0,0.9c0,0-0.1,0-0.1,0C12.4,12.3,12.4,12.1,12.4,11.8 M12.3,10.5c0,0.1,0,0.1,0,0.2c-0.1,0.1-0.1,0.2-0.2,0.3
		c0,0,0,0,0,0c0.1-0.3,0.1-0.7,0.2-1c0.1,0,0.1,0,0.2,0C12.4,10.2,12.4,10.3,12.3,10.5 M11,10.5c0.2,0,0.3,0,0.5,0c0,0,0,0,0,0
		c0,0.1-0.1,0.2-0.1,0.3c0,0-0.1,0-0.1,0c0,0,0,0.1-0.1,0.1c0,0,0,0,0,0c0,0,0-0.1-0.1-0.1c0,0-0.1,0-0.1,0
		C11,10.7,10.9,10.6,11,10.5C10.9,10.5,10.9,10.5,11,10.5 M11.3,11.2C11.3,11.1,11.4,11.1,11.3,11.2c0.1,0.1,0.1,0.3,0.2,0.4
		c-0.1,0-0.2,0-0.3,0C11.3,11.4,11.3,11.3,11.3,11.2 M11.8,10C11.8,10,11.8,10,11.8,10c0.1,0,0.1,0,0.1,0c0,0.1,0,0.1,0,0.2
		c-0.1,0.4-0.2,0.9-0.2,1.3c-0.1-0.2-0.1-0.3-0.2-0.5C11.7,10.7,11.8,10.4,11.8,10 M11.2,11.9c0,0,0-0.1,0-0.1c0.1,0,0.2,0,0.3,0
		c0,0.1-0.1,0.1-0.1,0.2C11.3,11.9,11.3,11.9,11.2,11.9 M14.2,12.2c0-0.2,0-0.3,0-0.5c0.1,0,0.1,0,0.2-0.1c0.1,0,0.2,0,0.2,0
		c0,0.1,0,0.2,0,0.3c-0.1,0-0.1,0-0.1,0.1c0,0,0,0,0,0C14.3,12.1,14.3,12.2,14.2,12.2 M11.2,9.7C11.2,9.7,11.2,9.7,11.2,9.7
		c0.1,0,0.2,0,0.2,0c0,0.1,0,0.1,0,0.2c-0.1,0-0.2,0.1-0.3,0.1c-0.2-0.1-0.4-0.1-0.6-0.2C10.7,9.8,11,9.8,11.2,9.7 M12,12.2
		C12,12.2,12,12.1,12,12.2c-0.1-0.1-0.1-0.2-0.1-0.2c0.1,0,0.1-0.1,0.2-0.1C12,12,12,12.1,12,12.2 M9,12.4c0.1,0,0.3,0,0.4,0
		c0,0.1,0,0.1,0.1,0.1c0,0,0,0,0.1,0c-0.2,0-0.4,0-0.6,0c0,0,0,0,0,0C8.9,12.5,9,12.5,9,12.4 M11.8,12.7
		C11.8,12.7,11.8,12.7,11.8,12.7c0-0.1,0-0.2,0-0.3c0,0.1,0.1,0.1,0.1,0.2C11.9,12.6,11.9,12.7,11.8,12.7
		C11.8,12.7,11.8,12.7,11.8,12.7 M17.2,11.9c0.3-0.6,0.5-1.2,0.6-1.8c0-0.1-0.1-0.2-0.2-0.1c0,0,0,0.1,0,0.1c0-0.1-0.2-0.1-0.2,0
		c-0.1,0.2-0.1,0.4-0.2,0.6c0-0.3,0-0.7,0-1c0-0.1-0.1-0.1-0.1-0.1c-0.1,0-0.2,0-0.3,0c-0.7-0.2-1.4-0.2-2.1-0.1
		c0-0.5-0.2-0.9-0.3-1.3c0.1-0.5,0.2-1,0.4-1.5c0,0,0,0,0,0c0.4-0.2,0.8-0.4,1.3-0.6c0.2,0,0.3,0,0.5,0c0,0,0,0,0,0
		c0.1,0,0.3,0,0.4,0c0.3,0,0.5-0.1,0.8-0.2c0.1,0,0.1-0.2,0-0.2c-0.1,0-0.1,0-0.1,0c0,0,0,0,0-0.1c0,0,0,0,0,0l0,0v0c0,0,0,0,0,0
		c0,0,0,0,0,0v0c0.1-0.6,0.1-1.1,0.1-1.7c0-0.1,0-0.1-0.1-0.1c0-0.2,0-0.3,0-0.5c0-0.1-0.1-0.1-0.1-0.1c0,0,0,0-0.1,0
		c0.1-0.1,0-0.2-0.1-0.2C16.6,3,15.7,3,14.8,3c0,0,0,0,0,0c0,0-0.1-0.1-0.1-0.1c-0.4,0.2-0.8,0.3-1.2,0.6c-0.1,0-0.2,0-0.2,0.1
		c-0.1,0-0.1,0.1-0.1,0.1C13,3.8,12.8,3.9,12.6,4c-0.1,0.1-0.3,0.1-0.4,0.2c-0.1,0-0.1,0.1,0,0.1c-0.1,0.1-0.2,0.1-0.2,0.2
		c-0.1,0.1,0,0.2,0.1,0.2c0,0-0.1,0.1-0.1,0.1c0,0,0,0.1,0,0.1c-0.1,0.2-0.3,0.3-0.4,0.5c-0.1,0.1,0.1,0.2,0.1,0.1
		c0.3-0.2,0.6-0.3,0.8-0.5c-0.2,0.3-0.5,0.7-0.7,1c0,0-0.1,0.1-0.1,0.1c0,0,0,0.1,0,0.1c0,0,0,0.1-0.1,0.1c0,0,0-0.1,0-0.1
		c0-0.1-0.2-0.1-0.2,0c-0.2,0.9-0.2,1.8,0,2.7c0,0,0,0.1,0.1,0.1c0,0.1,0,0.3,0,0.4c-0.4,0-0.8,0.1-1.2,0.2c-0.2,0-0.3,0-0.5,0
		c-0.1,0-0.1,0-0.2,0c-0.1,0-0.1,0-0.1,0.1c-0.2,0-0.4,0-0.7,0.1c-0.1,0-0.1,0.2,0,0.2C8.8,10,8.9,10,9,10.1c0,0,0,0.1,0.1,0.1
		c0.2,0.1,0.5,0.3,0.7,0.4c-0.1,0-0.1,0-0.2,0c-0.1,0-0.2,0-0.4,0c0,0-0.1,0-0.1,0c0,0-0.1,0-0.1,0c-0.1,0-0.1,0.2,0,0.2
		c0,0,0,0,0,0c0,0,0,0.1,0,0.1c0,0,0,0.1,0,0.1c0,0,0,0.1,0,0.1c-0.1-0.3-0.2-0.6-0.3-0.9c0-0.1-0.2-0.1-0.2,0c0,0.1,0,0.3,0,0.4
		c-0.1,0.7-0.1,1.4,0,2.2c0,0.1,0.2,0.1,0.2,0c0-0.1,0-0.1,0-0.2c0,0.1,0,0.3,0,0.4c0,0.1,0.1,0.1,0.1,0.1c0,0,0,0,0.1,0
		c0,0,0,0,0,0l0,0c0,0,0,0,0,0c0.4,0,0.7-0.1,1.1-0.2c0.4-0.1,0.8-0.1,1.3-0.1c-0.1,0.2-0.1,0.3-0.1,0.5c0,0.1,0.2,0.2,0.2,0.1
		c0.1-0.2,0.1-0.3,0.2-0.5c0,0.3,0,0.6-0.1,0.9c0,0.1,0,0.1,0.1,0.1c0,0.4,0,0.9,0,1.3c0,0,0,0,0,0c0,0,0,0,0,0c0,0,0,0,0,0
		c0,0,0,0,0,0c0-0.1-0.2-0.1-0.2,0c-0.2,1.8-0.2,3.5-0.1,5.3c0,0.1,0.2,0.1,0.2,0c0-0.6,0-1.2,0.1-1.7c0,0.1,0,0.1,0,0.2
		c0,0.1,0.1,0.1,0.1,0.1c0,0.2,0,0.5,0.1,0.7c0,0.1,0.1,0.1,0.1,0.1c0,0.1,0.2,0.1,0.2,0c0,0,0,0,0,0c0,0.1,0.1,0.1,0.2,0.1
		c0,0.1,0,0.2,0,0.3c0,0.1,0.2,0.2,0.2,0c0.1-0.2,0.1-0.4,0.2-0.6c0,0.1,0.2,0.1,0.2,0c0,0,0,0,0-0.1c0,0.2,0,0.3,0.1,0.5
		c0,0,0,0.1,0.1,0.1c0,0.2,0,0.3,0.1,0.5c0,0.1,0.2,0.1,0.2,0c0-0.2,0.1-0.5,0.1-0.7c0,0.3,0.1,0.6,0.2,1c0,0.1,0.2,0.1,0.2,0
		c0-0.1,0-0.1,0-0.2c0,0.2,0,0.3,0,0.5c0,0.1,0.2,0.2,0.2,0c0.1-0.6,0.2-1.2,0.3-1.9l0.1,1.6c0,0.1,0.2,0.1,0.2,0c0-1.8,0-3.6,0-5.4
		c0-0.2,0-0.3,0-0.5c0,0.3,0,0.6,0.1,0.8c0,0.1,0.2,0.1,0.2,0c0-0.6,0-1.2,0-1.8c0.1,0,0.1,0,0.1-0.1c0-0.3-0.1-0.7-0.1-1
		c0.1,0.1,0.2,0.2,0.4,0.3c0.1,0.1,0.2,0,0.2-0.1c0-0.1-0.1-0.2-0.1-0.4c0,0,0,0,0.1,0c0.5,0.2,1.1,0.2,1.7,0.1c0.1,0,0.1-0.2,0-0.2
		c0,0-0.1,0-0.1,0c0,0,0,0,0,0c0,0,0,0,0.1,0c0.1,0,0.1-0.2,0-0.2c0,0,0-0.1,0-0.1c0.1,0,0.2-0.1,0.3-0.1c0.1,0,0.1-0.2,0-0.2
		c-0.1,0-0.1,0-0.2,0C17.1,12.1,17.1,12,17.2,11.9C17.2,12,17.2,12,17.2,11.9"/>
</g>
</svg>
