<?xml version="1.0" encoding="utf-8"?>
<!-- Generator: Adobe Illustrator 19.1.1, SVG Export Plug-In . SVG Version: 6.00 Build 0)  -->
<svg version="1.1" id="Layer_1" xmlns="http://www.w3.org/2000/svg" xmlns:xlink="http://www.w3.org/1999/xlink" x="0px" y="0px"
	 viewBox="0 0 50.1 68.3" style="enable-background:new 0 0 50.1 68.3;" xml:space="preserve">
<style type="text/css">
	.st0{clip-path:url(#SVGID_2_);fill:#CB355B;}
	.st1{clip-path:url(#SVGID_4_);fill:#CB355B;}
	.st2{clip-path:url(#SVGID_6_);fill:#CB355B;}
	.st3{clip-path:url(#SVGID_8_);fill:#CB355B;}
	.st4{clip-path:url(#SVGID_10_);fill:#CB355B;}
	.st5{clip-path:url(#SVGID_12_);fill:#FFFFFF;}
	.st6{clip-path:url(#SVGID_14_);fill:#FFFFFF;}
	.st7{clip-path:url(#SVGID_16_);fill:#FFFFFF;}
	.st8{clip-path:url(#SVGID_18_);fill:#FFFFFF;}
	.st9{clip-path:url(#SVGID_20_);fill:#00819F;}
	.st10{clip-path:url(#SVGID_22_);}
	.st11{clip-path:url(#SVGID_24_);fill:#1D0C06;}
</style>
<g>
	<defs>
		<rect id="SVGID_7_" x="6.4" y="2.9" width="33.7" height="65.4"/>
	</defs>
	<clipPath id="SVGID_2_">
		<use xlink:href="#SVGID_7_"  style="overflow:visible;"/>
	</clipPath>
	<path class="st0" d="M26.7,57.6c0.1,0,0.1,0,0.2-0.1c-0.1,1.4-0.1,2.7-0.2,4.1c0,0,0,0.1,0,0.1c-0.1,0.7-0.2,1.4-0.3,2.1
		c0-0.4,0-0.8,0-1.2C26.6,61,26.7,59.3,26.7,57.6 M25.2,65c-0.4-2.2-0.7-4.4-0.8-6.7c0-1.1,0-2.3-0.1-3.4c0-0.2-0.2-0.4-0.4-0.4
		c0.1-2.7,0.1-5.4,0.2-8c0.1-1,0.2-1.9,0.2-2.9c0,0.1,0,0.2,0,0.4c0,1,0.1,2,0.1,3c0,0.2,0.2,0.3,0.4,0.4c0.3,2.3,0.6,4.7,0.9,7
		c0,0.1-0.1,0.1-0.1,0.2c-0.1,2.7-0.1,5.4-0.1,8.1C25.5,63.4,25.4,64.2,25.2,65 M17.3,58c0-1.9,0-3.7,0.1-5.6
		c0.1,1.2,0.2,2.4,0.2,3.5C17.5,56.7,17.4,57.4,17.3,58 M21.4,15.7c0,0.2-0.1,0.5-0.1,0.7c-0.1,0.1-0.2,0.2-0.3,0.3
		c0,0,0,0.1-0.1,0.1c-0.1,0.1-0.2,0.1-0.3,0.2c-0.3,0.3,0,0.7,0.4,0.6c0,0.1,0,0.3,0,0.4c-0.1,0.8-0.3,1.5-0.5,2.3
		c-0.1-0.7-0.2-1.3-0.3-2c-0.1-0.3-0.3-0.3-0.5-0.2c0-0.1,0-0.2,0-0.3C20.3,17.2,20.8,16.5,21.4,15.7 M20.3,15.2
		c0.1,0.1,0.3,0.2,0.4,0.2c-0.3,0.4-0.6,0.7-0.9,1.1C20,16.1,20.2,15.7,20.3,15.2 M21.8,22.5c-0.1,0-0.2,0-0.3,0c0-0.5,0-1,0.1-1.5
		C21.7,21.5,21.7,22,21.8,22.5 M22.4,18.7c0,0.1,0,0.2,0,0.3c0,0,0,0,0,0.1c-0.1,0.1-0.2,0.2-0.2,0.3c0,0.5,0,0.9,0,1.3
		c-0.1-0.5-0.1-0.9-0.2-1.4C22.2,19.1,22.3,18.9,22.4,18.7 M23.3,23.3C23.3,23.3,23.4,23.3,23.3,23.3l0.8,2.7c0,0.7,0,1.4,0,2.1
		c0,0.1,0,0.2,0,0.3c-0.1,0-0.2,0-0.4,0c-0.2-1.5-0.4-3.1-0.6-4.7C23.3,23.6,23.3,23.4,23.3,23.3 M23.9,20.9l0.3-1.4
		c0.1,1.2,0.3,2.4,0.5,3.6c0,0.2,0.3,0.3,0.4,0.3c0,0.2,0,0.4,0,0.6c-0.2-0.1-0.5,0.1-0.5,0.4c0,0.1,0,0.2,0,0.3
		c-0.2-0.8-0.5-1.6-0.7-2.4L23.9,20.9z M23.9,16c0.9-0.6,1.8-1.2,2.7-1.9c0.3-0.1,0.7-0.2,1-0.2c-0.1,0.1-0.1,0.1-0.2,0.2
		c-0.3,0.3,0.1,0.8,0.5,0.6c0.5-0.2,0.9-0.4,1.4-0.6c-0.7,0.5-1.4,1.1-1.9,1.7c0,0,0,0-0.1,0c-0.3,0.3-0.6,0.6-0.8,0.9
		c0-0.1,0-0.1,0-0.2c-0.1-0.5-0.8-0.5-0.8,0c0,0.3,0,0.5,0,0.8c-0.1,0-0.2,0.1-0.2,0.2c0,0.2-0.1,0.4-0.1,0.6c0,0,0,0,0,0.1
		c-0.1,0.1-0.1,0.2,0,0.3c-0.1,0.6-0.2,1.3-0.3,1.9c-0.1-1.2-0.2-2.4-0.3-3.6c0-0.4-0.7-0.5-0.7-0.1c0,0.2-0.1,0.4-0.1,0.6
		C23.9,16.8,23.9,16.4,23.9,16 M24.2,7.9c0.1-0.3,0.2-0.5,0.3-0.7c0.4-0.2,0.8-0.4,1.2-0.6c0.1,0,0.1-0.1,0.1-0.1c1,0.4,2,0.6,3,0.5
		c0.4,0.2,0.7,0.3,1.1,0.4c-1.1,0.3-2.1,0.7-3.1,1.1c-0.2,0.1-0.5,0.2-0.8,0.4l0.7-1.2c0.2-0.4-0.4-0.8-0.7-0.4
		c-0.4,0.7-0.9,1.3-1.4,2c0-0.3-0.3-0.5-0.6-0.3c0,0,0,0,0,0c0,0,0,0,0,0c0,0,0-0.1,0.1-0.1c0.2-0.2,0-0.5-0.3-0.6
		C24,8.1,24.1,8,24.2,7.9 M24.9,5.6c0.1,0,0.1,0,0.2-0.1c0.9-0.3,1.8-0.5,2.7-0.6c0,0.1,0,0.2,0,0.2c-1.1,0.2-2.3,0.4-3.4,0.7
		C24.5,5.8,24.7,5.7,24.9,5.6 M28.7,5.8c0,0.1,0,0.3,0.1,0.4c-0.5,0-1.1,0-1.6-0.1c0.3-0.1,0.7-0.1,1-0.2
		C28.4,5.9,28.5,5.8,28.7,5.8 M29,3.7c0,0.1,0.1,0.2,0.2,0.2c0.1,0,0.3,0,0.4,0.1c-0.4,0-0.9,0.1-1.3,0.1C28.6,4,28.8,3.8,29,3.7
		 M28.4,12.6c0.5-0.1,1-0.3,1.5-0.5c-0.2,0.1-0.4,0.3-0.6,0.4c-0.4,0.1-0.9,0.3-1.3,0.4C28.1,12.9,28.3,12.8,28.4,12.6 M28.6,10.3
		l-4.4,3.8c0.9-1.2,1.7-2.4,2.5-3.6c0.4-0.2,0.7-0.3,1-0.5c0.4,0,0.7,0,1.1,0c0,0.1,0.1,0.2,0.3,0.3c0.3,0.1,0.5,0.1,0.8,0.1
		c-0.2,0.1-0.5,0.3-0.7,0.4C29.4,10.4,28.9,10,28.6,10.3 M30.5,14.5c-0.6,0.3-1.2,0.6-1.8,0.9c0.4-0.4,0.9-0.7,1.2-0.9
		c0.1-0.1,0.2-0.1,0.3-0.2C30.3,14.4,30.4,14.5,30.5,14.5 M30.8,6.5c0.4-0.1,0.8-0.1,1.2-0.2c0.1,0,0.1,0,0.2,0c0.3,0,0.7-0.1,1-0.1
		c-0.7,0.2-1.3,0.4-2,0.6c-0.3,0-0.7-0.1-1-0.2C30.4,6.6,30.6,6.6,30.8,6.5 M32.8,4c0,0.1,0.2,0.2,0.3,0.2c1.4,0,3.6-0.4,4.9,0
		c0.4,0.1,0.6,0.6,0.6,1.2c0,0.1-0.1,0.1-0.1,0.2c0,0.3,0,0.6,0,0.9c-0.2-0.6-0.4-1.3-0.5-2c0-0.2-0.2-0.3-0.3-0.3
		c-0.2-0.1-0.6,0-0.6,0.3c0,0.1,0,0.2,0,0.3c0,0,0,0-0.1,0c-0.3-0.1-0.7-0.2-1-0.2c-0.1-0.1-0.1-0.1-0.3-0.1c-0.1,0-0.3,0-0.4,0
		c-0.8-0.1-1.6-0.1-2.4-0.1c-0.1,0-0.2,0-0.3,0c0.1-0.2,0-0.4-0.2-0.5C32.5,4,32.6,4,32.8,4 M36.3,7.7c0.2-0.3,0.5-0.6,0.7-0.9
		c0,0,0.1,0,0.1,0c0,1,0.1,1.9,0.1,2.9c-0.1,0-0.1-0.1-0.2-0.1c0,0-0.1,0-0.1,0c-0.1-0.1-0.3-0.2-0.5-0.3c0-0.2,0.1-0.3,0.1-0.5
		C36.6,8.3,36.5,8,36.3,7.7 M37,12.4c-0.1,0-0.1-0.1-0.2-0.1c-0.4,0-0.8,0-1.3,0c0.1,0,0.2-0.1,0.3-0.1c0.1-0.1,0.2-0.2,0.2-0.3
		c0.4-0.2,0.8-0.4,1.1-0.6c0.2,0,0.4-0.1,0.6-0.1c0,0.4,0,0.8,0.1,1.2C37.6,12.4,37.3,12.4,37,12.4 M34.8,8.2c-1,0-1.9,0-2.9,0
		c0.8-0.2,1.5-0.4,2.3-0.6C34.4,7.7,34.7,7.9,34.8,8.2C34.9,8.2,34.8,8.2,34.8,8.2 M33,9.8c-0.5,0-1.1,0-1.6,0
		c0.4,0,0.9-0.1,1.3-0.2c0.2,0,0.3,0,0.5,0.1C33.1,9.7,33.1,9.7,33,9.8 M27.6,45.3c-0.1,0.1-0.2,0.1-0.2,0.3c0-2.4-0.1-4.9-0.3-7.3
		c0.2,0,0.4,0,0.7,0C27.8,40.6,27.7,42.9,27.6,45.3 M25.2,44.3c0-2-0.1-3.9-0.1-5.9c0,0,0-0.1,0-0.1c0.1,0,0.2,0,0.3,0
		c0.1,3,0.1,5.9,0.2,8.9C25.5,46.2,25.4,45.2,25.2,44.3 M22.1,56.6C22,56.6,22,56.6,22.1,56.6c-0.1-1.8-0.2-3.5-0.3-5.3
		c0-0.4,0.1-0.8,0.1-1.2c0.2,1.7,0.4,3.3,0.6,5c-0.2,0-0.4,0.1-0.4,0.4C22.1,55.8,22.1,56.2,22.1,56.6 M20.5,57.2
		c0.2,0,0.3-0.1,0.4-0.3c0,0,0-0.1,0-0.1c0.1,1,0.3,2.1,0.4,3.1c-0.1,1-0.3,1.9-0.5,2.8C20.6,60.9,20.5,59.1,20.5,57.2 M8.4,38.8
		c0-0.3,0-0.6,0-0.9c0,0,0,0,0.1,0c1.4,0,2.8,0,4.3,0c-0.2,0-0.3,0.1-0.5,0.1C10.9,38.3,9.7,38.5,8.4,38.8 M13.6,29.2
		c-0.6,0.2-1.1,0.3-1.7,0.4c-0.3-0.2-0.7-0.4-1-0.6C11.8,29.1,12.7,29.2,13.6,29.2 M20.2,26.4C20.3,26.3,20.3,26.3,20.2,26.4
		c0-0.3-0.2-0.4-0.5-0.4c0-0.3,0-0.7,0-1c0.2,0,0.4-0.1,0.5-0.3c0-0.1,0-0.1,0.1-0.2c0.1,0.6,0.1,1.2,0.2,1.8
		C20.4,26.3,20.3,26.3,20.2,26.4 M22.6,28c0-0.6-0.1-1.1-0.1-1.7c0-0.2-0.2-0.4-0.4-0.4c0-0.3,0-0.6,0-0.9c0-0.1-0.1-0.2-0.1-0.3
		c0-0.3,0.1-0.7,0.1-1c0.3,1.4,0.5,2.9,0.9,4.3C22.8,28,22.7,28,22.6,28 M26.5,46c0.1,0,0.1,0,0.2,0c0.1,0.4,0.6,0.4,0.7,0.1
		c-0.1,1.6-0.2,3.3-0.3,4.9c0,0.1-0.1,0.1-0.1,0.2c0,0.4,0,0.7,0,1.1c-0.1,1.2-0.1,2.5-0.2,3.7C26.8,52.7,26.7,49.3,26.5,46
		 M16.7,36.5c0-0.1,0-0.2,0-0.2c0.1,0,0.1,0,0.2,0c0.1,0,0.2,0,0.2,0c0,0,0.1,0,0.1,0c0.1,0,0.3,0,0.4,0c-0.1,0.3-0.2,0.7-0.4,1
		c-0.3-0.1-0.5-0.2-0.8-0.2C16.7,36.9,16.8,36.7,16.7,36.5 M15,36.5c0.3,0,0.6-0.1,0.9-0.1c0,0.1,0.1,0.2,0.1,0.3c0,0,0,0.1,0.1,0.1
		L15,36.5z M12.1,30.9c0.3,0,0.6,0.1,1,0.1c0.3,0.2,0.6,0.4,1,0.6c-1.6,0.5-3.2,0.9-4.9,1.2c0.1-0.2,0.1-0.5,0.2-0.7
		C10.2,31.6,11.1,31.3,12.1,30.9 M27.8,26.8c-0.1,0.2,0,0.4,0.2,0.5c0,0,0,0,0,0c0.1,0.3,0.2,0.6,0.3,0.9c-0.4-0.5-0.8-1-1.3-1.5
		c0.1-0.6,0.2-1.2,0.3-1.7c0,0,0,0,0-0.1c0,0.2,0.1,0.2,0.3,0.3c0,0.1-0.1,0.1,0,0.2C27.5,26,27.6,26.4,27.8,26.8 M30.6,27.3
		c1.6,0.3,3.2,0.4,4.8,0.3c-2.1,0.8-4.1,1.7-6.2,2.5c0,0,0,0-0.1-0.1c0.2-0.1,0.3-0.3,0.2-0.4c-0.1-0.4-0.2-0.8-0.3-1.2
		c0-0.1,0.1-0.1,0.1-0.2c0-0.3,0-0.6,0-0.9C29.6,27.3,30.1,27.3,30.6,27.3 M36.3,32.6c0.1-0.1,0.3-0.1,0.4-0.2
		c0,0.9-0.1,1.8-0.3,2.6C36.2,34.5,36.3,33.2,36.3,32.6 M19.7,39.2c0,0.7-0.1,1.4-0.1,2.1l-0.2-1.9c0-0.2-0.1-0.3-0.2-0.3
		c0.1-0.2,0.1-0.5,0.2-0.7C19.5,38.6,19.6,38.9,19.7,39.2 M14.9,32.1C14.9,32.1,14.9,32.1,14.9,32.1c0.1,0.6,0.1,1.1,0.2,1.6
		c-0.1,0-0.3,0-0.4,0c0,0,0,0,0,0C15,33.6,15,33,14.5,33c-0.9,0-1.8,0-2.7,0C12.8,32.7,13.9,32.4,14.9,32.1 M23.8,31.8
		c-0.1-0.6-0.2-1.2-0.4-1.8c0.2-0.1,0.4-0.3,0.6-0.4C24,30.4,23.9,31.1,23.8,31.8C23.8,31.8,23.8,31.8,23.8,31.8 M28,30.7
		c-0.4,0.1-0.4,0.8,0.1,0.7c0.1,0,0.2,0,0.3,0c-0.1,0.1-0.1,0.1-0.1,0.3c0,0,0,0,0,0c-0.1,0-0.2,0.1-0.3,0.1c0,0,0,0,0,0l0,0
		c0,0,0,0,0,0c-0.5,0-1,0-1.5,0c-0.1-0.9-0.2-1.7-0.3-2.6c0-0.1,0-0.3,0-0.4c0.2-0.3,0.4-0.6,0.5-1c0.6,0.8,1.2,1.7,1.8,2.5
		C28.3,30.6,28.2,30.6,28,30.7 M36,29.2c-1.7,0.5-3.3,0.8-5,1.1c1.8-0.7,3.5-1.4,5.3-2.2C36.2,28.5,36.1,28.8,36,29.2 M35.8,35.5
		c-0.1,0-0.1-0.1-0.2,0l-5.2,0.6c-0.1-0.2-0.1-0.5-0.2-0.7c1.5-0.6,3.1-1.2,4.7-1.6c0.3-0.1,0.3-0.5,0.1-0.7c0.2,0,0.3-0.1,0.5-0.2
		C35.5,33.8,35.6,34.6,35.8,35.5 M19.5,50c0,0-0.1-0.1-0.1-0.1c0-1.7,0-3.3,0-5c0,0.2,0.1,0.5,0.1,0.7C19.4,47.1,19.4,48.6,19.5,50
		 M9.3,34.5c0,0.1,0.1,0.2,0.3,0.3c0.4,0.1,0.8,0.3,1.3,0.4c0,0-0.1,0-0.1,0c-0.1,0-0.2,0.1-0.2,0.2c-0.5,0-0.9-0.1-1.1-0.3
		C9.2,35,9.1,34.7,9,34.5C9.1,34.5,9.2,34.5,9.3,34.5 M15.1,34.7c-0.9,0-1.7,0-2.6,0.1c-0.2,0-0.4-0.1-0.7-0.2
		c1.1-0.1,2.2-0.1,3.3-0.2C15.1,34.5,15.1,34.6,15.1,34.7 M31,33.1c1.5-0.3,3-0.6,4.4-0.9C34,32.7,32.5,33,31,33.1 M29.9,34.1
		c0.6,0,1.2,0,1.8-0.1c-0.6,0.2-1.1,0.4-1.6,0.6C30,34.4,30,34.3,29.9,34.1 M29.2,36.2c0-0.1,0-0.3,0-0.4c0.1-0.1,0.3-0.1,0.4-0.2
		c0,0.2,0.1,0.4,0.1,0.5C29.5,36.2,29.3,36.2,29.2,36.2 M20.8,34.3c0.1,0,0.2-0.1,0.3-0.1c-0.1,1.1-0.1,2.2-0.2,3.2
		c-0.1-0.1-0.3-0.1-0.4-0.1C20.7,36.4,20.8,35.3,20.8,34.3 M20.5,29.8c0,0.3-0.1,0.5-0.1,0.8c-0.2,0.3-0.5,0.7-0.7,1
		c0,0-0.1,0.1-0.1,0.1c0.2-1.2,0.4-2.4,0.6-3.6c0.2,0,0.4,0,0.6,0.1C20.6,28.7,20.6,29.3,20.5,29.8 M15.6,29.7
		c0.6-0.1,1.2-0.1,1.8-0.2c0,0,0,0,0,0c-0.1,0.4-0.2,0.7-0.4,1c-0.2-0.1-0.3,0-0.4,0.2c-0.1,0.2-0.1,0.3-0.2,0.5c0,0-0.1,0-0.1,0
		c0-0.2,0-0.3-0.3-0.4c-0.2,0-0.3-0.1-0.5-0.1C15.6,30.4,15.5,30.1,15.6,29.7C15.5,29.7,15.6,29.7,15.6,29.7 M16.9,32.2
		c0,0,0.1,0,0.1-0.1c0.2,0.5,0.4,1,0.5,1.4c-0.3,0-0.6,0-1,0.1C16.6,33.1,16.8,32.6,16.9,32.2 M18.6,28.2c0,0,0.1,0,0.1-0.1
		c0.1,0,0.2,0,0.3,0c0,0.2,0,0.4,0,0.6c-0.3,1.5-0.5,3.1-0.8,4.6c-0.2-0.6-0.4-1.2-0.7-1.7C18.2,30.7,18.5,29.4,18.6,28.2
		 M16.5,34.8c0-0.2,0-0.3,0-0.5c0.4,0,0.8,0,1.1-0.1c-0.2,0.2-0.3,0.4-0.5,0.7C17,34.9,16.7,34.9,16.5,34.8 M27,36
		c-0.1-0.6-0.1-1.1-0.2-1.7c0.2-0.1,0.4-0.2,0.6-0.2c0.3,0,0.6,0,0.9,0c0,0.3,0,0.7,0,1c-0.2,0-0.3,0.1-0.3,0.4c0,0,0,0,0,0.1
		C27.6,35.7,27.3,35.8,27,36 M16.4,27.1c0.1,0,0.2-0.1,0.2-0.1c0.2,0,0.4,0,0.6,0c0,0.2,0,0.5,0,0.7c-0.4,0.1-0.7,0.3-1,0.5
		c-0.8-0.2-1.5-0.4-2.3-0.6C14.8,27.4,15.6,27.3,16.4,27.1 M19.3,35.8c0-0.1,0-0.2-0.1-0.3c-0.1-0.2-0.1-0.3-0.2-0.5
		c0.2-0.1,0.4-0.2,0.6-0.3C19.4,35.1,19.3,35.5,19.3,35.8 M8.5,36.7c0.5,0,1-0.1,1.5-0.1c-0.1,0.2,0,0.5,0.3,0.5c0.1,0,0.2,0,0.3,0
		c-0.7,0-1.4,0-2.1,0c0,0,0,0,0,0C8.5,37.1,8.5,36.9,8.5,36.7 M18.6,37.6C18.6,37.6,18.6,37.6,18.6,37.6c-0.1-0.4,0-0.8,0-1.2
		c0.1,0.3,0.2,0.5,0.3,0.8c0,0.2-0.1,0.4-0.2,0.6C18.7,37.7,18.7,37.6,18.6,37.6 M37.9,34.9c1-2,1.8-4.1,2.3-6.3
		c0.1-0.4-0.5-0.7-0.7-0.3c-0.1,0.1-0.1,0.2-0.2,0.4c0-0.4-0.6-0.5-0.7-0.1c-0.2,0.7-0.5,1.3-0.7,2c0-1.2,0-2.3,0-3.5
		c0-0.3-0.2-0.4-0.5-0.4c-0.3,0.1-0.6,0.1-0.9,0.1c-2.5-0.6-4.9-0.7-7.4-0.4c-0.2-1.6-0.5-3.2-1.1-4.7c0.3-1.7,0.7-3.5,1.3-5.1
		c0,0,0,0,0,0c1.5-0.8,2.9-1.6,4.5-2.3c0.6,0,1.1,0,1.7,0c0,0,0.1,0,0.2,0c0.5,0.1,0.9,0,1.4-0.2c1-0.2,1.9-0.4,2.9-0.8
		c0.4-0.1,0.4-0.8-0.1-0.7c-0.2,0-0.4,0-0.5-0.2c0.1,0,0.1-0.1,0.2-0.2c0,0,0-0.1,0-0.1h0v0c0,0,0,0,0,0c0,0,0,0,0,0v0
		c0.3-2,0.4-4,0.3-6c0-0.2-0.1-0.3-0.2-0.3c0-0.6,0.1-1.2,0.1-1.8c0-0.2-0.2-0.4-0.4-0.4c-0.1,0-0.1,0-0.2,0
		c0.2-0.2,0.1-0.7-0.3-0.6c-3.1,0.3-6.1,0.4-9.2,0.2c0,0,0,0,0,0c-0.1-0.2-0.2-0.3-0.4-0.2c-1.5,0.5-2.9,1.2-4.3,2
		c-0.3,0.1-0.5,0.2-0.8,0.3c-0.2,0.1-0.3,0.2-0.3,0.4C22.8,6,22,6.5,21.3,7c-0.5,0.2-0.9,0.4-1.4,0.6c-0.2,0.1-0.2,0.4-0.1,0.5
		c-0.3,0.2-0.5,0.5-0.8,0.7c-0.3,0.3,0,0.7,0.4,0.6c-0.1,0.2-0.3,0.3-0.4,0.5c-0.1,0.1-0.1,0.3-0.1,0.4c-0.5,0.6-1,1.2-1.5,1.8
		c-0.2,0.3,0.2,0.7,0.5,0.5c1.1-0.6,2-1.2,3-1.9c-0.8,1.2-1.7,2.4-2.5,3.6c-0.1,0.1-0.2,0.2-0.3,0.3c-0.1,0.1-0.1,0.2-0.1,0.3
		c-0.1,0.1-0.1,0.2-0.2,0.3c0-0.2,0-0.3,0-0.5c0-0.4-0.6-0.5-0.7-0.1c-0.7,3.2-0.7,6.3-0.1,9.4c0,0.1,0.1,0.2,0.2,0.2
		c0,0.5,0,1.1,0,1.6c-1.6,0-3,0.2-4.4,0.8c-0.6,0.1-1.1,0.1-1.7,0.2c-0.2-0.1-0.4-0.1-0.6-0.2c-0.2-0.1-0.4,0.1-0.4,0.3
		c-0.8,0.1-1.6,0.1-2.4,0.2c-0.4,0-0.5,0.6-0.1,0.7C8,28,8.4,28.2,8.8,28.3c0,0.1,0,0.3,0.2,0.4c0.8,0.5,1.6,0.9,2.4,1.4
		c-0.2,0-0.4,0-0.6,0.1c-0.4,0-0.9,0-1.3,0.1c-0.1,0-0.2,0-0.4,0c-0.1,0-0.3,0-0.4,0c-0.5,0.1-0.5,0.8,0,0.8c0,0,0.1,0,0.1,0
		c0,0.2-0.1,0.3-0.1,0.5c-0.1,0.1-0.1,0.2-0.1,0.3c0,0.1-0.1,0.3-0.1,0.4c-0.3-1-0.7-2-1-3.1c-0.1-0.4-0.7-0.3-0.7,0.1
		c0,0.5,0,0.9,0,1.4c-0.3,2.5-0.3,5.1,0,7.6c0.1,0.5,0.8,0.5,0.8,0c0-0.2,0-0.4,0-0.7c0,0.5,0.1,1,0.1,1.4c0,0.3,0.3,0.4,0.5,0.3
		c0.1,0.1,0.1,0.1,0.3,0.1c0,0,0.1,0,0.1,0c0,0,0,0,0,0c0,0,0,0,0,0c1.3-0.2,2.6-0.4,3.9-0.8c1.5-0.2,3-0.4,4.5-0.4
		c-0.2,0.6-0.4,1.2-0.5,1.9c-0.1,0.5,0.6,0.7,0.7,0.2c0.2-0.5,0.4-1.1,0.6-1.6c-0.1,1-0.1,2.1-0.2,3.2c0,0.2,0.2,0.4,0.4,0.4
		c0,1.5-0.1,3-0.1,4.5c0,0,0,0,0,0c0,0,0,0,0,0c0,0,0,0,0,0.1c0,0,0,0,0,0c0-0.5-0.7-0.5-0.8,0c-0.6,6.2-0.7,12.4-0.2,18.7
		c0,0.5,0.8,0.5,0.8,0c-0.1-2.1,0-4.1,0.3-6.1c0,0.2,0,0.4,0,0.5c0,0.3,0.2,0.4,0.4,0.4c0.1,0.8,0.1,1.6,0.2,2.5
		c0,0.2,0.2,0.3,0.3,0.4c0.1,0.3,0.6,0.4,0.7,0c0,0,0,0.1,0,0.1c0,0.3,0.4,0.4,0.6,0.3c0,0.4,0.1,0.7,0.1,1.1
		c0.1,0.4,0.6,0.5,0.7,0.1c0.2-0.7,0.4-1.4,0.6-2.1c0.1,0.4,0.7,0.3,0.7-0.1c0-0.1,0-0.2,0-0.3c0.1,0.6,0.2,1.2,0.3,1.8
		c0,0.1,0.1,0.2,0.2,0.3c0.1,0.6,0.2,1.1,0.3,1.7c0.1,0.4,0.7,0.4,0.7,0c0.1-0.9,0.2-1.7,0.3-2.6c0.2,1.1,0.4,2.3,0.6,3.4
		c0.1,0.4,0.6,0.4,0.7,0c0.1-0.2,0.1-0.4,0.2-0.7c0,0.6,0,1.1,0.1,1.7c0,0.4,0.7,0.5,0.7,0.1c0.4-2.2,0.7-4.4,0.9-6.6l0.2,5.7
		c0,0.5,0.8,0.5,0.8,0c0.1-6.3,0.1-12.6-0.1-19c0-0.6,0-1.2,0.1-1.8c0.1,1,0.2,1.9,0.3,2.9c0,0.5,0.8,0.5,0.8,0
		c0-2.1-0.1-4.3-0.1-6.4c0.2,0,0.5-0.1,0.4-0.4c-0.2-1.2-0.3-2.5-0.4-3.7c0.4,0.3,0.9,0.6,1.3,1c0.3,0.2,0.6-0.1,0.6-0.4
		c-0.1-0.4-0.2-0.9-0.3-1.3c0.1,0,0.1,0,0.2,0c1.9,0.7,3.8,0.8,5.9,0.5c0.4-0.1,0.3-0.6,0-0.7c-0.2,0-0.3-0.1-0.5-0.1
		c0.1,0,0.1,0,0.2-0.1c0.1,0,0.1,0,0.2,0c0.5,0,0.5-0.7,0-0.8c0-0.1,0.1-0.2,0.1-0.3c0.4-0.1,0.7-0.2,1.1-0.3
		c0.4-0.1,0.3-0.8-0.1-0.7c-0.2,0-0.4,0.1-0.6,0.1c0-0.1,0.1-0.3,0.1-0.4C37.7,35.1,37.8,35.1,37.9,34.9"/>
</g>
</svg>
