<?xml version="1.0" encoding="utf-8"?>
<!-- Generator: Adobe Illustrator 19.1.1, SVG Export Plug-In . SVG Version: 6.00 Build 0)  -->
<svg version="1.1" id="Layer_1" xmlns="http://www.w3.org/2000/svg" xmlns:xlink="http://www.w3.org/1999/xlink" x="0px" y="0px"
	 viewBox="0 0 65.3 63.2" style="enable-background:new 0 0 65.3 63.2;" xml:space="preserve">
<style type="text/css">
	.st0{clip-path:url(#SVGID_2_);fill:#CB355B;}
	.st1{clip-path:url(#SVGID_4_);fill:#CB355B;}
	.st2{clip-path:url(#SVGID_6_);fill:#CB355B;}
	.st3{clip-path:url(#SVGID_8_);fill:#00819F;}
	.st4{clip-path:url(#SVGID_10_);fill:#CB355B;stroke:#CB355B;stroke-miterlimit:10;}
	.st5{clip-path:url(#SVGID_10_);fill:#CB355B;}
	.st6{clip-path:url(#SVGID_12_);fill:#FFFFFF;}
	.st7{clip-path:url(#SVGID_14_);fill:#FFFFFF;}
	.st8{clip-path:url(#SVGID_16_);fill:#FFFFFF;}
	.st9{clip-path:url(#SVGID_18_);fill:#FFFFFF;}
	.st10{clip-path:url(#SVGID_20_);fill:#00819F;}
	.st11{clip-path:url(#SVGID_22_);}
	.st12{clip-path:url(#SVGID_24_);fill:#1D0C06;}
	.st13{clip-path:url(#SVGID_26_);}
	.st14{fill:#00819F;}
	.st15{clip-path:url(#SVGID_28_);fill:#00819F;}
</style>
<g>
	<defs>
		<rect id="SVGID_7_" x="16.8" y="1.6" width="33.5" height="60.8"/>
	</defs>
	<clipPath id="SVGID_2_">
		<use xlink:href="#SVGID_7_"  style="overflow:visible;"/>
	</clipPath>
	<path style="clip-path:url(#SVGID_2_);fill:#00819F;" d="M36.9,52.4c0.1,0,0.1,0,0.2-0.1c-0.1,1.3-0.1,2.5-0.2,3.8c0,0,0,0.1,0,0.1
		c-0.1,0.6-0.2,1.3-0.2,1.9c0-0.4,0-0.7,0-1.1C36.9,55.5,37,53.9,36.9,52.4 M35.5,59.2c-0.4-2.1-0.7-4.1-0.8-6.2
		c0-1.1,0-2.1-0.1-3.2c0-0.2-0.2-0.3-0.4-0.3c0.1-2.5,0.1-5,0.2-7.5c0.1-0.9,0.2-1.8,0.2-2.7c0,0.1,0,0.2,0,0.3
		c0,0.9,0.1,1.8,0.1,2.8c0,0.2,0.2,0.3,0.4,0.3c0.3,2.2,0.6,4.3,0.9,6.5c0,0.1-0.1,0.1-0.1,0.2c-0.1,2.5-0.1,5-0.1,7.5
		C35.8,57.7,35.6,58.5,35.5,59.2 M27.5,52.8c0-1.7,0-3.4,0.1-5.2c0.1,1.1,0.2,2.2,0.2,3.3C27.8,51.5,27.6,52.1,27.5,52.8 M31.7,13.5
		c0,0.2-0.1,0.4-0.1,0.7c-0.1,0.1-0.2,0.2-0.3,0.3c0,0,0,0.1-0.1,0.1c-0.1,0.1-0.2,0.1-0.3,0.2c-0.3,0.2,0,0.7,0.4,0.6
		c0,0.1,0,0.2,0,0.4c-0.1,0.7-0.3,1.4-0.5,2.1c-0.1-0.6-0.2-1.2-0.3-1.9c-0.1-0.3-0.3-0.3-0.5-0.2c0-0.1,0-0.2,0-0.3
		C30.5,14.8,31.1,14.1,31.7,13.5 M30.6,13c0.1,0.1,0.3,0.2,0.4,0.1c-0.3,0.3-0.6,0.7-0.9,1C30.3,13.8,30.4,13.4,30.6,13 M32.1,19.7
		c-0.1,0-0.2,0-0.3,0c0-0.5,0-0.9,0.1-1.4C31.9,18.8,32,19.3,32.1,19.7 M32.7,16.3c0,0.1,0,0.2,0,0.3c0,0,0,0,0,0.1
		c-0.1,0.1-0.2,0.2-0.2,0.3c0,0.4,0,0.8,0,1.2c-0.1-0.4-0.1-0.9-0.2-1.3C32.5,16.6,32.6,16.4,32.7,16.3 M33.6,20.5
		C33.6,20.5,33.6,20.5,33.6,20.5l0.8,2.6c0,0.7,0,1.3,0,2c0,0.1,0,0.2,0,0.3c-0.1,0-0.2,0-0.4,0c-0.2-1.4-0.4-2.9-0.6-4.3
		C33.5,20.7,33.6,20.6,33.6,20.5 M34.1,18.2l0.3-1.3c0.1,1.1,0.3,2.2,0.5,3.3c0,0.2,0.3,0.3,0.4,0.2c0,0.2,0,0.4,0,0.6
		c-0.2,0-0.5,0.1-0.5,0.3c0,0.1,0,0.2,0,0.3c-0.2-0.8-0.5-1.5-0.7-2.3L34.1,18.2z M34.1,13.7c0.9-0.6,1.8-1.2,2.6-1.8
		c0.3-0.1,0.7-0.1,1-0.2c-0.1,0.1-0.1,0.1-0.2,0.2c-0.3,0.3,0.1,0.7,0.5,0.6c0.5-0.2,0.9-0.4,1.4-0.6c-0.7,0.5-1.4,1-1.9,1.6
		c0,0,0,0-0.1,0c-0.3,0.3-0.6,0.5-0.8,0.8c0,0,0-0.1,0-0.1c-0.1-0.4-0.8-0.5-0.8,0c0,0.2,0,0.5,0,0.7c-0.1,0-0.2,0.1-0.2,0.2
		c0,0.2-0.1,0.3-0.1,0.5c0,0,0,0,0,0.1c-0.1,0.1-0.1,0.2,0,0.3c-0.1,0.6-0.2,1.2-0.3,1.8c-0.1-1.1-0.2-2.2-0.3-3.4
		c0-0.4-0.6-0.5-0.7-0.1c0,0.2-0.1,0.4-0.1,0.6C34.1,14.5,34.1,14.1,34.1,13.7 M34.4,6.2c0.1-0.2,0.2-0.5,0.3-0.7
		c0.4-0.2,0.8-0.3,1.2-0.5c0.1,0,0.1-0.1,0.1-0.1c1,0.4,2,0.5,2.9,0.5c0.4,0.2,0.7,0.3,1.1,0.4c-1.1,0.3-2.1,0.7-3.1,1
		c-0.2,0.1-0.5,0.2-0.7,0.3L37,5.9c0.2-0.4-0.4-0.7-0.7-0.4c-0.4,0.6-0.9,1.2-1.3,1.9c0-0.3-0.3-0.5-0.6-0.2c0,0,0,0,0,0
		c0,0,0,0,0,0c0,0,0,0,0.1-0.1c0.2-0.2,0-0.5-0.3-0.5C34.3,6.4,34.4,6.3,34.4,6.2 M35.1,4.1c0.1,0,0.1,0,0.2-0.1
		c0.9-0.2,1.8-0.4,2.7-0.6c0,0.1,0,0.1,0,0.2c-1.1,0.1-2.3,0.4-3.4,0.7C34.8,4.2,35,4.1,35.1,4.1 M38.9,4.3c0,0.1,0,0.3,0.1,0.3
		c-0.5,0-1.1,0-1.6-0.1c0.3-0.1,0.7-0.1,1-0.2C38.6,4.3,38.8,4.3,38.9,4.3 M39.3,2.3c0,0.1,0.1,0.1,0.2,0.2c0.1,0,0.3,0,0.4,0.1
		c-0.4,0-0.9,0.1-1.3,0.1C38.8,2.5,39.1,2.4,39.3,2.3 M38.6,10.6c0.5-0.1,1-0.3,1.5-0.4c-0.2,0.1-0.4,0.2-0.6,0.4
		c-0.4,0.1-0.9,0.3-1.3,0.4C38.3,10.8,38.5,10.7,38.6,10.6 M38.8,8.4L34.4,12c0.9-1.1,1.7-2.2,2.5-3.4c0.4-0.1,0.7-0.3,1-0.5
		c0.4,0,0.7,0,1.1,0c0,0.1,0.1,0.2,0.3,0.2c0.3,0,0.5,0.1,0.8,0.1c-0.2,0.1-0.5,0.3-0.7,0.4C39.6,8.5,39.2,8.1,38.8,8.4 M40.7,12.3
		c-0.6,0.3-1.2,0.6-1.7,0.9c0.4-0.3,0.9-0.6,1.2-0.9c0.1-0.1,0.2-0.1,0.3-0.2C40.5,12.2,40.6,12.3,40.7,12.3 M41,4.9
		c0.4-0.1,0.8-0.1,1.2-0.2c0.1,0,0.1,0,0.2,0c0.3,0,0.7-0.1,1-0.1c-0.7,0.2-1.3,0.4-1.9,0.6c-0.3,0-0.7-0.1-1-0.2
		C40.7,5,40.8,5,41,4.9 M43,2.5c0,0.1,0.2,0.2,0.3,0.2c1.4,0,3.5-0.4,4.8,0c0.4,0.1,0.6,0.5,0.6,1.1c0,0.1-0.1,0.1-0.1,0.2
		c0,0.3,0,0.6,0,0.9c-0.2-0.6-0.4-1.2-0.5-1.9c0-0.2-0.2-0.2-0.3-0.2c-0.2-0.1-0.6,0-0.6,0.3c0,0.1,0,0.2,0,0.3c0,0,0,0-0.1,0
		c-0.3-0.1-0.7-0.2-1-0.2C46,3.1,46,3,45.9,3c-0.1,0-0.3,0-0.4,0C44.6,3,43.8,2.9,43,3c-0.1,0-0.2,0-0.3,0c0.1-0.2,0-0.4-0.2-0.5
		C42.7,2.5,42.8,2.5,43,2.5 M46.5,6c0.2-0.3,0.5-0.6,0.7-0.9c0,0,0.1,0,0.1,0c0,0.9,0.1,1.8,0.1,2.7c-0.1,0-0.1-0.1-0.2-0.1
		c0,0-0.1,0-0.1,0c-0.1-0.1-0.3-0.2-0.5-0.3c0-0.2,0.1-0.3,0.1-0.5C46.7,6.5,46.6,6.2,46.5,6 M47.2,10.4c-0.1,0-0.1-0.1-0.2-0.1
		c-0.4,0-0.8,0-1.3,0c0.1,0,0.2-0.1,0.3-0.1c0.1,0,0.2-0.1,0.2-0.3c0.4-0.2,0.8-0.3,1.1-0.5c0.2,0,0.4-0.1,0.6-0.1
		c0,0.4,0,0.8,0.1,1.1C47.8,10.4,47.5,10.4,47.2,10.4 M45,6.5c-1,0-1.9,0-2.9,0c0.8-0.2,1.5-0.3,2.3-0.5C44.6,6,44.9,6.2,45,6.5
		C45.1,6.4,45,6.5,45,6.5 M43.2,7.9c-0.5,0-1,0-1.6,0c0.4,0,0.9-0.1,1.3-0.2c0.2,0,0.3,0,0.5,0.1C43.3,7.8,43.3,7.9,43.2,7.9
		 M37.9,40.9c-0.1,0.1-0.2,0.1-0.2,0.3c0-2.3-0.1-4.5-0.3-6.8c0.2,0,0.4,0,0.7,0C38,36.5,38,38.7,37.9,40.9 M35.5,40
		c0-1.8-0.1-3.6-0.1-5.5c0,0,0-0.1,0-0.1c0.1,0,0.2,0,0.3,0c0.1,2.8,0.1,5.5,0.2,8.3C35.7,41.8,35.6,40.9,35.5,40 M32.3,51.4
		C32.3,51.4,32.3,51.4,32.3,51.4c-0.1-1.6-0.2-3.3-0.3-4.9c0-0.4,0.1-0.7,0.1-1.1c0.2,1.5,0.4,3.1,0.6,4.6c-0.2,0-0.4,0.1-0.4,0.3
		C32.3,50.7,32.3,51,32.3,51.4 M30.8,52c0.2,0,0.3-0.1,0.4-0.3c0,0,0-0.1,0-0.1c0.1,1,0.3,1.9,0.4,2.9c-0.1,0.9-0.3,1.8-0.5,2.6
		C30.9,55.4,30.8,53.7,30.8,52 M18.7,34.9c0-0.3,0-0.5,0-0.8c0,0,0,0,0.1,0c1.4,0,2.8,0,4.3,0c-0.2,0-0.3,0.1-0.5,0.1
		C21.3,34.4,20,34.6,18.7,34.9 M23.9,26c-0.5,0.1-1.1,0.3-1.7,0.4c-0.3-0.2-0.7-0.4-1-0.6C22.1,25.9,23,25.9,23.9,26 M30.5,23.3
		C30.5,23.3,30.5,23.3,30.5,23.3c0-0.3-0.2-0.4-0.5-0.4c0-0.3,0-0.6,0-1c0.2,0,0.4-0.1,0.5-0.2c0-0.1,0-0.1,0.1-0.2
		c0.1,0.6,0.1,1.1,0.2,1.7C30.7,23.3,30.6,23.3,30.5,23.3 M32.9,24.8c0-0.5-0.1-1-0.1-1.6c0-0.2-0.2-0.3-0.4-0.3c0-0.3,0-0.6,0-0.9
		c0-0.1-0.1-0.2-0.1-0.3c0-0.3,0.1-0.6,0.1-0.9c0.2,1.3,0.5,2.7,0.9,4C33.1,24.8,33,24.8,32.9,24.8 M36.8,41.5c0.1,0,0.1,0,0.2,0
		c0.1,0.4,0.6,0.4,0.7,0.1c-0.1,1.5-0.2,3-0.3,4.6c0,0.1-0.1,0.1-0.1,0.2c0,0.3,0,0.7,0,1c-0.1,1.2-0.1,2.3-0.2,3.5
		C37,47.8,36.9,44.6,36.8,41.5 M27,32.8c0-0.1,0-0.2,0-0.2c0.1,0,0.1,0,0.2,0c0.1,0,0.2,0,0.2,0c0,0,0.1,0,0.1,0c0.1,0,0.3,0,0.4,0
		c-0.1,0.3-0.2,0.6-0.4,0.9c-0.3-0.1-0.5-0.2-0.8-0.2C26.9,33.1,27.1,33,27,32.8 M25.3,32.7c0.3,0,0.6-0.1,0.9-0.1
		c0,0.1,0.1,0.2,0.1,0.3c0,0,0,0.1,0.1,0.1L25.3,32.7z M22.4,27.6c0.3,0,0.6,0,1,0.1c0.3,0.2,0.6,0.3,1,0.5
		c-1.6,0.5-3.2,0.8-4.8,1.1c0.1-0.2,0.1-0.4,0.2-0.7C20.5,28.2,21.5,27.9,22.4,27.6 M38,23.7c-0.1,0.2,0,0.4,0.2,0.5c0,0,0,0,0,0
		c0.1,0.3,0.2,0.6,0.3,0.9c-0.4-0.5-0.8-0.9-1.2-1.4c0.1-0.6,0.2-1.1,0.2-1.5c0,0,0,0,0,0c0,0.1,0.1,0.2,0.3,0.3c0,0.1,0,0.1,0,0.2
		C37.8,23,37.9,23.3,38,23.7 M40.8,24.2c1.6,0.3,3.2,0.4,4.8,0.3c-2,0.8-4.1,1.6-6.1,2.3c0,0,0,0-0.1-0.1c0.2-0.1,0.3-0.2,0.2-0.4
		c-0.1-0.4-0.2-0.8-0.3-1.1c0-0.1,0.1-0.1,0.1-0.2c0-0.3,0-0.6,0-0.8C39.8,24.2,40.3,24.2,40.8,24.2 M46.5,29.1
		c0.1,0,0.3-0.1,0.4-0.1c0,0.8-0.1,1.6-0.3,2.5C46.4,30.9,46.4,29.7,46.5,29.1 M30,35.3c0,0.6-0.1,1.3-0.1,1.9l-0.2-1.8
		c0-0.1-0.1-0.2-0.2-0.3c0.1-0.2,0.1-0.5,0.2-0.7C29.8,34.7,29.9,35,30,35.3 M25.2,28.6C25.2,28.6,25.2,28.6,25.2,28.6
		c0.1,0.5,0.1,1,0.2,1.5c-0.1,0-0.3,0-0.4,0c0,0,0,0,0,0c0.4-0.1,0.3-0.7-0.1-0.7c-0.9,0-1.8,0-2.7,0C23.2,29.2,24.2,28.9,25.2,28.6
		 M34,28.4c-0.1-0.6-0.2-1.1-0.4-1.7c0.2-0.1,0.4-0.2,0.6-0.4C34.2,27.1,34.1,27.7,34,28.4C34.1,28.4,34,28.4,34,28.4 M38.2,27.4
		c-0.4,0.1-0.4,0.7,0.1,0.7c0.1,0,0.2,0,0.3,0c-0.1,0.1-0.1,0.1-0.1,0.2c0,0,0,0,0,0c-0.1,0-0.2,0.1-0.3,0.1c0,0,0,0,0,0l0,0
		c0,0,0,0,0,0c-0.5,0-1,0-1.5,0c-0.1-0.8-0.2-1.6-0.3-2.4c0-0.1,0-0.2,0-0.4c0.2-0.3,0.4-0.6,0.5-0.9c0.6,0.8,1.2,1.6,1.8,2.4
		C38.6,27.2,38.4,27.3,38.2,27.4 M46.2,26c-1.6,0.4-3.3,0.8-5,1c1.8-0.7,3.5-1.3,5.3-2C46.4,25.3,46.3,25.6,46.2,26 M46,31.8
		c-0.1,0-0.1-0.1-0.2,0l-5.1,0.6c-0.1-0.2-0.1-0.5-0.2-0.7c1.5-0.6,3.1-1.1,4.6-1.5c0.3-0.1,0.3-0.5,0.1-0.6c0.2,0,0.3-0.1,0.5-0.1
		C45.7,30.2,45.8,31,46,31.8 M29.7,45.3c0,0-0.1-0.1-0.1-0.1c0-1.5,0-3.1,0-4.6c0,0.2,0.1,0.4,0.1,0.6C29.7,42.6,29.7,44,29.7,45.3
		 M19.6,30.9c0,0.1,0.1,0.2,0.2,0.2c0.4,0.1,0.8,0.3,1.3,0.4c0,0-0.1,0-0.1,0c-0.1,0-0.2,0.1-0.2,0.2c-0.5,0-0.9-0.1-1.1-0.3
		c-0.1-0.1-0.2-0.3-0.3-0.6C19.4,30.9,19.5,30.9,19.6,30.9 M25.4,31c-0.9,0-1.7,0-2.6,0.1c-0.2,0-0.4-0.1-0.7-0.1
		c1.1-0.1,2.2-0.1,3.3-0.2C25.4,30.9,25.4,31,25.4,31 M41.2,29.6c1.5-0.3,2.9-0.6,4.4-0.9C44.2,29.2,42.7,29.5,41.2,29.6 M40.1,30.5
		c0.6,0,1.2,0,1.8-0.1c-0.5,0.2-1.1,0.4-1.6,0.6C40.2,30.8,40.2,30.7,40.1,30.5 M39.4,32.5c0-0.1,0-0.3,0-0.4
		c0.1-0.1,0.3-0.1,0.4-0.2c0,0.2,0.1,0.3,0.1,0.5C39.7,32.5,39.6,32.5,39.4,32.5 M31.1,30.7c0.1,0,0.2-0.1,0.3-0.1
		c-0.1,1-0.1,2-0.2,3c-0.1-0.1-0.3-0.1-0.4,0C31,32.6,31,31.7,31.1,30.7 M30.8,26.6c0,0.2-0.1,0.5-0.1,0.7c-0.2,0.3-0.5,0.6-0.7,0.9
		c0,0-0.1,0-0.1,0.1c0.2-1.1,0.4-2.2,0.6-3.4c0.2,0,0.4,0,0.6,0.1C30.9,25.5,30.8,26,30.8,26.6 M25.9,26.4c0.6-0.1,1.2-0.1,1.8-0.1
		c0,0,0,0,0,0c-0.1,0.3-0.2,0.7-0.4,0.9c-0.2-0.1-0.3,0-0.4,0.1c-0.1,0.2-0.1,0.3-0.2,0.5c0,0-0.1,0-0.1,0c0-0.2,0-0.3-0.3-0.4
		c-0.2,0-0.3-0.1-0.5-0.1C25.9,27.1,25.8,26.8,25.9,26.4C25.8,26.5,25.9,26.4,25.9,26.4 M27.2,28.7c0,0,0.1,0,0.1-0.1
		c0.2,0.4,0.4,0.9,0.5,1.3c-0.3,0-0.6,0-1,0.1C26.9,29.6,27.1,29.2,27.2,28.7 M28.9,25c0,0,0.1,0,0.1,0c0.1,0,0.2,0,0.3,0
		c0,0.2,0,0.4,0,0.5c-0.3,1.4-0.5,2.8-0.7,4.3c-0.2-0.5-0.4-1.1-0.7-1.6C28.5,27.3,28.8,26.1,28.9,25 M26.8,31.2c0-0.1,0-0.3,0-0.4
		c0.4,0,0.8,0,1.1-0.1c-0.2,0.2-0.3,0.4-0.5,0.6C27.3,31.3,27,31.2,26.8,31.2 M37.2,32.2c0-0.5-0.1-1-0.2-1.5
		c0.2-0.1,0.4-0.2,0.6-0.2c0.3,0,0.6,0,0.9,0c0,0.3,0,0.6,0,0.9c-0.2,0-0.3,0.1-0.3,0.3c0,0,0,0,0,0.1C37.8,32,37.5,32.1,37.2,32.2
		 M26.7,24.1c0.1,0,0.2-0.1,0.2-0.1c0.2,0,0.4,0,0.6,0c0,0.2,0,0.4,0,0.7c-0.4,0.1-0.7,0.3-1,0.4c-0.8-0.2-1.5-0.4-2.3-0.5
		C25.1,24.3,25.9,24.2,26.7,24.1 M29.5,32.1c0-0.1,0-0.2-0.1-0.3c-0.1-0.1-0.1-0.3-0.2-0.4c0.2-0.1,0.4-0.2,0.6-0.2
		C29.7,31.5,29.6,31.8,29.5,32.1 M18.8,33c0.5,0,1-0.1,1.5-0.1c-0.1,0.2,0,0.4,0.2,0.5c0.1,0,0.2,0,0.2,0c-0.7,0-1.4,0-2,0
		c0,0,0,0,0,0C18.8,33.3,18.8,33.1,18.8,33 M28.9,33.8C28.9,33.8,28.8,33.8,28.9,33.8c-0.1-0.4,0-0.8,0-1.1c0.1,0.2,0.2,0.5,0.3,0.7
		c0,0.2-0.1,0.3-0.2,0.5C29,33.8,29,33.8,28.9,33.8 M48,31.3c1-1.9,1.8-3.8,2.3-5.9c0.1-0.4-0.5-0.6-0.7-0.3
		c-0.1,0.1-0.1,0.2-0.2,0.3c0-0.4-0.6-0.5-0.7-0.1c-0.2,0.6-0.5,1.2-0.7,1.8c0-1.1,0-2.2,0-3.3c0-0.2-0.2-0.4-0.5-0.3
		c-0.3,0-0.6,0.1-0.9,0.1c-2.4-0.5-4.9-0.7-7.3-0.4c-0.2-1.5-0.5-2.9-1.1-4.4c0.3-1.6,0.7-3.2,1.2-4.8c0,0,0,0,0,0
		c1.4-0.8,2.9-1.5,4.4-2.1c0.6,0,1.1,0,1.7,0c0,0,0.1,0,0.2,0c0.5,0.1,0.9,0,1.3-0.2c1-0.2,1.9-0.4,2.9-0.8c0.4-0.1,0.4-0.7-0.1-0.7
		c-0.2,0-0.4,0-0.5-0.2c0.1,0,0.1-0.1,0.2-0.2c0,0,0-0.1,0-0.1h0v0c0,0,0,0,0,0c0,0,0,0,0,0v0c0.3-1.9,0.4-3.7,0.3-5.6
		c0-0.2-0.1-0.3-0.2-0.3c0-0.5,0.1-1.1,0.1-1.6c0-0.2-0.2-0.3-0.4-0.4c-0.1,0-0.1,0-0.2,0c0.2-0.2,0.1-0.6-0.3-0.6
		c-3.1,0.3-6.1,0.3-9.2,0.2c0,0,0,0,0,0c-0.1-0.2-0.2-0.3-0.4-0.2c-1.5,0.5-2.9,1.1-4.3,1.8c-0.3,0.1-0.5,0.2-0.8,0.2
		c-0.2,0.1-0.3,0.2-0.3,0.3c-0.8,0.4-1.5,0.9-2.2,1.4c-0.5,0.2-0.9,0.4-1.4,0.6C30,6,30,6.3,30.1,6.4c-0.3,0.2-0.5,0.4-0.8,0.6
		c-0.3,0.2,0,0.7,0.4,0.6c-0.1,0.1-0.3,0.3-0.4,0.5c-0.1,0.1-0.1,0.2-0.1,0.4c-0.5,0.5-1,1.1-1.5,1.6c-0.2,0.3,0.2,0.6,0.5,0.5
		c1-0.5,2-1.1,3-1.8c-0.8,1.1-1.6,2.3-2.5,3.4c-0.1,0.1-0.2,0.2-0.3,0.3c-0.1,0.1-0.1,0.2-0.1,0.3c-0.1,0.1-0.1,0.2-0.2,0.3
		c0-0.2,0-0.3,0-0.5c0-0.4-0.6-0.5-0.7-0.1c-0.7,2.9-0.7,5.8-0.1,8.8c0,0.1,0.1,0.2,0.2,0.2c0,0.5,0,1,0,1.5c-1.5,0-3,0.2-4.4,0.7
		c-0.6,0-1.1,0.1-1.7,0.1c-0.2,0-0.4-0.1-0.6-0.1c-0.2-0.1-0.4,0.1-0.4,0.2C19.6,24,18.8,24,18,24.1c-0.4,0-0.5,0.6-0.1,0.7
		c0.4,0.1,0.8,0.2,1.2,0.3c0,0.1,0,0.3,0.2,0.3c0.8,0.4,1.6,0.9,2.4,1.3c-0.2,0-0.4,0-0.6,0.1c-0.4,0-0.9,0-1.3,0.1
		c-0.1,0-0.2,0-0.3,0c-0.1,0-0.3,0-0.4,0c-0.5,0.1-0.5,0.7,0,0.7c0,0,0.1,0,0.1,0c0,0.2-0.1,0.3-0.1,0.5c-0.1,0.1-0.1,0.2-0.1,0.3
		c0,0.1-0.1,0.3-0.1,0.4c-0.3-0.9-0.7-1.9-1-2.8c-0.1-0.4-0.7-0.3-0.7,0.1c0,0.4,0,0.9,0,1.3c-0.3,2.4-0.3,4.7,0,7.1
		c0.1,0.4,0.8,0.5,0.8,0c0-0.2,0-0.4,0-0.6c0,0.4,0.1,0.9,0.1,1.3c0,0.3,0.3,0.4,0.5,0.3c0.1,0.1,0.1,0.1,0.3,0.1c0,0,0.1,0,0.1,0
		c0,0,0,0,0,0c0,0,0,0,0,0c1.3-0.2,2.6-0.4,3.9-0.7c1.5-0.2,3-0.3,4.5-0.4c-0.2,0.6-0.4,1.1-0.5,1.7c-0.1,0.4,0.6,0.6,0.7,0.2
		c0.2-0.5,0.4-1,0.6-1.5c-0.1,1-0.1,1.9-0.2,2.9c0,0.2,0.2,0.3,0.4,0.3c0,1.4-0.1,2.8-0.1,4.2c0,0,0,0,0,0c0,0,0,0,0,0
		c0,0,0,0,0,0.1c0,0,0,0,0,0c0-0.5-0.7-0.4-0.8,0c-0.6,5.8-0.7,11.5-0.2,17.3c0,0.4,0.8,0.5,0.8,0c-0.1-1.9,0-3.8,0.3-5.7
		c0,0.2,0,0.3,0,0.5c0,0.2,0.2,0.4,0.4,0.3c0.1,0.8,0.1,1.5,0.2,2.3c0,0.2,0.2,0.3,0.3,0.3c0.1,0.3,0.6,0.3,0.7,0c0,0,0,0.1,0,0.1
		c0,0.3,0.4,0.4,0.6,0.3c0,0.3,0.1,0.7,0.1,1c0.1,0.4,0.6,0.5,0.7,0.1c0.2-0.7,0.4-1.3,0.6-2c0.1,0.4,0.7,0.3,0.7-0.1
		c0-0.1,0-0.2,0-0.2c0.1,0.6,0.2,1.1,0.3,1.7c0,0.1,0.1,0.2,0.2,0.2c0.1,0.5,0.2,1,0.3,1.5c0.1,0.3,0.7,0.3,0.7,0
		c0.1-0.8,0.2-1.6,0.3-2.4c0.2,1.1,0.4,2.1,0.6,3.2c0.1,0.3,0.6,0.3,0.7,0c0.1-0.2,0.1-0.4,0.2-0.6c0,0.5,0,1,0.1,1.5
		c0,0.4,0.7,0.5,0.7,0.1c0.4-2,0.7-4.1,0.9-6.1l0.2,5.3c0,0.5,0.7,0.5,0.8,0c0.1-5.9,0.1-11.7-0.1-17.6c0-0.6,0-1.1,0.1-1.7
		c0.1,0.9,0.2,1.8,0.3,2.7c0,0.4,0.8,0.5,0.8,0c0-2-0.1-3.9-0.1-5.9c0.2,0,0.5-0.1,0.4-0.3c-0.2-1.1-0.3-2.3-0.4-3.4
		c0.4,0.3,0.9,0.6,1.3,0.9c0.3,0.2,0.6-0.1,0.6-0.4c-0.1-0.4-0.2-0.8-0.3-1.2c0.1,0,0.1,0,0.2,0c1.9,0.6,3.8,0.8,5.8,0.4
		c0.4-0.1,0.3-0.6,0-0.7c-0.2,0-0.3-0.1-0.5-0.1c0.1,0,0.1,0,0.2-0.1c0.1,0,0.1,0,0.2,0c0.5,0,0.5-0.7,0-0.7c0-0.1,0.1-0.2,0.1-0.3
		c0.4-0.1,0.7-0.2,1.1-0.3c0.4-0.1,0.3-0.7-0.1-0.7c-0.2,0-0.4,0.1-0.6,0.1c0-0.1,0.1-0.3,0.1-0.4C47.8,31.5,48,31.4,48,31.3"/>
</g>
</svg>
