<?xml version="1.0" encoding="utf-8"?>
<!-- Generator: Adobe Illustrator 19.1.1, SVG Export Plug-In . SVG Version: 6.00 Build 0)  -->
<svg version="1.1" id="Layer_1" xmlns="http://www.w3.org/2000/svg" xmlns:xlink="http://www.w3.org/1999/xlink" x="0px" y="0px"
	 viewBox="0 0 6 6" style="enable-background:new 0 0 6 6;" xml:space="preserve">
<style type="text/css">
	.st0{fill:#FAF0E6;}
</style>
<g>
	<g>
		<path class="st0" d="M0.8,1.5c0.8,0,1.5,0,2.3-0.1c0.3,0,1.8-0.1,1.9-0.3c0.1-0.3-0.7,0-0.7,0c-0.5,0.1-1,0.1-1.4,0.1
			c-0.7,0-1.5,0-2.2,0c-0.1,0-0.1,0.1,0,0.1C2.3,1.6,4,1.7,5.7,1.6c0.1,0,0.1-0.2,0-0.1c-0.8,0-1.7,0-2.5,0c-0.5,0-0.9,0-1.4-0.1
			c-0.1,0-1-0.1-0.8,0.1c0.2,0.2,1.9,0,2.2-0.1c0.7-0.1,1.5-0.2,2.2-0.4c0.1,0,0.1-0.2,0-0.1c-1.5,0.3-3,0.5-4.5,0.5
			C0.7,1.4,0.7,1.5,0.8,1.5L0.8,1.5z"/>
	</g>
</g>
<g>
	<g>
		<path class="st0" d="M1.4,3c1.1,0,2.2,0,3.4,0c0,0,0-0.1,0-0.2c-1.1,0-2.2,0-3.3,0C1.4,2.9,1.4,3,1.4,3c0.5,0.1,1,0.1,1.5,0.1
			C3,3.2,3,3,2.9,3C2.4,3,2,2.9,1.5,2.9C1.5,2.9,1.5,3,1.4,3c1.2,0.1,2.3,0.1,3.4,0c0.1,0,0.1-0.1,0-0.2c-1.1,0-2.2,0-3.4,0
			C1.3,2.9,1.3,3,1.4,3L1.4,3z"/>
	</g>
</g>
<g>
	<g>
		<path class="st0" d="M2,4.5c0.9,0,1.8,0,2.8,0.1c0.1,0,0.1-0.1,0-0.1C3.9,3.9,2.5,4.1,1.5,4.3c-0.1,0-0.1,0.2,0,0.1
			c0.6-0.1,1.3-0.1,1.9,0c0.1,0,0.1-0.1,0-0.1c-0.7-0.1-1.3-0.1-2,0c0,0,0,0.1,0,0.1c0.9-0.1,2.3-0.3,3.1,0.1c0,0,0-0.1,0-0.1
			C3.8,4.3,2.9,4.3,2,4.3C1.9,4.3,1.9,4.5,2,4.5L2,4.5z"/>
	</g>
</g>
</svg>
