<?xml version="1.0" encoding="utf-8"?>
<!-- Generator: Adobe Illustrator 19.1.1, SVG Export Plug-In . SVG Version: 6.00 Build 0)  -->
<svg version="1.1" id="Layer_1" xmlns="http://www.w3.org/2000/svg" xmlns:xlink="http://www.w3.org/1999/xlink" x="0px" y="0px"
	 viewBox="0 0 7.2 7.6" style="enable-background:new 0 0 7.2 7.6;" xml:space="preserve">
<style type="text/css">
	.st0{fill:#FAF0E6;}
</style>
<g>
	<g>
		<path class="st0" d="M0.6,1c0.9-0.2,1.7-0.1,2.6-0.1c0.8,0,1.7-0.1,2.5-0.1c0.1,0,0.1-0.2,0-0.2C4.9,0.7,4,0.8,3.1,0.8
			C2.7,0.9,2.2,0.9,1.8,1C1.6,1,1,1,0.9,1.1c-0.1,0.1,0.9,0,1,0c0.4,0,0.7,0,1.1,0c0.9,0,1.7,0,2.6,0c0.1,0,0.1-0.2,0-0.1
			C4,0.9,2.2,0.7,0.6,1.2c-0.1,0-0.1,0.2,0,0.1c1-0.1,2-0.3,2.9-0.4c0.4,0,1,0,1.4-0.1c0.3-0.1,0.7-0.1,0-0.2
			C4.2,0.6,3.4,0.8,2.6,0.7c-0.7,0-1.4-0.1-2,0.1C0.5,0.8,0.5,1,0.6,1L0.6,1z"/>
	</g>
</g>
<g>
	<g>
		<path class="st0" d="M0.6,1C0.5,2.3,0.4,3.5,0.4,4.7c0,0.1,0.1,0.1,0.1,0C0.7,4.2,0.8,3.6,0.8,3c0-0.3,0.1-0.7,0-1
			c-0.1-0.5-0.1-0.5-0.1,0c-0.1,1.4,0.1,2.9,0,4.3c0,0.1,0.1,0.1,0.1,0C1,4.7,1.1,3,1,1.3c0-0.1-0.2-0.1-0.2,0c0,0.8,0,1.7,0,2.5
			c0,0.3-0.2,2.1,0,2.1c0.1,0,0-4.3,0-4.6c0-0.1-0.2-0.1-0.1,0c0,0.9,0.1,2.4-0.2,3c0.2-0.4,0-1.2,0.1-1.6c0-0.5,0.1-1.1,0.2-1.6
			C0.8,1,0.6,1,0.6,1L0.6,1z"/>
	</g>
</g>
<g>
	<g>
		<path class="st0" d="M0.7,6.2c1.3-0.2,2.6,0,3.9,0.1c0.4,0.1,1.2,0.2,1.4,0.1C5.7,6.7,4.4,6.5,3.9,6.5c-0.7,0-1.3,0-2,0
			c-0.2,0-0.9,0-0.7-0.1c0.2-0.1,0.6-0.1,0.9-0.1c1.5-0.1,2.9-0.1,4.4-0.1c0.1,0,0.1-0.1,0-0.2C4.6,6,2.7,6.1,0.7,6.2
			c0,0.1,0,0.2,0.1,0.2C2.6,7,4.7,6.7,6.5,6.6c0.1,0,0.1-0.1,0-0.2C4.6,6.3,2.7,5.8,0.7,6.1C0.6,6.1,0.6,6.3,0.7,6.2L0.7,6.2z"/>
	</g>
</g>
<g>
	<g>
		<path class="st0" d="M6,0.7C6,0.7,6,0.7,6,0.7c0-0.1-0.1-0.1-0.1-0.1C5.3,1.4,5.6,3.2,5.6,4.1c0,0.6-0.3,2.2,0.2,2.6
			c0,0,0.1,0,0.1,0c0.6-0.3,0.4-1.5,0.4-2c0-1.5,0.1-3,0-4.5c0-0.1-0.1-0.1-0.1,0C5.5,1.9,5.8,4,5.8,5.8c0,0.1,0.1,0.1,0.2,0
			c0-1.4,0-2.8,0.1-4.2C6,1.1,6.2-0.1,6.2,1c0,0.8,0,1.5,0,2.3c0,0.6,0,1.2,0,1.8c0,0.1,0.1,0.8,0,0.8C5.7,6.3,5.8,5.7,5.8,5.5
			c-0.1-0.7,0-1.5-0.1-2.2c0-0.8,0.3-1.9,0.1-2.6C5.9,0.8,6,0.8,6,0.7L6,0.7z"/>
	</g>
</g>
<g>
	<g>
		<path class="st0" d="M1.3,2.9c0.6,0,1.2,0,1.8-0.1c0.2,0,1.4,0,1.5-0.2c0.2-0.3-0.5,0-0.6,0C3.6,2.6,3.3,2.7,2.9,2.7
			c-0.6,0-1.1,0-1.7,0c-0.1,0-0.1,0.1,0,0.1C2.5,3,3.8,3,5.1,3c0.1,0,0.1-0.2,0-0.1c-0.7,0-1.3,0-2,0c-0.4,0-0.7,0-1.1,0
			C2,2.8,1.3,2.7,1.5,2.9c0.1,0.1,0.8,0,0.9,0c0.3,0,0.6,0,0.9,0c0.6,0,1.1-0.1,1.7-0.3c0.1,0,0.1-0.2,0-0.1
			C3.7,2.6,2.5,2.8,1.3,2.8C1.2,2.8,1.2,2.9,1.3,2.9L1.3,2.9z"/>
	</g>
</g>
<g>
	<g>
		<path class="st0" d="M1.8,4.1c0.9,0,1.7,0,2.6,0c0,0,0-0.1,0-0.1c-0.9,0-1.7,0-2.6,0C1.8,3.9,1.8,4.1,1.8,4.1
			c0.4,0,0.8,0.1,1.1,0.1C3.1,4.2,3.1,4,3,4C2.6,4,2.2,3.9,1.9,3.9C1.9,4,1.9,4,1.8,4.1c0.9,0,1.8,0.1,2.6,0c0.1,0,0.1-0.1,0-0.1
			c-0.9,0-1.7,0-2.6,0C1.7,3.9,1.7,4.1,1.8,4.1L1.8,4.1z"/>
	</g>
</g>
<g>
	<g>
		<path class="st0" d="M2.2,5.2c0.7,0,1.4,0,2.1,0.1c0.1,0,0.1-0.1,0-0.1C3.7,4.7,2.6,4.9,1.9,5c-0.1,0-0.1,0.2,0,0.1
			c0.5-0.1,1-0.1,1.5,0c0.1,0,0.1-0.1,0-0.1C2.9,5,2.4,4.9,1.9,5c0,0,0,0.1,0,0.1c0.7-0.1,1.8-0.3,2.4,0.1c0,0,0-0.1,0-0.1
			C3.7,5,3,5,2.2,5C2.1,5,2.1,5.2,2.2,5.2L2.2,5.2z"/>
	</g>
</g>
</svg>
