<?xml version="1.0" encoding="utf-8"?>
<!-- Generator: Adobe Illustrator 19.1.1, SVG Export Plug-In . SVG Version: 6.00 Build 0)  -->
<svg version="1.1" id="Layer_1" xmlns="http://www.w3.org/2000/svg" xmlns:xlink="http://www.w3.org/1999/xlink" x="0px" y="0px"
	 viewBox="0 0 65.3 64" style="enable-background:new 0 0 65.3 64;" xml:space="preserve">
<style type="text/css">
	.st0{clip-path:url(#SVGID_2_);fill:#CB355B;}
	.st1{clip-path:url(#SVGID_4_);fill:#CB355B;}
	.st2{clip-path:url(#SVGID_6_);fill:#CB355B;}
	.st3{clip-path:url(#SVGID_8_);fill:#00819F;}
	.st4{clip-path:url(#SVGID_10_);fill:#CB355B;stroke:#CB355B;stroke-miterlimit:10;}
	.st5{clip-path:url(#SVGID_10_);fill:#CB355B;}
	.st6{clip-path:url(#SVGID_12_);fill:#FFFFFF;}
	.st7{clip-path:url(#SVGID_14_);fill:#FFFFFF;}
	.st8{clip-path:url(#SVGID_16_);fill:#FFFFFF;}
	.st9{clip-path:url(#SVGID_18_);fill:#FFFFFF;}
	.st10{clip-path:url(#SVGID_20_);fill:#00819F;}
	.st11{clip-path:url(#SVGID_22_);}
	.st12{clip-path:url(#SVGID_24_);fill:#1D0C06;}
	.st13{clip-path:url(#SVGID_26_);}
	.st14{fill:#00819F;}
	.st15{clip-path:url(#SVGID_28_);fill:#00819F;}
</style>
<g>
	<defs>
		<rect id="SVGID_25_" x="3.1" y="3.7" width="60.1" height="58.7"/>
	</defs>
	<clipPath id="SVGID_2_">
		<use xlink:href="#SVGID_25_"  style="overflow:visible;"/>
	</clipPath>
	<g style="clip-path:url(#SVGID_2_);">
		<path class="st14" d="M61.3,21c-1.2,0.2-2.4,0.3-3.6,0.5l3.2-0.6c0.4-0.1,0.3-0.7-0.1-0.6c-0.8,0.1-1.6,0.2-2.4,0.3
			c-0.5,0-1.1,0.1-1.6,0.1c0.4-0.1,0.2-0.7-0.2-0.6c-2.1,0.4-4.2,0.7-6.3,1.1c-0.8,0-1.6,0-2.4,0.1c-0.2,0-0.3,0.2-0.3,0.4
			c-1,0.2-2,0.3-3,0.5C43.9,21.4,43,21,42,20.7c-0.6-0.2-1.2-0.3-1.8-0.4c-0.9-0.5-1.9-0.8-2.9-1c-0.3-0.1-0.5-0.2-0.8-0.3
			c0.6,0,1.1-0.1,1.7-0.1c0.4,0,0.4-0.6,0-0.7l-4.1-0.1c-0.2,0-0.3,0.2-0.3,0.4c-0.6,0.1-1.2,0.2-1.8,0.3c0-0.2-0.1-0.4-0.4-0.4
			c-0.9,0.3-5.4,1.6-7.4,3c-0.9,0-1.8,0-2.7,0c0,0-0.1,0-0.1,0c-0.4,0-0.7,0-1.1,0c0.3-0.1,0.3-0.6-0.1-0.6c-0.6,0-1.1,0-1.7,0
			c-0.5-5.3-0.6-10.7-0.3-16.1c3.7-0.4,7.6-0.5,11.3-0.5c9-0.1,17.9,0.3,26.7,2.3c0,0,0,0,0,0.1c0.7,0.9,1.5,1.7,2.2,2.6
			c0.2,0.3,0.4,0.5,0.6,0.8c0.3,0.7,0.6,1.5,0.9,2.2c0.3,1.8,0.6,3.5,0.8,5.3c0,0.4,0.7,0.4,0.7,0c0-0.6,0-1.1,0-1.7c0,0,0,0,0.1,0
			c0.2,1.8,0.3,3.5,0.3,5.3C61.6,21.1,61.5,21,61.3,21 M21.8,26.3c0-0.1,0-0.1,0-0.2c0.2-0.8,0.6-1.4,1-2c0.9-0.8,1.9-1.4,2.9-1.9
			C24.1,23.2,22.7,24.6,21.8,26.3 M21.8,38.9c1,1.3,2.3,2.3,3.7,3.1c0.8,0.6,1.6,1.1,2.6,1.5c4.5,1.7,9.6,0.3,13.6-2.1
			c0.5-0.3,1-0.6,1.4-1c-2.3,2.4-5.4,4-8.7,4.9C29.4,45,24.3,43.3,21.8,38.9 M20,36.9c1.2,3.1,2.9,6,6.1,7.3c0.2,0.1,0.3,0,0.4-0.2
			c1.8,0.9,3.9,1.5,6,1.8c-1.1,0.2-2.2,0.3-3.3,0.3c-1.9,0-3.8-0.1-5.5-0.9c-2.2-1-3.1-3.1-3.4-5.3c-0.2-1.1-0.3-2.1-0.4-3.2
			C19.9,36.8,20,36.8,20,36.9 M21,28c-0.2,0.4-0.3,0.9-0.4,1.4c-0.3,1.3-0.4,2.6-0.2,3.8c0,0,0,0-0.1,0c-0.4-1.5-0.5-3-0.5-4.5
			c0.2-0.6,0.4-1.2,0.7-1.8c0.3-0.5,0.6-1,0.9-1.4C21.2,26.3,21,27.2,21,28 M22.2,37.3c-0.1-0.6-0.3-1.2-0.5-1.7c0,0,0-0.1,0-0.1
			c-0.1-0.2-0.2-0.4-0.2-0.6c0,0,0-0.1,0-0.1c-0.5-1.4-0.6-2.7-0.4-4.1c0.1,1.1,0.2,2.1,0.4,3.2c0.3,1.7,0.7,3.3,1.5,4.8
			c-0.3-0.3-0.5-0.7-0.7-1C22.2,37.5,22.2,37.4,22.2,37.3 M29.8,21c4.4-0.6,9.1,0.5,12.3,3.1c3.6,3,5.2,7.9,3,12.2
			c-2.1,4.2-6.7,6.3-11.3,6.6c-2.6,0.1-5.3-0.2-7.6-1.3c-0.2-0.1-0.4-0.3-0.7-0.4c-0.9-0.8-1.7-1.7-2.3-2.9
			c-0.9-1.8-1.3-3.7-1.5-5.7c-0.2-1.3-0.4-2.8-0.4-4.2c0.5-1.5,1.4-2.8,2.4-4C25.5,22.8,27.6,21.6,29.8,21 M30.5,20.2
			c-0.8,0.1-1.7,0.2-2.5,0.4c0.4-0.2,0.8-0.4,1.2-0.5c0.2-0.1,0.5-0.2,0.7-0.2c0.8-0.2,1.6-0.3,2.3-0.4c1.4-0.1,2.8-0.1,4.2,0.2
			C34.3,19.6,32.4,19.8,30.5,20.2 M45.5,24.8c-0.5-0.7-1-1.3-1.6-1.9c0.2,0,0.3,0,0.5-0.1C44.9,23.3,45.3,24,45.5,24.8 M45.7,23.5
			c-0.1-0.2-0.3-0.4-0.4-0.6c1.2,0,2.4-0.1,3.7-0.3c-1,0.2-2,0.4-3,0.6C45.7,23.1,45.6,23.3,45.7,23.5 M42.4,21.5
			c0.5,0.2,0.9,0.3,1.3,0.6c0,0,0.1,0.1,0.1,0.1c-0.1,0-0.1,0-0.2,0c-0.1,0-0.2,0.1-0.2,0.2c-0.3-0.3-0.6-0.5-1-0.8
			C42.5,21.6,42.4,21.5,42.4,21.5 M44.1,25.1c-2.4-2.7-5.9-4.3-9.6-4.8c0.1,0,0.2,0,0.4,0c1.5,0,3,0.2,4.5,0.4
			c0.1,0.1,0.3,0.1,0.4,0.2c0,0.1,0,0.1,0.1,0.2c0.3,0.3,0.6,0.4,0.9,0.6C42,22.6,43.2,23.8,44.1,25.1 M61.1,32
			c-0.6,7-1.2,14-1.7,21c0,0.2,0.2,0.3,0.4,0.3c-1.8,2.4-4.1,4.1-6.7,5.3c-1.9,0.1-3.8,0.1-5.8,0.2c-4.4,0.2-8.8,0.3-13.2,0.5
			c-4.3,0.2-8.6,0.4-12.9,0.4c-2.2,0-4.3-0.2-6.5-0.4c-0.8-0.1-1.5-0.2-2.3-0.1c-1.1-1-2.4-1.6-3.9-1.8c-0.1,0-0.1,0-0.2,0
			c0,0-0.1-0.1-0.1-0.1C7.6,56.9,7,56.5,6.5,56l-0.1-1.7c0.3-0.5,0.3-1.1-0.1-1.9c-0.1-0.1-0.1-0.1-0.2-0.1
			c-0.5-5.9-0.8-11.9-0.9-17.8c0.4-3.6,0.8-7.2,1.3-10.7c0.7-0.1,1.3-0.2,2-0.3c0.3,0.1,0.7,0.2,1,0.2c-0.5,0.2-1,0.4-1.5,0.7
			c-0.3,0.2-0.1,0.7,0.3,0.6c1.3-0.4,2.5-0.7,3.8-0.9c0.8,0,1.6,0,2.3,0c0,0.2,0,0.4,0,0.6c0,0.4,0.7,0.4,0.7,0c0-0.2,0-0.4,0-0.6
			c0.6-0.1,1.2-0.1,1.8-0.3c0.9,0.1,1.9,0.1,2.8,0.1c0.3,0,0.4-0.3,0.3-0.5c0.4-0.1,0.9-0.2,1.3-0.3c0.2-0.1,0.3-0.2,0.2-0.4
			c0.5,0,1-0.1,1.5-0.1c0,0.1,0,0.1,0,0.2c-0.2,0.2-0.4,0.5-0.6,0.7c-1.1,1-2,2.1-2.6,3.3c0,0,0,0,0-0.1c0.1-0.4-0.5-0.6-0.6-0.2
			c-0.2,1.1-0.3,2.3-0.3,3.4c-0.2,1.3-0.2,2.7,0,4.1c0.4,4,0.2,9.5,4.2,11.6c3.3,1.7,7.8,1.4,11.5,0.4c1.4,0.1,2.7,0.1,4,0
			c0.4,0,0.4-0.7,0-0.7c-0.7,0-1.4,0-2.1,0c3.9-1.4,7.3-4,9.3-7.6c1.7-3.1,2.2-6.8,1.1-10.2c-0.2-1.3-0.5-2.5-1-3.6
			c-0.1-0.2-0.1-0.3-0.2-0.4c0.1,0.1,0.2,0.2,0.3,0.1c0.8-0.1,1.6-0.2,2.3-0.3c0.1,0.1,0.2,0.2,0.3,0.1c0.5-0.1,1-0.2,1.5-0.2
			c2.7-0.1,5.3-0.2,8-0.5c0.4,0,0.8,0,1.2-0.1c0.1,0,0.2-0.1,0.2-0.1c0.2,0,0.5-0.1,0.7-0.1c0.4,0.1,0.8,0.2,1.3,0.2
			C61.6,25.9,61.3,28.9,61.1,32 M39.2,61.5c-7.7,0.3-15.4-0.3-23-1c0-0.1-0.1-0.2-0.1-0.2c-0.1-0.1-0.3-0.2-0.4-0.2c0,0,0,0,0,0
			c1.4,0.2,2.9,0.3,4.3,0.3c2.9,0.1,5.8-0.1,8.7-0.2c6.1-0.2,12.2-0.5,18.3-0.7c1.5-0.1,3-0.1,4.5-0.2
			C47.6,60.8,43.3,61.4,39.2,61.5 M5,54c-0.3-0.6-0.5-1.4-0.6-2.2c-0.3-4,0-8.1,0.3-12.1c0.2,4.8,0.5,9.6,0.9,14.4
			C5.5,54.1,5.3,54.1,5,54 M5.3,22.8c0,0,0.1,0,0.1,0c0.2,0,0.4,0,0.6,0c0,0.1,0,0.2,0,0.4c-0.1,0-0.1,0-0.2,0
			c-0.4,0.1-0.3,0.6,0.1,0.6c-0.2,1.8-0.5,3.5-0.7,5.3C5.2,27,5.3,24.9,5.3,22.8 M5.4,21.6c0.3,0,0.6,0,0.9,0c0,0.2,0,0.3-0.1,0.5
			c-0.2,0-0.5,0-0.7,0.1c0,0-0.1,0-0.1,0C5.4,22,5.4,21.8,5.4,21.6 M6,9c0.1,0.1,0.2,0.1,0.3,0C7,8.7,7.6,8.2,8.2,7.8
			C7.6,12.2,7,16.6,6.3,21c-0.3,0-0.6,0-0.9,0C5.5,17,5.7,13,6,9 M9,7.2C9.1,7.1,9.2,7,9.3,6.9c0.3-0.1,0.7-0.3,1-0.4
			c-0.5,4.8-0.8,9.7-1,14.5c-0.4,0-0.9,0-1.3,0c-0.4,0-0.7,0-1.1,0C7.6,16.4,8.3,11.8,9,7.2 M12.7,5.8c0,0,0,0.1,0,0.1
			c-0.2,1.2,0.1,2.2,0.3,3.3c0.3,1.6,0.6,3.3,0.9,4.9c0.3,2.3,0.5,4.5,0.6,6.8c-1.5,0-3,0-4.5,0c0.2-4.9,0.6-9.8,1.1-14.7
			C11.6,6.1,12.1,5.9,12.7,5.8 M14.6,5.4c0.9,5.2,1.6,10.3,2.2,15.6c-0.6,0-1.1,0-1.7,0c-0.1-1.9-0.3-3.8-0.5-5.7
			c-0.2-1.3-0.3-2.5-0.6-3.8c-0.3-1.7-1-3.7-0.8-5.4c0-0.2-0.1-0.3-0.2-0.4C13.6,5.6,14.1,5.5,14.6,5.4 M16.9,21.7
			c-0.6,0-1.2,0.1-1.8,0.1c0-0.1,0-0.1,0-0.2c0.6,0,1.2,0,1.8,0C16.9,21.6,16.9,21.7,16.9,21.7 M19.2,22.4c-0.1,0-0.1,0-0.2,0.1
			c-0.4,0-0.9,0.1-1.3,0.1c0,0,0-0.1,0-0.1C18.2,22.4,18.7,22.4,19.2,22.4 M17.5,4.9c-0.3,5.3-0.2,10.7,0.3,16c-0.1,0-0.2,0-0.3,0
			c-0.6-5.2-1.3-10.5-2.2-15.7C16,5.1,16.7,5,17.5,4.9 M57.7,58.3c0.8-1.1,0.9-1.2,0.4-0.3c0,0.6-0.1,0.7-0.3,0.5c0,0-0.1-0.1-0.2,0
			c0,0,0,0,0,0C57.7,58.4,57.7,58.4,57.7,58.3 M62.9,21.5c-0.2,0-0.4,0-0.6,0c0-2-0.1-4.1-0.3-6.1c0.2,0,0.5-0.2,0.4-0.4
			c-0.2-0.5-0.4-1-0.7-1.6c-0.1-0.4-0.1-0.7-0.2-1.1c0.1-0.1,0.2-0.3,0.1-0.4c-0.1-0.2-0.2-0.3-0.3-0.5c0-0.1,0-0.2-0.1-0.3
			c0-0.2-0.2-0.2-0.3-0.2c-0.2-0.3-0.4-0.6-0.6-0.8c-0.3-0.9-0.6-1.9-0.9-2.8c0.3,0,0.6-0.4,0.2-0.6c-0.2-0.1-0.3-0.2-0.5-0.2
			c-0.1-0.2-0.1-0.4-0.2-0.6c-0.1-0.4-0.8-0.2-0.6,0.2c0,0,0,0,0,0C58.2,6,58,5.9,57.8,5.8l-0.4-0.7c-0.2-0.3-0.7-0.1-0.6,0.2
			l-1.6-0.8c-0.3-0.2-0.7,0.3-0.4,0.5c0.2,0.2,0.5,0.4,0.7,0.7C46.7,4,37.8,3.6,28.8,3.7c-4.5,0-9.2,0.1-13.6,0.9
			c-0.1-0.3-0.5-0.2-0.6,0.1c-1.5,0.3-2.9,0.7-4.4,1.2c0-0.2-0.2-0.3-0.4-0.3C9.6,5.7,9.3,5.8,9.1,5.8C9.1,5.7,8.9,5.5,8.7,5.6
			C8,6,7.4,6.4,6.8,6.9C6.7,6.5,6.5,6.2,6.1,5.8c-0.2-0.2-0.5,0-0.6,0.2c0,0.3,0,0.5-0.1,0.8c-0.2,0-0.3,0.1-0.4,0.2
			c0,0,0,0.1,0,0.1c0,0,0,0,0,0c0-0.4-0.7-0.4-0.7,0c0,0.4,0.2,0.8,0.4,1.1c0,0.1,0,0.2-0.1,0.3C4.5,8.6,4.3,8.8,4,9
			C3.7,9.2,4,9.8,4.3,9.5c0.2-0.1,0.3-0.2,0.5-0.3c0.1,0.1,0.3,0.1,0.4,0.1c0,0,0.1-0.1,0.1-0.1C5,13.1,4.9,17.1,4.7,21
			c-0.3,0.1-0.3,0.5,0,0.6c-0.1,4.3-0.2,8.6-0.1,12.9c-0.1,1-0.2,2-0.3,3.1c-0.3,2.7-0.4,5.4-0.5,8c-0.1,2.3-0.3,4.8,0.1,7.2
			c0.1,0.3,0.1,0.6,0.2,0.9c-0.1-0.1-0.2-0.1-0.3-0.2c0-0.1-0.1-0.1-0.1-0.2c-0.2-0.3-0.6,0-0.5,0.3c0.1,0.9,0.6,1.3,1.2,1.5
			c0.5,0.7,1.1,1.4,1.6,2.1c0,0.1,0.1,0.1,0.1,0.2c0.9,1.4,2.2,2.7,3.7,3.6c0.3,0.2,0.6-0.2,0.4-0.4c-0.5-0.8-1-1.5-1.6-2.2
			c0,0,0,0,0,0c0.7,0.9,1.6,1.6,2.5,2.2c0.1,0.1,0.2,0.1,0.3,0c0.7,0.3,1.5,0.4,2.2,0.3c9.3,0.8,18.7,1.7,28,1c4-0.3,8-1.1,11.6-2.8
			c1,0,2-0.1,3-0.1c1.1,0,2.4,0.6,3.2-0.4c1.7-2-2.7-3.1-2.6-0.5c0,0.2,0.1,0.3,0.2,0.3c-0.8,0.2-1.9,0.1-2.7,0
			c1.7-0.9,3.3-2.1,4.6-3.6c-0.2,0.3-0.3,0.7-0.5,1c-0.2,0.4,0.3,0.7,0.6,0.3c0.3-0.4,0.5-0.9,0.7-1.3c0.1,0,0.2-0.1,0.2-0.2
			c0-0.2,0.1-0.3,0.1-0.5c0.1-0.3,0.2-0.5,0.3-0.8c0.1-0.2,0.2-0.3,0.2-0.5c0,0,0.1-0.1,0.1-0.1c0-0.1,0-0.1,0.1-0.2
			c0.1-0.2,0.2-0.5,0.4-0.7c0.1-0.1,0-0.2,0-0.3c0.5-1.5,0.8-3,1-4.5c0-0.3-0.4-0.6-0.6-0.3c0,0,0,0.1,0,0.1c0,0,0,0,0,0
			c0,0,0,0,0,0c-0.1,0.3-0.2,0.6-0.3,0.8c0,0-0.1,0-0.1,0.1c0.1-1.1,0.1-2.2,0.1-3.3c0-0.4-0.6-0.5-0.6-0.1c-0.1,0.5-0.2,1-0.3,1.5
			c0.4-4.9,0.8-9.8,1.2-14.7c0.2-2.8,0.4-5.6,0.5-8.4c0,0,0.1,0,0.1,0c0.4,0.1,0.6-0.5,0.2-0.6c-0.1,0-0.2,0-0.3-0.1c0,0,0,0,0,0
			c0.2,0,0.5-0.1,0.7-0.1C63.3,22.1,63.3,21.5,62.9,21.5"/>
		<path class="st14" d="M34.7,62.8c-6.8,0-13.7-0.6-20.4-1.2l-0.6-0.1c-0.7,0.1-1.4,0-2.2-0.3c-0.2,0-0.4,0-0.6-0.1
			c-0.1,0-0.2-0.1-0.2-0.1c0,0.1-0.1,0.3-0.2,0.4c-0.3,0.3-0.7,0.3-1,0.1c-1.5-1-2.8-2.2-3.8-3.7c-0.1-0.1-0.1-0.2-0.2-0.3L4,55.6
			c-0.7-0.3-1.2-0.9-1.3-1.8c-0.1-0.4,0.2-0.8,0.5-0.9c0.1,0,0.1-0.1,0.2-0.1c-0.3-2-0.2-4.1-0.1-6.1l0-1.1c0.1-2.5,0.3-5.2,0.5-8.1
			c0.1-1,0.2-2,0.3-3c-0.1-4.2,0-8.4,0.1-12.6C4.1,21.7,4,21.5,4,21.3c0-0.2,0.1-0.4,0.2-0.5C4.4,17,4.5,13.4,4.8,9.8
			c-0.1,0-0.1,0.1-0.2,0.1c-0.4,0.2-0.8,0.1-1.1-0.2C3.3,9.3,3.3,8.8,3.7,8.6c0.2-0.1,0.3-0.2,0.5-0.3c-0.2-0.3-0.3-0.7-0.3-1
			c0-0.3,0.1-0.5,0.3-0.7C4.4,6.3,4.8,6.2,5,6.4l0-0.3c0-0.3,0.2-0.6,0.5-0.7c0.3-0.1,0.6,0,0.9,0.2C6.7,5.7,6.8,5.9,7,6.1
			c0.5-0.3,0.9-0.6,1.4-0.9c0.2-0.1,0.5-0.1,0.7,0c0.1,0,0.1,0,0.2,0.1c0.1,0,0.2-0.1,0.4-0.1c0.2-0.1,0.5-0.1,0.6,0.1
			c0,0,0.1,0,0.1,0.1c1.2-0.4,2.5-0.7,3.8-1c0.1-0.2,0.4-0.3,0.6-0.3c0.2,0,0.4,0,0.5,0.1c4.3-0.8,8.6-0.8,13.5-0.9
			c7.6,0,16.4,0.1,25.5,1.8c0-0.2,0-0.4,0.1-0.6c0.2-0.4,0.7-0.5,1.1-0.3l1.2,0.6c0.1-0.1,0.2-0.1,0.3-0.2c0.4-0.1,0.8,0,1,0.4
			l0.2,0.5c0.1-0.1,0.2-0.1,0.3-0.1c0.4-0.2,0.9,0.1,1.1,0.5l0.1,0.4l0.3,0.2c0.4,0.2,0.5,0.6,0.4,0.9c0,0.1-0.1,0.3-0.2,0.4
			c0.3,0.8,0.5,1.5,0.7,2.3c0.1,0.2,0.2,0.3,0.3,0.5l0.1,0.1c0.2,0.1,0.4,0.3,0.5,0.6l0,0.2l0.1,0.1c0.1,0.1,0.1,0.2,0.2,0.3
			c0.1,0.2,0.2,0.4,0.1,0.6c0,0.1-0.1,0.2-0.1,0.3c0,0.3,0.1,0.5,0.1,0.8c0.2,0.5,0.4,1,0.6,1.5c0.1,0.3,0.1,0.5-0.1,0.8
			c-0.1,0.1-0.1,0.1-0.2,0.2c0.2,1.6,0.3,3.3,0.3,5.2c0,0,0.1,0,0.1,0c0.4,0,0.8,0.3,0.8,0.7c0,0.3-0.1,0.6-0.4,0.8
			c0,0.1,0,0.2,0,0.3c-0.1,0.3-0.3,0.5-0.5,0.6c-0.1,2.7-0.3,5.4-0.5,7.9l-1,12.4c0.4,0.1,0.7,0.4,0.7,0.8c0,0.5,0,1.1,0,1.7
			c0.1,0,0.2,0,0.3,0c0.4,0.1,0.7,0.5,0.6,1c-0.2,1.5-0.5,3-1,4.4c0,0.2,0,0.4-0.1,0.6l-0.4,0.9c0,0.1-0.1,0.2-0.2,0.3l-0.2,0.4
			c-0.1,0.2-0.2,0.5-0.3,0.8l-0.1,0.4c-0.1,0.2-0.2,0.4-0.3,0.5c-0.2,0.4-0.4,0.8-0.7,1.2c0.2,0.1,0.4,0.3,0.6,0.5
			c0.2,0.3,0.5,1.1-0.3,2c-0.8,0.9-1.9,0.8-2.7,0.6c-0.3,0-0.6-0.1-0.9-0.1c-1,0-1.9,0-2.9,0.1c-3.3,1.5-7.2,2.5-11.7,2.8
			C39.4,62.7,37.1,62.8,34.7,62.8z M26,60.8c4.3,0.3,8.8,0.4,13.2,0.2l0,0c3.1-0.1,5.9-0.5,8.4-1c-0.2,0-0.4,0-0.5,0l-20,0.8
			C26.7,60.8,26.3,60.8,26,60.8z M13.7,60.5l0.7,0.1c0.4,0,0.9,0.1,1.3,0.1c-0.1,0-0.1-0.1-0.2-0.1L14,59.7c-0.5-0.1-1-0.1-1.5,0
			l-0.2,0l-0.2-0.1c-1-0.9-2-1.4-3.3-1.6L9,58.1c0.7,0.8,1.4,1.5,2.3,2.1l0.1-0.1l0.2,0.1C12.3,60.5,13,60.6,13.7,60.5z M6.4,57.1
			l0.1,0.1c0.7,1.1,1.7,2.1,2.8,3c-0.3-0.4-0.6-0.9-1-1.4l-1.7-2c-0.1-0.1-0.2-0.2-0.4-0.3L6,56.2L6,54.6l-0.3,0
			c-0.2,0-0.5,0-0.8-0.1l0,0.1L3.8,54c0.1,0.3,0.4,0.5,0.7,0.6l0.1,0L6.4,57.1z M13,58.7c0.6,0,1.3,0.1,1.8,0.1
			c2.3,0.3,4.4,0.5,6.4,0.4c3.1,0,6.3-0.1,9.3-0.3c1.2-0.1,2.4-0.1,3.6-0.2L53,58.2c2.4-1.2,4.5-2.7,6-4.7c-0.1-0.1-0.2-0.3-0.1-0.5
			l1.7-21c0.2-2.7,0.5-5.7,0.5-8.7c-0.3,0-0.5-0.1-0.8-0.1l-0.5,0.1c-0.1,0.1-0.3,0.1-0.4,0.1l-1.2,0.1c-2.9,0.3-5.8,0.4-8,0.5
			L48.8,24c-0.2,0-0.4,0-0.6-0.1l-1.7,0.2c0.4,1,0.7,2.1,0.9,3.4c1.1,3.3,0.7,7.1-1.1,10.5C44.8,41,42.2,43.4,39,45
			c0.2,0.1,0.3,0.2,0.4,0.3c0.2,0.2,0.2,0.6,0,0.9c-0.1,0.3-0.4,0.4-0.7,0.4c-1.3,0.1-2.6,0.1-3.9,0c-2.8,0.7-7.9,1.6-11.8-0.4
			c-3.7-1.9-4.1-6.5-4.3-10.1c-0.1-0.7-0.1-1.3-0.2-1.9c-0.2-1.5-0.2-3,0-4.3c0-1.1,0.1-2.3,0.4-3.4c0.1-0.4,0.5-0.7,0.9-0.6
			c0,0,0.1,0,0.1,0c0.5-0.9,1.2-1.7,1.9-2.4c-0.1,0-0.1,0.1-0.2,0.1c-0.3,0.1-0.6,0.2-1,0.2c0,0.1-0.1,0.1-0.1,0.2
			c-0.2,0.2-0.4,0.4-0.7,0.4c-0.9,0-1.9-0.1-2.8-0.1c-0.4,0.1-0.9,0.2-1.3,0.2l0,0.2c0,0.5-0.3,0.8-0.8,0.8c0,0,0,0,0,0
			c-0.5,0-0.8-0.4-0.8-0.8l0,0c-0.6,0-1.2,0-1.8,0c-1.3,0.3-2.5,0.6-3.7,0.9c-0.4,0.1-0.8-0.1-1-0.5c-0.1-0.3,0-0.6,0.2-0.9
			c-0.2,0-0.5,0.1-0.7,0.1c-0.5,3.9-0.9,7.2-1.3,10.4C5.9,40.4,6.2,46.2,6.6,52c0.1,0.1,0.1,0.1,0.2,0.2C7.2,53,7.3,53.8,7,54.5
			l0,1.3c0.4,0.4,0.9,0.7,1.5,1.1c0,0,0.1,0,0.1,0c1.5,0.2,2.9,0.8,4,1.8C12.7,58.7,12.8,58.7,13,58.7z M58.6,58.4l0.6,0.1
			c0,0,0,0,0.1-0.1c0.3-0.3,0.4-0.6,0.2-0.8c-0.1-0.2-0.3-0.3-0.5-0.3c0,0.2-0.1,0.5-0.3,0.8C58.6,58.2,58.6,58.3,58.6,58.4z
			 M6,52.9c0,0.3,0.1,0.7,0.1,1C6.2,53.6,6.2,53.3,6,52.9z M60.4,46l-0.6,6.8l0.7-0.1l0-0.1l0.4-0.7l-0.1-0.1l0.1-0.2
			c0.3-1.1,0.6-2.2,0.8-3.3l-1,1.4l0.1-1.8c0-0.6,0.1-1.2,0.1-1.8L60.4,46z M20.8,39.8c0.4,2.5,1.4,4.1,3.2,4.9
			c1.7,0.8,3.7,0.9,5.3,0.9c0,0,0,0,0.1,0c-1-0.3-1.8-0.6-2.7-1c0,0,0,0-0.1,0c-0.2,0.1-0.4,0.1-0.6,0
			C23.5,43.7,21.9,41.9,20.8,39.8z M33.2,44.8c0.4,0.1,0.8,0.1,1.3,0.1c0.7-0.2,1.3-0.4,1.9-0.6C35.3,44.5,34.2,44.7,33.2,44.8z
			 M27.5,42.7c0.3,0.1,0.6,0.3,0.8,0.4c2.8,1,6,0.9,9.3-0.3c-1.2,0.3-2.5,0.6-3.8,0.6C31.7,43.6,29.5,43.3,27.5,42.7z M23.1,41.5
			c0.8,0.9,1.7,1.7,2.9,2.2l0,0C25,43.1,24,42.4,23.1,41.5z M22,28.6c0,1.1,0.2,2.2,0.3,3.3l0.1,0.8c0.2,1.7,0.6,3.7,1.5,5.5
			c0.5,1,1.2,1.9,2.2,2.7c0.2,0.1,0.4,0.2,0.6,0.4c2,0.9,4.6,1.4,7.3,1.2c4.9-0.3,9-2.7,10.8-6.3c1.9-3.8,0.8-8.6-2.9-11.6
			c-3-2.5-7.6-3.6-11.9-3c-2.3,0.7-4.2,1.8-5.7,3.4C23.3,26,22.5,27.3,22,28.6z M22.2,38.6c0.6,0.8,1.4,1.5,2.2,2.1
			c-0.6-0.6-1.1-1.3-1.4-2.1c0,0,0,0,0,0l-0.5,0.3c-0.3-0.3-0.5-0.7-0.8-1.1l-0.2-0.3l0.1-0.2c-0.1-0.5-0.3-1-0.5-1.6l0-0.1l0-0.1
			l-0.3-0.7c-0.1-0.4-0.2-0.8-0.3-1.1L20,34.2l-0.2-0.8c-0.2-0.8-0.3-1.6-0.4-2.4c-0.1,1,0,2,0.1,3c0,0.3,0.1,0.6,0.1,0.9l0.9,1.9
			c0.3,0.8,0.7,1.6,1.1,2.4L22.2,38.6z M42.9,40.1l0.4,0.5c0.8-0.9,1.5-1.9,2.1-3c1.7-3.1,2.1-6.7,1.1-9.8c-0.1-0.4-0.1-0.7-0.2-1.1
			L45.1,25c-0.4-0.6-1-1.3-1.5-1.8l-0.5-0.4c-0.3-0.3-0.6-0.5-0.9-0.8L42,21.9l0-0.1l-1-0.9c-0.3-0.1-0.5-0.1-0.8-0.2l0,0
			c0.2,0.2,0.4,0.3,0.7,0.5c1.4,1,2.6,2.2,3.6,3.6L44,25.2c2.8,3.3,3.5,7.7,1.6,11.3C45,37.9,44,39.1,42.9,40.1z M4.6,39.7l0.3,0
			c0-0.8-0.1-1.6-0.1-2.5c0,0.1,0,0.2,0,0.3C4.7,38.3,4.7,39,4.6,39.7z M5.1,29.1c0,0.9,0,1.7,0,2.6c0.1-0.8,0.2-1.7,0.3-2.5
			L5.1,29.1z M8.7,22.9L8.7,22.9c0.4,0.1,0.8,0.2,1.1,0.3l1.6,0.3l-1,0.4c0.6-0.1,1.2-0.3,1.8-0.4l0.1,0l0.1,0c0.7,0,1.5,0,2.3,0
			l0.6-0.1c0.7-0.1,1.2-0.2,1.8-0.3l0.1,0l0.1,0c0.8,0.1,1.7,0.1,2.5,0.1L19.4,23l0.7-0.1c0.4-0.1,0.8-0.2,1.1-0.2l-0.1-0.3L19,23
			c-0.4,0-0.7,0.1-1.1,0.1l-0.7,0.1l-0.1-1l-0.2,0.1l-2.3,0.1l0-0.9l-0.2,0c-1.5,0-3,0-4.5,0l-1.9,0c-0.4,0-0.7,0-1.1,0l-0.2,0
			l-0.2,1.8h0C7.2,23.1,7.9,23,8.7,22.9L8.7,22.9z M48.9,22l0.2,1l1.1-0.2c2.2-0.1,5.1-0.2,8-0.5l1.2-0.1l0.1-0.1l0.9-0.1l0.1,0
			c0.4,0.1,0.8,0.2,1.2,0.2l-0.4-0.8L57.7,22l-0.1-0.9c-0.1,0-0.2,0-0.2,0l-4.2,0.4l1.8-0.7l-4.5,0.8c-0.8,0-1.5,0-2.2,0.1l0.1,0.3
			l-2,0.3C47.1,22.2,47.9,22.2,48.9,22z M23.9,21.9l-0.1,0.7l0,0.1c0.6-0.4,1.2-0.7,1.8-1l0.3,0.5c0.7-0.5,1.4-0.8,2.2-1.2l-0.3-0.8
			c0,0,0.1,0,0.1-0.1c-1.5,0.6-2.7,1.1-3.4,1.6l-0.1,0.1l-2.2,0l-0.7,0.2l0.3,0c0.5,0,1-0.1,1.5-0.1L23.9,21.9z M17.4,21.4l0.1,0.5
			l1.6-0.6c-0.1,0-0.1,0-0.2,0l-0.5,0l0,0L17.4,21.4z M40.4,19.7c0.6,0.1,1.2,0.3,1.7,0.4c1.1,0.3,1.9,0.8,2.6,1.3l2.4-0.4
			c0-0.1,0.1-0.1,0.1-0.2c0.1-0.2,0.4-0.3,0.6-0.3c0.8,0,1.6-0.1,2.4-0.1l6.2-1.1c0.4-0.1,0.8,0.2,0.9,0.5c0.3,0,0.6-0.1,0.9-0.1
			l2.4-0.3c0.2,0,0.3,0,0.4,0.1c0-0.5,0-1-0.1-1.5c0,0,0,0-0.1,0c-0.4,0-0.8-0.3-0.8-0.8c-0.2-1.7-0.4-3.5-0.8-5.3
			c-0.3-0.6-0.5-1.4-0.8-2.1C58.4,10,58.2,9.8,58,9.5L55.8,7c-9.5-2-19.1-2.3-26.4-2.2c-3.4,0-7.1,0-10.8,0.4
			c-0.2,5-0.1,10.1,0.3,15.1c0.4,0,0.8,0,1.2,0c0.4,0,0.7,0.2,0.8,0.6c0.1,0,0.2,0,0.3,0l0.1,0c0.1,0,0.1,0,0.2,0l2.6,0
			c2-1.3,5.9-2.5,7.2-2.9l0.2-0.1c0.3-0.1,0.5,0,0.7,0.1c0,0,0.1,0.1,0.1,0.1c0.4-0.1,0.7-0.1,1.1-0.2c0-0.1,0.1-0.1,0.1-0.2
			c0.2-0.2,0.3-0.3,0.6-0.3l4.1,0.1c0.5,0,0.8,0.4,0.8,0.8c0,0.2-0.1,0.5-0.2,0.6C39.3,19.3,39.8,19.5,40.4,19.7z M7.6,20.5
			c0.2,0,0.3,0,0.5,0l0.8,0C9,16.1,9.4,11.6,9.8,7.2c-0.1,0-0.1,0-0.2,0.1L9.4,7.4c-0.3,2.1-0.6,4.2-0.9,6.3
			C8.2,16,7.9,18.2,7.6,20.5z M11.5,6.6c-0.5,4.6-0.8,9.2-1,13.9c1.1,0,2.3,0,3.4,0c-0.1-2.2-0.3-4.3-0.6-6.3
			c-0.2-1.6-0.5-3.2-0.8-4.9l0-0.2c-0.2-0.9-0.4-1.7-0.3-2.6C11.9,6.5,11.7,6.6,11.5,6.6z M32.9,20.3c0.5,0,1.1,0.1,1.6,0.1l0-0.2
			C33.9,20.2,33.4,20.3,32.9,20.3z M13.8,6c0,0,0,0.1,0,0.1c-0.2,1.2,0.1,2.5,0.4,3.7c0.1,0.5,0.2,1,0.3,1.5
			c0.2,1.2,0.4,2.5,0.6,3.8c0.2,1.7,0.4,3.4,0.5,5.2c0.2,0,0.3,0,0.5,0l0.2,0c-0.6-4.9-1.2-9.7-2-14.5C14.1,6,13.9,6,13.8,6z
			 M6.5,9.5C6.2,13,6,16.7,5.9,20.4c0.3-2.3,0.7-4.6,1-6.9c0.2-1.5,0.4-3.1,0.7-4.6c-0.3,0.2-0.7,0.4-1,0.6C6.6,9.5,6.5,9.5,6.5,9.5
			z M36.3,19.8c0.8,0,1.5,0.1,2.3,0.3c-0.5-0.2-1-0.3-1.5-0.4l-0.4-0.1c-0.1-0.1-0.3-0.1-0.4-0.2L36.3,19.8z M31.4,19
			c-0.4,0.1-0.7,0.2-1.1,0.3c0.4-0.1,0.7-0.1,1-0.2L31.4,19z M33.9,19c0.6,0,1.2,0.1,1.7,0.1l-1.3-0.5l0,0.3L33.9,19z M60.9,15.2
			l0.6,0.2l-0.1-0.5l0.4,0.1c-0.2-0.4-0.3-0.8-0.5-1.2l0-0.1c-0.1-0.4-0.1-0.7-0.2-1.1L61,12.2l0.2-0.1c0,0,0-0.1-0.1-0.1l-0.2-0.4
			l0-0.1l-0.1,0L60.3,11c-0.1-0.2-0.2-0.4-0.4-0.5l-0.1-0.2c-0.3-0.9-0.6-1.9-0.9-2.8l-0.2-0.7l-1.2-0.6h0L56,5.5l1.2,1.1l-0.4-0.1
			l2,2.4c0.2,0.3,0.4,0.6,0.6,0.8l0.1,0.1c0.3,0.7,0.6,1.5,0.9,2.2C60.5,13.1,60.7,14.2,60.9,15.2z M15.8,5.6c0.3,2,0.7,4.1,1,6.2
			c0-2.1,0-4.2,0.1-6.3C16.6,5.5,16.2,5.6,15.8,5.6z M5.1,7.7c0,0,0.1,0.1,0.1,0.1L5.4,8l0,0.2c0,0.1,0,0.2-0.1,0.3l0,0.2l0.3-0.2
			l0-0.4l0.3,0.2l0,0l0,0l0.3,0.2c0.6-0.3,1.2-0.7,1.7-1.2l1.2-1c0.2-0.1,0.4-0.2,0.6-0.2l0,0c-0.1,0-0.1,0.1-0.2,0.1L8.8,6.5
			L8.7,6.2C8.1,6.5,7.6,6.9,7.1,7.3L6.5,7.7L6.3,7C6.3,6.8,6.2,6.7,6,6.5L6,7.4L5.6,7.3L5.4,7.8L5.1,7.7z"/>
	</g>
	<g style="clip-path:url(#SVGID_2_);">
		<path class="st14" d="M38.9,34.6c-0.4,0.5-0.9,0.9-1.4,1.1c0.1-0.2,0.3-0.3,0.4-0.5c0.3-0.3,0.6-0.5,0.9-0.8
			c0.4-0.5,0.6-0.9,0.8-1.4C39.4,33.5,39.2,34.1,38.9,34.6 M38.7,30.3c0.5,0.9,0.6,1.9-0.1,3.1c0,0.1-0.1,0.1-0.1,0.2
			c0.2-0.8,0.3-1.6,0.3-2.2C38.8,31,38.7,30.6,38.7,30.3 M31.6,36c0,0,0.1,0,0.2,0.1c-0.7-0.2-1.3-0.4-1.8-0.7
			c-0.3-0.4-0.6-0.8-0.8-1.2C29.8,34.9,30.7,35.6,31.6,36 M31.2,28.5c0.7-0.4,1.6-0.7,2.4-0.7c1.4,0,3.1,0.6,4.2,1.5
			c0.3,1.3,0.4,2.8,0,4.1c-0.2,0.6-0.4,1.2-0.8,1.7c-0.5,0.4-1.1,0.7-1.7,1c-0.2,0-0.4,0-0.6,0c-1.5-0.1-3.1-0.5-4.2-1.5
			c-1.2-1-1.6-2.4-1.3-3.6C29.6,30,30.2,29.1,31.2,28.5 M39.9,30.9c-0.3-0.9-0.9-1.6-1.5-2.2c-0.3-1.1-0.9-2.1-1.6-3
			c-0.3-0.3-0.7,0.1-0.5,0.5c0.5,0.6,0.8,1.2,1.1,1.9c-1.5-0.9-3.4-1.2-5.1-0.7c0,0,0,0,0,0c-0.1,0-0.1,0-0.2,0
			c-2,0.5-3.7,1.9-3.7,4.1c-0.2,0.7-0.1,1.5,0,2.2c-0.3-0.5-0.5-1-0.6-1.7c-0.5-3,2.3-5.5,5.2-5.1c0.4,0.1,0.4-0.6,0-0.7
			c-3.1-0.4-6.1,2.2-5.9,5.4c0.1,2,1.1,3.3,2.5,4.2c1.3,1.3,3.1,1.6,4.9,1.1c0.1,0,0.1,0,0.2,0c1.7,0,3.5-0.4,4.6-1.7
			C40.3,34.1,40.4,32.3,39.9,30.9"/>
		<path class="st14" d="M33,37.7c-1.3,0-2.4-0.4-3.3-1.1l0.2,0.6l-0.6-1c-1.6-1-2.5-2.6-2.7-4.5c-0.1-1.6,0.5-3.2,1.8-4.4
			c1.3-1.2,3-1.8,4.7-1.6c0.3,0,0.6,0.2,0.7,0.5c0,0.1,0.1,0.2,0.1,0.3c0.8,0,1.6,0.1,2.4,0.4c-0.1-0.2-0.2-0.4-0.4-0.5
			c-0.3-0.4-0.2-0.9,0.2-1.2c0.3-0.3,0.8-0.2,1.1,0.1c0.7,0.9,1.3,2,1.7,3.1c0.5,0.4,0.9,0.9,1.2,1.5l0.5-1.6l-0.2,2.2
			c0,0.1,0.1,0.2,0.1,0.2c0.6,1.7,0.3,3.6-0.7,4.8c-1.3,1.6-3.5,1.8-5,1.9C34.1,37.6,33.5,37.7,33,37.7z M34.5,36.5l0.2,0.4l0-0.4
			C34.6,36.5,34.5,36.5,34.5,36.5z M31.7,36.5c1,0.3,1.9,0.2,2.6,0c-0.9-0.1-1.7-0.3-2.4-0.6L31.7,36.5z M36.7,35.9
			c-0.3,0.2-0.6,0.3-0.9,0.5c0.2,0,0.4-0.1,0.6-0.1L36.7,35.9z M31.5,28.9c-0.8,0.5-1.5,1.3-1.8,2.2c-0.2,1.1,0.2,2.2,1.2,3
			c0.9,0.8,2.3,1.3,3.9,1.4c0.1,0,0.3,0,0.4,0c0.5-0.2,1-0.5,1.5-0.8c0.3-0.4,0.5-0.8,0.7-1.4c0.3-1.2,0.3-2.5,0-3.7
			c-1-0.8-2.4-1.3-3.7-1.3C32.9,28.3,32.1,28.5,31.5,28.9L31.5,28.9z"/>
	</g>
	<g style="clip-path:url(#SVGID_2_);">
		<path class="st14" d="M51.8,11.4c0.4-0.2,0.9-0.4,1.3-0.6c0.3,0.1,0.5,0.2,0.8,0.4C53.2,11.2,52.5,11.3,51.8,11.4 M49.1,15.7
			c0-0.1,0-0.1,0-0.2c0.1-0.2,0.2-0.4,0.3-0.7c0.1,0,0.1,0,0.2,0c0.7-0.1,1.4-0.3,2.1-0.5c0.9-0.2,1.8-0.3,2.8-0.4
			c-0.7,0.4-1.5,0.6-2.4,0.7c-0.4,0-0.4,0.7,0,0.7c0.8,0,1.6-0.1,2.3-0.1c-0.4,0.2-0.8,0.3-1.3,0.5C52,15.8,51,16,49.9,16.2
			C49.5,16.1,49.3,15.9,49.1,15.7 M55.5,14.5c-0.3,0-0.5,0-0.8,0c0.3-0.1,0.5-0.3,0.8-0.5C55.5,14.2,55.5,14.4,55.5,14.5 M55.6,15.9
			c0,0.2,0,0.3,0,0.5c-0.3,0-0.6,0-0.9,0C55,16.2,55.3,16.1,55.6,15.9 M50.1,12.2c1.1-0.1,2.3-0.2,3.4-0.4c0,0,0,0,0,0
			c-1.1,0.3-2.2,0.6-3.3,1c-0.4,0.1-0.2,0.7,0.2,0.6c0.9-0.2,1.8-0.5,2.7-0.8c-0.9,0.3-1.8,0.6-2.7,0.8c-0.2,0.1-0.3,0.3-0.2,0.5
			c-0.2,0.1-0.5,0.1-0.7,0.2c0.1-0.4,0.1-0.7,0.1-1c0-0.3-0.1-1-0.4-1.6c-0.1-0.4-0.1-0.7-0.2-1.1c0.1,0,0.1,0.1,0.2,0.1
			c0.3,0,0.7,0,1,0c0.5,0,1.1,0.1,1.6,0.1c-0.7,0.3-1.3,0.6-1.9,1C49.7,11.7,49.8,12.2,50.1,12.2 M57.3,17.3c0-0.1,0-0.2,0-0.2
			c0,0,0,0,0,0c0.4-0.1,0.3-0.6-0.1-0.6c0-0.5-0.1-1-0.1-1.5c0-1.4,0-2.8,0-4.3c0-0.4-0.6-0.4-0.7,0c0,0.2-0.1,0.4-0.1,0.6
			c0,0-0.1,0-0.1,0c-0.1-0.5-0.3-0.9-0.5-1.4c-0.1-0.3-0.7-0.3-0.6,0.1l0.1,1c-0.1,0-0.3,0-0.4,0c0,0,0-0.1-0.1-0.1
			c-0.4-0.3-0.8-0.5-1.2-0.7c0-0.1-0.1-0.2-0.3-0.2c-0.2,0-0.4,0-0.6-0.1c-0.1,0-0.3-0.1-0.4-0.1c0.9-0.1,1.7-0.2,2.6-0.3
			c0.4,0,0.4-0.6,0-0.7c-0.1,0-0.2,0-0.3,0c0,0,0,0,0,0c0.4-0.1,0.2-0.7-0.2-0.6c-0.8,0.1-1.6,0.3-2.4,0.5c-1.2,0.3-2.4,0.6-3.5,0.9
			c-0.1-0.6-0.3-1.3-0.4-1.9c-0.1-0.4-0.6-0.3-0.6,0.1c0,0.8,0,1.6,0,2.4c-0.7,1.3-0.9,3-0.2,4.4c0.1,1.2,0.4,2.3,0.9,3.5
			c0.1,0.3,0.6,0.3,0.6-0.1c0-0.4,0-0.7,0-1.1c0,0,0,0,0,0c0.4,0.3,0.9,0.2,1.4,0.1c0.3,0,0.6,0,0.9,0c0,0,0,0,0,0
			c0,0.2,0.1,0.4,0.3,0.4c0.2,0,0.5,0,0.7,0c0,0.1,0,0.2,0,0.3c-0.6,0.1-1.2,0.3-1.7,0.5c-0.4,0.1-0.2,0.7,0.2,0.6
			c1.7-0.3,3.4-0.6,5.1-0.9c0.1,0,0.2,0,0.4-0.1c0,0,0,0,0,0c0.4,0,0.9,0,1.3,0C57.6,17.9,57.6,17.4,57.3,17.3"/>
	</g>
</g>
</svg>
