<?xml version="1.0" encoding="utf-8"?>
<!-- Generator: Adobe Illustrator 19.1.1, SVG Export Plug-In . SVG Version: 6.00 Build 0)  -->
<svg version="1.1" id="Layer_1" xmlns="http://www.w3.org/2000/svg" xmlns:xlink="http://www.w3.org/1999/xlink" x="0px" y="0px"
	 viewBox="0 0 78.5 79" style="enable-background:new 0 0 78.5 79;" xml:space="preserve">
<style type="text/css">
	.st0{clip-path:url(#SVGID_2_);fill:#FAF0E6;stroke:#FAF0E6;stroke-miterlimit:10;}
	.st1{clip-path:url(#SVGID_2_);fill:#FAF0E6;}
	.st2{clip-path:url(#SVGID_4_);fill:#00819F;}
</style>
<g>
	<defs>
		<rect id="SVGID_1_" x="11.4" y="11.2" width="60.1" height="58.7"/>
	</defs>
	<clipPath id="SVGID_2_">
		<use xlink:href="#SVGID_1_"  style="overflow:visible;"/>
	</clipPath>
	<path class="st0" d="M69.6,28.5c-1.2,0.2-2.4,0.3-3.6,0.5l3.2-0.6c0.4-0.1,0.3-0.7-0.1-0.6c-0.8,0.1-1.6,0.2-2.4,0.3
		c-0.5,0-1.1,0.1-1.6,0.1c0.4-0.1,0.2-0.7-0.2-0.6c-2.1,0.4-4.2,0.7-6.3,1.1c-0.8,0-1.6,0-2.4,0.1c-0.2,0-0.3,0.2-0.3,0.4
		c-1,0.2-2,0.3-3,0.5c-0.7-0.6-1.6-1.1-2.6-1.4c-0.6-0.2-1.2-0.3-1.8-0.4c-0.9-0.5-1.9-0.8-2.9-1c-0.3-0.1-0.5-0.2-0.8-0.3
		c0.6,0,1.1-0.1,1.7-0.1c0.4,0,0.4-0.6,0-0.7l-4.1-0.1c-0.2,0-0.3,0.2-0.3,0.4c-0.6,0.1-1.2,0.2-1.8,0.3c0-0.2-0.1-0.4-0.4-0.4
		c-0.9,0.3-5.4,1.6-7.4,3c-0.9,0-1.8,0-2.7,0c0,0-0.1,0-0.1,0c-0.4,0-0.7,0-1.1,0c0.3-0.1,0.3-0.6-0.1-0.6c-0.6,0-1.1,0-1.7,0
		c-0.5-5.3-0.6-10.7-0.3-16.1c3.7-0.4,7.6-0.5,11.3-0.5c9-0.1,17.9,0.3,26.7,2.3c0,0,0,0,0,0.1c0.7,0.9,1.5,1.7,2.2,2.6
		c0.2,0.3,0.4,0.5,0.6,0.8c0.3,0.7,0.6,1.5,0.9,2.2c0.3,1.8,0.6,3.5,0.8,5.3c0,0.4,0.7,0.4,0.7,0c0-0.6,0-1.1,0-1.7c0,0,0,0,0.1,0
		c0.2,1.8,0.3,3.5,0.3,5.3C69.9,28.6,69.7,28.5,69.6,28.5 M30,33.8c0-0.1,0-0.1,0-0.2c0.2-0.8,0.6-1.4,1-2c0.9-0.8,1.9-1.4,2.9-1.9
		C32.4,30.7,31,32.1,30,33.8 M30.1,46.5c1,1.3,2.3,2.3,3.7,3.1c0.8,0.6,1.6,1.1,2.6,1.5C41,52.8,46.1,51.4,50,49
		c0.5-0.3,1-0.6,1.4-1c-2.3,2.4-5.4,4-8.7,4.9C37.7,52.5,32.5,50.8,30.1,46.5 M28.3,44.4c1.2,3.1,2.9,6,6.1,7.3
		c0.2,0.1,0.3,0,0.4-0.2c1.8,0.9,3.9,1.5,6,1.8c-1.1,0.2-2.2,0.3-3.3,0.3c-1.9,0-3.8-0.1-5.5-0.9c-2.2-1-3.1-3.1-3.4-5.3
		c-0.2-1.1-0.3-2.1-0.4-3.2C28.2,44.3,28.2,44.4,28.3,44.4 M29.2,35.6c-0.2,0.4-0.3,0.9-0.4,1.4c-0.3,1.3-0.4,2.6-0.2,3.8
		c0,0,0,0-0.1,0c-0.4-1.5-0.5-3-0.5-4.5c0.2-0.6,0.4-1.2,0.7-1.8c0.3-0.5,0.6-1,0.9-1.4C29.5,33.9,29.3,34.7,29.2,35.6 M30.5,44.9
		c-0.1-0.6-0.3-1.2-0.5-1.7c0,0,0-0.1,0-0.1c-0.1-0.2-0.2-0.4-0.2-0.6c0,0,0-0.1,0-0.1c-0.5-1.4-0.6-2.7-0.4-4.1
		c0.1,1.1,0.2,2.1,0.4,3.2c0.3,1.7,0.7,3.3,1.5,4.8c-0.3-0.3-0.5-0.7-0.7-1C30.5,45.1,30.5,45,30.5,44.9 M38.1,28.5
		c4.4-0.6,9.1,0.5,12.3,3.1c3.6,3,5.2,7.9,3,12.2c-2.1,4.2-6.7,6.3-11.3,6.6c-2.6,0.1-5.3-0.2-7.6-1.3c-0.2-0.1-0.4-0.3-0.7-0.4
		c-0.9-0.8-1.7-1.7-2.3-2.9c-0.9-1.8-1.3-3.7-1.5-5.7c-0.2-1.3-0.4-2.8-0.4-4.2c0.5-1.5,1.4-2.8,2.4-4
		C33.8,30.3,35.9,29.2,38.1,28.5 M38.7,27.8c-0.8,0.1-1.7,0.2-2.5,0.4c0.4-0.2,0.8-0.4,1.2-0.5c0.2-0.1,0.5-0.2,0.7-0.2
		c0.8-0.2,1.6-0.3,2.3-0.4c1.4-0.1,2.8-0.1,4.2,0.2C42.6,27.2,40.6,27.3,38.7,27.8 M53.8,32.3c-0.5-0.7-1-1.3-1.6-1.9
		c0.2,0,0.3,0,0.5-0.1C53.2,30.9,53.5,31.6,53.8,32.3 M53.9,31c-0.1-0.2-0.3-0.4-0.4-0.6c1.2,0,2.4-0.1,3.7-0.3c-1,0.2-2,0.4-3,0.6
		C54,30.7,53.9,30.9,53.9,31 M50.7,29c0.5,0.2,0.9,0.3,1.3,0.6c0,0,0.1,0.1,0.1,0.1c-0.1,0-0.1,0-0.2,0c-0.1,0-0.2,0.1-0.2,0.2
		c-0.3-0.3-0.6-0.5-1-0.8C50.7,29.1,50.7,29.1,50.7,29 M52.4,32.7c-2.4-2.7-5.9-4.3-9.6-4.8c0.1,0,0.2,0,0.4,0c1.5,0,3,0.2,4.5,0.4
		c0.1,0.1,0.3,0.1,0.4,0.2c0,0.1,0,0.1,0.1,0.2c0.3,0.3,0.6,0.4,0.9,0.6C50.3,30.2,51.4,31.3,52.4,32.7 M69.3,39.5
		c-0.6,7-1.2,14-1.7,21c0,0.2,0.2,0.3,0.4,0.3c-1.8,2.4-4.1,4.1-6.7,5.3c-1.9,0.1-3.8,0.1-5.8,0.2c-4.4,0.2-8.8,0.3-13.2,0.5
		c-4.3,0.2-8.6,0.4-12.9,0.4c-2.2,0-4.3-0.2-6.5-0.4c-0.8-0.1-1.5-0.2-2.3-0.1c-1.1-1-2.4-1.6-3.9-1.8c-0.1,0-0.1,0-0.2,0
		c0,0-0.1-0.1-0.1-0.1c-0.6-0.4-1.2-0.9-1.7-1.3l-0.1-1.7c0.3-0.5,0.3-1.1-0.1-1.9c-0.1-0.1-0.1-0.1-0.2-0.1
		C13.9,53.9,13.7,48,13.6,42c0.4-3.6,0.8-7.2,1.3-10.7c0.7-0.1,1.3-0.2,2-0.3c0.3,0.1,0.7,0.2,1,0.2c-0.5,0.2-1,0.4-1.5,0.7
		c-0.3,0.2-0.1,0.7,0.3,0.6c1.3-0.4,2.5-0.7,3.8-0.9c0.8,0,1.6,0,2.3,0c0,0.2,0,0.4,0,0.6c0,0.4,0.7,0.4,0.7,0c0-0.2,0-0.4,0-0.6
		c0.6-0.1,1.2-0.1,1.8-0.3c0.9,0.1,1.9,0.1,2.8,0.1c0.3,0,0.4-0.3,0.3-0.5c0.4-0.1,0.9-0.2,1.3-0.3c0.2-0.1,0.3-0.2,0.2-0.4
		c0.5,0,1-0.1,1.5-0.1c0,0.1,0,0.1,0,0.2c-0.2,0.2-0.4,0.5-0.6,0.7c-1.1,1-2,2.1-2.6,3.3c0,0,0,0,0-0.1c0.1-0.4-0.5-0.6-0.6-0.2
		c-0.2,1.1-0.3,2.3-0.3,3.4c-0.2,1.3-0.2,2.7,0,4.1c0.4,4,0.2,9.5,4.2,11.6c3.3,1.7,7.8,1.4,11.5,0.4c1.4,0.1,2.7,0.1,4,0
		c0.4,0,0.4-0.7,0-0.7c-0.7,0-1.4,0-2.1,0c3.9-1.4,7.3-4,9.3-7.6c1.7-3.1,2.2-6.8,1.1-10.2c-0.2-1.3-0.5-2.5-1-3.6
		c-0.1-0.2-0.1-0.3-0.2-0.4c0.1,0.1,0.2,0.2,0.3,0.1c0.8-0.1,1.6-0.2,2.3-0.3c0.1,0.1,0.2,0.2,0.3,0.1c0.5-0.1,1-0.2,1.5-0.2
		c2.7-0.1,5.3-0.2,8-0.5c0.4,0,0.8,0,1.2-0.1c0.1,0,0.2-0.1,0.2-0.1c0.2,0,0.4-0.1,0.7-0.1c0.4,0.1,0.8,0.2,1.3,0.2
		C69.8,33.4,69.6,36.5,69.3,39.5 M47.5,69.1c-7.7,0.3-15.4-0.3-23-1c0-0.1-0.1-0.2-0.1-0.2c-0.1-0.1-0.3-0.2-0.4-0.2c0,0,0,0,0,0
		c1.4,0.2,2.9,0.3,4.3,0.3c2.9,0.1,5.8-0.1,8.7-0.2c6.1-0.2,12.2-0.5,18.3-0.7c1.5-0.1,3-0.1,4.5-0.2C55.9,68.4,51.6,68.9,47.5,69.1
		 M13.3,61.6c-0.3-0.6-0.5-1.4-0.6-2.2c-0.3-4,0-8.1,0.3-12.1c0.2,4.8,0.5,9.6,0.9,14.4C13.7,61.7,13.5,61.7,13.3,61.6 M13.6,30.4
		c0,0,0.1,0,0.1,0c0.2,0,0.4,0,0.6,0c0,0.1,0,0.2,0,0.4c-0.1,0-0.1,0-0.2,0c-0.4,0.1-0.3,0.6,0.1,0.6c-0.2,1.7-0.5,3.5-0.7,5.3
		C13.5,34.5,13.6,32.5,13.6,30.4 M13.6,29.2c0.3,0,0.6,0,0.9,0c0,0.2,0,0.3-0.1,0.5c-0.2,0-0.5,0-0.7,0.1c0,0-0.1,0-0.1,0
		C13.6,29.6,13.6,29.4,13.6,29.2 M14.3,16.6c0.1,0.1,0.2,0.1,0.3,0c0.7-0.4,1.3-0.8,1.9-1.3c-0.6,4.4-1.3,8.8-1.9,13.2
		c-0.3,0-0.6,0-0.9,0C13.8,24.5,14,20.5,14.3,16.6 M17.2,14.7c0.1-0.1,0.2-0.2,0.4-0.3c0.3-0.1,0.7-0.3,1-0.4
		c-0.5,4.8-0.8,9.7-1,14.5c-0.4,0-0.9,0-1.3,0c-0.4,0-0.7,0-1.1,0C15.9,23.9,16.6,19.3,17.2,14.7 M21,13.3c0,0,0,0.1,0,0.1
		c-0.2,1.2,0.1,2.2,0.3,3.3c0.3,1.6,0.6,3.3,0.9,4.9c0.3,2.3,0.5,4.5,0.6,6.8c-1.5,0-3,0-4.5,0c0.2-4.9,0.6-9.8,1.1-14.7
		C19.9,13.6,20.4,13.5,21,13.3 M22.9,12.9c0.9,5.2,1.6,10.3,2.2,15.6c-0.6,0-1.1,0-1.7,0c-0.1-1.9-0.3-3.8-0.5-5.7
		c-0.2-1.3-0.3-2.5-0.6-3.8c-0.3-1.7-1-3.7-0.8-5.4c0-0.2-0.1-0.3-0.2-0.4C21.9,13.1,22.4,13,22.9,12.9 M25.2,29.2
		c-0.6,0-1.2,0.1-1.8,0.1c0-0.1,0-0.1,0-0.2c0.6,0,1.2,0,1.8,0C25.2,29.2,25.2,29.2,25.2,29.2 M27.5,30c-0.1,0-0.1,0-0.2,0.1
		c-0.4,0-0.9,0.1-1.3,0.1c0,0,0-0.1,0-0.1C26.4,30,26.9,30,27.5,30 M25.7,12.4c-0.3,5.3-0.2,10.7,0.3,16c-0.1,0-0.2,0-0.3,0
		c-0.6-5.2-1.3-10.5-2.2-15.7C24.3,12.6,25,12.5,25.7,12.4 M66,65.8c0.8-1.1,0.9-1.2,0.4-0.3c0,0.6-0.1,0.7-0.3,0.5
		c0,0-0.1-0.1-0.2,0c0,0,0,0,0,0C65.9,66,66,65.9,66,65.8 M71.2,29c-0.2,0-0.4,0-0.6,0c0-2-0.1-4.1-0.3-6.1c0.2,0,0.5-0.2,0.4-0.4
		c-0.2-0.5-0.4-1-0.7-1.6c-0.1-0.4-0.1-0.7-0.2-1.1c0.1-0.1,0.2-0.3,0.1-0.4c-0.1-0.2-0.2-0.3-0.3-0.5c0-0.1,0-0.2-0.1-0.3
		c0-0.2-0.2-0.2-0.3-0.2c-0.2-0.3-0.4-0.6-0.6-0.8c-0.3-0.9-0.6-1.9-0.9-2.8c0.3,0,0.6-0.4,0.2-0.6c-0.2-0.1-0.3-0.2-0.5-0.2
		c-0.1-0.2-0.1-0.4-0.2-0.6c-0.1-0.4-0.8-0.2-0.6,0.2c0,0,0,0,0,0c-0.2-0.1-0.4-0.2-0.6-0.3l-0.4-0.7c-0.2-0.3-0.7-0.1-0.6,0.2
		l-1.6-0.8c-0.3-0.2-0.7,0.3-0.4,0.5c0.2,0.2,0.5,0.4,0.7,0.7C55,11.5,46.1,11.1,37,11.2c-4.5,0-9.2,0.1-13.6,0.9
		c-0.1-0.3-0.5-0.2-0.6,0.1c-1.5,0.3-2.9,0.7-4.4,1.2c0-0.2-0.2-0.3-0.4-0.3c-0.2,0.1-0.4,0.2-0.7,0.3c-0.1-0.2-0.3-0.3-0.5-0.2
		c-0.7,0.4-1.3,0.8-1.9,1.2c-0.1-0.4-0.3-0.7-0.7-1.1c-0.2-0.2-0.5,0-0.6,0.2c0,0.3,0,0.5-0.1,0.8c-0.2,0-0.3,0.1-0.4,0.2
		c0,0,0,0.1,0,0.1c0,0,0,0,0,0c0-0.4-0.7-0.4-0.7,0c0,0.4,0.2,0.8,0.4,1.1c0,0.1,0,0.2-0.1,0.3c-0.2,0.2-0.5,0.3-0.7,0.5
		c-0.3,0.2,0,0.8,0.3,0.6c0.2-0.1,0.3-0.2,0.5-0.3c0.1,0.1,0.3,0.1,0.4,0.1c0,0,0.1-0.1,0.1-0.1c-0.3,3.9-0.5,7.9-0.6,11.8
		c-0.3,0.1-0.3,0.5,0,0.6c-0.1,4.3-0.2,8.6-0.1,12.9c-0.1,1-0.2,2-0.3,3.1c-0.3,2.7-0.4,5.4-0.5,8c-0.1,2.3-0.3,4.8,0.1,7.2
		c0.1,0.3,0.1,0.6,0.2,0.9c-0.1-0.1-0.2-0.1-0.3-0.2c0-0.1-0.1-0.1-0.1-0.2c-0.2-0.3-0.6,0-0.5,0.3c0.1,0.9,0.6,1.3,1.2,1.5
		c0.5,0.7,1.1,1.4,1.6,2.1c0,0.1,0.1,0.1,0.1,0.2c0.9,1.4,2.2,2.7,3.7,3.6c0.3,0.2,0.6-0.2,0.4-0.4c-0.5-0.8-1-1.5-1.6-2.2
		c0,0,0,0,0,0c0.7,0.9,1.6,1.6,2.5,2.2c0.1,0.1,0.2,0.1,0.3,0c0.7,0.3,1.5,0.4,2.2,0.3c9.3,0.8,18.7,1.7,28,1c4-0.3,8-1.1,11.6-2.8
		c1,0,2-0.1,3-0.1c1.1,0,2.4,0.6,3.2-0.4c1.7-2-2.7-3.1-2.6-0.5c0,0.2,0.1,0.3,0.2,0.3c-0.8,0.2-1.9,0.1-2.7,0
		c1.7-0.9,3.3-2.1,4.6-3.6c-0.2,0.3-0.3,0.7-0.5,1c-0.2,0.4,0.3,0.7,0.6,0.3c0.3-0.4,0.5-0.9,0.7-1.3c0.1,0,0.2-0.1,0.2-0.2
		c0-0.2,0.1-0.3,0.1-0.5c0.1-0.3,0.2-0.5,0.3-0.8c0.1-0.2,0.2-0.3,0.2-0.5c0,0,0.1-0.1,0.1-0.1c0-0.1,0-0.1,0.1-0.2
		c0.1-0.2,0.2-0.5,0.4-0.7c0.1-0.1,0-0.2,0-0.3c0.5-1.5,0.8-3,1-4.5c0-0.3-0.4-0.6-0.6-0.3c0,0,0,0.1,0,0.1c0,0,0,0,0,0c0,0,0,0,0,0
		c-0.1,0.3-0.2,0.6-0.3,0.8c0,0-0.1,0-0.1,0.1c0.1-1.1,0.1-2.2,0.1-3.3c0-0.4-0.6-0.5-0.6-0.1c-0.1,0.5-0.2,1-0.3,1.5
		c0.4-4.9,0.8-9.8,1.2-14.7c0.2-2.8,0.4-5.6,0.5-8.4c0,0,0.1,0,0.1,0c0.4,0.1,0.6-0.5,0.2-0.6c-0.1,0-0.2,0-0.3-0.1c0,0,0,0,0,0
		c0.2,0,0.5-0.1,0.7-0.1C71.6,29.6,71.5,29,71.2,29"/>
	<path class="st0" d="M47.2,42.2c-0.4,0.5-0.9,0.9-1.4,1.1c0.1-0.2,0.3-0.3,0.4-0.5c0.3-0.3,0.6-0.5,0.9-0.8
		c0.4-0.5,0.6-0.9,0.8-1.4C47.7,41.1,47.5,41.7,47.2,42.2 M47,37.8c0.5,0.9,0.6,1.9-0.1,3.1c0,0.1-0.1,0.1-0.1,0.2
		c0.2-0.8,0.3-1.6,0.3-2.2C47,38.5,47,38.2,47,37.8 M39.9,43.5c0,0,0.1,0,0.2,0.1c-0.7-0.2-1.3-0.4-1.8-0.7
		c-0.3-0.4-0.6-0.8-0.8-1.2C38.1,42.5,39,43.1,39.9,43.5 M39.5,36c0.7-0.4,1.6-0.7,2.4-0.7c1.4,0,3.1,0.6,4.2,1.5
		c0.3,1.3,0.4,2.8,0,4.1c-0.2,0.6-0.4,1.2-0.8,1.7c-0.5,0.4-1.1,0.7-1.7,1c-0.2,0-0.4,0-0.6,0c-1.5-0.1-3.1-0.5-4.2-1.5
		c-1.2-1-1.6-2.4-1.3-3.6C37.8,37.5,38.5,36.6,39.5,36 M48.2,38.5c-0.3-0.9-0.9-1.6-1.5-2.2c-0.3-1.1-0.9-2.1-1.6-3
		c-0.3-0.3-0.7,0.1-0.5,0.5c0.5,0.6,0.8,1.2,1.1,1.9c-1.5-0.9-3.4-1.2-5.1-0.7c0,0,0,0,0,0c-0.1,0-0.1,0-0.2,0
		c-2,0.5-3.7,1.9-3.7,4.1c-0.2,0.7-0.1,1.5,0,2.2c-0.3-0.5-0.5-1-0.6-1.7c-0.5-3,2.3-5.5,5.2-5.1c0.4,0.1,0.4-0.6,0-0.7
		c-3.1-0.4-6.1,2.2-5.9,5.4c0.1,2,1.1,3.3,2.5,4.2c1.3,1.3,3.1,1.6,4.9,1.1c0.1,0,0.1,0,0.2,0c1.7,0,3.5-0.4,4.6-1.7
		C48.5,41.6,48.7,39.9,48.2,38.5"/>
	<path class="st1" d="M60,18.9c0.4-0.2,0.9-0.4,1.3-0.6c0.3,0.1,0.5,0.2,0.8,0.4C61.4,18.8,60.7,18.9,60,18.9 M57.4,23.2
		c0-0.1,0-0.1,0-0.2c0.1-0.2,0.2-0.4,0.3-0.7c0.1,0,0.1,0,0.2,0c0.7-0.1,1.4-0.3,2.1-0.5c0.9-0.2,1.8-0.3,2.8-0.4
		c-0.7,0.4-1.5,0.6-2.4,0.7c-0.4,0-0.4,0.7,0,0.7c0.8,0,1.6-0.1,2.3-0.1c-0.4,0.2-0.8,0.3-1.3,0.5c-1.1,0.1-2.2,0.3-3.2,0.5
		C57.8,23.7,57.6,23.5,57.4,23.2 M63.8,22.1c-0.3,0-0.5,0-0.8,0c0.3-0.1,0.5-0.3,0.8-0.5C63.7,21.8,63.8,21.9,63.8,22.1 M63.9,23.5
		c0,0.2,0,0.3,0,0.5c-0.3,0-0.6,0-0.9,0C63.3,23.8,63.6,23.6,63.9,23.5 M58.4,19.7c1.1-0.1,2.3-0.2,3.4-0.4c0,0,0,0,0,0
		c-1.1,0.3-2.2,0.6-3.3,1c-0.4,0.1-0.2,0.7,0.2,0.6c0.9-0.2,1.8-0.5,2.7-0.8c-0.9,0.3-1.8,0.6-2.7,0.8c-0.2,0.1-0.3,0.3-0.2,0.5
		c-0.2,0.1-0.5,0.1-0.7,0.2c0.1-0.4,0.1-0.7,0.1-1c0-0.3-0.1-1-0.4-1.6c-0.1-0.4-0.1-0.7-0.2-1.1c0.1,0,0.1,0.1,0.2,0.1
		c0.3,0,0.7,0,1,0c0.5,0,1.1,0.1,1.6,0.1c-0.7,0.3-1.3,0.6-1.9,1C58,19.3,58.1,19.8,58.4,19.7 M65.5,24.8c0-0.1,0-0.2,0-0.2
		c0,0,0,0,0,0c0.4-0.1,0.3-0.6-0.1-0.6c0-0.5-0.1-1-0.1-1.5c0-1.4,0-2.8,0-4.3c0-0.4-0.6-0.4-0.7,0c0,0.2-0.1,0.4-0.1,0.6
		c0,0-0.1,0-0.1,0c-0.2-0.5-0.3-0.9-0.5-1.4c-0.1-0.3-0.7-0.3-0.6,0.1l0.1,1c-0.1,0-0.3,0-0.4,0c0,0,0-0.1-0.1-0.1
		c-0.4-0.3-0.8-0.5-1.2-0.7c0-0.1-0.1-0.2-0.3-0.2c-0.2,0-0.4,0-0.6-0.1c-0.1,0-0.3-0.1-0.4-0.1c0.9-0.1,1.7-0.2,2.6-0.3
		c0.4,0,0.4-0.6,0-0.7c-0.1,0-0.2,0-0.3,0c0,0,0,0,0,0c0.4-0.1,0.2-0.7-0.2-0.6c-0.8,0.1-1.6,0.3-2.4,0.5c-1.2,0.3-2.4,0.6-3.5,0.9
		c-0.1-0.6-0.3-1.3-0.4-1.9c-0.1-0.4-0.6-0.3-0.6,0.1c0,0.8,0,1.6,0,2.4c-0.7,1.3-0.9,3-0.2,4.4c0.1,1.2,0.4,2.3,0.9,3.5
		c0.1,0.3,0.6,0.3,0.6-0.1c0-0.4,0-0.7,0-1.1c0,0,0,0,0,0c0.4,0.3,0.9,0.2,1.4,0.1c0.3,0,0.6,0,0.9,0c0,0,0,0,0,0
		c0,0.2,0.1,0.4,0.3,0.4c0.2,0,0.5,0,0.7,0c0,0.1,0,0.2,0,0.3c-0.6,0.1-1.2,0.3-1.7,0.5c-0.4,0.1-0.2,0.7,0.2,0.6
		c1.7-0.3,3.4-0.6,5.1-0.9c0.1,0,0.2,0,0.4-0.1c0,0,0,0,0,0c0.4,0,0.9,0,1.3,0C65.9,25.5,65.9,24.9,65.5,24.8"/>
</g>
</svg>
