<?xml version="1.0" encoding="utf-8"?>
<!-- Generator: Adobe Illustrator 19.1.1, SVG Export Plug-In . SVG Version: 6.00 Build 0)  -->
<svg version="1.1" id="Layer_1" xmlns="http://www.w3.org/2000/svg" xmlns:xlink="http://www.w3.org/1999/xlink" x="0px" y="0px"
	 viewBox="0 0 70.1 68.3" style="enable-background:new 0 0 70.1 68.3;" xml:space="preserve">
<style type="text/css">
	.st0{clip-path:url(#SVGID_2_);fill:#CB355B;}
	.st1{clip-path:url(#SVGID_4_);fill:#CB355B;}
	.st2{clip-path:url(#SVGID_6_);fill:#CB355B;}
	.st3{clip-path:url(#SVGID_8_);fill:#CB355B;}
	.st4{clip-path:url(#SVGID_10_);fill:#CB355B;}
	.st5{clip-path:url(#SVGID_12_);fill:#FFFFFF;}
	.st6{clip-path:url(#SVGID_14_);fill:#FFFFFF;}
	.st7{clip-path:url(#SVGID_16_);fill:#FFFFFF;}
	.st8{clip-path:url(#SVGID_18_);fill:#FFFFFF;}
	.st9{clip-path:url(#SVGID_20_);fill:#00819F;}
	.st10{clip-path:url(#SVGID_22_);}
	.st11{clip-path:url(#SVGID_24_);fill:#1D0C06;}
</style>
<g>
	<defs>
		<rect id="SVGID_9_" x="5.6" y="6.3" width="60.1" height="58.7"/>
	</defs>
	<clipPath id="SVGID_2_">
		<use xlink:href="#SVGID_9_"  style="overflow:visible;"/>
	</clipPath>
	<path class="st0" d="M63.7,23.6c-1.2,0.2-2.4,0.3-3.6,0.5l3.2-0.6c0.4-0.1,0.3-0.7-0.1-0.6c-0.8,0.1-1.6,0.2-2.4,0.3
		c-0.5,0-1.1,0.1-1.6,0.1c0.4-0.1,0.2-0.7-0.2-0.6c-2.1,0.4-4.2,0.7-6.3,1.1c-0.8,0-1.6,0-2.4,0.1c-0.2,0-0.3,0.2-0.3,0.4
		c-1,0.2-2,0.3-3,0.5c-0.7-0.6-1.6-1.1-2.6-1.4c-0.6-0.2-1.2-0.3-1.8-0.4c-0.9-0.5-1.9-0.8-2.9-1c-0.3-0.1-0.5-0.2-0.8-0.3
		c0.6,0,1.1-0.1,1.7-0.1c0.4,0,0.4-0.6,0-0.7l-4.1-0.1c-0.2,0-0.3,0.2-0.3,0.4c-0.6,0.1-1.2,0.2-1.8,0.3c0-0.2-0.1-0.4-0.4-0.4
		c-0.9,0.3-5.4,1.6-7.4,3c-0.9,0-1.8,0-2.7,0c0,0-0.1,0-0.1,0c-0.4,0-0.7,0-1.1,0c0.3-0.1,0.3-0.6-0.1-0.6c-0.6,0-1.1,0-1.7,0
		c-0.5-5.3-0.6-10.7-0.3-16.1C24.3,7,28.1,7,31.9,7c9-0.1,17.9,0.3,26.7,2.3c0,0,0,0,0,0.1c0.7,0.9,1.5,1.7,2.2,2.6
		c0.2,0.3,0.4,0.5,0.6,0.8c0.3,0.7,0.6,1.5,0.9,2.2c0.3,1.8,0.6,3.5,0.8,5.3c0,0.4,0.7,0.4,0.7,0c0-0.6,0-1.1,0-1.7c0,0,0,0,0.1,0
		c0.2,1.8,0.3,3.5,0.3,5.3C64,23.7,63.9,23.6,63.7,23.6 M24.2,28.9c0-0.1,0-0.1,0-0.2c0.2-0.8,0.6-1.4,1-2c0.9-0.8,1.9-1.4,2.9-1.9
		C26.6,25.8,25.2,27.2,24.2,28.9 M24.3,41.6c1,1.3,2.3,2.3,3.7,3.1c0.8,0.6,1.6,1.1,2.6,1.5c4.5,1.7,9.6,0.3,13.6-2.1
		c0.5-0.3,1-0.6,1.4-1c-2.3,2.4-5.4,4-8.7,4.9C31.9,47.6,26.7,45.9,24.3,41.6 M22.4,39.5c1.2,3.1,2.9,6,6.1,7.3
		c0.2,0.1,0.3,0,0.4-0.2c1.8,0.9,3.9,1.5,6,1.8c-1.1,0.2-2.2,0.3-3.3,0.3c-1.9,0-3.8-0.1-5.5-0.9c-2.2-1-3.1-3.1-3.4-5.3
		c-0.2-1.1-0.3-2.1-0.4-3.2C22.4,39.4,22.4,39.5,22.4,39.5 M23.4,30.7c-0.2,0.4-0.3,0.9-0.4,1.4c-0.3,1.3-0.4,2.6-0.2,3.8
		c0,0,0,0-0.1,0c-0.4-1.5-0.5-3-0.5-4.5c0.2-0.6,0.4-1.2,0.7-1.8c0.3-0.5,0.6-1,0.9-1.4C23.6,29,23.5,29.8,23.4,30.7 M24.6,40
		c-0.1-0.6-0.3-1.2-0.5-1.7c0,0,0-0.1,0-0.1c-0.1-0.2-0.2-0.4-0.2-0.7c0,0,0-0.1,0-0.1c-0.5-1.4-0.6-2.7-0.4-4.1
		c0.1,1.1,0.2,2.1,0.4,3.2c0.3,1.7,0.7,3.3,1.5,4.8c-0.3-0.3-0.5-0.7-0.7-1C24.6,40.1,24.7,40.1,24.6,40 M32.3,23.6
		c4.4-0.6,9.1,0.5,12.3,3.1c3.6,3,5.2,7.9,3,12.2c-2.1,4.2-6.7,6.3-11.3,6.6c-2.6,0.1-5.3-0.2-7.6-1.3c-0.2-0.1-0.4-0.3-0.7-0.4
		c-0.9-0.8-1.7-1.7-2.3-2.9c-0.9-1.8-1.3-3.7-1.5-5.7c-0.2-1.3-0.4-2.8-0.4-4.2c0.5-1.5,1.4-2.8,2.4-4C28,25.4,30.1,24.3,32.3,23.6
		 M32.9,22.9c-0.8,0.1-1.7,0.2-2.5,0.4c0.4-0.2,0.8-0.4,1.2-0.5c0.2-0.1,0.5-0.2,0.7-0.2c0.8-0.2,1.6-0.3,2.3-0.4
		c1.4-0.1,2.8-0.1,4.2,0.2C36.8,22.3,34.8,22.4,32.9,22.9 M48,27.4c-0.5-0.7-1-1.3-1.6-1.9c0.2,0,0.3,0,0.5-0.1
		C47.4,26,47.7,26.7,48,27.4 M48.1,26.1c-0.1-0.2-0.3-0.4-0.4-0.6c1.2,0,2.4-0.1,3.7-0.3c-1,0.2-2,0.4-3,0.6
		C48.1,25.8,48.1,25.9,48.1,26.1 M44.9,24.1c0.5,0.2,0.9,0.3,1.3,0.6c0,0,0.1,0.1,0.1,0.1c-0.1,0-0.1,0-0.2,0
		c-0.1,0-0.2,0.1-0.2,0.2c-0.3-0.3-0.6-0.5-1-0.8C44.9,24.2,44.9,24.2,44.9,24.1 M46.5,27.8c-2.4-2.7-5.9-4.3-9.6-4.8
		c0.1,0,0.2,0,0.4,0c1.5,0,3,0.2,4.5,0.4c0.1,0.1,0.3,0.1,0.4,0.2c0,0.1,0,0.1,0.1,0.2c0.3,0.3,0.6,0.4,0.9,0.6
		C44.5,25.3,45.6,26.4,46.5,27.8 M63.5,34.6c-0.6,7-1.2,14-1.7,21c0,0.2,0.2,0.3,0.4,0.3c-1.8,2.4-4.1,4.1-6.7,5.3
		c-1.9,0.1-3.8,0.1-5.8,0.2c-4.4,0.2-8.8,0.3-13.2,0.5c-4.3,0.2-8.6,0.4-12.9,0.4c-2.2,0-4.3-0.2-6.5-0.4c-0.8-0.1-1.5-0.2-2.3-0.1
		c-1.1-1-2.4-1.6-3.9-1.8c-0.1,0-0.1,0-0.2,0c0,0-0.1-0.1-0.1-0.1c-0.6-0.4-1.2-0.9-1.7-1.3L8.9,57c0.3-0.5,0.3-1.1-0.1-1.9
		C8.8,55,8.7,55,8.6,55C8.1,49,7.8,43.1,7.7,37.1c0.4-3.6,0.8-7.2,1.3-10.7c0.7-0.1,1.3-0.2,2-0.3c0.3,0.1,0.7,0.2,1,0.2
		c-0.5,0.2-1,0.4-1.5,0.7c-0.3,0.2-0.1,0.7,0.3,0.6c1.3-0.4,2.5-0.7,3.8-0.9c0.8,0,1.6,0,2.3,0c0,0.2,0,0.4,0,0.6
		c0,0.4,0.7,0.4,0.7,0c0-0.2,0-0.4,0-0.6c0.6-0.1,1.2-0.1,1.8-0.3c0.9,0.1,1.9,0.1,2.8,0.1c0.3,0,0.4-0.3,0.3-0.5
		c0.4-0.1,0.9-0.2,1.3-0.3c0.2-0.1,0.3-0.2,0.2-0.4c0.5,0,1-0.1,1.5-0.1c0,0.1,0,0.1,0,0.2c-0.2,0.2-0.4,0.5-0.6,0.7
		c-1.1,1-2,2.1-2.6,3.3c0,0,0,0,0-0.1c0.1-0.4-0.5-0.6-0.6-0.2c-0.2,1.1-0.3,2.3-0.3,3.4c-0.2,1.3-0.2,2.7,0,4.1
		c0.4,4,0.2,9.5,4.2,11.6c3.3,1.7,7.8,1.4,11.5,0.4c1.4,0.1,2.7,0.1,4,0c0.4,0,0.4-0.7,0-0.7c-0.7,0-1.4,0-2.1,0
		c3.9-1.4,7.3-4,9.3-7.6c1.7-3.1,2.2-6.8,1.1-10.2c-0.2-1.3-0.5-2.5-1-3.6c-0.1-0.2-0.1-0.3-0.2-0.4c0.1,0.1,0.2,0.2,0.3,0.1
		c0.8-0.1,1.6-0.2,2.3-0.3c0.1,0.1,0.2,0.2,0.3,0.1c0.5-0.1,1-0.2,1.5-0.2c2.7-0.1,5.3-0.2,8-0.5c0.4,0,0.8,0,1.2-0.1
		c0.1,0,0.2-0.1,0.2-0.1c0.2,0,0.5-0.1,0.7-0.1c0.4,0.1,0.8,0.2,1.3,0.2C64,28.5,63.8,31.6,63.5,34.6 M41.7,64.2
		c-7.7,0.3-15.4-0.3-23-1c0-0.1-0.1-0.2-0.1-0.2c-0.1-0.1-0.3-0.2-0.4-0.2c0,0,0,0,0,0c1.4,0.2,2.9,0.3,4.3,0.3
		c2.9,0.1,5.8-0.1,8.7-0.2c6.1-0.2,12.2-0.5,18.3-0.7c1.5-0.1,3-0.1,4.5-0.2C50.1,63.5,45.8,64,41.7,64.2 M7.5,56.7
		C7.2,56,7,55.3,6.9,54.4c-0.3-4,0-8.1,0.3-12.1c0.2,4.8,0.5,9.6,0.9,14.4C7.9,56.8,7.7,56.8,7.5,56.7 M7.8,25.4c0,0,0.1,0,0.1,0
		c0.2,0,0.4,0,0.6,0c0,0.1,0,0.2,0,0.4c-0.1,0-0.1,0-0.2,0c-0.4,0.1-0.3,0.6,0.1,0.6c-0.2,1.8-0.5,3.5-0.7,5.3
		C7.7,29.6,7.7,27.5,7.8,25.4 M7.8,24.3c0.3,0,0.6,0,0.9,0c0,0.2,0,0.3-0.1,0.5c-0.2,0-0.5,0-0.7,0.1c0,0-0.1,0-0.1,0
		C7.8,24.7,7.8,24.5,7.8,24.3 M8.5,11.7c0.1,0.1,0.2,0.1,0.3,0c0.7-0.4,1.3-0.8,1.9-1.3c-0.6,4.4-1.3,8.8-1.9,13.2
		c-0.3,0-0.6,0-0.9,0C8,19.6,8.2,15.6,8.5,11.7 M11.4,9.8c0.1-0.1,0.2-0.2,0.4-0.3c0.3-0.1,0.7-0.3,1-0.4c-0.5,4.8-0.8,9.7-1,14.5
		c-0.4,0-0.9,0-1.3,0c-0.4,0-0.7,0-1.1,0C10.1,19,10.8,14.4,11.4,9.8 M15.2,8.4c0,0,0,0.1,0,0.1c-0.2,1.2,0.1,2.2,0.3,3.3
		c0.3,1.6,0.6,3.3,0.9,4.9c0.3,2.3,0.5,4.5,0.6,6.8c-1.5,0-3,0-4.5,0c0.2-4.9,0.6-9.8,1.1-14.7C14,8.7,14.6,8.6,15.2,8.4 M17.1,8
		c0.9,5.2,1.6,10.3,2.2,15.6c-0.6,0-1.1,0-1.7,0c-0.1-1.9-0.3-3.8-0.5-5.7c-0.2-1.3-0.3-2.5-0.6-3.8c-0.3-1.7-1-3.7-0.8-5.4
		c0-0.2-0.1-0.3-0.2-0.4C16,8.2,16.6,8.1,17.1,8 M19.4,24.3c-0.6,0-1.2,0.1-1.8,0.1c0-0.1,0-0.1,0-0.2c0.6,0,1.2,0,1.8,0
		C19.4,24.2,19.4,24.3,19.4,24.3 M21.6,25.1c-0.1,0-0.1,0-0.2,0.1c-0.4,0-0.9,0.1-1.3,0.1c0,0,0-0.1,0-0.1
		C20.6,25.1,21.1,25.1,21.6,25.1 M19.9,7.5c-0.3,5.3-0.2,10.7,0.3,16c-0.1,0-0.2,0-0.3,0c-0.6-5.2-1.3-10.5-2.2-15.7
		C18.4,7.7,19.2,7.6,19.9,7.5 M60.1,60.9c0.8-1.1,0.9-1.2,0.4-0.3c0,0.6-0.1,0.7-0.3,0.5c0,0-0.1-0.1-0.2,0c0,0,0,0,0,0
		C60.1,61.1,60.1,61,60.1,60.9 M65.3,24.1c-0.2,0-0.4,0-0.6,0c0-2-0.1-4.1-0.3-6.1c0.2,0,0.5-0.2,0.4-0.4c-0.2-0.5-0.4-1-0.7-1.6
		c-0.1-0.4-0.1-0.7-0.2-1.1c0.1-0.1,0.2-0.3,0.1-0.4c-0.1-0.2-0.2-0.3-0.3-0.5c0-0.1,0-0.2-0.1-0.3c0-0.2-0.2-0.2-0.3-0.2
		c-0.2-0.3-0.4-0.6-0.6-0.8c-0.3-0.9-0.6-1.9-0.9-2.8c0.3,0,0.6-0.4,0.2-0.6c-0.2-0.1-0.3-0.2-0.5-0.2c-0.1-0.2-0.1-0.4-0.2-0.6
		c-0.1-0.4-0.8-0.2-0.6,0.2c0,0,0,0,0,0c-0.2-0.1-0.4-0.2-0.6-0.3l-0.4-0.7c-0.2-0.3-0.7-0.1-0.6,0.2l-1.6-0.8
		c-0.3-0.2-0.7,0.3-0.4,0.5C57.5,8,57.8,8.2,58,8.4c-8.8-1.8-17.7-2.2-26.8-2.1c-4.5,0-9.2,0.1-13.6,0.9C17.5,7,17.1,7,17,7.3
		c-1.5,0.3-2.9,0.7-4.4,1.2c0-0.2-0.2-0.3-0.4-0.3c-0.2,0.1-0.4,0.2-0.7,0.3c-0.1-0.2-0.3-0.3-0.5-0.2c-0.7,0.4-1.3,0.8-1.9,1.2
		C9.1,9.1,8.9,8.8,8.6,8.5C8.4,8.3,8,8.4,8,8.7C8,9,8,9.2,8,9.5c-0.2,0-0.3,0.1-0.4,0.2c0,0,0,0.1,0,0.1c0,0,0,0,0,0
		c0-0.4-0.7-0.4-0.7,0c0,0.4,0.2,0.8,0.4,1.1c0,0.1,0,0.2-0.1,0.3c-0.2,0.2-0.5,0.3-0.7,0.5c-0.3,0.2,0,0.8,0.3,0.6
		C7,12.1,7.1,12,7.3,11.9C7.4,12,7.5,12,7.7,11.9c0,0,0.1-0.1,0.1-0.1c-0.3,3.9-0.5,7.9-0.6,11.8c-0.3,0.1-0.3,0.5,0,0.6
		C7,28.5,7,32.8,7.1,37.1c-0.1,1-0.2,2-0.3,3.1c-0.3,2.7-0.4,5.4-0.5,8C6.2,50.5,6,53,6.3,55.3c0.1,0.3,0.1,0.6,0.2,0.9
		c-0.1-0.1-0.2-0.1-0.3-0.2c0-0.1-0.1-0.1-0.1-0.2c-0.2-0.3-0.6,0-0.5,0.3c0.1,0.9,0.6,1.3,1.2,1.5c0.5,0.7,1.1,1.4,1.6,2.1
		c0,0.1,0.1,0.1,0.1,0.2c0.9,1.4,2.2,2.7,3.7,3.6c0.3,0.2,0.6-0.2,0.4-0.4c-0.5-0.8-1-1.5-1.6-2.2c0,0,0,0,0,0
		c0.7,0.9,1.6,1.6,2.5,2.2c0.1,0.1,0.2,0.1,0.3,0c0.7,0.3,1.5,0.4,2.2,0.3c9.3,0.8,18.7,1.7,28,1c4-0.3,8-1.1,11.6-2.8
		c1,0,2-0.1,3-0.1c1.1,0,2.4,0.6,3.2-0.4c1.7-2-2.7-3.1-2.6-0.5c0,0.2,0.1,0.3,0.2,0.3c-0.8,0.2-1.9,0.1-2.7,0
		c1.7-0.9,3.3-2.1,4.6-3.6c-0.2,0.3-0.3,0.7-0.5,1c-0.2,0.4,0.3,0.7,0.6,0.3c0.3-0.4,0.5-0.9,0.7-1.3c0.1,0,0.2-0.1,0.2-0.2
		c0-0.2,0.1-0.3,0.1-0.5c0.1-0.3,0.2-0.5,0.3-0.8c0.1-0.2,0.2-0.3,0.2-0.5c0,0,0.1-0.1,0.1-0.1c0-0.1,0-0.1,0.1-0.2
		c0.1-0.2,0.2-0.5,0.4-0.7c0.1-0.1,0-0.2,0-0.3c0.5-1.5,0.8-3,1-4.5c0-0.3-0.4-0.6-0.6-0.3c0,0,0,0.1,0,0.1c0,0,0,0,0,0c0,0,0,0,0,0
		c-0.1,0.3-0.2,0.6-0.3,0.8c0,0-0.1,0-0.1,0.1c0.1-1.1,0.1-2.2,0.1-3.3c0-0.4-0.6-0.5-0.6-0.1c-0.1,0.5-0.2,1-0.3,1.5
		c0.4-4.9,0.8-9.8,1.2-14.7c0.2-2.8,0.4-5.6,0.5-8.4c0,0,0.1,0,0.1,0c0.4,0.1,0.6-0.5,0.2-0.6c-0.1,0-0.2,0-0.3-0.1c0,0,0,0,0,0
		c0.2,0,0.5-0.1,0.7-0.1C65.8,24.7,65.7,24.1,65.3,24.1"/>
	<path class="st0" d="M41.3,37.3c-0.4,0.5-0.9,0.9-1.4,1.1c0.1-0.2,0.3-0.3,0.4-0.5c0.3-0.3,0.6-0.5,0.9-0.8
		c0.4-0.5,0.6-0.9,0.8-1.4C41.9,36.2,41.7,36.8,41.3,37.3 M41.1,32.9c0.5,0.9,0.6,1.9-0.1,3.1c0,0.1-0.1,0.1-0.1,0.2
		c0.2-0.8,0.3-1.6,0.3-2.2C41.2,33.6,41.2,33.3,41.1,32.9 M34.1,38.6c0,0,0.1,0,0.2,0.1c-0.7-0.2-1.3-0.4-1.8-0.7
		c-0.3-0.4-0.6-0.8-0.8-1.2C32.3,37.5,33.2,38.2,34.1,38.6 M33.7,31.1c0.7-0.4,1.6-0.7,2.4-0.7c1.4,0,3.1,0.6,4.2,1.5
		c0.3,1.3,0.4,2.8,0,4.1c-0.2,0.6-0.4,1.2-0.8,1.7c-0.5,0.4-1.1,0.7-1.7,1c-0.2,0-0.4,0-0.6,0c-1.5-0.1-3.1-0.5-4.2-1.5
		c-1.2-1-1.6-2.4-1.3-3.6C32,32.6,32.7,31.7,33.7,31.1 M42.4,33.5c-0.3-0.9-0.9-1.6-1.5-2.2c-0.3-1.1-0.9-2.1-1.6-3
		c-0.3-0.3-0.7,0.1-0.5,0.5c0.5,0.6,0.8,1.2,1.1,1.9c-1.5-0.9-3.4-1.2-5.1-0.7c0,0,0,0,0,0c-0.1,0-0.1,0-0.2,0
		c-2,0.5-3.7,1.9-3.7,4.1c-0.2,0.7-0.1,1.5,0,2.2c-0.3-0.5-0.5-1-0.6-1.7c-0.5-3,2.3-5.5,5.2-5.1c0.4,0.1,0.4-0.6,0-0.7
		c-3.1-0.4-6.1,2.2-5.9,5.4c0.1,2,1.1,3.3,2.5,4.2c1.3,1.3,3.1,1.6,4.9,1.1c0.1,0,0.1,0,0.2,0c1.7,0,3.5-0.4,4.6-1.7
		C42.7,36.7,42.9,35,42.4,33.5"/>
	<path class="st0" d="M54.2,14c0.4-0.2,0.9-0.4,1.3-0.6c0.3,0.1,0.5,0.2,0.8,0.4C55.6,13.9,54.9,13.9,54.2,14 M51.5,18.3
		c0-0.1,0-0.1,0-0.2c0.1-0.2,0.2-0.4,0.3-0.7c0.1,0,0.1,0,0.2,0c0.7-0.1,1.4-0.3,2.1-0.5c0.9-0.2,1.8-0.3,2.8-0.4
		c-0.7,0.4-1.5,0.6-2.4,0.7c-0.4,0-0.4,0.7,0,0.7c0.8,0,1.6-0.1,2.3-0.1c-0.4,0.2-0.8,0.3-1.3,0.5c-1.1,0.1-2.2,0.3-3.2,0.5
		C52,18.7,51.7,18.6,51.5,18.3 M58,17.2c-0.3,0-0.5,0-0.8,0c0.3-0.1,0.5-0.3,0.8-0.5C57.9,16.9,57.9,17,58,17.2 M58.1,18.6
		c0,0.2,0,0.3,0,0.5c-0.3,0-0.6,0-0.9,0C57.5,18.9,57.8,18.7,58.1,18.6 M52.6,14.8c1.1-0.1,2.3-0.2,3.4-0.4c0,0,0,0,0,0
		c-1.1,0.3-2.2,0.6-3.3,1c-0.4,0.1-0.2,0.7,0.2,0.6c0.9-0.2,1.8-0.5,2.7-0.8c-0.9,0.3-1.8,0.6-2.7,0.8c-0.2,0.1-0.3,0.3-0.2,0.5
		c-0.2,0.1-0.5,0.1-0.7,0.2c0.1-0.4,0.1-0.7,0.1-1c0-0.3-0.1-1-0.4-1.6c-0.1-0.4-0.1-0.7-0.2-1.1c0.1,0,0.1,0.1,0.2,0.1
		c0.3,0,0.7,0,1,0c0.5,0,1.1,0.1,1.6,0.1c-0.7,0.3-1.3,0.6-1.9,1C52.2,14.4,52.3,14.9,52.6,14.8 M59.7,19.9c0-0.1,0-0.2,0-0.2
		c0,0,0,0,0,0c0.4-0.1,0.3-0.6-0.1-0.6c0-0.5-0.1-1-0.1-1.5c0-1.4,0-2.8,0-4.3c0-0.4-0.6-0.4-0.7,0c0,0.2-0.1,0.4-0.1,0.6
		c0,0-0.1,0-0.1,0c-0.1-0.5-0.3-0.9-0.5-1.4c-0.1-0.3-0.7-0.3-0.6,0.1l0.1,1c-0.1,0-0.3,0-0.4,0c0,0,0-0.1-0.1-0.1
		c-0.4-0.3-0.8-0.5-1.2-0.7c0-0.1-0.1-0.2-0.3-0.2c-0.2,0-0.4,0-0.6-0.1c-0.1,0-0.3-0.1-0.4-0.1c0.9-0.1,1.7-0.2,2.6-0.3
		c0.4,0,0.4-0.6,0-0.7c-0.1,0-0.2,0-0.3,0c0,0,0,0,0,0c0.4-0.1,0.2-0.7-0.2-0.6c-0.8,0.1-1.6,0.3-2.4,0.5c-1.2,0.3-2.4,0.6-3.5,0.9
		c-0.1-0.6-0.3-1.3-0.4-1.9c-0.1-0.4-0.6-0.3-0.6,0.1c0,0.8,0,1.6,0,2.4c-0.7,1.3-0.9,3-0.2,4.4c0.1,1.2,0.4,2.3,0.9,3.5
		c0.1,0.3,0.6,0.3,0.6-0.1c0-0.4,0-0.7,0-1.1c0,0,0,0,0,0c0.4,0.3,0.9,0.2,1.4,0.1c0.3,0,0.6,0,0.9,0c0,0,0,0,0,0
		c0,0.2,0.1,0.4,0.3,0.4c0.2,0,0.5,0,0.7,0c0,0.1,0,0.2,0,0.3c-0.6,0.1-1.2,0.3-1.7,0.5c-0.4,0.1-0.2,0.7,0.2,0.6
		c1.7-0.3,3.4-0.6,5.1-0.9c0.1,0,0.2,0,0.4-0.1c0,0,0,0,0,0c0.4,0,0.9,0,1.3,0C60,20.6,60.1,20,59.7,19.9"/>
</g>
</svg>
