<?xml version="1.0" encoding="utf-8"?>
<!-- Generator: Adobe Illustrator 19.1.1, SVG Export Plug-In . SVG Version: 6.00 Build 0)  -->
<svg version="1.1" id="Layer_1" xmlns="http://www.w3.org/2000/svg" xmlns:xlink="http://www.w3.org/1999/xlink" x="0px" y="0px"
	 viewBox="0 0 16 9.3" style="enable-background:new 0 0 16 9.3;" xml:space="preserve">
<style type="text/css">
	.st0{clip-path:url(#SVGID_2_);fill:#CB355B;}
	.st1{clip-path:url(#SVGID_4_);fill:#CB355B;}
	.st2{clip-path:url(#SVGID_6_);fill:#CB355B;}
	.st3{clip-path:url(#SVGID_8_);fill:#CB355B;}
	.st4{clip-path:url(#SVGID_10_);fill:#CB355B;}
	.st5{clip-path:url(#SVGID_12_);fill:#FFFFFF;}
	.st6{clip-path:url(#SVGID_14_);fill:#FFFFFF;}
	.st7{clip-path:url(#SVGID_16_);fill:#FFFFFF;}
	.st8{clip-path:url(#SVGID_18_);fill:#FFFFFF;}
	.st9{clip-path:url(#SVGID_20_);fill:#00819F;}
	.st10{clip-path:url(#SVGID_22_);}
	.st11{clip-path:url(#SVGID_24_);fill:#1D0C06;}
</style>
<g>
	<defs>
		<rect id="SVGID_19_" x="1.3" y="2.6" width="13.1" height="5.2"/>
	</defs>
	<clipPath id="SVGID_2_">
		<use xlink:href="#SVGID_19_"  style="overflow:visible;"/>
	</clipPath>
	<path style="clip-path:url(#SVGID_2_);fill:#00819F;" d="M6.3,6.8C6.3,6.9,6.3,6.9,6.3,6.8c0,0.2,0.1,0.3,0.2,0.4c0,0,0,0,0.1,0
		C6.5,7.1,6.4,6.9,6.3,6.8 M3.5,4.5C3.5,4.5,3.4,4.5,3.5,4.5C3.3,4.6,3.2,4.8,3.1,4.9c0,0,0.1,0,0.2-0.1C3.4,4.8,3.4,4.6,3.5,4.5
		 M3.6,5.6L3.6,5.6C4.2,6,4.7,6.3,5.3,6.5C4.8,6.1,4.2,5.9,3.6,5.6 M5.1,3.5C5,3.4,5,3.4,5,3.4C4.9,3.5,4.8,3.6,4.7,3.7
		C4.6,3.8,4.5,3.9,4.4,3.9C4.3,4,4.2,4,4.1,4.1C4,4.2,3.9,4.3,3.8,4.4C3.8,4.5,3.7,4.6,3.5,4.7c0.1,0,0.2,0,0.2,0
		c0.2-0.1,0.3-0.3,0.5-0.4C4.6,4.1,4.8,3.8,5.1,3.5 M14.4,4.7c0,0-0.1,0.1-0.1,0.1c-0.3,0-0.7,0.1-1,0.1c-0.5,0-1,0-1.5,0
		c-0.2,0-0.5,0-0.7,0C10.4,5,9.7,5,9,5.1c-0.4,0-0.9,0-1.3,0C7.5,5.1,7.2,5.1,7,5.2c-0.1,0-0.2,0-0.3,0C6.4,5.1,6,5.2,5.7,5.2
		c-0.3,0-0.6,0-0.9,0c-0.1,0-0.2,0-0.2,0c0,0,0,0.1,0,0.1c0.6,0,1.2,0.1,1.8,0.1c0.4,0,0.8,0,1.2,0c0.4,0,0.8,0,1.2,0
		c0.4,0,0.9,0,1.3-0.1c0.4,0,0.8,0,1.1-0.1c0.4,0,0.8-0.1,1.3-0.1c0.2,0,0.4,0,0.6-0.1c0.1,0,0.2,0,0.3,0c0.3,0,0.3,0,0.4,0.3
		c-0.1,0-0.2,0-0.4,0c-0.4,0-0.9,0-1.3,0c-0.5,0-0.9,0.1-1.4,0.1c-0.4,0-0.9,0-1.3,0.1c-0.8,0-1.6,0-2.4,0c-0.7,0-1.3-0.1-2-0.1
		C5.5,5.9,6,6.2,6.4,6.5C6.6,6.7,6.8,6.8,7,6.9c0,0,0,0.1,0,0.2C7,7.2,7,7.2,7,7.2c0.1,0.1,0.2,0.2,0.3,0.4c0,0,0,0.1,0,0.2
		c0,0-0.1,0-0.2,0C6.7,7.5,6.4,7.3,6.1,7C5.9,6.9,5.7,6.7,5.4,6.6c0,0,0,0,0,0c0,0.1,0,0.1,0,0.2c-0.1,0-0.2,0.1-0.3,0
		C4.9,6.7,4.7,6.5,4.4,6.4C3.7,6.1,3,5.8,2.3,5.5C2,5.4,1.8,5.3,1.5,5.2C1.4,5.1,1.4,5,1.3,4.9c0.3-0.3,0.6,0,0.9-0.1
		c0.1-0.3,0.1-0.2,0.3-0.2c0.1,0,0.2,0,0.3-0.1C3,4.5,3.3,4.3,3.5,4.1C3.7,3.9,4,3.8,4.2,3.6c-0.1-0.1,0-0.2,0.2-0.3
		c0.1,0,0.2-0.1,0.4-0.1c0,0,0,0,0-0.1c0-0.1,0.1-0.2,0.1-0.2c0,0,0.1,0,0.2,0c0.2-0.1,0.3-0.3,0.6-0.3c0,0,0.1,0,0.1,0
		c0,0,0.1,0,0.1,0c0,0,0,0.1,0,0.1C5.7,2.9,5.6,3.1,5.5,3.2C5.3,3.5,5.1,3.8,4.8,4.1c0,0.1-0.1,0.1-0.2,0.1C4.5,4.3,4.4,4.4,4.3,4.5
		C4.1,4.7,4,4.9,3.7,5c0,0,0,0,0,0.1c0.1,0,0.2,0.1,0.3,0.1c0,0,0.1,0,0.1,0C4.3,5,4.6,5.1,4.8,5C4.9,5,4.9,5,5,5C4.9,5,4.8,5,4.7,5
		c-0.1,0-0.2-0.1-0.2-0.2c0-0.1,0.1-0.1,0.2-0.2c0.4-0.1,0.7,0,1.1,0c0.2,0,0.4,0.1,0.6,0.1c0.1,0,0.1-0.1,0.2-0.1
		c0.6,0,1.2,0,1.7,0c0.5,0,0.9,0,1.4,0c0.6,0,1.2,0,1.8-0.1c0,0,0.1,0,0.1,0c0.2-0.1,0.3-0.1,0.6-0.1c-0.1,0-0.1,0-0.2,0
		c0,0-0.1,0-0.1,0c0,0,0,0,0,0.1c0.2,0,0.3,0,0.5,0c0.4,0,0.7,0,1.1-0.1c0.3,0,0.5,0,0.8,0c0.1,0,0.1,0,0.2,0V4.7z"/>
	<path style="clip-path:url(#SVGID_2_);fill:#00819F;" d="M5.1,3.5C4.8,3.8,4.6,4.1,4.2,4.3C4.1,4.4,3.9,4.6,3.8,4.7
		c0,0-0.1,0-0.2,0c0.1-0.1,0.2-0.2,0.3-0.3C3.9,4.3,4,4.2,4.1,4.1C4.2,4,4.3,4,4.4,3.9c0.1-0.1,0.2-0.1,0.3-0.2
		C4.8,3.6,4.9,3.5,5,3.4C5,3.4,5,3.4,5.1,3.5"/>
	<path style="clip-path:url(#SVGID_2_);fill:#00819F;" d="M3.6,5.6c0.6,0.2,1.2,0.5,1.7,0.9C4.7,6.3,4.2,6,3.6,5.6L3.6,5.6z"/>
	<path style="clip-path:url(#SVGID_2_);fill:#00819F;" d="M3.5,4.5C3.4,4.6,3.4,4.8,3.3,4.9c0,0-0.1,0-0.2,0.1
		C3.2,4.8,3.3,4.6,3.5,4.5C3.4,4.5,3.5,4.5,3.5,4.5"/>
	<path style="clip-path:url(#SVGID_2_);fill:#00819F;" d="M6.3,6.8c0.1,0.1,0.2,0.2,0.3,0.3c0,0,0,0-0.1,0C6.5,7.1,6.4,7,6.3,6.8
		C6.3,6.9,6.3,6.9,6.3,6.8"/>
</g>
</svg>
