<?xml version="1.0" encoding="utf-8"?>
<!-- Generator: Adobe Illustrator 19.1.1, SVG Export Plug-In . SVG Version: 6.00 Build 0)  -->
<svg version="1.1" id="Layer_1" xmlns="http://www.w3.org/2000/svg" xmlns:xlink="http://www.w3.org/1999/xlink" x="0px" y="0px"
	 viewBox="0 0 103 106" style="enable-background:new 0 0 103 106;" xml:space="preserve">
<style type="text/css">
	.st0{clip-path:url(#SVGID_2_);fill:#0083A0;}
</style>
<g>
	<defs>
		<rect id="SVGID_1_" x="23" y="20.5" width="62.6" height="63.5"/>
	</defs>
	<clipPath id="SVGID_2_">
		<use xlink:href="#SVGID_1_"  style="overflow:visible;"/>
	</clipPath>
	<path class="st0" d="M35.4,55.4c0,0.8,0.1,1.6,0.1,2.4c0.1,1.6,0.2,3.2,0.3,4.8c0.1,1.3,0.2,2.7,0.2,4c0,0.1,0,0.3,0,0.4
		c-0.1,0.1-0.2,0.3-0.3,0.3c-0.1,0-0.3-0.1-0.3-0.2c-0.2-0.3-0.5-0.6-0.6-1c-0.1-0.2-0.2-0.5-0.2-0.7c0-0.6,0-1.3,0-1.9
		c0-1.4,0-2.9,0-4.3c0-1,0-2.1,0-3.1C34.7,55.6,34.8,55.4,35.4,55.4"/>
	<path class="st0" d="M64.8,56.6c0.1,0.3,0.2,0.4,0.2,0.6c0,2.8,0,5.6-0.1,8.5c-0.2,0-0.3,0-0.4-0.1c-0.1-0.2-0.2-0.5-0.3-0.7
		c-0.2-0.2-0.4-0.3-0.7-0.5c0.1-1.1,0.3-2.2,0.4-3.3c0.1-1.2,0.2-2.4,0.3-3.7C64.4,57.2,64.4,56.9,64.8,56.6"/>
	<path class="st0" d="M23,44.1c0.7,0,0.8,0,0.8,0.5c0.1,2.7,0.2,5.3,0.3,8c0,0.1,0,0.3,0,0.4c0,0.1-0.1,0.2-0.2,0.2
		c-0.1,0-0.3-0.1-0.4-0.1c-0.2-0.5-0.6-1-0.5-1.6c0.3-2.2-0.1-4.3-0.1-6.5C23,44.7,23,44.4,23,44.1"/>
	<path class="st0" d="M43.9,45.9c0.7-0.3,0.9-0.2,0.9,0.4c0.2,1.6,0.4,3.2,0.5,4.8c0.1,0.7,0.1,1.3,0.1,2c0,0.3,0.1,0.6-0.3,0.7
		c-0.4,0.1-0.5-0.3-0.6-0.6c-0.1-0.4-0.1-0.8-0.1-1.3c-0.1-1-0.2-1.9-0.4-2.9c-0.1-0.7-0.3-1.5-0.1-2.2C44,46.5,43.9,46.2,43.9,45.9
		"/>
	<path class="st0" d="M75.4,28.8c-0.3-0.6-0.5-1.3-0.5-2c0-1.3-0.1-2.6,0-3.8c0-0.6,0.1-1.2,0.2-1.8c0-0.3,0.2-0.6,0.7-0.7
		c0.4,0.9,0.2,1.8,0.2,2.8c0,0.9,0,1.9,0,2.8C75.8,28.4,75.8,28.4,75.4,28.8"/>
	<path class="st0" d="M29.4,38.8c0.5-0.2,0.7,0.1,0.8,0.4c0.1,0.3,0.1,0.6,0.1,0.8c0,2.3,0,4.7,0,7c0,0.1,0,0.2-0.1,0.3
		c-0.6,0.1-0.7-0.3-0.7-0.7c-0.1-0.9-0.1-1.7-0.1-2.6c0-1.1,0-2.1,0-3.2C29.4,40.2,29.4,39.5,29.4,38.8"/>
	<path class="st0" d="M39.6,52.3c0.4,0,0.7,0.1,0.7,0.4c0.3,2.5,0.6,4.9,0,7.4c0,0.1-0.1,0.1-0.1,0.2c-0.1-0.1-0.2-0.1-0.3-0.2
		c-0.1-0.5-0.3-0.9-0.3-1.4C39.6,56.6,39.6,54.4,39.6,52.3"/>
	<path class="st0" d="M85,62.9c0.2,0,0.3,0,0.5,0c-0.1,0.5-0.1,1-0.2,1.5c-0.1,0.6-0.1,1.2-0.1,1.7c0,0.3,0,0.6-0.1,0.9
		c-0.1,0.5-0.3,0.6-0.6,0.6c-0.3,0-0.5-0.3-0.5-0.8c0-0.6,0.1-1.3,0.1-1.9c0-0.9-0.1-1.8-0.1-2.7c0-0.4-0.1-0.9,0.4-0.9
		c0.5-0.1,0.4,0.5,0.5,0.8C84.9,62.5,85,62.7,85,62.9"/>
	<path class="st0" d="M79,47.4c0.6,0.5,0.7,1,0.7,1.5c0.1,1.5,0.2,2.9,0.2,4.4c0,0.4-0.1,0.8-0.2,1.2c0,0.1-0.2,0.3-0.3,0.3
		c-0.1,0-0.3-0.1-0.4-0.3C79.1,54.4,79,54.2,79,54c-0.1-1.6-0.2-3.2-0.2-4.8C78.8,48.6,79,48.1,79,47.4"/>
	<path class="st0" d="M59.9,28c0.1,0.6,0.2,1.1,0.3,1.7c0.1,1.8,0.2,3.5,0.4,5.3c0,0.1,0,0.1,0,0.2c0,0.3,0.1,0.7-0.3,0.8
		c-0.4,0-0.4-0.4-0.5-0.7c-0.3-0.7-0.2-1.3-0.2-2c0-0.5-0.1-1-0.1-1.5c0-0.5-0.1-1.1-0.1-1.6c0-0.5-0.1-0.9-0.2-1.4
		C59.1,28.3,59.2,28,59.9,28"/>
	<path class="st0" d="M45,75.7c0.2,2.4,0.4,4.9,0.5,7.4c-0.1,0-0.2,0.1-0.5,0.2c0,0.1,0,0.3-0.1,0.5c-0.1,0.1-0.3,0.3-0.4,0.3
		c-0.1,0-0.3-0.2-0.3-0.4c0-0.5,0.1-1.1,0.1-1.6c0.1-1.5,0.1-3.1,0.1-4.6c0-0.6,0.2-1.2,0.3-1.8C44.9,75.6,45,75.7,45,75.7"/>
	<path class="st0" d="M47.2,61.2c0.4,0.1,0.4,0.4,0.4,0.6c0.4,1.6,0.5,3.2,0.2,4.9c-0.2,0.9-0.2,1.9-0.3,2.9c-0.5,0-0.6-0.3-0.5-0.6
		c0.2-2.3,0.1-4.6,0-7C47,61.7,46.9,61.4,47.2,61.2"/>
	<path class="st0" d="M68.3,76c0.1,0.2,0.2,0.4,0.3,0.6c0.2,1.8,0.4,3.6,0.7,5.4c-0.3,0-0.5,0-0.7,0.1c-0.7,0.2-0.9,0-0.8-0.7
		c0-0.5,0.1-0.9,0.1-1.4c0-1,0-1.9-0.1-2.9C67.6,76.7,67.7,76.3,68.3,76"/>
	<path class="st0" d="M55.6,63.2c-0.5-0.3-0.9-0.5-1.3-0.7c0-0.3-0.1-0.6-0.1-0.9c0-0.5,0-1-0.1-1.4C54,59.4,54,58.7,54.3,58
		c0.1-0.3,0-0.7,0.1-1.1c0-0.1,0.2-0.4,0.3-0.4c0.2,0,0.4,0.1,0.5,0.3c0.1,0.2,0.1,0.4,0.1,0.6c0,0.6-0.1,1.2,0,1.8
		c0,0.9,0.1,1.7,0.2,2.6C55.4,62.2,55.5,62.6,55.6,63.2"/>
	<path class="st0" d="M73.9,60c-0.4-0.1-0.6-0.2-0.5-0.6c0.1-1.1,0.1-2.3,0.1-3.4c0-0.4-0.2-0.9-0.2-1.3c0-0.3,0-0.5,0-0.8
		c0.9,0.1,1.2,0.3,1.2,0.9c0.1,1,0.1,2,0,3c-0.1,0.5-0.3,1-0.3,1.6C74.2,59.7,74,59.9,73.9,60"/>
	<path class="st0" d="M64.1,48.3c0-0.6,0-1.3,0-1.9c0-0.1,0-0.2,0-0.3c0-0.3,0.2-0.5,0.5-0.4c0.2,0,0.4,0.3,0.4,0.4
		c0.1,0.5,0.1,1,0.1,1.5c0,1,0.1,2,0.1,3c0,0.4-0.1,0.7-0.1,1.1c0,0.1-0.2,0.3-0.2,0.3c-0.1,0-0.3-0.1-0.4-0.2
		c-0.1-0.2-0.2-0.4-0.2-0.6C64.2,50.2,64.1,49.3,64.1,48.3C64.1,48.3,64.1,48.3,64.1,48.3"/>
	<path class="st0" d="M34.5,79.8c-0.6,0-0.7-0.3-0.7-0.7c0-0.9,0-1.8,0-2.7c0-0.8-0.1-1.5-0.2-2.3c0-0.2-0.1-0.4,0-0.6
		c0.1-0.2,0.4-0.4,0.6-0.5c0.3-0.1,0.4,0.3,0.4,0.5c0,1.3,0.1,2.6,0.1,3.9C34.7,78.3,34.6,79,34.5,79.8"/>
	<path class="st0" d="M67.5,27.9c0.6-0.1,0.8,0.1,0.9,0.5c0.4,1.2,0.8,2.4,0.9,3.5c-0.3,0.3-0.5,0.6-0.7,0.8
		c-0.1,0.1-0.3,0.2-0.4,0.2c-0.1,0-0.3-0.2-0.3-0.3c-0.1-0.1-0.1-0.3-0.1-0.4c-0.1-1.2-0.2-2.3-0.3-3.5
		C67.5,28.5,67.5,28.2,67.5,27.9"/>
	<path class="st0" d="M38.4,46.7c-0.4,0-0.7-0.1-0.7-0.6c0-0.7,0-1.4,0-2.1c-0.1-0.9-0.2-1.8-0.3-2.8c0-0.2-0.1-0.3-0.1-0.5
		c0-0.3,0-0.7,0.4-0.7c0.4,0,0.5,0.2,0.6,0.6c0.1,0.4,0.1,0.8,0.2,1.2c0.1,0.7,0.2,1.3,0.2,2c0,0.1,0.1,0.2,0,0.2
		c-0.5,0.8-0.1,1.7-0.3,2.6C38.5,46.5,38.5,46.6,38.4,46.7"/>
	<path class="st0" d="M27.5,70.4c-0.1-0.5-0.1-0.9-0.2-1.3c-0.1-1.2-0.1-2.4-0.1-3.6c0-0.6,0.1-1.3,0.2-1.9c0-0.1,0.2-0.3,0.4-0.5
		c0.1,0.2,0.3,0.4,0.3,0.6c-0.2,1.9,0.1,3.9,0.1,5.8C28.2,70.1,28.2,70.1,27.5,70.4"/>
	<path class="st0" d="M23.8,80.7c-0.4-0.3-0.8-0.7-0.8-1.2c0-1.3,0-2.6,0.1-3.9c0-0.3-0.1-0.7,0.4-0.8c0.4,0.1,0.4,0.4,0.4,0.7
		c0,1.1,0,2.2,0,3.4c0,0.6,0.1,1.1,0.1,1.7C23.9,80.7,23.9,80.7,23.8,80.7"/>
	<path class="st0" d="M67.3,44.1c-0.7-0.1-0.7-0.5-0.7-0.9c-0.1-1.3-0.1-2.6-0.2-4c0-0.3,0-0.6,0-0.8c0-0.2,0.2-0.3,0.3-0.4
		c0.1,0.1,0.4,0.2,0.4,0.4c0.1,0.6,0.1,1.2,0.2,1.8c0.1,1,0.1,2,0.1,2.9C67.4,43.4,67.3,43.7,67.3,44.1"/>
	<path class="st0" d="M80.5,40.6c-0.1-0.3-0.3-0.6-0.3-0.8c-0.1-0.6,0-1.2-0.1-1.8c0-0.5-0.2-1.1-0.2-1.6c-0.1-0.6-0.1-1.1-0.1-1.7
		c0-0.2,0.2-0.5,0.4-0.9c0.2,0.4,0.3,0.6,0.4,0.8c0.2,1.7,0.4,3.5,0.5,5.2C81.1,40.1,81.1,40.1,80.5,40.6"/>
	<path class="st0" d="M85.5,46.5c-0.6-0.1-0.6-0.4-0.6-0.7c-0.1-0.9-0.2-1.8-0.3-2.7c0-0.4-0.1-0.9-0.2-1.3c-0.1-0.5-0.2-1,0.4-1.3
		c0.1,0,0.2-0.2,0.2-0.4C85.5,42.2,85.8,44.3,85.5,46.5"/>
	<path class="st0" d="M74.5,39.1c0.1,0.2,0.2,0.4,0.2,0.5c0.1,1.3,0.1,2.6,0.1,3.9c0,0.6,0,1.3,0.1,2c-0.1-0.1-0.2-0.1-0.3-0.2
		c-0.3-0.7-0.6-1.4-0.6-2.2c0-1-0.1-2-0.1-2.9C74,39.8,74,39.4,74.5,39.1"/>
	<path class="st0" d="M56.5,44c0.4,0.1,0.6,0.3,0.6,0.7c0.1,1.4,0.2,2.9,0.3,4.3c0,0.1-0.2,0.3-0.2,0.5c-0.2-0.1-0.4-0.2-0.5-0.3
		c-0.1-0.2,0-0.5,0-0.7c-0.1-1-0.3-2.1-0.4-3.1C56.2,44.8,56.2,44.4,56.5,44"/>
	<path class="st0" d="M51,23.5c0.7,1.2,0.8,2.6,0.8,4c0,0.3,0.1,0.7-0.4,0.9c-0.3-0.4-0.5-0.8-0.6-1.3c-0.1-1-0.2-1.9-0.4-2.9
		C50.4,23.8,50.4,23.5,51,23.5"/>
	<path class="st0" d="M72.8,71.9c-1-0.2-1.1-0.4-1.1-1.1c0-1.2,0-2.3,0-3.5c0-0.4,0-0.7,0.5-0.9c0.1,0.2,0.2,0.3,0.2,0.5
		c0.1,0.8,0.1,1.6,0.1,2.4c0,0.5,0,1,0.3,1.5C73.1,71,72.9,71.4,72.8,71.9"/>
	<path class="st0" d="M61.4,70.8c0.2,0.2,0.4,0.3,0.4,0.4c0.2,1.5,0.3,2.9,0.5,4.5c-0.6-0.1-0.8-0.5-1-0.9
		C61.1,74,61.1,71.8,61.4,70.8"/>
</g>
</svg>
