<?xml version="1.0" encoding="utf-8"?>
<!-- Generator: Adobe Illustrator 19.1.1, SVG Export Plug-In . SVG Version: 6.00 Build 0)  -->
<svg version="1.1" id="Layer_1" xmlns="http://www.w3.org/2000/svg" xmlns:xlink="http://www.w3.org/1999/xlink" x="0px" y="0px"
	 viewBox="0 0 4.5 4.5" style="enable-background:new 0 0 4.5 4.5;" xml:space="preserve">
<style type="text/css">
	.st0{clip-path:url(#SVGID_2_);fill:#254555;}
	.st1{clip-path:url(#SVGID_2_);fill:none;}
</style>
<g>
	<defs>
		<rect id="SVGID_1_" x="0.1" y="0" width="4.2" height="4.7"/>
	</defs>
	<clipPath id="SVGID_2_">
		<use xlink:href="#SVGID_1_"  style="overflow:visible;"/>
	</clipPath>
	<path class="st0" d="M3.7,2.6c0-0.1,0-0.1,0-0.1c0-0.1,0-0.2,0-0.3c0-0.1,0-0.2,0-0.2c0,0,0,0,0,0c0,0,0,0,0,0c0,0,0,0,0,0
		c0,0,0,0,0,0.1c0,0,0,0,0,0c0,0,0,0.1,0,0.1c0,0.1,0,0.2,0,0.3C3.7,2.5,3.7,2.5,3.7,2.6C3.7,2.6,3.7,2.6,3.7,2.6"/>
	<path class="st0" d="M1.8,1.5c0-0.1,0-0.1,0-0.2c0-0.1,0-0.1,0-0.2c0,0,0,0,0,0c0-0.1,0-0.2,0-0.2c0,0,0,0,0,0c0,0,0,0.1,0,0.1
		c0,0.1,0,0.1,0,0.2c0,0,0,0.1,0,0.1c0,0,0,0,0,0C1.8,1.4,1.8,1.4,1.8,1.5C1.8,1.5,1.8,1.5,1.8,1.5C1.8,1.5,1.8,1.5,1.8,1.5"/>
	<path class="st0" d="M0.7,2.1L0.7,2.1C0.6,2.1,0.6,2.1,0.7,2.1C0.6,2.2,0.6,2.2,0.7,2.1C0.6,2.1,0.6,2,0.6,1.8c0-0.1,0-0.2,0-0.3
		c0,0,0,0,0,0c0.1,0,0.1,0,0.1,0.1c0,0,0,0.1,0,0.1c0,0,0,0.1,0,0.1C0.6,1.9,0.7,2,0.7,2.1"/>
	<path class="st0" d="M2.6,3.7c0-0.1,0-0.1,0-0.2c0,0,0,0,0-0.1c0,0,0,0,0,0c0,0,0,0,0-0.1c0-0.1,0-0.1,0-0.2c0,0,0,0,0,0
		c0,0,0,0,0,0c0,0,0,0,0,0.1c0,0,0,0.1,0,0.1C2.6,3.4,2.6,3.5,2.6,3.7C2.7,3.6,2.7,3.6,2.6,3.7C2.7,3.7,2.6,3.7,2.6,3.7"/>
	<path class="st0" d="M1.1,2.7C1.1,2.7,1.1,2.7,1.1,2.7C1,2.7,1,2.7,1.1,2.7c0-0.1,0-0.1,0-0.2c0-0.1,0-0.2,0-0.3C1,2.1,1,2.1,1,2
		c0,0,0,0,0,0c0,0,0,0,0,0.1c0,0,0,0.1,0,0.1c0,0,0,0,0,0c0,0,0,0.1,0,0.1c0,0,0,0,0,0c0,0.1,0,0.1,0,0.2C1.1,2.5,1.1,2.6,1.1,2.7"
		/>
	<path class="st0" d="M1.3,2.5C1.4,2.5,1.4,2.5,1.3,2.5C1.4,2.6,1.4,2.6,1.3,2.5c0.1,0.2,0.1,0.3,0.1,0.4c0,0,0,0,0,0
		c0,0,0,0.1,0,0.1c0,0,0-0.1,0-0.1C1.4,2.8,1.4,2.7,1.3,2.5C1.4,2.6,1.4,2.6,1.3,2.5"/>
	<path class="st0" d="M3,2.8C3,2.8,3,2.7,3,2.8c0-0.2,0-0.4,0-0.6c0,0,0,0,0,0c0,0,0,0,0,0c0,0,0,0,0,0c0,0.1,0,0.1,0,0.2
		C3,2.6,3,2.6,3,2.8C3,2.7,3,2.7,3,2.8"/>
	<path class="st0" d="M0.3,2.2C0.2,2.2,0.2,2.2,0.3,2.2C0.2,2,0.2,1.8,0.2,1.6c0,0,0,0,0,0c0,0,0,0,0,0c0,0,0,0,0,0c0,0,0,0.1,0,0.1
		C0.3,1.8,0.3,2,0.3,2.2C0.3,2.1,0.3,2.1,0.3,2.2"/>
	<path class="st0" d="M4,2.9C4,2.9,4,2.9,4,2.9C3.9,2.8,3.9,2.7,3.9,2.6c0,0,0-0.1,0-0.1c0,0,0,0,0,0c0,0,0,0,0,0c0,0,0,0.1,0,0.1
		c0,0.1,0,0.1,0,0.2C4,2.7,4,2.8,4,2.9C4,2.9,4,2.9,4,2.9"/>
	<path class="st0" d="M1.2,3.7c0,0,0,0.1,0,0.1c0,0.1,0,0.2,0,0.2c0,0,0,0.1,0,0.1c0,0,0,0,0,0c0-0.1,0-0.1,0-0.2c0-0.1,0-0.1,0-0.2
		C1.2,3.7,1.2,3.7,1.2,3.7"/>
	<path class="st0" d="M2.9,0.6C2.9,0.6,2.9,0.6,2.9,0.6C2.9,0.6,2.9,0.6,2.9,0.6C2.9,0.4,2.9,0.3,2.9,0.1c0,0,0,0,0,0c0,0,0,0,0,0
		c0,0.1,0,0.1,0,0.2c0,0.1,0,0.1,0,0.2C2.9,0.5,2.9,0.6,2.9,0.6"/>
	<path class="st0" d="M0.3,4C0.3,4,0.3,4,0.3,4c0-0.2,0-0.3-0.1-0.4c0,0,0,0,0,0c0,0,0,0,0,0c0,0,0,0,0,0c0,0.1,0,0.2,0,0.2
		C0.3,3.9,0.3,4,0.3,4C0.3,4,0.3,4,0.3,4"/>
	<path class="st0" d="M1.3,1.4C1.3,1.4,1.3,1.4,1.3,1.4C1.3,1.4,1.3,1.4,1.3,1.4c0-0.1-0.1-0.2-0.1-0.3c0,0,0,0,0-0.1c0,0,0,0,0-0.1
		c0.1,0,0.1,0,0.1,0.1C1.3,1.2,1.3,1.3,1.3,1.4C1.3,1.4,1.3,1.4,1.3,1.4"/>
	<path class="st0" d="M1.1,3C1.1,3,1.1,3,1.1,3c0,0.2,0,0.3,0,0.4c0,0,0,0.1,0,0.1c0,0,0,0,0,0c0,0,0,0,0,0c0,0,0,0,0-0.1
		C1.1,3.3,1.1,3.2,1.1,3C1.1,3.1,1.1,3,1.1,3C1.1,3,1.1,3,1.1,3"/>
	<path class="st0" d="M3.7,0.5C3.7,0.5,3.7,0.5,3.7,0.5C3.7,0.3,3.6,0.2,3.7,0c0,0,0,0,0,0c0,0,0,0,0,0c0,0,0,0.1,0,0.1
		C3.7,0.3,3.7,0.4,3.7,0.5"/>
	<path class="st0" d="M2.2,1.2C2.2,1.2,2.2,1.2,2.2,1.2C2.2,1.1,2.2,1.1,2.2,1.2c0-0.1,0-0.2,0-0.2c0,0,0,0,0-0.1c0,0,0,0,0,0
		c0,0,0,0,0,0c0,0,0,0.1,0,0.1C2.3,1.1,2.3,1.2,2.2,1.2C2.3,1.2,2.3,1.3,2.2,1.2C2.2,1.3,2.2,1.2,2.2,1.2C2.2,1.2,2.2,1.2,2.2,1.2"
		/>
	<path class="st0" d="M2.1,3.3C2.1,3.3,2.1,3.3,2.1,3.3C2.1,3.1,2,3.1,2,3c0,0,0,0,0-0.1c0,0,0,0,0,0c0,0,0,0,0,0c0,0,0,0,0,0
		c0,0.1,0,0.2,0,0.3C2.1,3.2,2.1,3.3,2.1,3.3"/>
	<path class="st0" d="M2.5,0.9c0,0,0-0.1,0-0.1c0-0.1,0-0.2,0-0.3c0,0,0,0,0,0c0,0,0,0,0,0c0,0,0,0,0,0c0,0,0,0.1,0,0.1
		c0,0,0,0.1,0,0.1c0,0,0,0.1,0,0.1C2.6,0.8,2.6,0.9,2.5,0.9C2.6,0.9,2.6,0.9,2.5,0.9"/>
	<path class="st0" d="M3.3,1.4c0-0.1,0-0.3,0-0.4c0,0,0,0,0,0c0,0,0,0,0,0c0,0,0,0,0,0c0,0,0,0,0,0c0,0,0,0.1,0,0.1
		c0,0.1,0,0.2,0,0.3C3.3,1.3,3.3,1.4,3.3,1.4C3.3,1.4,3.3,1.4,3.3,1.4"/>
	<path class="st0" d="M3.8,1.6C3.7,1.6,3.7,1.5,3.8,1.6c0-0.1-0.1-0.2,0-0.3c0-0.1,0-0.1,0-0.2c0,0,0,0,0,0C3.8,1.2,3.8,1.4,3.8,1.6
		C3.8,1.5,3.8,1.5,3.8,1.6"/>
	<path class="st0" d="M0.9,2.8c0,0.1,0,0.2,0,0.3c0,0,0,0,0,0c0,0,0,0,0,0c0,0,0,0,0-0.1C0.8,3,0.8,2.9,0.9,2.8c0,0,0-0.1,0-0.1
		c0,0,0,0,0,0c0,0,0,0,0,0C0.9,2.7,0.9,2.7,0.9,2.8C0.9,2.8,0.9,2.8,0.9,2.8"/>
	<path class="st0" d="M2.6,1.7C2.6,1.7,2.5,1.6,2.6,1.7c0-0.1,0-0.3-0.1-0.4c0,0,0,0,0,0c0,0,0.1,0,0,0c0,0,0,0.1,0,0.1
		C2.6,1.5,2.6,1.5,2.6,1.7C2.6,1.6,2.6,1.7,2.6,1.7"/>
	<path class="st0" d="M3.3,2.3C3.3,2.3,3.4,2.3,3.3,2.3C3.4,2.3,3.4,2.4,3.3,2.3c0.1,0.1,0.1,0.2,0.1,0.2c0,0,0,0.1,0,0.1
		c0,0,0,0,0,0.1c0,0,0,0,0,0c0,0,0,0,0,0c0,0,0,0,0,0c0,0,0-0.1,0-0.1C3.3,2.5,3.3,2.4,3.3,2.3C3.3,2.3,3.3,2.3,3.3,2.3"/>
	<path class="st0" d="M1.8,2C1.8,2,1.9,2,1.8,2c0,0.1,0,0.2,0,0.2c0,0,0,0.1,0,0.1c0,0,0,0,0,0c-0.1,0-0.1,0-0.1-0.1
		c0-0.1,0-0.1,0-0.2C1.8,2.1,1.8,2,1.8,2C1.8,2,1.8,2,1.8,2"/>
	<path class="st0" d="M2.7,2.6c0,0,0,0.1,0,0.1c0,0,0,0,0,0c0,0,0,0,0,0c0,0,0,0,0,0C2.7,2.8,2.7,2.7,2.7,2.6
		c-0.1,0-0.1-0.1-0.1-0.1c0,0,0,0,0-0.1c0,0,0,0,0,0c0,0,0,0,0,0c0,0,0,0,0,0C2.7,2.5,2.7,2.6,2.7,2.6C2.7,2.6,2.7,2.6,2.7,2.6"/>
	<path class="st0" d="M3.5,0.7C3.5,0.7,3.6,0.7,3.5,0.7c0,0.1,0,0.2,0,0.2c0,0,0,0.1,0,0.1c0,0,0,0,0,0c0,0,0,0,0,0c0,0,0,0,0,0
		c0-0.1,0-0.2,0-0.2C3.5,0.8,3.5,0.7,3.5,0.7"/>
	<path class="st0" d="M2.2,1.7C2.2,1.7,2.3,1.7,2.2,1.7C2.3,1.8,2.3,1.9,2.3,2c0,0,0,0,0,0.1c0,0,0,0,0,0c0,0,0,0,0,0
		C2.2,1.9,2.2,1.8,2.2,1.7C2.2,1.7,2.2,1.7,2.2,1.7"/>
	<path class="st0" d="M1.5,4.1C1.5,4.1,1.5,4.1,1.5,4.1C1.4,4,1.4,3.9,1.4,3.9c0,0,0,0,0,0c0,0,0,0,0,0c0,0,0,0,0,0c0,0,0,0,0,0
		C1.5,3.9,1.5,4,1.5,4.1C1.5,4.1,1.5,4.1,1.5,4.1"/>
	<path class="st0" d="M4.2,1.8C4.2,1.8,4.3,1.9,4.2,1.8c0,0.1,0,0.1,0,0.2c0,0.1,0,0.1,0,0.2c0,0,0,0,0,0c0,0,0,0,0,0c0,0,0,0,0,0
		c0,0,0,0,0-0.1c0,0,0-0.1,0-0.1c0,0,0,0,0,0C4.2,2,4.2,1.9,4.2,1.8C4.2,1.9,4.2,1.9,4.2,1.8"/>
	<path class="st0" d="M1.4,1.8C1.4,1.8,1.5,1.8,1.4,1.8c0,0.1,0,0.2,0,0.3c0,0,0,0.1,0,0.1c0,0,0,0,0,0c0,0,0,0,0,0
		c0-0.1,0-0.1,0-0.2c0,0,0,0,0,0c0,0,0,0,0,0C1.4,1.9,1.4,1.9,1.4,1.8C1.4,1.9,1.4,1.9,1.4,1.8C1.4,1.8,1.4,1.8,1.4,1.8"/>
	<path class="st0" d="M0.5,2.4C0.5,2.4,0.6,2.4,0.5,2.4c0,0.1,0,0.2,0,0.2c0,0,0,0.1,0,0.1c0,0,0,0,0,0c0,0,0,0,0,0
		c0-0.1,0-0.1,0-0.2C0.5,2.5,0.5,2.5,0.5,2.4C0.5,2.4,0.5,2.4,0.5,2.4"/>
	<path class="st0" d="M4,1.7C4,1.7,4,1.8,4,1.7C4,1.9,4,1.9,4,2c0,0,0,0.1,0,0.1c0,0,0,0,0,0c0,0,0,0,0,0C4,2,3.9,1.9,4,1.7
		C3.9,1.7,3.9,1.7,4,1.7"/>
	<path class="st0" d="M0.9,1.1C0.9,1.1,0.9,1.2,0.9,1.1c0,0.2,0,0.2,0,0.3c0,0,0,0,0,0c0,0,0,0,0,0c0-0.1,0-0.1,0-0.2
		C0.9,1.2,0.9,1.2,0.9,1.1C0.9,1.1,0.9,1.1,0.9,1.1"/>
	<path class="st0" d="M3.1,2.8C3.2,2.9,3.2,2.9,3.1,2.8c0,0.1,0.1,0.2,0.1,0.3c0,0,0,0,0,0.1c0,0,0,0,0,0c0,0,0,0,0,0
		c0,0,0-0.1,0-0.1C3.1,3,3.1,3,3.1,2.8C3.1,2.9,3.1,2.9,3.1,2.8"/>
	<path class="st0" d="M0.6,3.3C0.7,3.3,0.6,3.3,0.6,3.3c0,0.1,0,0.2,0.1,0.2c0,0,0,0.1,0,0.1c0,0,0,0.1,0,0.1c0,0,0,0,0,0
		C0.6,3.5,0.6,3.4,0.6,3.3"/>
	<path class="st0" d="M2.8,1.2C2.8,1.3,2.8,1.3,2.8,1.2c0,0.1,0,0.1,0,0.1c0,0.1,0,0.1,0,0.2c0,0,0,0,0,0c0,0,0,0-0.1,0
		c0,0,0-0.1,0-0.1C2.8,1.4,2.8,1.3,2.8,1.2C2.8,1.3,2.8,1.3,2.8,1.2C2.8,1.2,2.8,1.2,2.8,1.2"/>
	<path class="st0" d="M0.4,1C0.4,1.1,0.4,1.1,0.4,1c0,0.1,0,0.2,0,0.3c0,0,0,0,0,0c0,0,0,0,0,0c0,0,0,0,0,0C0.4,1.3,0.4,1.2,0.4,1
		C0.4,1.1,0.4,1.1,0.4,1C0.4,1.1,0.4,1.1,0.4,1"/>
	<path class="st0" d="M1.2,1.8c0-0.1,0-0.2,0-0.2c0,0,0,0,0,0c0,0,0,0,0,0c0,0,0,0,0,0c0,0,0,0,0,0c0,0,0,0.1,0,0.1
		C1.2,1.7,1.2,1.7,1.2,1.8C1.2,1.8,1.2,1.8,1.2,1.8"/>
	<path class="st0" d="M0.5,4C0.5,4,0.6,4,0.5,4c0,0.1,0.1,0.1,0.1,0.2c0,0,0,0,0,0c0,0,0,0.1,0,0.1c0,0,0,0,0,0
		C0.5,4.1,0.5,4.1,0.5,4C0.5,4,0.5,4,0.5,4"/>
	<path class="st0" d="M3.4,3.5C3.3,3.5,3.3,3.5,3.4,3.5c0-0.1-0.1-0.2-0.1-0.3c0,0,0,0,0,0c0,0,0,0,0,0c0,0,0,0,0,0
		C3.4,3.3,3.4,3.4,3.4,3.5C3.4,3.5,3.4,3.5,3.4,3.5"/>
	<path class="st0" d="M1.4,3.6c0-0.1,0-0.2,0-0.2c0,0,0,0,0-0.1c0,0,0,0,0,0.1C1.4,3.4,1.4,3.5,1.4,3.6C1.4,3.6,1.4,3.6,1.4,3.6"/>
	<path class="st0" d="M2.5,1.8C2.5,1.9,2.5,1.9,2.5,1.8C2.5,2,2.5,2.1,2.5,2.1c0,0,0,0,0,0.1c0,0,0,0,0,0c0,0,0-0.1,0-0.1
		C2.5,2,2.5,1.9,2.5,1.8C2.5,1.9,2.5,1.9,2.5,1.8"/>
	<path class="st0" d="M3,2.1C3,2.1,3,2.1,3,2.1c0-0.1,0-0.2-0.1-0.3c0,0,0,0,0.1,0.1C3,1.9,3,2,3,2.1"/>
	<path class="st0" d="M2.1,2.4c0,0.1,0,0.1,0,0.2c0,0,0,0,0,0C2.1,2.6,2.1,2.5,2.1,2.4C2.1,2.5,2.1,2.5,2.1,2.4"/>
	<path class="st0" d="M1.8,3.1C1.7,3,1.7,3,1.8,3.1c0-0.2-0.1-0.3-0.1-0.4c0,0,0,0,0-0.1c0,0,0,0,0,0c0,0,0,0,0,0c0,0,0,0,0,0
		c0,0.1,0,0.2,0,0.3C1.8,3,1.8,3,1.8,3.1"/>
	<path class="st0" d="M1.7,3.3c0,0.1,0,0.1,0,0.1c0,0.1,0,0.2,0,0.3c0,0.1,0,0.2,0,0.2c0,0,0,0,0,0c0,0,0,0,0,0c0,0,0,0,0,0
		c0,0,0,0,0-0.1c0,0,0,0,0,0c0,0,0-0.1,0-0.1c0-0.1,0-0.2,0-0.3C1.7,3.4,1.7,3.4,1.7,3.3C1.7,3.3,1.7,3.3,1.7,3.3"/>
	<path class="st0" d="M0.3,3.2c0-0.1,0-0.1,0-0.1c0-0.1,0-0.2,0-0.3c0-0.1,0-0.2,0-0.2c0,0,0,0,0,0c0,0,0,0,0,0c0,0,0,0,0,0
		c0,0,0,0,0,0.1c0,0,0,0,0,0c0,0,0,0.1,0,0.1c0,0.1,0,0.2,0,0.3C0.3,3.1,0.3,3.1,0.3,3.2C0.3,3.2,0.3,3.2,0.3,3.2"/>
	<path class="st0" d="M3.5,1.4c0,0.1,0,0.1,0,0.2c0,0,0,0,0,0C3.5,1.6,3.5,1.5,3.5,1.4C3.4,1.5,3.4,1.4,3.5,1.4"/>
	<path class="st0" d="M2.9,4.2c0-0.1,0-0.1,0-0.1c0-0.1,0-0.2,0-0.3c0-0.1,0-0.2,0-0.2c0,0,0,0,0,0c0,0,0,0,0,0c0,0,0,0,0,0
		c0,0,0,0,0,0.1c0,0,0,0,0,0c0,0,0,0.1,0,0.1C3,3.8,3,3.9,3,4C3,4,3,4.1,2.9,4.2C2.9,4.2,2.9,4.2,2.9,4.2"/>
	<path class="st0" d="M0,1.3c0-0.1,0-0.1,0-0.2c0,0,0,0,0-0.1c0,0,0,0,0,0C0,1,0,1,0,1c0-0.1,0-0.1,0-0.2c0,0,0,0,0,0c0,0,0,0,0,0
		c0,0,0,0,0,0.1c0,0,0,0.1,0,0.1C0.1,1,0.1,1.1,0,1.3C0.1,1.3,0.1,1.3,0,1.3C0.1,1.3,0.1,1.3,0,1.3"/>
	<path class="st0" d="M0.9,0.7C0.9,0.7,0.9,0.7,0.9,0.7c0-0.2,0-0.4,0-0.6c0,0,0,0,0,0c0,0,0,0,0,0c0,0,0,0,0,0c0,0.1,0,0.1,0,0.2
		C0.9,0.5,0.9,0.6,0.9,0.7C0.9,0.7,0.9,0.7,0.9,0.7"/>
	<path class="st0" d="M1.6,0.9C1.5,0.9,1.5,0.9,1.6,0.9C1.5,0.7,1.5,0.6,1.5,0.6c0,0,0-0.1,0-0.1c0,0,0,0,0,0c0,0,0,0,0,0
		c0,0,0,0.1,0,0.1c0,0.1,0,0.1,0,0.2C1.5,0.7,1.6,0.8,1.6,0.9C1.5,0.8,1.6,0.8,1.6,0.9"/>
	<path class="st0" d="M2.1,4.2C2.1,4.1,2.1,4.1,2.1,4.2c0-0.2-0.1-0.3-0.1-0.4c0,0,0,0,0-0.1c0,0,0,0,0,0c0,0,0,0,0,0c0,0,0,0,0,0
		c0,0.1,0,0.2,0,0.3C2.1,4.1,2.1,4.1,2.1,4.2"/>
	<path class="st0" d="M2,0.3C2.1,0.3,2.1,0.3,2,0.3C2.1,0.3,2.1,0.3,2,0.3c0.1,0.1,0.1,0.2,0.1,0.2c0,0,0,0.1,0,0.1c0,0,0,0,0,0.1
		c0,0,0,0,0,0c0,0,0,0,0,0c0,0,0,0,0,0c0,0,0-0.1,0-0.1C2,0.4,2,0.4,2,0.3C2,0.3,2,0.3,2,0.3"/>
	<path class="st0" d="M3.7,3.1c0,0,0,0.1,0,0.1c0,0,0,0,0,0c0,0,0,0,0,0c0,0,0,0,0,0C3.6,3.2,3.6,3.2,3.7,3.1C3.6,3.1,3.6,3,3.6,3
		c0,0,0,0,0-0.1c0,0,0,0,0,0c0,0,0,0,0,0c0,0,0,0,0,0C3.7,3,3.7,3,3.7,3.1C3.7,3.1,3.7,3.1,3.7,3.1"/>
	<path class="st0" d="M0.3,0.1C0.3,0.1,0.3,0.1,0.3,0.1c0.1,0.2,0.1,0.3,0.1,0.4c0,0,0,0,0,0.1c0,0,0,0,0,0c0,0,0,0,0,0
		C0.3,0.4,0.3,0.2,0.3,0.1C0.3,0.1,0.3,0.1,0.3,0.1"/>
	<path class="st0" d="M3.4,0.1C3.4,0.1,3.4,0.1,3.4,0.1c0,0.1,0,0.1,0,0.2c0,0.1,0,0.1,0,0.2c0,0,0,0,0,0c0,0,0,0,0,0c0,0,0,0,0,0
		c0,0,0,0,0-0.1c0,0,0-0.1,0-0.1c0,0,0,0,0,0C3.4,0.2,3.4,0.2,3.4,0.1C3.4,0.1,3.4,0.1,3.4,0.1"/>
	<path class="st0" d="M0.7,0.7C0.7,0.7,0.7,0.7,0.7,0.7c0,0.1,0.1,0.2,0.1,0.3c0,0,0,0,0,0.1c0,0,0,0,0,0c0,0,0,0,0,0
		c0,0,0-0.1,0-0.1C0.7,0.9,0.7,0.8,0.7,0.7C0.7,0.7,0.7,0.7,0.7,0.7"/>
	<path class="st0" d="M1.1,0.9C1.1,0.9,1.1,0.9,1.1,0.9c0-0.1-0.1-0.2-0.1-0.3c0,0,0,0,0,0c0,0,0,0,0,0c0,0,0,0,0,0
		C1.1,0.7,1.1,0.8,1.1,0.9C1.1,0.9,1.1,0.9,1.1,0.9"/>
	<path class="st0" d="M0.2,0.5C0.2,0.5,0.2,0.5,0.2,0.5c0.1,0.1,0.1,0.2,0.1,0.3c0,0,0,0,0,0.1c0,0,0,0,0,0c0,0,0-0.1,0-0.1
		C0.2,0.6,0.2,0.6,0.2,0.5C0.1,0.5,0.2,0.5,0.2,0.5"/>
	<path class="st0" d="M0.9,3.7c0,0.1,0,0.1,0,0.2c0,0,0,0,0,0C0.9,3.8,0.9,3.8,0.9,3.7C0.9,3.8,0.9,3.7,0.9,3.7"/>
	<path class="st0" d="M1.8,0.5C1.7,0.5,1.7,0.5,1.8,0.5c0-0.2-0.1-0.3-0.1-0.4c0,0,0,0,0-0.1c0,0,0,0,0,0c0,0,0,0,0,0c0,0,0,0,0,0
		c0,0.1,0,0.2,0,0.3C1.8,0.4,1.8,0.5,1.8,0.5"/>
	<path class="st0" d="M3.8,3.9C3.8,4,3.9,4,3.8,3.9c0,0.1,0,0.1,0,0.2c0,0,0,0,0,0.1c0,0,0,0,0,0c0,0,0-0.1,0-0.1
		C3.8,4.1,3.8,4,3.8,3.9C3.8,3.9,3.8,3.9,3.8,3.9"/>
	<path class="st0" d="M3.6,4.1C3.6,4,3.6,4,3.6,4.1c0-0.2,0-0.3-0.1-0.4c0,0,0,0,0,0c0,0,0,0,0,0c0,0,0,0,0,0c0,0.1,0,0.2,0,0.2
		C3.6,3.9,3.6,4,3.6,4.1C3.6,4,3.6,4,3.6,4.1"/>
	<path class="st0" d="M4.2,2.5C4.2,2.5,4.3,2.5,4.2,2.5c0,0.2,0,0.3,0,0.4c0,0,0,0.1,0,0.1c0,0,0,0,0,0c0,0,0,0,0,0c0,0,0,0,0-0.1
		C4.2,2.8,4.2,2.7,4.2,2.5C4.2,2.5,4.2,2.5,4.2,2.5C4.2,2.5,4.2,2.5,4.2,2.5"/>
	<path class="st0" d="M2.4,3.8C2.3,3.8,2.3,3.8,2.4,3.8C2.3,3.7,2.3,3.6,2.3,3.6c0,0,0,0,0,0c0,0,0,0,0,0c0,0,0,0,0,0c0,0,0,0,0,0
		C2.4,3.6,2.4,3.7,2.4,3.8C2.4,3.8,2.4,3.8,2.4,3.8"/>
	<path class="st0" d="M3.9,3.3C4,3.3,4,3.4,3.9,3.3C4,3.4,4,3.5,4,3.6c0,0,0,0.1,0,0.1c0,0,0,0.1,0,0.1c0,0,0,0,0,0
		C3.9,3.6,3.9,3.5,3.9,3.3"/>
	<path class="st0" d="M2.5,3.9C2.6,3.9,2.6,3.9,2.5,3.9C2.6,4,2.6,4,2.6,4.1c0,0,0,0,0,0c0,0,0,0.1,0,0.1c0,0,0,0,0,0
		C2.5,4.1,2.5,4,2.5,3.9C2.5,3.9,2.5,3.9,2.5,3.9"/>
	<path class="st0" d="M4.1,3.4c0-0.1,0-0.2,0-0.2c0,0,0,0,0-0.1c0,0,0,0,0,0.1C4.1,3.2,4.1,3.3,4.1,3.4C4.1,3.3,4.1,3.4,4.1,3.4"/>
	<rect x="3.5" y="0.1" class="st1" width="4.2" height="4.7"/>
	<path class="st0" d="M4.1,4c0,0.1,0,0.1,0,0.2c0,0,0,0,0,0C4.1,4.1,4.1,4.1,4.1,4C4,4,4.1,4,4.1,4"/>
	<path class="st0" d="M2.3,2.4C2.4,2.5,2.4,2.5,2.3,2.4c0.1,0.2,0.1,0.3,0.1,0.4c0,0,0,0,0,0.1c0,0,0,0,0,0c0,0,0,0,0,0
		C2.4,2.7,2.3,2.6,2.3,2.4C2.3,2.5,2.3,2.5,2.3,2.4"/>
	<path class="st0" d="M2.3,0.4c0-0.1,0-0.2,0-0.2c0,0,0,0,0,0c0,0,0,0,0,0c0,0,0,0,0,0c0,0,0,0,0,0c0,0,0,0.1,0,0.1
		C2.3,0.3,2.3,0.3,2.3,0.4C2.3,0.4,2.3,0.4,2.3,0.4"/>
	<path class="st0" d="M3.2,4.2c0-0.1,0-0.2,0-0.2c0,0,0,0,0,0c0,0,0,0,0,0c0,0,0,0,0,0c0,0,0,0,0,0c0,0,0,0.1,0,0.1
		C3.2,4,3.2,4.1,3.2,4.2C3.2,4.1,3.2,4.1,3.2,4.2"/>
	<path class="st0" d="M4.3,3.9C4.3,3.9,4.3,3.9,4.3,3.9c0-0.1,0-0.2-0.1-0.3c0,0,0,0,0.1,0.1C4.3,3.7,4.3,3.8,4.3,3.9"/>
	<path class="st0" d="M3,1.1C3,1.1,2.9,1.1,3,1.1c0-0.1,0-0.2-0.1-0.3c0,0,0,0,0.1,0.1C3,0.9,3,1.1,3,1.1"/>
	<path class="st0" d="M4.2,0.1C4.2,0.1,4.2,0.1,4.2,0.1c0,0.1,0.1,0.2,0.1,0.3c0,0,0,0,0,0.1c0,0,0,0,0,0c0,0,0,0,0,0
		c0,0,0-0.1,0-0.1C4.2,0.3,4.2,0.2,4.2,0.1C4.2,0.1,4.2,0.1,4.2,0.1"/>
	<path class="st0" d="M3.2,1.7C3.3,1.7,3.3,1.7,3.2,1.7c0,0.1,0.1,0.2,0.1,0.3c0,0,0,0,0,0.1c0,0,0,0,0,0c0,0,0,0,0,0
		c0,0,0-0.1,0-0.1C3.2,1.9,3.2,1.8,3.2,1.7C3.2,1.7,3.2,1.7,3.2,1.7"/>
	<path class="st0" d="M1.2,0.1C1.3,0.1,1.3,0.1,1.2,0.1c0,0.1,0.1,0.2,0.1,0.3c0,0,0,0,0,0.1c0,0,0,0,0,0c0,0,0,0,0,0
		c0,0,0-0.1,0-0.1C1.2,0.3,1.2,0.2,1.2,0.1C1.2,0.1,1.2,0.1,1.2,0.1"/>
	<path class="st0" d="M3.9,0.3C4,0.3,4,0.3,3.9,0.3C4,0.4,4,0.5,4,0.6c0,0,0,0,0,0.1c0,0,0,0,0,0c0,0,0,0,0,0c0,0,0-0.1,0-0.1
		C3.9,0.5,3.9,0.4,3.9,0.3C3.9,0.3,3.9,0.3,3.9,0.3"/>
	<path class="st0" d="M3.9,0.9C4,0.9,4,0.9,3.9,0.9C4,1,4,1.1,4,1.2c0,0,0,0,0,0.1c0,0,0,0,0,0c0,0,0,0,0,0c0,0,0-0.1,0-0.1
		C3.9,1,3.9,1,3.9,0.9C3.9,0.9,3.9,0.9,3.9,0.9"/>
	<path class="st0" d="M4.1,1.4C4.1,1.4,4.1,1.4,4.1,1.4c0,0.1,0.1,0.2,0.1,0.3c0,0,0,0,0,0.1c0,0,0,0,0,0c0,0,0,0,0,0
		c0,0,0-0.1,0-0.1C4.1,1.6,4.1,1.5,4.1,1.4C4.1,1.4,4.1,1.4,4.1,1.4"/>
	<path class="st0" d="M4.2,0.6c0,0.1,0,0.1,0,0.1c0,0.1,0,0.2,0,0.3c0,0.1,0,0.2,0,0.2c0,0,0,0,0,0c0,0,0,0,0,0c0,0,0,0,0,0
		c0,0,0,0,0-0.1c0,0,0,0,0,0c0,0,0-0.1,0-0.1c0-0.1,0-0.2,0-0.3C4.2,0.8,4.2,0.7,4.2,0.6C4.2,0.6,4.2,0.6,4.2,0.6"/>
	<path class="st0" d="M2,1.5C2,1.5,2,1.5,2,1.5C2,1.5,2,1.6,2,1.7c0,0,0,0,0,0c0,0,0,0.1,0,0.1c0,0,0,0,0,0C2,1.6,2,1.6,2,1.5
		C2,1.5,2,1.5,2,1.5"/>
</g>
</svg>
