<?xml version="1.0" encoding="utf-8"?>
<!-- Generator: Adobe Illustrator 19.1.1, SVG Export Plug-In . SVG Version: 6.00 Build 0)  -->
<svg version="1.1" id="Layer_1" xmlns="http://www.w3.org/2000/svg" xmlns:xlink="http://www.w3.org/1999/xlink" x="0px" y="0px"
	 viewBox="0 0 10 10" style="enable-background:new 0 0 10 10;" xml:space="preserve">
<style type="text/css">
	.st0{clip-path:url(#SVGID_2_);fill:#254555;}
	.st1{clip-path:url(#SVGID_2_);fill:none;}
</style>
<g>
	<defs>
		<rect id="SVGID_1_" x="0.1" y="0" width="9.8" height="10.9"/>
	</defs>
	<clipPath id="SVGID_2_">
		<use xlink:href="#SVGID_1_"  style="overflow:visible;"/>
	</clipPath>
	<path class="st0" d="M8.3,6.1c0-0.1,0-0.2,0-0.3c0-0.2,0-0.4,0-0.7c0-0.2,0-0.4,0-0.6c0,0,0,0,0-0.1c0,0,0,0,0,0c0,0,0,0,0,0
		c0,0,0.1,0.1,0.1,0.1c0,0,0,0.1,0,0.1c0,0.1,0,0.2,0,0.3c0,0.2,0,0.4,0,0.6c0,0.1,0,0.3,0,0.4C8.4,6.1,8.4,6.1,8.3,6.1"/>
	<path class="st0" d="M3.9,3.5c0-0.2,0-0.3,0-0.5c0-0.1,0-0.3,0-0.4c0-0.1,0-0.1,0.1-0.1C4,2.3,4,2.2,4,2C4.1,2,4.1,2,4.1,2
		c0,0.1,0,0.2,0,0.3c0,0.1,0,0.3,0,0.4c0,0.1,0,0.1-0.1,0.2C4,3,4,3,4,3c0,0.1,0,0.2,0,0.4c0,0,0,0.1,0,0.1C4,3.5,4,3.5,3.9,3.5"/>
	<path class="st0" d="M1.3,4.8L1.3,4.8C1.2,4.8,1.2,4.9,1.2,4.9C1.2,5,1.2,5,1.1,5c0-0.2,0-0.5,0-0.7c0-0.2,0-0.5,0-0.7c0,0,0,0,0,0
		c0.2,0,0.2,0,0.1,0.2c0,0.1,0,0.2,0,0.3c0,0.1,0,0.2,0,0.2C1.3,4.5,1.3,4.6,1.3,4.8"/>
	<path class="st0" d="M5.9,8.6c0-0.1,0-0.3,0-0.4c0-0.1,0-0.1-0.1-0.1c0,0,0-0.1,0-0.1c0,0,0-0.1,0-0.1c0-0.1,0-0.3-0.1-0.4
		c0,0,0-0.1,0-0.1c0,0,0-0.1,0.1-0.1c0.1,0,0.1,0.1,0.1,0.1c0,0.1,0,0.1,0,0.2C5.9,7.8,5.9,8.1,6,8.4C6,8.4,6,8.5,5.9,8.6
		C6,8.6,5.9,8.6,5.9,8.6"/>
	<path class="st0" d="M2.3,6.3C2.3,6.3,2.3,6.3,2.3,6.3c-0.1,0-0.1,0-0.1,0c0-0.1,0-0.3,0-0.4c0-0.2,0-0.5,0-0.7c0-0.1,0-0.2,0-0.4
		c0,0,0-0.1,0-0.1c0.1,0,0.1,0.1,0,0.1c0,0.1,0,0.1,0,0.2c0,0,0,0,0,0c0.1,0,0.1,0.1,0.1,0.2c0,0,0,0,0,0c0,0.2,0,0.3,0,0.5
		C2.3,5.9,2.3,6.1,2.3,6.3"/>
	<path class="st0" d="M2.9,5.9c0.1,0,0.1,0,0.1,0c0,0,0,0.1,0,0.1c0,0.2,0.1,0.5,0.1,0.7c0,0,0,0.1,0,0.1c0,0.1,0,0.2,0,0.2
		C3.1,7.1,3,7,3,6.9C3,6.6,3,6.3,2.9,5.9C2.9,6,2.9,5.9,2.9,5.9"/>
	<path class="st0" d="M6.7,6.4C6.7,6.4,6.6,6.3,6.7,6.4c0-0.5,0-0.9,0-1.3c0,0,0,0,0.1,0c0,0,0,0.1,0,0.1c0,0,0.1,0,0.1,0.1
		c0,0.2,0,0.3-0.1,0.5c0,0.2,0,0.3,0,0.5C6.7,6.3,6.7,6.4,6.7,6.4"/>
	<path class="st0" d="M0.4,5C0.3,5,0.3,5,0.3,4.9c0-0.4,0-0.7,0-1.1c0,0,0,0,0-0.1c0,0,0,0,0,0c0,0,0,0,0,0c0,0.1,0.1,0.1,0.1,0.2
		c0,0.3,0,0.6,0,0.9C0.4,4.9,0.4,5,0.4,5"/>
	<path class="st0" d="M9.1,6.7C9,6.8,9,6.7,9,6.7C9,6.4,8.9,6.2,8.9,6c0-0.1,0-0.2,0-0.3c0,0,0-0.1,0-0.1C9,5.6,9,5.6,9,5.7
		c0,0.1,0,0.1,0,0.2c0,0.1,0,0.3,0.1,0.4c0,0.1,0,0.2,0,0.3C9.1,6.6,9.1,6.7,9.1,6.7"/>
	<path class="st0" d="M2.6,8.6c0,0.1,0.1,0.2,0.1,0.3c0,0.2,0,0.4,0,0.5c0,0.1,0,0.2,0,0.2c0,0,0,0.1-0.1,0.1c-0.1-0.1,0-0.3,0-0.4
		c0-0.1,0-0.3,0-0.4C2.5,8.6,2.5,8.6,2.6,8.6"/>
	<path class="st0" d="M6.5,1.5c-0.1,0-0.1,0-0.1-0.1c0,0,0-0.1,0-0.1c0-0.3,0-0.7,0-1c0,0,0,0,0,0c0.1,0,0.1,0,0.1,0.1
		c0,0.1,0,0.2,0,0.4c0,0.1,0,0.3,0,0.4C6.6,1.3,6.5,1.4,6.5,1.5"/>
	<path class="st0" d="M0.5,9.4C0.5,9.3,0.5,9.3,0.5,9.4C0.4,9,0.4,8.7,0.4,8.4c0,0,0,0,0-0.1c0,0,0.1,0,0.1,0c0.1,0,0.1,0,0.1,0.1
		c0,0.2,0,0.4,0,0.5C0.6,9.1,0.6,9.2,0.5,9.4C0.6,9.3,0.6,9.3,0.5,9.4"/>
	<path class="st0" d="M2.8,3.2C2.8,3.2,2.8,3.2,2.8,3.2c-0.1,0-0.1-0.1-0.1-0.1c0-0.2,0-0.4,0-0.6c0,0,0-0.1,0-0.1c0,0,0-0.1,0-0.1
		c0.2,0,0.2,0.1,0.2,0.2C2.9,2.7,2.9,2.9,2.8,3.2C2.8,3.2,2.8,3.2,2.8,3.2"/>
	<path class="st0" d="M2.3,6.9c0,0.1,0.1,0.1,0.1,0.2c0,0.2,0,0.4,0,0.6c0,0.1,0,0.2,0,0.3c0,0,0,0,0,0.1c0,0-0.1,0-0.1,0
		c0,0,0-0.1,0-0.1c0-0.3,0-0.5,0-0.8C2.2,7.1,2.3,7,2.3,6.9C2.3,6.9,2.3,6.9,2.3,6.9"/>
	<path class="st0" d="M8.4,1.2C8.4,1.2,8.3,1.2,8.4,1.2C8.3,0.8,8.2,0.5,8.3,0.1c0,0,0,0,0,0c0,0,0,0,0,0c0,0.1,0,0.1,0,0.2
		C8.4,0.6,8.4,0.9,8.4,1.2"/>
	<path class="st0" d="M5,2.7C4.9,2.7,4.9,2.7,5,2.7c-0.1-0.1-0.1-0.1,0-0.2c0-0.1,0-0.2,0-0.2c0,0,0-0.1,0-0.1C5,2.1,5,2.1,5,2.1
		c0,0,0.1,0,0.1,0.1c0,0.1,0,0.2,0,0.3c0,0.1,0,0.3,0,0.4c0,0.1,0,0.1-0.1,0.1C5,2.9,5,2.9,5,2.7C5,2.8,5,2.8,5,2.7"/>
	<path class="st0" d="M4.7,7.7C4.6,7.6,4.6,7.6,4.6,7.5c0-0.2,0-0.4,0-0.6c0-0.1,0-0.1,0-0.2c0,0,0,0,0,0c0,0,0,0,0,0
		c0,0,0,0.1,0,0.1c0,0.2,0,0.4,0,0.7C4.7,7.5,4.7,7.6,4.7,7.7"/>
	<path class="st0" d="M5.7,2.2c0-0.1,0-0.2,0-0.2c0-0.2,0-0.5,0-0.7c0,0,0,0,0,0c0,0,0-0.1,0-0.1c0.1,0,0.1,0.1,0.1,0.1
		c0,0.1,0,0.2,0,0.3c0,0.1,0,0.1,0,0.2c0,0.1,0,0.1,0,0.2c0,0.1,0,0.1,0,0.2C5.8,2.1,5.8,2.2,5.7,2.2"/>
	<path class="st0" d="M7.3,3.3c0-0.3,0-0.7-0.1-1c0,0,0,0,0.1,0c0,0,0,0,0-0.1c0,0,0,0,0.1,0c0,0,0,0,0,0.1c0,0.1,0,0.1,0,0.2
		c0,0.2,0,0.4,0,0.6C7.4,3.1,7.4,3.2,7.3,3.3C7.4,3.3,7.4,3.3,7.3,3.3"/>
	<path class="st0" d="M8.5,3.6C8.4,3.6,8.4,3.6,8.5,3.6C8.4,3.3,8.4,3.1,8.4,2.8c0-0.1,0-0.3,0-0.4c0.1,0,0.1,0,0.1,0.1
		c0,0.3,0,0.7,0,1C8.5,3.5,8.5,3.6,8.5,3.6"/>
	<path class="st0" d="M1.8,6.4c0,0.3,0,0.5,0.1,0.8c0,0,0,0.1-0.1,0.1c0,0-0.1,0-0.1-0.1c0-0.1,0-0.1,0-0.2c0-0.2,0-0.4,0-0.6
		c0-0.1,0-0.2,0-0.3c0,0,0,0,0,0c0,0,0.1,0,0.1,0C1.8,6.2,1.8,6.3,1.8,6.4C1.8,6.4,1.8,6.4,1.8,6.4"/>
	<path class="st0" d="M5.7,3.9C5.7,3.8,5.7,3.8,5.7,3.9C5.7,3.5,5.6,3.3,5.6,3c0,0,0.1,0,0.1,0c0.1,0,0.1,0,0.1,0.1
		c0,0.1,0,0.1,0,0.2c0,0.1,0,0.3,0,0.4C5.8,3.8,5.8,3.8,5.7,3.9"/>
	<path class="st0" d="M7.4,5.3c0.1,0,0.1,0.1,0.2,0.1c0,0,0,0.1,0,0.1c0,0.1,0,0.1,0,0.2c0,0.1,0,0.2,0,0.3c0,0,0,0.1,0,0.2
		c0,0,0,0.1,0,0.1c0,0-0.1,0-0.1,0c0,0,0-0.1,0-0.1c0-0.1,0-0.2,0-0.2c0-0.1,0-0.2,0-0.4C7.5,5.4,7.5,5.4,7.4,5.3"/>
	<path class="st0" d="M4,4.5C4.1,4.5,4.1,4.6,4,4.5c0.1,0.2,0.1,0.4,0.1,0.6c0,0.1,0,0.1,0,0.2c0,0,0,0.1,0,0.1
		c-0.1,0-0.2,0-0.2-0.1c0-0.1,0-0.3,0-0.4C3.9,4.8,4,4.7,4,4.5C4,4.6,4,4.6,4,4.5"/>
	<path class="st0" d="M6.1,6.1c0,0.1,0,0.2,0,0.3c0,0,0,0,0,0c0,0,0,0.1-0.1,0.1c0,0-0.1,0-0.1-0.1c0-0.1,0-0.1,0-0.2
		C6,6.1,6,6,6,5.8c0-0.1,0-0.1,0-0.2c0,0,0,0,0,0c0,0,0,0,0.1,0c0,0,0,0.1,0,0.1C6.1,5.9,6.1,6,6.1,6.1C6.1,6.1,6.1,6.1,6.1,6.1"/>
	<path class="st0" d="M7.9,1.6C8,1.6,8,1.7,8,1.7C8,1.8,8,2,8,2.1c0,0.1,0,0.2,0,0.3c0,0,0,0.1,0,0.1C8,2.5,8,2.6,8,2.6
		c0,0-0.1,0-0.1-0.1c0-0.2,0-0.4,0-0.5C7.9,1.8,7.9,1.7,7.9,1.6"/>
	<path class="st0" d="M4.9,3.8C5,3.9,5,3.9,5,4c0,0.3,0,0.5,0.1,0.8c0,0,0,0.1,0,0.1c0,0,0,0,0,0.1c0,0-0.1,0-0.1,0
		C5,4.5,4.9,4.2,4.9,3.8C4.9,3.9,4.9,3.9,4.9,3.8"/>
	<path class="st0" d="M3.3,9.5c-0.1,0-0.1,0-0.1-0.1c0-0.2-0.1-0.3-0.1-0.5c0,0,0.1-0.1,0.1-0.1c0,0,0,0,0.1,0c0,0,0,0,0,0
		c0,0,0,0,0,0.1c0,0.2,0,0.3,0,0.5C3.3,9.4,3.3,9.4,3.3,9.5"/>
	<path class="st0" d="M9.6,4.3C9.6,4.3,9.7,4.3,9.6,4.3c0.1,0.2,0.1,0.3,0.1,0.4c0,0.1,0,0.3,0,0.4c0,0,0,0,0,0.1c0,0,0,0.1-0.1,0.1
		c-0.1,0-0.1,0-0.1-0.1c0-0.1,0-0.1,0-0.2c0-0.1,0-0.2,0-0.3c0,0,0,0,0,0C9.6,4.5,9.5,4.4,9.6,4.3C9.6,4.3,9.6,4.3,9.6,4.3"/>
	<path class="st0" d="M3.1,4.1C3.1,4.2,3.2,4.2,3.1,4.1c0.1,0.3,0.1,0.5,0.1,0.6c0,0.1,0,0.1,0,0.2c0,0,0,0-0.1,0.1C3,5,3,5,3,5
		c0-0.1,0-0.2,0-0.4c0,0,0,0,0-0.1c0,0,0,0,0-0.1c0,0,0-0.1,0-0.1c0-0.1,0-0.1,0.1-0.1C3.1,4.2,3.1,4.2,3.1,4.1"/>
	<path class="st0" d="M1,5.6c0,0,0.1,0.1,0.1,0.1c0,0.2,0,0.3,0,0.5c0,0.1,0,0.2,0,0.3c0,0,0,0-0.1,0.1c0,0,0-0.1,0-0.1
		c0-0.2,0-0.3,0-0.5c0-0.1,0-0.1,0-0.2C0.9,5.6,0.9,5.6,1,5.6"/>
	<path class="st0" d="M9,4c0,0.1,0,0.1,0,0.2c0,0.2,0,0.3,0,0.5c0,0.1,0,0.2,0,0.3C9,5,9,5,9,5c0,0,0-0.1,0-0.1c0-0.3,0-0.5,0-0.8
		C8.9,4,8.9,4,9,4"/>
	<path class="st0" d="M1.8,2.6c0.1,0,0.1,0.1,0.1,0.2c0,0.2,0,0.4,0,0.5c0,0,0,0.1-0.1,0.1c-0.1,0-0.1-0.1-0.1-0.1
		c0-0.2,0-0.3,0-0.5C1.8,2.8,1.8,2.7,1.8,2.6C1.8,2.6,1.8,2.6,1.8,2.6"/>
	<path class="st0" d="M7,6.6c0.1,0,0.1,0.1,0.1,0.1c0,0.2,0,0.4,0,0.6c0,0,0,0.1,0,0.1c0,0,0,0,0,0.1c0,0,0,0-0.1-0.1
		c0-0.1,0-0.2,0-0.2C7,7,7,6.9,7,6.7C7,6.7,7,6.6,7,6.6"/>
	<path class="st0" d="M1.2,7.6C1.3,7.6,1.3,7.6,1.2,7.6c0.1,0.2,0.1,0.4,0.1,0.5c0,0.1,0,0.1,0,0.2c0,0.1,0,0.1-0.1,0.2
		c0,0,0,0,0,0.1C1.2,8.2,1.2,7.9,1.2,7.6"/>
	<path class="st0" d="M6.3,2.9C6.3,2.9,6.4,2.9,6.3,2.9C6.4,3,6.4,3.1,6.4,3.1c0,0.1,0,0.3,0,0.4c0,0,0,0.1,0,0.1
		c-0.1,0-0.1,0-0.1-0.1c0-0.1,0-0.1,0-0.2C6.3,3.2,6.3,3.1,6.3,2.9C6.3,2.9,6.3,2.9,6.3,2.9C6.3,2.9,6.3,2.9,6.3,2.9"/>
	<path class="st0" d="M0.7,2.4c0.1,0,0.1,0.1,0.1,0.1c0,0.2,0,0.4,0,0.6c0,0,0,0,0,0c0,0,0,0.1-0.1,0.1c0,0-0.1,0-0.1,0
		c0-0.2,0-0.4,0-0.5c0,0,0-0.1,0-0.1C0.6,2.5,0.6,2.5,0.7,2.4"/>
	<path class="st0" d="M2.5,4.3c0-0.2,0-0.4,0-0.6c0,0,0.1,0,0.1,0c0,0,0-0.1,0-0.1c0,0,0-0.1,0-0.1c0.1,0,0.1,0.1,0.1,0.1
		c0,0.1,0,0.2,0,0.3c0,0.1,0,0.1,0,0.2C2.6,4.2,2.6,4.2,2.5,4.3"/>
	<path class="st0" d="M1.1,9.2C1.1,9.2,1.1,9.2,1.1,9.2c0.1,0.2,0.1,0.3,0.1,0.4c0,0,0,0.1,0,0.1c0,0.1,0,0.1,0,0.2
		c0,0-0.1,0-0.1-0.1C1,9.6,1,9.4,1.1,9.2C1,9.2,1,9.2,1.1,9.2"/>
	<path class="st0" d="M7.6,8.1c-0.1,0-0.1,0-0.1-0.1c0-0.2,0-0.4,0-0.6c0,0,0,0,0-0.1c0,0,0.1,0,0.1,0c0,0,0,0.1,0,0.1
		c0,0.1,0,0.3,0.1,0.4C7.7,8,7.7,8.1,7.6,8.1"/>
	<path class="st0" d="M3.1,8.3C3,8.1,3,8,3,7.8c0,0,0-0.1,0.1-0.1c0,0.1,0.1,0.1,0.1,0.2C3.1,7.9,3.1,8.1,3.1,8.3
		C3.2,8.3,3.2,8.3,3.1,8.3"/>
	<path class="st0" d="M5.5,4.3c0.1,0,0.1,0.1,0.1,0.2c0,0.2,0,0.3,0,0.5c0,0.1,0,0.1-0.1,0.1c0,0,0,0,0-0.1c0-0.1,0-0.2,0-0.3
		c0-0.1,0-0.1,0-0.2C5.5,4.4,5.5,4.3,5.5,4.3"/>
	<path class="st0" d="M6.7,4.8C6.7,4.8,6.7,4.8,6.7,4.8C6.7,4.5,6.6,4.3,6.6,4.1c0.1,0,0.1,0.1,0.1,0.1C6.8,4.3,6.8,4.7,6.7,4.8"/>
	<path class="st0" d="M4.7,5.7c0.1,0.1,0.1,0.3,0.1,0.4c0,0-0.1,0-0.1,0c0-0.1,0-0.2-0.1-0.3C4.6,5.7,4.6,5.7,4.7,5.7"/>
	<path class="st0" d="M3.9,7.1C3.8,7,3.8,6.9,3.8,6.9c0-0.2,0-0.4,0-0.6c0-0.1,0-0.1,0-0.2c0,0,0,0,0,0c0,0,0,0,0,0c0,0,0,0.1,0,0.1
		c0,0.2,0,0.4,0,0.7C3.9,6.9,3.9,7,3.9,7.1"/>
	<path class="st0" d="M3.8,7.6c0,0.1,0,0.2,0,0.3c0,0.2,0,0.4,0,0.7c0,0.2,0,0.4,0,0.6c0,0,0,0,0,0.1c0,0,0,0,0,0c0,0,0,0,0,0
		c0,0-0.1-0.1-0.1-0.1c0,0,0-0.1,0-0.1c0-0.1,0-0.2,0-0.3c0-0.2,0-0.4,0-0.6c0-0.1,0-0.3,0-0.4C3.7,7.6,3.8,7.6,3.8,7.6"/>
	<path class="st0" d="M0.4,7.5c0-0.1,0-0.2,0-0.3c0-0.2,0-0.4,0-0.7c0-0.2,0-0.4,0-0.6c0,0,0,0,0-0.1c0,0,0,0,0,0c0,0,0,0,0,0
		c0,0,0.1,0.1,0.1,0.1c0,0,0,0.1,0,0.1c0,0.1,0,0.2,0,0.3c0,0.2,0,0.4,0,0.6c0,0.1,0,0.3,0,0.4C0.5,7.4,0.5,7.5,0.4,7.5"/>
	<path class="st0" d="M7.8,3.3c0.1,0.1,0.1,0.3,0.1,0.4c0,0-0.1,0-0.1,0c0-0.1,0-0.2-0.1-0.3C7.7,3.4,7.8,3.4,7.8,3.3"/>
	<path class="st0" d="M6.5,9.7c0-0.1,0-0.2,0-0.3c0-0.2,0-0.4,0-0.7c0-0.2,0-0.4,0-0.6c0,0,0,0,0-0.1c0,0,0,0,0,0c0,0,0,0,0,0
		c0,0,0.1,0.1,0.1,0.1c0,0,0,0.1,0,0.1c0,0.1,0,0.2,0,0.3c0,0.2,0,0.4,0,0.6c0,0.1,0,0.3,0,0.4C6.6,9.7,6.6,9.7,6.5,9.7"/>
	<path class="st0" d="M-0.1,3.1c0-0.1,0-0.3,0-0.4c0-0.1,0-0.1-0.1-0.1c0,0,0-0.1,0-0.1c0,0,0-0.1,0-0.1c0-0.1,0-0.3-0.1-0.4
		c0,0,0-0.1,0-0.1c0,0,0-0.1,0.1-0.1c0.1,0,0.1,0.1,0.1,0.1c0,0.1,0,0.1,0,0.2C0,2.3,0,2.6,0,2.9C0,2.9,0,3-0.1,3.1
		C0,3.1,0,3.1-0.1,3.1"/>
	<path class="st0" d="M1.9,1.6C1.9,1.6,1.8,1.6,1.9,1.6c0-0.5,0-0.9,0-1.3c0,0,0,0,0.1,0c0,0,0,0.1,0,0.1c0,0,0.1,0,0.1,0.1
		C2,0.7,2,0.9,2,1c0,0.2,0,0.3,0,0.5C1.9,1.6,1.9,1.6,1.9,1.6"/>
	<path class="st0" d="M3.4,2C3.3,2.1,3.3,2,3.3,2c0-0.2-0.1-0.5-0.1-0.7c0-0.1,0-0.2,0-0.3c0,0,0-0.1,0-0.1c0.1,0,0.1,0,0.1,0.1
		c0,0.1,0,0.1,0,0.2c0,0.1,0,0.3,0.1,0.4c0,0.1,0,0.2,0,0.3C3.4,1.9,3.4,2,3.4,2"/>
	<path class="st0" d="M4.7,9.7C4.6,9.6,4.6,9.5,4.6,9.4c0-0.2,0-0.4,0-0.6c0-0.1,0-0.1,0-0.2c0,0,0,0,0,0c0,0,0,0,0,0
		c0,0,0,0.1,0,0.1c0,0.2,0,0.4,0,0.7C4.7,9.5,4.7,9.6,4.7,9.7"/>
	<path class="st0" d="M4.5,0.6c0.1,0,0.1,0.1,0.2,0.1c0,0,0,0.1,0,0.1c0,0.1,0,0.1,0,0.2c0,0.1,0,0.2,0,0.3c0,0,0,0.1,0,0.2
		c0,0,0,0.1,0,0.1c0,0-0.1,0-0.1,0c0,0,0-0.1,0-0.1c0-0.1,0-0.2,0-0.2c0-0.1,0-0.2,0-0.4C4.5,0.7,4.5,0.7,4.5,0.6"/>
	<path class="st0" d="M8.3,7.2c0,0.1,0,0.2,0,0.3c0,0,0,0,0,0c0,0,0,0.1-0.1,0.1c0,0-0.1,0-0.1-0.1c0-0.1,0-0.1,0-0.2
		c0-0.1,0-0.3,0-0.4c0-0.1,0-0.1,0-0.2c0,0,0,0,0,0c0,0,0,0,0.1,0c0,0,0,0.1,0,0.1C8.3,6.9,8.3,7,8.3,7.2C8.3,7.2,8.3,7.2,8.3,7.2"
		/>
	<path class="st0" d="M0.5,0.2c0.1,0,0.1,0.1,0.1,0.1c0,0.3,0,0.5,0.1,0.8c0,0,0,0.1,0,0.1c0,0,0,0,0,0.1c0,0-0.1,0-0.1,0
		C0.5,0.8,0.4,0.5,0.5,0.2C0.5,0.2,0.5,0.2,0.5,0.2"/>
	<path class="st0" d="M7.6,0.3C7.7,0.3,7.7,0.3,7.6,0.3c0.1,0.2,0.1,0.3,0.1,0.4c0,0.1,0,0.3,0,0.4c0,0,0,0,0,0.1c0,0,0,0.1-0.1,0.1
		c-0.1,0-0.1,0-0.1-0.1c0-0.1,0-0.1,0-0.2c0-0.1,0-0.2,0-0.3c0,0,0,0,0,0C7.6,0.5,7.6,0.4,7.6,0.3C7.6,0.3,7.6,0.3,7.6,0.3"/>
	<path class="st0" d="M1.3,1.6c0.1,0,0.1,0.1,0.1,0.1c0,0.2,0,0.4,0,0.6c0,0,0,0.1,0,0.1c0,0,0,0,0,0.1c0,0,0,0-0.1-0.1
		c0-0.1,0-0.2,0-0.2c0-0.1,0-0.3,0-0.4C1.3,1.7,1.3,1.6,1.3,1.6"/>
	<path class="st0" d="M2.4,2.2c-0.1,0-0.1,0-0.1-0.1c0-0.2,0-0.4,0-0.6c0,0,0,0,0-0.1c0,0,0.1,0,0.1,0c0,0,0,0.1,0,0.1
		c0,0.1,0,0.3,0.1,0.4C2.4,2,2.4,2.1,2.4,2.2"/>
	<path class="st0" d="M0.2,1.1c0.1,0,0.1,0.1,0.1,0.2c0,0.2,0,0.3,0,0.5c0,0.1,0,0.1-0.1,0.1c0,0,0,0,0-0.1c0-0.1,0-0.2,0-0.3
		c0-0.1,0-0.1,0-0.2C0.1,1.2,0.2,1.2,0.2,1.1"/>
	<path class="st0" d="M1.9,8.6C2,8.7,2,8.9,2,9c0,0-0.1,0-0.1,0c0-0.1,0-0.2-0.1-0.3C1.8,8.7,1.8,8.6,1.9,8.6"/>
	<path class="st0" d="M3.9,1.2C3.8,1.1,3.8,1.1,3.8,1c0-0.2,0-0.4,0-0.6c0-0.1,0-0.1,0-0.2c0,0,0,0,0,0c0,0,0,0,0,0c0,0,0,0.1,0,0.1
		c0,0.2,0,0.4,0,0.7C3.9,1,3.9,1.1,3.9,1.2"/>
	<path class="st0" d="M8.7,9.1c0,0,0,0.1,0,0.1c0,0.1,0,0.2,0,0.3c0,0,0,0.1,0,0.1c0,0,0,0,0,0c0-0.1,0-0.1,0-0.2c0-0.1,0-0.1,0-0.2
		C8.7,9.1,8.7,9.1,8.7,9.1"/>
	<path class="st0" d="M8.1,9.4C8.1,9.4,8.1,9.3,8.1,9.4C8,9,8,8.7,8,8.4c0,0,0,0,0-0.1c0,0,0.1,0,0.1,0c0.1,0,0.1,0,0.1,0.1
		c0,0.2,0,0.4,0,0.5C8.2,9.1,8.2,9.2,8.1,9.4C8.2,9.3,8.2,9.4,8.1,9.4"/>
	<path class="st0" d="M9.6,5.7c0,0.1,0.1,0.1,0.1,0.2c0,0.2,0,0.4,0,0.6c0,0.1,0,0.2,0,0.3c0,0,0,0,0,0.1c0,0-0.1,0-0.1,0
		c0,0,0-0.1,0-0.1c0-0.3,0-0.5,0-0.8C9.6,5.9,9.6,5.8,9.6,5.7C9.6,5.7,9.6,5.7,9.6,5.7"/>
	<path class="st0" d="M5.3,8.8c-0.1,0-0.1,0-0.1-0.1c0-0.2-0.1-0.3-0.1-0.5c0,0,0.1-0.1,0.1-0.1c0,0,0,0,0.1,0c0,0,0,0,0,0
		c0,0,0,0,0,0.1c0,0.2,0,0.3,0,0.5C5.3,8.8,5.3,8.8,5.3,8.8"/>
	<path class="st0" d="M8.9,7.7C9,7.8,9,7.8,8.9,7.7C9,8,9,8.1,9,8.2c0,0.1,0,0.1,0,0.2c0,0.1,0,0.1-0.1,0.2c0,0,0,0,0,0.1
		C8.9,8.3,8.9,8.1,8.9,7.7"/>
	<path class="st0" d="M5.7,9C5.7,9.1,5.7,9.1,5.7,9c0.1,0.2,0.1,0.3,0.1,0.4c0,0,0,0.1,0,0.1c0,0.1,0,0.1,0,0.2c0,0-0.1,0-0.1-0.1
		C5.7,9.5,5.7,9.3,5.7,9C5.7,9.1,5.7,9.1,5.7,9"/>
	<path class="st0" d="M9.3,7.8C9.2,7.6,9.2,7.4,9.2,7.2c0,0,0-0.1,0.1-0.1c0,0.1,0.1,0.1,0.1,0.2C9.4,7.4,9.4,7.5,9.3,7.8
		C9.4,7.7,9.4,7.8,9.3,7.8"/>
	<rect x="7.8" y="0.2" class="st1" width="9.8" height="10.9"/>
	<path class="st0" d="M9.2,9.3c0.1,0.1,0.1,0.3,0.1,0.4c0,0-0.1,0-0.1,0c0-0.1,0-0.2-0.1-0.3C9.2,9.4,9.2,9.3,9.2,9.3"/>
	<path class="st0" d="M5.2,5.7c0.1,0,0.1,0.1,0.1,0.1c0,0.3,0,0.5,0.1,0.8c0,0,0,0.1,0,0.1c0,0,0,0,0,0.1c0,0-0.1,0-0.1,0
		C5.3,6.3,5.2,6,5.2,5.7C5.2,5.7,5.2,5.7,5.2,5.7"/>
	<path class="st0" d="M5.1,1c0-0.2,0-0.4,0-0.6c0,0,0.1,0,0.1,0c0,0,0-0.1,0-0.1c0,0,0-0.1,0-0.1c0.1,0,0.1,0.1,0.1,0.1
		c0,0.1,0,0.2,0,0.3c0,0.1,0,0.1,0,0.2C5.2,0.9,5.2,0.9,5.1,1"/>
	<path class="st0" d="M7.1,9.7c0-0.2,0-0.4,0-0.6c0,0,0.1,0,0.1,0c0,0,0-0.1,0-0.1c0,0,0-0.1,0-0.1c0.1,0,0.1,0.1,0.1,0.1
		c0,0.1,0,0.2,0,0.3c0,0.1,0,0.1,0,0.2C7.2,9.6,7.2,9.6,7.1,9.7"/>
	<path class="st0" d="M9.7,9C9.7,9,9.7,9,9.7,9C9.6,8.8,9.6,8.6,9.6,8.3c0.1,0,0.1,0.1,0.1,0.1C9.7,8.6,9.7,8.9,9.7,9"/>
	<path class="st0" d="M6.7,2.6C6.7,2.6,6.6,2.6,6.7,2.6C6.6,2.4,6.6,2.2,6.6,2C6.6,2,6.7,2,6.7,2.1C6.7,2.2,6.7,2.5,6.7,2.6"/>
	<path class="st0" d="M9.5,0.2c0.1,0,0.1,0.1,0.1,0.1c0,0.2,0,0.4,0,0.6c0,0,0,0.1,0,0.1c0,0,0,0,0,0.1c0,0,0,0-0.1-0.1
		c0-0.1,0-0.2,0-0.2c0-0.1,0-0.3,0-0.4C9.5,0.3,9.5,0.3,9.5,0.2"/>
	<path class="st0" d="M7.3,3.9C7.4,3.9,7.4,4,7.4,4c0,0.2,0,0.4,0,0.6c0,0,0,0.1,0,0.1c0,0,0,0,0,0.1c0,0,0,0-0.1-0.1
		c0-0.1,0-0.2,0-0.2c0-0.1,0-0.3,0-0.4C7.3,4,7.3,3.9,7.3,3.9"/>
	<path class="st0" d="M2.6,0.2c0.1,0,0.1,0.1,0.1,0.1c0,0.2,0,0.4,0,0.6c0,0,0,0.1,0,0.1c0,0,0,0,0,0.1c0,0,0,0-0.1-0.1
		c0-0.1,0-0.2,0-0.2c0-0.1,0-0.3,0-0.4C2.6,0.3,2.6,0.3,2.6,0.2"/>
	<path class="st0" d="M8.9,0.7C9,0.7,9,0.8,9,0.8c0,0.2,0,0.4,0,0.6c0,0,0,0.1,0,0.1c0,0,0,0,0,0.1c0,0,0,0-0.1-0.1
		c0-0.1,0-0.2,0-0.2c0-0.1,0-0.3,0-0.4C8.9,0.8,8.9,0.7,8.9,0.7"/>
	<path class="st0" d="M8.9,2C9,2,9,2.1,9,2.1c0,0.2,0,0.4,0,0.6c0,0,0,0.1,0,0.1c0,0,0,0,0,0.1c0,0,0,0-0.1-0.1c0-0.1,0-0.2,0-0.2
		c0-0.1,0-0.3,0-0.4C8.9,2.1,8.9,2.1,8.9,2"/>
	<path class="st0" d="M9.3,3.2c0.1,0,0.1,0.1,0.1,0.1c0,0.2,0,0.4,0,0.6c0,0,0,0.1,0,0.1c0,0,0,0,0,0.1c0,0,0,0-0.1-0.1
		c0-0.1,0-0.2,0-0.2c0-0.1,0-0.3,0-0.4C9.3,3.3,9.3,3.3,9.3,3.2"/>
	<path class="st0" d="M9.6,1.4c0,0.1,0,0.2,0,0.3c0,0.2,0,0.4,0,0.7c0,0.2,0,0.4,0,0.6c0,0,0,0,0,0.1c0,0,0,0,0,0c0,0,0,0,0,0
		c0,0-0.1-0.1-0.1-0.1c0,0,0-0.1,0-0.1c0-0.1,0-0.2,0-0.3c0-0.2,0-0.4,0-0.6c0-0.1,0-0.3,0-0.4C9.5,1.4,9.5,1.4,9.6,1.4"/>
	<path class="st0" d="M4.4,3.4C4.4,3.4,4.4,3.4,4.4,3.4c0.1,0.2,0.1,0.3,0.1,0.4c0,0,0,0.1,0,0.1c0,0.1,0,0.1,0,0.2
		c0,0-0.1,0-0.1-0.1C4.3,3.8,4.3,3.6,4.4,3.4C4.3,3.4,4.3,3.4,4.4,3.4"/>
</g>
</svg>
