<?xml version="1.0" encoding="utf-8"?>
<!-- Generator: Adobe Illustrator 19.1.1, SVG Export Plug-In . SVG Version: 6.00 Build 0)  -->
<svg version="1.1" id="Layer_1" xmlns="http://www.w3.org/2000/svg" xmlns:xlink="http://www.w3.org/1999/xlink" x="0px" y="0px"
	 viewBox="0 0 114.5 125" style="enable-background:new 0 0 114.5 125;" xml:space="preserve">
<style type="text/css">
	.st0{clip-path:url(#SVGID_2_);fill:#CC375C;}
	.st1{clip-path:url(#SVGID_2_);fill:#CC375C;}
</style>
<g>
	<defs>
		<rect id="SVGID_1_" x="3" y="5.6" width="106.1" height="110.9"/>
	</defs>
	<clipPath id="SVGID_2_">
		<use xlink:href="#SVGID_1_"  style="overflow:visible;"/>
	</clipPath>
	<path class="st0" d="M58.9,87.9c0,0.8,0.1,1.6,0.1,2.4c0.1,1.6,0.2,3.2,0.3,4.8c0.1,1.3,0.2,2.7,0.2,4c0,0.1,0,0.3,0,0.4
		c-0.1,0.1-0.2,0.3-0.3,0.3c-0.1,0-0.3-0.1-0.3-0.2c-0.2-0.3-0.5-0.6-0.6-1c-0.1-0.2-0.2-0.5-0.2-0.7c0-0.6,0-1.3,0-1.9
		c0-1.4,0-2.9,0-4.3c0-1,0-2.1,0-3.1C58.2,88.1,58.3,87.9,58.9,87.9"/>
	<path class="st0" d="M88.3,89.1c0.1,0.3,0.2,0.4,0.2,0.6c0,2.8,0,5.6-0.1,8.5c-0.2,0-0.3,0-0.4-0.1c-0.1-0.2-0.2-0.5-0.3-0.7
		c-0.2-0.2-0.4-0.3-0.7-0.5c0.1-1.1,0.3-2.2,0.4-3.3c0.1-1.2,0.2-2.4,0.3-3.7C87.9,89.7,87.9,89.4,88.3,89.1"/>
	<path class="st0" d="M46.5,76.6c0.7,0,0.8,0,0.8,0.5c0.1,2.7,0.2,5.3,0.3,8c0,0.1,0,0.3,0,0.4c0,0.1-0.1,0.2-0.2,0.2
		c-0.1,0-0.3-0.1-0.3-0.1c-0.2-0.5-0.6-1-0.5-1.6c0.3-2.2-0.1-4.3-0.1-6.5C46.5,77.2,46.5,76.9,46.5,76.6"/>
	<path class="st0" d="M67.4,78.4c0.7-0.3,0.9-0.2,0.9,0.4c0.2,1.6,0.4,3.2,0.5,4.8c0.1,0.7,0.1,1.3,0.1,2c0,0.3,0.1,0.6-0.3,0.7
		c-0.4,0.1-0.5-0.3-0.6-0.6C68,85.3,68,84.9,68,84.5c-0.1-1-0.2-1.9-0.4-2.9c-0.1-0.7-0.3-1.5-0.1-2.2C67.5,79,67.4,78.7,67.4,78.4"
		/>
	<path class="st0" d="M98.9,61.3c-0.3-0.6-0.5-1.3-0.5-2c0-1.3-0.1-2.6,0-3.8c0-0.6,0.1-1.2,0.2-1.8c0-0.3,0.2-0.6,0.7-0.7
		c0.4,0.9,0.2,1.8,0.2,2.8c0,0.9,0,1.9,0,2.8C99.3,60.9,99.3,60.9,98.9,61.3"/>
	<path class="st0" d="M52.9,71.3c0.5-0.2,0.7,0.1,0.8,0.4c0.1,0.3,0.1,0.6,0.1,0.8c0,2.3,0,4.7,0,7c0,0.1,0,0.2-0.1,0.3
		c-0.6,0.1-0.7-0.3-0.7-0.7c-0.1-0.9-0.1-1.7-0.1-2.6c0-1.1,0-2.1,0-3.2C52.9,72.7,52.9,72,52.9,71.3"/>
	<path class="st0" d="M63.1,84.8c0.4,0,0.7,0.1,0.7,0.4c0.3,2.5,0.6,4.9,0,7.4c0,0.1-0.1,0.1-0.1,0.2c-0.1-0.1-0.2-0.1-0.3-0.2
		c-0.1-0.5-0.3-0.9-0.3-1.4C63.1,89.1,63.1,86.9,63.1,84.8"/>
	<path class="st0" d="M108.5,95.4c0.2,0,0.3,0,0.5,0c-0.1,0.5-0.1,1-0.2,1.5c-0.1,0.6-0.1,1.2-0.1,1.7c0,0.3,0,0.6-0.1,0.9
		c-0.1,0.5-0.3,0.6-0.6,0.6c-0.3,0-0.5-0.3-0.5-0.8c0-0.6,0.1-1.3,0.1-1.9c0-0.9-0.1-1.8-0.1-2.7c0-0.4-0.1-0.9,0.4-0.9
		c0.5-0.1,0.4,0.5,0.5,0.8C108.4,95,108.5,95.2,108.5,95.4"/>
	<path class="st0" d="M102.5,79.9c0.6,0.5,0.7,1,0.7,1.5c0.1,1.5,0.2,2.9,0.2,4.4c0,0.4-0.1,0.8-0.2,1.2c0,0.1-0.2,0.3-0.3,0.3
		c-0.1,0-0.3-0.1-0.4-0.3c-0.1-0.2-0.1-0.4-0.1-0.6c-0.1-1.6-0.2-3.2-0.2-4.8C102.3,81.1,102.5,80.6,102.5,79.9"/>
	<path class="st0" d="M83.4,60.5c0.1,0.6,0.2,1.1,0.3,1.7c0.1,1.8,0.2,3.5,0.4,5.3c0,0.1,0,0.1,0,0.2c0,0.3,0.1,0.7-0.3,0.8
		c-0.4,0-0.4-0.4-0.5-0.7c-0.3-0.7-0.2-1.3-0.2-2c0-0.5-0.1-1-0.1-1.5c0-0.5-0.1-1.1-0.1-1.6c0-0.5-0.1-0.9-0.2-1.4
		C82.6,60.8,82.8,60.5,83.4,60.5"/>
	<path class="st0" d="M68.5,108.2c0.2,2.4,0.4,4.9,0.5,7.4c-0.1,0-0.2,0.1-0.5,0.2c0,0.1,0,0.3-0.1,0.5c-0.1,0.1-0.3,0.3-0.4,0.3
		c-0.1,0-0.3-0.2-0.3-0.4c0-0.5,0.1-1.1,0.1-1.6c0.1-1.5,0.1-3.1,0.1-4.6c0-0.6,0.2-1.2,0.3-1.8C68.4,108.1,68.5,108.2,68.5,108.2"
		/>
	<path class="st0" d="M70.7,93.7c0.4,0.1,0.4,0.4,0.4,0.6c0.4,1.6,0.5,3.2,0.2,4.9c-0.2,0.9-0.2,1.9-0.3,2.9c-0.5,0-0.6-0.3-0.5-0.6
		c0.2-2.3,0.1-4.6,0-7C70.5,94.2,70.4,93.9,70.7,93.7"/>
	<path class="st0" d="M91.8,108.5c0.1,0.2,0.2,0.4,0.3,0.6c0.2,1.8,0.4,3.6,0.7,5.4c-0.3,0-0.5,0-0.7,0.1c-0.7,0.2-0.9,0-0.8-0.7
		c0-0.5,0.1-0.9,0.1-1.4c0-1,0-1.9-0.1-2.9C91.2,109.2,91.2,108.8,91.8,108.5"/>
	<path class="st0" d="M79.1,95.7c-0.5-0.3-0.9-0.5-1.3-0.7c0-0.3-0.1-0.6-0.1-0.9c0-0.5,0-1-0.1-1.4c-0.1-0.7-0.1-1.4,0.1-2.1
		c0.1-0.3,0-0.7,0.1-1.1c0-0.1,0.2-0.4,0.3-0.4c0.2,0,0.4,0.1,0.5,0.3c0.1,0.2,0.1,0.4,0.1,0.6c0,0.6-0.1,1.2,0,1.8
		c0,0.9,0.1,1.7,0.2,2.6C78.9,94.7,79,95.1,79.1,95.7"/>
	<path class="st0" d="M97.4,92.5c-0.4-0.1-0.6-0.2-0.5-0.6c0.1-1.1,0.1-2.3,0.1-3.4c0-0.4-0.2-0.9-0.2-1.3c0-0.3,0-0.5,0-0.8
		c0.9,0.1,1.2,0.3,1.2,0.9c0.1,1,0.1,2,0,3c-0.1,0.5-0.3,1-0.3,1.6C97.7,92.2,97.5,92.4,97.4,92.5"/>
	<path class="st0" d="M87.6,80.8c0-0.6,0-1.3,0-1.9c0-0.1,0-0.2,0-0.3c0-0.3,0.2-0.5,0.5-0.4c0.2,0,0.4,0.3,0.4,0.4
		c0.1,0.5,0.1,1,0.1,1.5c0,1,0.1,2,0.1,3c0,0.4-0.1,0.7-0.1,1.1c0,0.1-0.2,0.3-0.2,0.3c-0.1,0-0.3-0.1-0.4-0.2
		c-0.1-0.2-0.2-0.4-0.2-0.6C87.7,82.7,87.6,81.8,87.6,80.8C87.6,80.8,87.6,80.8,87.6,80.8"/>
	<path class="st0" d="M58,112.3c-0.6,0-0.7-0.3-0.7-0.7c0-0.9,0-1.8,0-2.7c0-0.8-0.1-1.5-0.2-2.3c0-0.2-0.1-0.4,0-0.6
		c0.1-0.2,0.4-0.4,0.6-0.5c0.3-0.1,0.4,0.3,0.4,0.5c0,1.3,0.1,2.6,0.1,3.9C58.2,110.8,58.1,111.5,58,112.3"/>
	<path class="st0" d="M91.1,60.4c0.6-0.1,0.8,0.1,0.9,0.5c0.4,1.2,0.8,2.4,0.9,3.5c-0.3,0.3-0.5,0.6-0.7,0.8
		c-0.1,0.1-0.3,0.2-0.4,0.2c-0.1,0-0.3-0.2-0.3-0.3c-0.1-0.1-0.1-0.3-0.1-0.4c-0.1-1.2-0.2-2.3-0.3-3.5C91,61,91.1,60.7,91.1,60.4"
		/>
	<path class="st0" d="M61.9,79.2c-0.4,0-0.7-0.1-0.7-0.6c0-0.7,0-1.4,0-2.1c-0.1-0.9-0.2-1.8-0.3-2.8c0-0.2-0.1-0.3-0.1-0.5
		c0-0.3,0-0.7,0.4-0.7c0.4,0,0.5,0.2,0.6,0.6c0.1,0.4,0.1,0.8,0.2,1.2c0.1,0.7,0.2,1.3,0.2,2c0,0.1,0.1,0.2,0,0.2
		c-0.5,0.8-0.1,1.7-0.3,2.6C62,79,62,79.1,61.9,79.2"/>
	<path class="st0" d="M51,102.9c-0.1-0.5-0.1-0.9-0.2-1.3c-0.1-1.2-0.1-2.4-0.1-3.6c0-0.6,0.1-1.3,0.2-1.9c0-0.1,0.2-0.3,0.4-0.5
		c0.1,0.2,0.3,0.4,0.3,0.6c-0.2,1.9,0.1,3.9,0.1,5.8C51.7,102.6,51.7,102.6,51,102.9"/>
	<path class="st0" d="M47.3,113.2c-0.4-0.3-0.8-0.7-0.8-1.2c0-1.3,0-2.6,0.1-3.9c0-0.3-0.1-0.7,0.4-0.8c0.4,0.1,0.4,0.4,0.4,0.7
		c0,1.1,0,2.2,0,3.4c0,0.6,0.1,1.1,0.1,1.7C47.5,113.2,47.4,113.2,47.3,113.2"/>
	<path class="st0" d="M90.8,76.6c-0.7-0.1-0.7-0.5-0.7-0.9c-0.1-1.3-0.1-2.6-0.2-4c0-0.3,0-0.6,0-0.8c0-0.2,0.2-0.3,0.3-0.4
		c0.1,0.1,0.4,0.2,0.4,0.4c0.1,0.6,0.1,1.2,0.2,1.8c0.1,1,0.1,2,0.1,2.9C90.9,75.9,90.8,76.2,90.8,76.6"/>
	<path class="st0" d="M104,73.1c-0.1-0.3-0.3-0.6-0.3-0.8c-0.1-0.6,0-1.2-0.1-1.8c0-0.5-0.2-1.1-0.2-1.6c-0.1-0.6-0.1-1.1-0.1-1.7
		c0-0.2,0.2-0.5,0.4-0.9c0.2,0.4,0.3,0.6,0.4,0.8c0.2,1.7,0.4,3.5,0.5,5.2C104.6,72.6,104.6,72.6,104,73.1"/>
	<path class="st0" d="M109,79c-0.6-0.1-0.6-0.4-0.6-0.7c-0.1-0.9-0.2-1.8-0.3-2.7c0-0.4-0.1-0.9-0.2-1.3c-0.1-0.5-0.2-1,0.4-1.3
		c0.1,0,0.2-0.2,0.2-0.4C109,74.7,109.3,76.8,109,79"/>
	<path class="st0" d="M98.1,71.6c0.1,0.2,0.2,0.4,0.2,0.5c0.1,1.3,0.1,2.6,0.1,3.9c0,0.6,0,1.3,0.1,2c-0.1-0.1-0.2-0.1-0.3-0.2
		c-0.3-0.7-0.6-1.4-0.6-2.2c0-1-0.1-2-0.1-2.9C97.5,72.3,97.6,71.9,98.1,71.6"/>
	<path class="st0" d="M80,76.5c0.4,0.1,0.6,0.3,0.6,0.7c0.1,1.4,0.2,2.9,0.3,4.3c0,0.1-0.2,0.3-0.2,0.5c-0.2-0.1-0.4-0.2-0.5-0.3
		c-0.1-0.2,0-0.5,0-0.7c-0.1-1-0.3-2.1-0.4-3.1C79.7,77.3,79.7,76.9,80,76.5"/>
	<path class="st0" d="M74.5,56c0.7,1.2,0.8,2.6,0.8,4c0,0.3,0.1,0.7-0.4,0.9c-0.3-0.4-0.5-0.8-0.6-1.3c-0.1-1-0.2-1.9-0.4-2.9
		C73.9,56.3,73.9,56,74.5,56"/>
	<path class="st0" d="M96.4,104.4c-1-0.2-1.1-0.4-1.1-1.1c0-1.2,0-2.3,0-3.5c0-0.4,0-0.7,0.5-0.9c0.1,0.2,0.2,0.3,0.2,0.5
		c0.1,0.8,0.1,1.6,0.1,2.4c0,0.5,0,1,0.3,1.5C96.6,103.5,96.4,103.9,96.4,104.4"/>
	<path class="st0" d="M84.9,103.3c0.2,0.2,0.4,0.3,0.4,0.4c0.2,1.5,0.3,2.9,0.5,4.5c-0.6-0.1-0.8-0.5-0.9-0.9
		C84.7,106.5,84.7,104.3,84.9,103.3"/>
	<path class="st1" d="M40.7,19.9c-0.3,1.7-0.5,3.4-0.8,5.1c-0.4,2.4-1.9,4.2-3.5,5.8c-1.1,1.1-2.2,2.3-3.3,3.5
		c-0.3,0.3-0.7,0.7-1.2,0.8c-1.3,0.3-2.6,0.5-3.9,0.7c-0.6,0.1-0.9-0.1-0.8-0.8c0.3-3.2,0.6-6.4,0.8-9.6c0.1-1.1,0-2.2,0.1-3.3
		c0.2-1.8,0.4-3.7,1-5.3c0.4-1.1,0.7-2.1,0.6-3.2c0-0.5-0.1-1-0.3-1.8c1.5,0.6,2.8,1.2,4.1,1.8c1.5,0.7,3,1.5,4.6,2.1
		C40.1,16.4,41,18,40.7,19.9 M42.7,18.5c-0.6-2.1-2.1-3.6-4-4.6c-1.1-0.6-2.2-1-3.2-1.6c-1.3-0.7-2.6-1.3-3.9-2
		c-0.6-0.3-1.5-0.3-1.7-1c-0.6-0.4-0.9-1.3-1.1-2.1c-0.5-0.6-1.1-1.2-1.8-1.6c-0.5,0-1.1-0.1-1.6-0.1c-1.1,0-2,0.3-2.9,0.6
		c0,0-0.1,0.1-0.1,0.1c-0.1,0.1-0.2,0.1-0.3,0.2c-0.1,0.2-0.2,0.4-0.4,0.5C21.4,7.4,21,7.7,20.2,8l-1.6,0.8
		c-1.8,0.1-3.6,0.1-5.5,0.2C11.4,9.2,9.7,9.2,8,10c-1.1,0.5-2.4,0.6-3.6,1C3.9,11.2,3,11.2,3,12.1C3,13,2.9,14,4.2,14.2
		c0.2,0,0.5,0.3,0.6,0.6c0.3,1,1.1,1,1.8,0.7c0.6-0.2,1.2-0.7,1.7-1c1.3-0.9,2.4-2.1,3.8-2.5c2.2-0.5,4.5-0.5,6.9-0.7
		c0,0.4,0,0.5,0,0.6c-0.2,1-0.4,2-0.6,3c-0.2,1-0.2,2-0.4,2.9c-0.7,3.9-1.8,7.7-2,11.8c0,0.9,0,1.8-0.1,2.7c0,0.1,0,0.1,0,0.2
		c-0.1,1.5-0.4,3-0.4,4.5c0,0.5,0,1,0,1.5c0,0.3,0,0.6,0,0.9c0,0.3,0,0.7,0,1c0,0.5,0,1,0,1.5c0,0.1,0,0.2-0.1,0.3
		c-0.1,1.4-0.1,2.8-0.1,4.1c0,3.2,0.2,6.4,0.3,9.5c0.1,2.6,0,5.2,0.3,7.8c0.2,2.1,0.5,4.1,0.8,6.2c0.6,1.3,1,2.9,1.8,3.9
		c1.2,1.5,3.4,1.9,5.2,1.6c1.7-0.3,2.6-1.4,3.5-2.6c0.5-1,0.7-2.3,0.9-3.4c0.3-2.4,0.3-4.8,0.3-7.2c-0.1-2.9-0.2-5.9-0.5-8.8
		c-0.2-2.6-0.7-5.1-0.8-7.7C27,43.4,27,41.1,27,38.8c0-0.2,0-0.3,0.1-0.4c-0.1-0.3,0-0.7,0.4-0.8c1.5-0.3,3.1-0.1,4.5-0.8
		c1-0.4,1.8-1.1,2.6-1.7c0,0,0,0,0-0.1c0.3-0.3,0.7-0.7,1.2-0.9c1.2-1.2,2.5-2.4,3.7-3.7c1-1,1.8-2.3,2-3.6c0.5-2.5,0.8-5,1.1-7.5
		C42.7,19,42.7,18.8,42.7,18.5"/>
	<path class="st1" d="M46.7,56.3c-0.3,0.1-0.6,0-1.1,0c0.2-1.2,0.3-2.3,0.4-3.5c0.1,0,0.2,0,0.2,0c0.1,0.8,1.2,0.7,1.4,1.6
		C48,55.4,47.8,56,46.7,56.3 M58.9,62c-0.6-0.8-1-1.8-1.4-2.7c-0.1-0.1-0.1-0.3-0.1-0.4c-0.2-0.5-0.5-1-0.7-1.5
		c-1.6-2.2-2-4.8-3.1-7.2c-1.1-2.5-2.1-5.1-3.2-7.6c-0.6-1.3-1.6-2.1-3.1-2.3c-0.6-0.1-1.2-0.2-1.8-0.2c-0.6,0-1.3-0.1-1.8,0.1
		c-1.2,0.5-2.3,1.1-3.4,1.7c-1.6,0.9-2.6,2.3-2.9,4c-0.4,2.3-0.6,4.7-0.9,7c-0.3,2.4-0.6,4.8-0.9,7.2c-0.4,3.9-0.6,7.9-1,12.2
		c1.2,0.1,2,0.2,2.9,0.1c2.2-0.1,4.2-1,5.2-2.9c0.8-1.5,1.1-3.3,1.4-5c0.1-0.6,0.2-1.3,0.3-1.9c0-1.5,0.1-3.3,0.7-3.9
		c0,0,0-0.1,0.1-0.1c0-0.1,0.1-0.2,0.3-0.2c0.1,0,0.2,0,0.3,0c0,0,0,0,0.1,0c1,0.1,1.9,0,2.7-0.5c0.5-0.3,0.9,0,1.1,0.4
		c0.7,1.1,1.4,2.2,2,3.4c0.5,1.2,1.5,2.3,1.3,3.7c-0.1,0.9,0,1.5,1.2,1.5c1.6,0.1,3,0,4.2-1.2C59.7,64.6,59.9,63.4,58.9,62"/>
	<path class="st1" d="M72.2,24.8c-1-0.5-2-0.8-3.1-1c-1.7-0.4-3.5,0.2-5.2-0.1c-0.7,0-1.5,0-2-0.5c0,0,0,0,0,0
		c-0.1-0.1-0.2-0.2-0.3-0.3c0,0,0,0,0,0c-0.4-0.3-0.5-0.9-0.6-1.6c-0.4-1.5-0.5-3.1-0.8-4.6c-0.2-0.7-0.3-1.3-0.5-2
		c-0.8,0.1-1.7,0-2.5,0.3c-0.5,0.1-1.2,0.7-1.2,1.1c0.1,1.4,0.3,2.7,0.6,4.1c0.2,1.1,0.7,2.1,1.1,3.4c-2.2-0.1-4.1-0.1-6-0.3
		c-1.8-0.2-3.6-0.3-5.3,0.1c-0.4,0.1-0.8,0.4-1.2,0.7c0.3,0.2,0.4,0.4,0.5,0.4c1.5,0.5,2.9,1.5,4.4,1.5c1.3,0,2.4,0.3,3.5,0.6
		c0.2,0,0.4,0.1,0.6,0.1c1.1,0.1,2.1,0.2,3.2,0.3c0.2,0,0.5,0.3,0.5,0.5c0.3,1.3,0.6,2.6,0.8,4c0.3,2.5,0.4,4.9,0.7,7.4
		c0.1,1.3,0.5,2.5,0.7,3.8c0.3,1.8,0.4,3.6,0.7,5.3c0.4,2.5,1,4.9,1.2,7.3c0.2,2.3,0.9,4.5,0.7,6.8c-0.1,1.5,0.5,3,0.3,4.6
		c-0.1,0.6,0,1.3,0.1,1.9c0.7,0.4,1.8,0.2,2.7-0.1c0,0,0,0,0,0c0.8-0.5,1.3-1.5,1.5-2.5c0.1-2.4,0-4.9-0.5-7.3
		c-0.5-2.8-0.9-5.6-1.3-8.4c-0.4-2.7-0.8-5.4-1.2-8.2c-0.3-2.2-0.8-4.3-1.1-6.5c-0.3-2.3-0.4-4.5-0.6-6.8c0-0.5-0.1-1-0.2-1.5
		c0,0,0,0,0-0.1c0-0.1,0-0.1,0-0.2c0,0,0,0,0.1-0.1c0.1-0.2,0.2-0.3,0.4-0.3c0.6,0,1.2,0,1.8,0.4c0.1,0,0.1,0.1,0.2,0.1
		c0.1,0,0.2,0,0.3,0.1c1.1,0.3,2.2,0.5,3.4,0.6c1.4,0,2.8-0.4,4.1-0.8c0.2-0.2,0.4-0.5,0.4-0.7C73,25.6,72.6,25,72.2,24.8"/>
	<path class="st1" d="M71.8,41.7c-0.2,0.1-0.3,0.2-0.5,0.2c-0.7-1.8-1.3-3.7,0-5.5c0.4,0.5,0.9,1,1.3,1.4
		C73.6,39.1,73.2,41.1,71.8,41.7 M82.1,48.3c-0.2-0.2-0.5-0.4-0.7-0.7c-0.1,0-0.1,0-0.2-0.1c-1.6-0.9-2.9-2.2-4-3.6
		c-0.2-0.2-0.4-0.4-0.6-0.6c-0.1-0.1-0.3-0.3-0.4-0.4c0,0-0.1-0.1-0.1-0.1c-0.4-0.4-0.8-0.8-1.2-1.2c0.1-0.3,0.3-0.8,0.5-1.3
		c0.4-1,0.6-1.9,0.1-2.9c-0.4-0.7-0.8-1.3-1.2-2c-0.3-0.5-0.6-0.9-1.3-1c-1.6-0.4-3.6,0.6-4.2,2.1c-0.2,0.6-0.4,1.2-0.5,1.8
		c-0.2,0.8-0.4,1.6-0.3,2.4c0.1,1.8,0.4,3.6,0.7,5.4c0.2,1.4,0.4,2.8,1.8,3.7c0.2,0.1,0.6,0.3,0.8,0.2c0.9-0.5,1.3-2.4,0.9-3.1
		c-0.6-1-0.6-2-0.6-3.1c0.3,0,0.6-0.1,0.8,0.1c1.3,0.8,2.6,1.6,3.5,2.8c0.3,0.4,0.7,0.6,1,1c0.2,0.2,0.6,0.3,0.7,0.6
		c1,1.3,2.7,1.9,4.2,1.4C82.5,49.4,82.6,48.8,82.1,48.3"/>
	<path class="st1" d="M88.7,46.4c-0.6-1.8-1.3-3.6-2-5.4c-0.1-0.4-0.3-0.8-0.5-1.1c-0.5-0.7-1.8-0.8-3-0.5c-0.7,0.2-1.3,0.2-1.1,1
		c0,0.1,0.1,0.2,0.1,0.3c0,0.1,0.1,0.2,0.1,0.3c0.3,0.7,0.4,1.5,0.6,2.2c0.1,0.6,0.3,1.2,0.4,1.8c0,0.1,0,0.2,0.1,0.2
		c0.6,1.7,1.2,3.4,1.8,5.1c0.2,0.5,0.5,1.1,0.7,1.6c0.5-0.3,1.2-0.5,1.6-1C88.7,49.8,89.4,48.2,88.7,46.4"/>
	<path class="st1" d="M86,21.4c-0.7,1.1-1.6,1.8-2.8,2.3c-1.2,0.5-2.3,0.8-3.2-0.5C80.5,21.3,83.5,20.2,86,21.4"/>
	<path class="st1" d="M91.4,50.6c0.4-0.3,0.8-0.7,1.2-0.7c0.6-0.1,1.5,0.9,1.3,1.4c-0.2,0.4-0.7,0.7-1.1,0.8
		C92.4,52.3,91.6,51.4,91.4,50.6"/>
</g>
</svg>
