<?xml version="1.0" encoding="utf-8"?>
<!-- Generator: Adobe Illustrator 19.1.1, SVG Export Plug-In . SVG Version: 6.00 Build 0)  -->
<svg version="1.1" id="Layer_1" xmlns="http://www.w3.org/2000/svg" xmlns:xlink="http://www.w3.org/1999/xlink" x="0px" y="0px"
	 viewBox="0 0 160.3 118.4" style="enable-background:new 0 0 160.3 118.4;" xml:space="preserve">
<style type="text/css">
	.st0{clip-path:url(#SVGID_2_);fill:#CB355B;}
	.st1{clip-path:url(#SVGID_4_);fill:#CB355B;}
	.st2{clip-path:url(#SVGID_6_);fill:#CB355B;}
	.st3{clip-path:url(#SVGID_8_);fill:#CB355B;}
	.st4{clip-path:url(#SVGID_10_);fill:#CB355B;}
	.st5{clip-path:url(#SVGID_12_);fill:#FAF0E6;}
	.st6{clip-path:url(#SVGID_14_);fill:#FAF0E6;}
	.st7{clip-path:url(#SVGID_16_);fill:#FAF0E6;}
	.st8{clip-path:url(#SVGID_18_);fill:#FAF0E6;}
	.st9{clip-path:url(#SVGID_20_);fill:#00819F;}
	.st10{clip-path:url(#SVGID_22_);}
	.st11{clip-path:url(#SVGID_24_);fill:#1D0C06;}
</style>
<g>
	<defs>
		<rect id="SVGID_17_" x="10.2" y="4.7" width="141.7" height="108.4"/>
	</defs>
	<clipPath id="SVGID_2_">
		<use xlink:href="#SVGID_17_"  style="overflow:visible;"/>
	</clipPath>
	<path style="clip-path:url(#SVGID_2_);fill:#FAF0E6;" d="M69,26.9c-0.4,2.7-0.8,5.3-1.3,8c-0.7,3.7-2.9,6.5-5.5,9
		c-1.7,1.7-3.4,3.6-5.1,5.4c-0.5,0.5-1.1,1.1-1.8,1.3c-2,0.5-4,0.8-6.1,1.1c-0.9,0.1-1.4-0.2-1.3-1.3c0.5-5,0.9-10,1.3-15
		c0.1-1.7-0.1-3.4,0.2-5.1c0.4-2.8,0.6-5.7,1.6-8.2c0.7-1.7,1.1-3.2,1-5c-0.1-0.8-0.2-1.5-0.4-2.9c2.3,1,4.3,1.9,6.3,2.8
		c2.4,1.1,4.7,2.3,7.2,3.3C68,21.6,69.4,23.9,69,26.9 M72,24.8c-1-3.3-3.3-5.5-6.2-7.1c-1.6-0.9-3.4-1.6-5-2.4c-2-1-4-2.1-6.1-3.1
		c-0.9-0.5-2.3-0.5-2.7-1.6c-0.9-0.6-1.4-2-1.8-3.3c-0.9-1-1.8-1.8-2.9-2.5c-0.8-0.1-1.7-0.1-2.5-0.1c-1.7,0-3.1,0.4-4.6,0.9
		c0,0-0.1,0.1-0.1,0.1C40,5.8,39.9,5.9,39.7,6c-0.2,0.3-0.4,0.5-0.6,0.8c-0.2,0.7-0.9,1.3-2.2,1.8l-2.5,1.3
		c-2.8,0.1-5.7,0.2-8.5,0.3c-2.6,0.2-5.3,0.2-7.8,1.4c-1.7,0.8-3.7,0.9-5.5,1.5c-0.9,0.3-2.3,0.4-2.3,1.8c0,1.3-0.1,3,1.9,3.3
		c0.4,0.1,0.8,0.5,0.9,0.9c0.5,1.6,1.7,1.5,2.8,1.1c1-0.4,1.8-1,2.7-1.6c2-1.3,3.7-3.3,5.9-3.9c3.4-0.8,7.1-0.7,10.7-1
		c0,0.6,0,0.8,0,1c-0.3,1.5-0.7,3.1-0.9,4.6c-0.2,1.5-0.3,3-0.6,4.5c-1.1,6.1-2.8,12-3.1,18.2c-0.1,1.4,0,2.8-0.1,4.2
		c0,0.1,0,0.2,0,0.3c-0.1,2.4-0.6,4.6-0.7,7c0,0.8,0,1.5,0,2.3c0,0.5,0,0.9,0,1.4c0,0.5,0,1.1,0,1.6c0,0.8,0,1.5,0,2.3
		c0,0.2,0,0.3-0.1,0.4c-0.1,2.1-0.2,4.3-0.2,6.4c0,4.9,0.3,9.9,0.4,14.8c0.1,4.1,0.1,8.1,0.4,12.2c0.3,3.2,0.8,6.4,1.2,9.6
		c0.9,2,1.5,4.5,2.8,6.1c1.9,2.3,5.3,2.9,8.1,2.5c2.7-0.4,4.1-2.2,5.5-4c0.7-1.6,1.1-3.5,1.3-5.3c0.5-3.7,0.5-7.4,0.5-11.2
		c-0.1-4.6-0.4-9.1-0.8-13.6c-0.3-4-1-7.9-1.3-11.9c-0.2-3.6-0.1-7.2-0.2-10.8c0-0.3,0-0.5,0.1-0.7c-0.2-0.5,0-1.2,0.6-1.3
		c2.3-0.5,4.9-0.2,7.1-1.2c1.5-0.7,2.7-1.8,4.1-2.7c0,0,0-0.1,0.1-0.1c0.5-0.5,1.1-1.1,1.8-1.5c1.9-1.9,3.9-3.7,5.7-5.7
		c1.5-1.6,2.8-3.5,3.2-5.7c0.7-3.9,1.2-7.8,1.8-11.6C72.1,25.5,72.1,25.1,72,24.8"/>
	<path style="clip-path:url(#SVGID_2_);fill:#FAF0E6;" d="M78.3,83.3c-0.4,0.1-0.9,0-1.7,0c0.2-1.9,0.5-3.6,0.7-5.4
		c0.1,0,0.2,0,0.4-0.1c0.2,1.3,1.8,1,2.2,2.4C80.3,81.9,80,83,78.3,83.3 M97.3,92.3c-0.9-1.3-1.5-2.7-2.1-4.1
		c-0.1-0.2-0.2-0.4-0.2-0.6c-0.4-0.7-0.7-1.5-1.1-2.3c-2.4-3.3-3.1-7.4-4.8-11.1c-1.7-3.9-3.2-7.8-4.9-11.7c-0.9-2-2.6-3.3-4.9-3.6
		c-0.9-0.1-1.8-0.3-2.8-0.4c-1-0.1-2-0.2-2.8,0.1c-1.8,0.7-3.6,1.7-5.3,2.6c-2.4,1.4-4,3.6-4.5,6.3c-0.6,3.6-1,7.3-1.4,10.9
		c-0.5,3.7-1,7.4-1.4,11.1c-0.6,6.1-1,12.3-1.5,18.9c1.8,0.1,3.2,0.2,4.5,0.2c3.4-0.2,6.5-1.5,8.1-4.5c1.3-2.3,1.7-5.1,2.2-7.8
		c0.2-1,0.3-2,0.5-2.9c0-2.4,0.2-5.1,1.1-6c0-0.1,0-0.2,0.1-0.2c0.1-0.2,0.2-0.3,0.4-0.3c0.1,0,0.3,0,0.4,0c0,0,0.1,0,0.1,0
		c1.5,0.2,2.9,0,4.2-0.8c0.7-0.5,1.3-0.1,1.7,0.6c1,1.8,2.2,3.4,3.1,5.3c0.9,1.8,2.3,3.5,2.1,5.8c-0.1,1.4-0.1,2.3,1.9,2.3
		c2.5,0.1,4.6,0.1,6.5-1.8C98.6,96.3,98.8,94.4,97.3,92.3"/>
	<path style="clip-path:url(#SVGID_2_);fill:#FAF0E6;" d="M118,34.5c-1.5-0.8-3.1-1.2-4.8-1.6c-2.7-0.7-5.4,0.3-8.1-0.2
		c-1,0-2.4,0-3.1-0.7c0,0,0,0,0,0c-0.2-0.1-0.3-0.3-0.4-0.5c0,0,0,0,0-0.1c-0.6-0.5-0.7-1.4-1-2.5c-0.6-2.4-0.8-4.8-1.2-7.2
		c-0.3-1-0.5-2-0.8-3c-1.3,0.1-2.6,0-3.8,0.4c-0.8,0.2-1.9,1.1-1.9,1.7c0.1,2.1,0.5,4.3,1,6.3c0.4,1.7,1,3.3,1.7,5.2
		c-3.4-0.2-6.4-0.2-9.3-0.5c-2.8-0.3-5.5-0.5-8.3,0.2c-0.6,0.1-1.2,0.7-1.9,1.1c0.4,0.4,0.6,0.6,0.7,0.6c2.3,0.8,4.6,2.3,6.9,2.3
		c2,0,3.7,0.4,5.5,0.9c0.3,0.1,0.6,0.1,0.9,0.2c1.7,0.2,3.3,0.3,5,0.5c0.3,0,0.7,0.4,0.8,0.7c0.4,2,0.9,4.1,1.2,6.2
		c0.4,3.8,0.6,7.6,1,11.4c0.2,2,0.8,3.9,1.1,5.8c0.4,2.8,0.7,5.5,1.1,8.3c0.6,3.8,1.6,7.6,1.9,11.4c0.3,3.5,1.5,6.9,1.1,10.6
		c-0.2,2.3,0.8,4.7,0.5,7.1c-0.1,1,0.1,1.9,0.2,3c1.1,0.7,2.8,0.3,4.1-0.1c0,0,0,0,0,0c1.3-0.9,2-2.4,2.3-3.9
		c0.2-3.8,0-7.5-0.7-11.3c-0.8-4.3-1.4-8.6-2-13c-0.6-4.2-1.3-8.4-1.9-12.6c-0.5-3.4-1.3-6.7-1.7-10.1c-0.4-3.5-0.6-7-0.9-10.5
		c-0.1-0.8-0.2-1.6-0.3-2.4c0,0,0-0.1,0-0.1c0-0.1,0-0.2,0-0.3c0,0,0.1-0.1,0.1-0.1c0.1-0.3,0.3-0.4,0.7-0.4c1,0,1.9,0.1,2.8,0.5
		c0.1,0.1,0.2,0.1,0.2,0.2c0.2,0,0.3,0.1,0.4,0.1c1.8,0.4,3.5,0.8,5.3,0.9c2.3,0,4.4-0.5,6.5-1.3c0.4-0.4,0.7-0.8,0.6-1.2
		C119.3,35.8,118.7,34.9,118,34.5"/>
	<path style="clip-path:url(#SVGID_2_);fill:#FAF0E6;" d="M117.3,60.8c-0.2,0.1-0.5,0.2-0.7,0.4c-1-2.9-2.1-5.7-0.1-8.5
		c0.7,0.7,1.4,1.5,2,2.2C120.2,56.7,119.5,59.8,117.3,60.8 M133.4,71c-0.4-0.4-0.8-0.7-1.2-1c-0.1,0-0.2-0.1-0.3-0.1
		c-2.6-1.4-4.5-3.3-6.3-5.5c-0.3-0.3-0.7-0.6-1-0.9c-0.2-0.2-0.4-0.4-0.6-0.7c-0.1-0.1-0.1-0.1-0.2-0.2c-0.6-0.5-1.2-1.2-1.9-1.9
		c0.2-0.5,0.5-1.3,0.8-2c0.7-1.5,1-3,0.1-4.5c-0.6-1-1.2-2.1-1.8-3.1c-0.5-0.8-1-1.4-2-1.6c-2.5-0.6-5.7,0.9-6.5,3.3
		c-0.3,0.9-0.7,1.8-0.9,2.8c-0.3,1.2-0.6,2.5-0.5,3.7c0.2,2.8,0.7,5.6,1,8.4c0.3,2.2,0.7,4.4,2.8,5.7c0.3,0.2,0.9,0.4,1.2,0.2
		c1.4-0.8,2-3.7,1.4-4.7c-0.9-1.5-0.9-3.1-0.9-4.9c0.5,0,1-0.1,1.3,0.1c2,1.2,4,2.4,5.5,4.4c0.4,0.6,1.1,1,1.6,1.5
		c0.4,0.3,0.9,0.5,1.2,0.9c1.5,2,4.2,2.9,6.5,2.2C134,72.8,134.2,71.8,133.4,71"/>
	<path style="clip-path:url(#SVGID_2_);fill:#FAF0E6;" d="M143.7,68c-1-2.8-2-5.6-3.1-8.4c-0.2-0.6-0.4-1.2-0.8-1.7
		c-0.8-1.1-2.8-1.2-4.7-0.8c-1,0.3-2,0.4-1.8,1.6c0.1,0.2,0.1,0.4,0.2,0.5c0,0.2,0.1,0.3,0.1,0.5c0.5,1.1,0.7,2.4,1,3.5
		c0.2,0.9,0.4,1.9,0.6,2.9c0,0.1,0.1,0.2,0.1,0.4c0.9,2.7,1.9,5.3,2.8,7.9c0.3,0.8,0.7,1.7,1.1,2.5c0.8-0.5,1.8-0.8,2.4-1.5
		C143.7,73.3,144.7,70.9,143.7,68"/>
	<path style="clip-path:url(#SVGID_2_);fill:#FAF0E6;" d="M139.5,29.2c-1.1,1.7-2.5,2.8-4.3,3.5c-1.9,0.8-3.6,1.3-5-0.8
		C130.8,29,135.6,27.4,139.5,29.2"/>
	<path style="clip-path:url(#SVGID_2_);fill:#FAF0E6;" d="M148,74.6c0.6-0.4,1.2-1,1.9-1.1c0.9-0.2,2.4,1.3,2,2.1
		c-0.2,0.6-1,1.1-1.7,1.3C149.5,77.1,148.2,75.7,148,74.6"/>
</g>
</svg>
