<?xml version="1.0" encoding="utf-8"?>
<!-- Generator: Adobe Illustrator 19.1.1, SVG Export Plug-In . SVG Version: 6.00 Build 0)  -->
<svg version="1.1" id="Layer_1" xmlns="http://www.w3.org/2000/svg" xmlns:xlink="http://www.w3.org/1999/xlink" x="0px" y="0px"
	 viewBox="0 0 132.7 96.7" style="enable-background:new 0 0 132.7 96.7;" xml:space="preserve">
<style type="text/css">
	.st0{clip-path:url(#SVGID_2_);fill:#CB355B;}
	.st1{clip-path:url(#SVGID_4_);fill:#CB355B;}
	.st2{clip-path:url(#SVGID_6_);fill:#CB355B;}
	.st3{clip-path:url(#SVGID_8_);fill:#CB355B;}
	.st4{clip-path:url(#SVGID_10_);fill:#CB355B;}
	.st5{clip-path:url(#SVGID_12_);fill:#FFFFFF;}
	.st6{clip-path:url(#SVGID_14_);fill:#FFFFFF;}
	.st7{clip-path:url(#SVGID_16_);fill:#FFFFFF;}
	.st8{clip-path:url(#SVGID_18_);fill:#FFFFFF;}
	.st9{clip-path:url(#SVGID_20_);fill:#00819F;}
	.st10{clip-path:url(#SVGID_22_);}
	.st11{clip-path:url(#SVGID_24_);fill:#1D0C06;}
</style>
<g>
	<defs>
		<rect id="SVGID_21_" x="13.4" y="5.7" width="113" height="86.5"/>
	</defs>
	<clipPath id="SVGID_2_">
		<use xlink:href="#SVGID_21_"  style="overflow:visible;"/>
	</clipPath>
	<path style="clip-path:url(#SVGID_2_);" d="M60.3,23.4c-0.3,2.1-0.6,4.2-1,6.3c-0.5,2.9-2.3,5.2-4.4,7.2c-1.4,1.4-2.7,2.9-4,4.3
		c-0.4,0.4-0.9,0.9-1.4,1c-1.6,0.4-3.2,0.6-4.9,0.9c-0.7,0.1-1.1-0.2-1-1c0.4-4,0.7-8,1-11.9c0.1-1.3,0-2.7,0.1-4
		c0.3-2.2,0.5-4.5,1.3-6.6c0.5-1.4,0.9-2.6,0.8-4c0-0.6-0.2-1.2-0.3-2.3c1.8,0.8,3.5,1.5,5.1,2.2c1.9,0.9,3.8,1.8,5.7,2.6
		C59.5,19.1,60.7,21,60.3,23.4 M62.7,21.7c-0.8-2.6-2.6-4.4-5-5.7c-1.3-0.7-2.7-1.3-4-1.9c-1.6-0.8-3.2-1.7-4.8-2.5
		c-0.8-0.4-1.8-0.4-2.2-1.2c-0.7-0.5-1.1-1.6-1.4-2.6c-0.7-0.8-1.4-1.4-2.3-2c-0.7-0.1-1.3-0.1-2-0.1c-1.4,0-2.5,0.3-3.6,0.7
		c0,0-0.1,0.1-0.1,0.1c-0.1,0.1-0.2,0.1-0.4,0.2c-0.1,0.2-0.3,0.4-0.5,0.6c-0.2,0.6-0.7,1-1.7,1.4l-2,1c-2.3,0.1-4.5,0.1-6.8,0.3
		c-2.1,0.1-4.2,0.1-6.2,1.1c-1.4,0.6-3,0.7-4.4,1.2c-0.7,0.3-1.9,0.3-1.8,1.4c0,1.1-0.1,2.4,1.5,2.6c0.3,0,0.7,0.4,0.8,0.7
		c0.4,1.3,1.3,1.2,2.2,0.9c0.8-0.3,1.5-0.8,2.1-1.3c1.6-1.1,3-2.7,4.7-3.1c2.7-0.7,5.6-0.6,8.5-0.8c0,0.5,0,0.6,0,0.8
		c-0.2,1.2-0.5,2.5-0.7,3.7c-0.2,1.2-0.2,2.4-0.5,3.6c-0.9,4.8-2.2,9.6-2.5,14.5c-0.1,1.1,0,2.2-0.1,3.3c0,0.1,0,0.1,0,0.2
		c-0.1,1.9-0.5,3.7-0.5,5.6c0,0.6,0,1.2,0,1.8c0,0.4,0,0.7,0,1.1c0,0.4,0,0.8,0,1.3c0,0.6,0,1.2,0,1.8c0,0.1,0,0.2-0.1,0.3
		c-0.1,1.7-0.2,3.4-0.2,5.1c0,3.9,0.2,7.9,0.4,11.8c0.1,3.2,0,6.5,0.3,9.7c0.2,2.6,0.6,5.1,1,7.6c0.7,1.6,1.2,3.6,2.2,4.9
		c1.5,1.9,4.2,2.3,6.5,2c2.1-0.3,3.3-1.8,4.4-3.2c0.6-1.3,0.9-2.8,1.1-4.2c0.4-2.9,0.4-5.9,0.4-8.9c-0.1-3.6-0.3-7.3-0.6-10.9
		c-0.3-3.2-0.8-6.3-1-9.5c-0.2-2.8-0.1-5.7-0.1-8.6c0-0.2,0-0.4,0.1-0.5c-0.2-0.4,0-0.9,0.5-1c1.8-0.4,3.9-0.2,5.6-0.9
		c1.2-0.5,2.2-1.4,3.3-2.2c0,0,0,0,0-0.1c0.4-0.4,0.9-0.9,1.4-1.2c1.5-1.5,3.1-3,4.6-4.5c1.2-1.3,2.2-2.8,2.5-4.5
		c0.6-3.1,1-6.2,1.4-9.3C62.8,22.3,62.8,22,62.7,21.7"/>
	<path style="clip-path:url(#SVGID_2_);" d="M67.7,68.4c-0.3,0.1-0.7,0-1.3,0c0.2-1.5,0.4-2.9,0.5-4.3c0.1,0,0.2,0,0.3,0
		c0.2,1,1.4,0.8,1.7,1.9C69.3,67.2,69.1,68.1,67.7,68.4 M82.9,75.5c-0.7-1-1.2-2.2-1.7-3.3C81.1,72,81,71.8,81,71.7
		c-0.3-0.6-0.6-1.2-0.8-1.8c-1.9-2.7-2.5-5.9-3.8-8.9c-1.4-3.1-2.6-6.3-3.9-9.3c-0.7-1.6-2-2.6-3.9-2.9c-0.7-0.1-1.5-0.3-2.2-0.3
		c-0.8,0-1.6-0.2-2.3,0.1c-1.5,0.6-2.9,1.3-4.2,2.1c-1.9,1.1-3.2,2.8-3.6,5c-0.5,2.9-0.8,5.8-1.1,8.7c-0.4,3-0.8,5.9-1.1,8.9
		c-0.5,4.9-0.8,9.8-1.2,15c1.5,0.1,2.5,0.2,3.6,0.1c2.7-0.1,5.2-1.2,6.5-3.6c1-1.8,1.3-4.1,1.7-6.2c0.1-0.8,0.3-1.6,0.4-2.4
		c0-1.9,0.1-4,0.9-4.8c0-0.1,0-0.1,0.1-0.2c0-0.1,0.2-0.2,0.4-0.2c0.1,0,0.2,0,0.3,0c0,0,0.1,0,0.1,0c1.2,0.2,2.3,0,3.4-0.7
		c0.6-0.4,1.1,0,1.4,0.5c0.8,1.4,1.8,2.7,2.4,4.2c0.7,1.5,1.8,2.8,1.7,4.6c-0.1,1.1,0,1.8,1.5,1.9c2,0.1,3.7,0,5.2-1.4
		C83.9,78.7,84,77.2,82.9,75.5"/>
	<path style="clip-path:url(#SVGID_2_);" d="M99.4,29.4c-1.2-0.6-2.5-1-3.8-1.3c-2.1-0.5-4.3,0.3-6.4-0.2c-0.8,0-1.9,0-2.5-0.6
		c0,0,0,0,0,0c-0.1-0.1-0.3-0.2-0.3-0.4c0,0,0,0,0-0.1c-0.5-0.4-0.6-1.1-0.8-2c-0.4-1.9-0.6-3.8-1-5.7c-0.2-0.8-0.4-1.6-0.6-2.4
		c-1,0.1-2.1,0-3.1,0.3c-0.6,0.2-1.5,0.9-1.5,1.3c0.1,1.7,0.4,3.4,0.8,5.1c0.3,1.3,0.8,2.6,1.3,4.2c-2.7-0.1-5.1-0.1-7.4-0.4
		c-2.2-0.2-4.4-0.4-6.6,0.1c-0.5,0.1-0.9,0.5-1.5,0.9c0.3,0.3,0.4,0.5,0.6,0.5c1.8,0.7,3.7,1.8,5.5,1.8c1.6,0,3,0.4,4.4,0.7
		c0.2,0.1,0.5,0.1,0.7,0.1c1.3,0.1,2.6,0.2,4,0.4c0.2,0,0.6,0.3,0.6,0.6c0.4,1.6,0.8,3.3,0.9,4.9c0.3,3,0.5,6.1,0.8,9.1
		c0.2,1.6,0.6,3.1,0.9,4.6c0.3,2.2,0.5,4.4,0.9,6.6c0.5,3,1.3,6,1.5,9.1c0.2,2.8,1.2,5.5,0.9,8.4c-0.2,1.8,0.6,3.7,0.4,5.7
		c-0.1,0.8,0,1.5,0.2,2.4c0.9,0.6,2.3,0.3,3.3-0.1c0,0,0,0,0,0c1-0.7,1.6-1.9,1.8-3.1c0.2-3,0-6-0.6-9c-0.6-3.4-1.1-6.9-1.6-10.3
		c-0.5-3.4-1-6.7-1.5-10.1c-0.4-2.7-1-5.3-1.3-8c-0.4-2.8-0.5-5.6-0.7-8.4c-0.1-0.6-0.2-1.3-0.2-1.9c0,0,0,0,0-0.1
		c0-0.1,0-0.1,0-0.2c0,0,0,0,0.1-0.1c0.1-0.2,0.2-0.4,0.5-0.4c0.8,0,1.5,0,2.2,0.4c0.1,0,0.1,0.1,0.2,0.2c0.1,0,0.2,0,0.3,0.1
		c1.4,0.3,2.8,0.7,4.3,0.7c1.8,0,3.5-0.4,5.2-1c0.3-0.3,0.5-0.7,0.5-0.9C100.4,30.5,99.9,29.7,99.4,29.4"/>
	<path style="clip-path:url(#SVGID_2_);" d="M98.8,50.4c-0.2,0.1-0.4,0.2-0.6,0.3c-0.8-2.3-1.7-4.5,0-6.8c0.5,0.6,1.1,1.2,1.6,1.8
		C101.1,47.1,100.6,49.6,98.8,50.4 M111.7,58.5c-0.3-0.3-0.6-0.5-0.9-0.8c-0.1,0-0.2-0.1-0.2-0.1c-2-1.1-3.6-2.7-5-4.4
		c-0.3-0.2-0.5-0.4-0.8-0.7c-0.2-0.2-0.3-0.3-0.4-0.5c-0.1,0-0.1-0.1-0.1-0.2c-0.5-0.4-1-0.9-1.5-1.5c0.2-0.4,0.4-1,0.7-1.6
		c0.5-1.2,0.8-2.4,0.1-3.6c-0.5-0.8-1-1.7-1.5-2.5c-0.4-0.7-0.8-1.1-1.6-1.3c-2-0.5-4.5,0.7-5.2,2.6c-0.3,0.7-0.5,1.5-0.7,2.2
		c-0.2,1-0.5,2-0.4,2.9c0.2,2.2,0.5,4.5,0.8,6.7c0.2,1.8,0.5,3.5,2.3,4.5c0.3,0.2,0.7,0.3,1,0.2c1.1-0.6,1.6-3,1.1-3.8
		c-0.7-1.2-0.7-2.5-0.7-3.9c0.4,0,0.8-0.1,1,0.1c1.6,1,3.2,1.9,4.4,3.5c0.3,0.5,0.8,0.8,1.3,1.2c0.3,0.2,0.7,0.4,0.9,0.7
		c1.2,1.6,3.4,2.4,5.2,1.8C112.1,59.9,112.3,59.1,111.7,58.5"/>
	<path style="clip-path:url(#SVGID_2_);" d="M119.9,56.1c-0.8-2.3-1.6-4.5-2.4-6.7c-0.2-0.5-0.3-0.9-0.6-1.3c-0.6-0.9-2.2-1-3.7-0.6
		c-0.8,0.2-1.6,0.3-1.4,1.3c0,0.1,0.1,0.3,0.1,0.4c0,0.1,0.1,0.2,0.1,0.4c0.4,0.9,0.6,1.9,0.8,2.8c0.2,0.7,0.3,1.5,0.5,2.3
		c0,0.1,0.1,0.2,0.1,0.3c0.7,2.1,1.5,4.2,2.3,6.3c0.2,0.7,0.6,1.3,0.9,2c0.7-0.4,1.4-0.7,1.9-1.2C119.8,60.3,120.7,58.4,119.9,56.1"
		/>
	<path style="clip-path:url(#SVGID_2_);" d="M116.5,25.2c-0.9,1.4-2,2.2-3.5,2.8c-1.5,0.6-2.9,1-4-0.7
		C109.6,25.1,113.4,23.7,116.5,25.2"/>
	<path style="clip-path:url(#SVGID_2_);" d="M123.2,61.4c0.5-0.3,1-0.8,1.5-0.9c0.7-0.1,1.9,1.1,1.6,1.7c-0.2,0.5-0.8,0.9-1.3,1
		C124.5,63.4,123.4,62.3,123.2,61.4"/>
</g>
</svg>
