<?xml version="1.0" encoding="utf-8"?>
<!-- Generator: Adobe Illustrator 19.1.1, SVG Export Plug-In . SVG Version: 6.00 Build 0)  -->
<svg version="1.1" id="Layer_1" xmlns="http://www.w3.org/2000/svg" xmlns:xlink="http://www.w3.org/1999/xlink" x="0px" y="0px"
	 viewBox="0 0 52.7 44.2" style="enable-background:new 0 0 52.7 44.2;" xml:space="preserve">
<style type="text/css">
	.st0{clip-path:url(#SVGID_2_);fill:#CB355B;}
	.st1{clip-path:url(#SVGID_4_);fill:#CB355B;}
	.st2{clip-path:url(#SVGID_6_);fill:#CB355B;}
	.st3{clip-path:url(#SVGID_8_);fill:#CB355B;}
	.st4{clip-path:url(#SVGID_10_);fill:#CB355B;}
	.st5{clip-path:url(#SVGID_12_);fill:#FFFFFF;}
	.st6{clip-path:url(#SVGID_14_);fill:#FFFFFF;}
	.st7{clip-path:url(#SVGID_16_);fill:#FFFFFF;}
	.st8{clip-path:url(#SVGID_18_);fill:#FFFFFF;}
	.st9{clip-path:url(#SVGID_20_);fill:#00819F;}
	.st10{clip-path:url(#SVGID_22_);}
	.st11{clip-path:url(#SVGID_24_);fill:#1D0C06;}
</style>
<g>
	<defs>
		<rect id="SVGID_1_" x="10" y="5.4" width="35.5" height="35"/>
	</defs>
	<clipPath id="SVGID_2_">
		<use xlink:href="#SVGID_1_"  style="overflow:visible;"/>
	</clipPath>
	<path class="st0" d="M44.5,34.2c-0.1,0-0.1,0.1-0.2,0.1c0,0-0.1,0-0.2,0c0,0,0,0-0.1,0c0-0.1-0.1-0.2-0.2-0.1
		c-0.1,0.1-0.1,0.1-0.2,0.2c0-0.1-0.1-0.2-0.3-0.1c0,0,0,0-0.1,0c0-0.1-0.1-0.2-0.1-0.2c0,0,0.1-0.1,0.1-0.1c0,0,0,0,0-0.1
		c0.1,0.1,0.3,0.2,0.4,0.3c0.1,0.1,0.3-0.1,0.2-0.2c-0.2-0.3-0.5-0.6-0.8-0.9c0.1,0,0.1,0,0.1-0.1C43.7,33.4,44.1,33.8,44.5,34.2
		C44.5,34.2,44.5,34.2,44.5,34.2 M42.8,33.2c0-0.1-0.1-0.1-0.1-0.2C42.8,33,42.8,33.1,42.8,33.2C42.9,33.1,42.9,33.1,42.8,33.2
		L42.8,33.2C42.9,33.1,42.9,33.1,42.8,33.2c0.2,0,0.2,0.1,0.3,0.2C43,33.3,42.9,33.2,42.8,33.2 M42.3,34.2c0-0.1-0.1-0.2-0.1-0.3
		c0,0,0.1-0.1,0.1-0.1c0,0,0,0,0,0C42.4,33.9,42.3,34,42.3,34.2 M41.2,37.5c-0.3,0.1-0.5,0.2-0.8,0.4c0.1,0,0.1-0.1,0.2-0.1
		c0,0,0.1,0,0.1,0c0.3-0.3,0.7-0.7,1.1-1c0.1,0,0.3-0.1,0.4-0.1C41.9,36.9,41.5,37.2,41.2,37.5 M39.8,38.7c-0.2,0-0.3,0.1-0.5,0.1
		c0.2-0.1,0.3-0.3,0.5-0.4c0.2-0.1,0.4-0.2,0.7-0.3C40.2,38.4,40,38.5,39.8,38.7 M39,36.9c-0.1-0.1-0.1-0.1-0.2-0.2
		c0.2-0.1,0.3-0.3,0.5-0.4c0.1,0.1,0.1,0.1,0.2,0.1C39.4,36.6,39.2,36.8,39,36.9C39,36.9,39,36.9,39,36.9 M38.9,38
		c-0.1,0-0.3,0-0.4,0.1c0.1-0.1,0.1-0.1,0.2-0.2c0.1,0,0.2,0,0.3,0C39,37.9,39,37.9,38.9,38 M36.4,38.9c0.7-0.2,1.4-0.4,2.2-0.5
		C37.9,38.6,37.2,38.8,36.4,38.9 M38.2,39.6c-0.3,0-0.5,0.1-0.8,0.1c-0.2-0.1-0.3-0.2-0.5-0.2c0.1,0,0.2-0.1,0.3-0.1
		c0.4,0,0.8,0,1.2,0C38.4,39.4,38.3,39.5,38.2,39.6 M35.7,37.9c-0.2,0-0.3,0-0.5,0c0,0,0-0.1-0.1-0.1c-0.3-0.2-0.6-0.4-0.9-0.6
		c0,0,0.1,0,0.1,0c0.3,0.1,0.6,0.2,0.9,0.4c0.1,0.1,0.2-0.2,0.1-0.2c-0.2-0.2-0.4-0.3-0.6-0.5c0-0.1,0-0.2,0-0.3
		c0.1-0.1,0.2-0.1,0.3-0.2c0.1,0.1,0.3,0.1,0.4,0.2c0.1,0,0.2-0.1,0.2-0.1c0.1,0.1,0.2,0.1,0.4,0.2c0,0.1,0.1,0.2,0.1,0.3
		c0.1,0.2,0.2,0.3,0.3,0.4c0,0.1,0.1,0.1,0.1,0.1c0.2,0.1,0.4,0.2,0.6,0.2c0,0-0.1,0.1-0.1,0.1C36.7,37.7,36.2,37.8,35.7,37.9
		 M35,38.4C35,38.4,35,38.4,35,38.4C35,38.4,35.1,38.4,35,38.4c0.2-0.1,0.4,0,0.5,0C35.4,38.4,35.2,38.4,35,38.4 M34.9,39.6
		c0-0.1,0-0.1-0.1-0.2c-0.1-0.1-0.3-0.1-0.4-0.2c0.3,0,0.6,0.1,0.9,0.1c0.1,0,0.1,0.1,0.2,0.1C35.3,39.5,35.1,39.5,34.9,39.6
		 M31.8,36.6c0.2,0.1,0.4,0.1,0.6,0.2c0.2,0.1,0.4,0.3,0.6,0.4c0.1,0.1,0.3-0.1,0.2-0.2c0.1,0,0.3,0.1,0.4,0.1
		c0.4,0.2,0.7,0.5,1.1,0.7c-0.4,0-0.7,0-1.1,0C33,37.4,32.4,37,31.8,36.6 M31.6,37.4c-0.4-0.2-0.8-0.5-1.2-0.8
		c0.6,0.3,1.1,0.6,1.7,0.9C31.9,37.4,31.7,37.4,31.6,37.4 M30.5,37.9c-0.5-0.3-0.9-0.5-1.4-0.8l0.4,0.2
		C29.8,37.4,30.2,37.6,30.5,37.9C30.5,37.8,30.5,37.8,30.5,37.9 M28.7,36.4C28.7,36.4,28.7,36.4,28.7,36.4c0.2,0.1,0.3,0.1,0.4,0.2
		c0.3,0.2,0.5,0.3,0.8,0.5c-0.1,0-0.2-0.1-0.3-0.1C29.3,36.8,29,36.6,28.7,36.4 M28.7,37.6c-0.1,0-0.1,0-0.2,0c0,0,0,0,0,0
		c-0.1-0.2-0.3-0.4-0.5-0.5c0.3,0.2,0.5,0.4,0.8,0.5C28.8,37.6,28.7,37.6,28.7,37.6 M27.5,36.1C27.4,36.1,27.4,36.1,27.5,36.1
		c-0.1,0-0.2,0-0.2,0c0,0,0,0,0,0c-0.1-0.1-0.2-0.2-0.3-0.3c0,0,0.1,0,0.1,0c0,0,0.1,0,0.1,0.1c0.2,0.1,0.4,0.3,0.6,0.4L27.5,36.1z
		 M26.6,35.1c0.2,0.1,0.4,0.3,0.6,0.4c0,0,0,0,0,0c0,0,0,0-0.1,0c-0.1,0-0.1-0.1-0.2-0.1C26.8,35.3,26.7,35.2,26.6,35.1 M28.3,35.1
		C28.3,35.1,28.3,35,28.3,35.1c-0.6-0.3-1.2-0.6-1.7-0.8c-0.1-0.1-0.1-0.1-0.2-0.2C27,34.4,27.7,34.8,28.3,35.1 M24.5,34.1
		c-0.3-0.3-0.6-0.5-0.9-0.8c0.2,0.1,0.3,0.2,0.5,0.3c0.4,0.3,0.7,0.6,1.1,1C24.9,34.4,24.7,34.2,24.5,34.1 M22.7,30.9
		c0-0.1,0.1-0.1,0-0.2c-0.1-0.1-0.1-0.1-0.2-0.2c0.3,0.3,0.7,0.5,1,0.8c0.1,0.3,0.3,0.5,0.5,0.8c-0.1,0-0.1-0.1-0.2-0.1
		C23.4,31.6,23,31.2,22.7,30.9 M20.1,30.8c0.5,0.5,1,1,1.6,1.5c0.2,0.2,0.3,0.5,0.5,0.7C21.5,32.3,20.8,31.6,20.1,30.8 M18.9,27.1
		c0,0,0-0.1,0-0.1c-0.2-0.4-0.5-0.7-0.7-1.1c0,0,0,0,0-0.1c0.2,0.2,0.3,0.4,0.5,0.6c0.5,0.7,1,1.4,1.5,2.1c-0.1-0.1-0.3-0.2-0.4-0.3
		C19.5,27.7,19.2,27.4,18.9,27.1 M17.9,24.7c-0.1-0.1-0.1-0.2-0.2-0.3c-0.1-0.2-0.1-0.3-0.2-0.5c0.1,0.1,0.2,0.3,0.4,0.4
		c0.2,0.3,0.5,0.6,0.7,0.9c-0.2-0.2-0.3-0.4-0.5-0.5C18,24.7,18,24.7,17.9,24.7 M16.8,22.3c-0.1-0.1-0.1-0.2-0.2-0.3
		c-0.1-0.2-0.2-0.4-0.3-0.6c0.5,0.5,0.9,1,1.3,1.5c0.2,0.3,0.3,0.7,0.5,1c-0.2-0.2-0.4-0.4-0.6-0.6c0,0-0.1,0-0.1,0
		C17.3,22.9,17.1,22.6,16.8,22.3 M15.1,18.6c0.2,0.2,0.3,0.4,0.5,0.6c0,0-0.1,0.1-0.1,0.1c-0.1,0.1,0.1,0.3,0.2,0.2c0,0,0,0,0-0.1
		c0.1,0.1,0.1,0.2,0.2,0.3c0,0,0.1,0.1,0.1,0l0.3,0.5c0.1,0.4,0.4,0.9,0.6,1.3c0.1,0.1,0.1,0.2,0.2,0.3c-0.4-0.4-0.8-0.8-1.2-1.2
		C15.8,19.9,15.4,19.2,15.1,18.6 M15.5,20.3c-0.2-0.4-0.5-0.7-0.7-1.1c-0.4-0.7-0.8-1.4-0.9-2.1c0.1,0.2,0.3,0.3,0.4,0.5
		C14.7,18.4,15.2,19.3,15.5,20.3C15.5,20.2,15.5,20.3,15.5,20.3 M13.8,21.3c0,0,0.1,0,0.1-0.1c0,0,0.1,0.1,0.1,0.1c0,0,0,0.1,0,0.1
		c0,0.1,0.1,0.2,0.1,0.3C14.1,21.7,13.9,21.5,13.8,21.3 M12.4,20.5C12.4,20.5,12.4,20.5,12.4,20.5c0.5,0.4,0.9,0.8,1.3,1.2
		c0,0,0,0.1,0,0.1c0.1,0.2,0.2,0.4,0.4,0.6C13.4,21.9,12.9,21.3,12.4,20.5 M12.4,19.9c0.1,0.1,0.2,0.1,0.2,0
		c0.2,0.3,0.3,0.6,0.5,0.8c-0.2-0.2-0.5-0.4-0.7-0.6c0-0.1-0.1-0.3-0.1-0.4C12.3,19.8,12.4,19.8,12.4,19.9 M11.7,14.1
		c-0.1-0.2-0.2-0.4-0.3-0.6c-0.1-0.1-0.2-0.1-0.3,0c-0.1-0.1-0.1-0.1-0.2-0.2c-0.1-0.1-0.3,0-0.2,0.2c0,0-0.1,0-0.1,0
		c0,0,0-0.1,0-0.1c0-0.1,0.1-0.2,0.1-0.2c0,0,0,0,0,0C10.9,13,11,13,11,12.9c0,0,0,0.1,0,0.1c0,0.2,0.2,0.2,0.3,0c0,0,0-0.1,0-0.1
		c0.2,0.5,0.5,1,0.8,1.5C12,14.3,11.8,14.2,11.7,14.1 M11.6,17.2c-0.1-0.4-0.3-0.7-0.4-1.1c0.3,0.5,0.6,1.1,0.8,1.6
		C11.9,17.6,11.7,17.4,11.6,17.2 M11.3,18c0.1,0.1,0.1,0.2,0.2,0.3c0.1,0.2,0.1,0.4,0.2,0.6C11.6,18.6,11.4,18.3,11.3,18 M11.1,14.5
		c0-0.2,0-0.4-0.1-0.5c0,0,0.1,0,0.1,0.1c0.1,0.1,0.2,0.3,0.3,0.4c-0.1,0-0.1,0.1-0.1,0.2c0,0.1,0,0.1,0.1,0.2
		C11.3,14.7,11.2,14.6,11.1,14.5C11.1,14.5,11.1,14.5,11.1,14.5 M11.4,10.8c0.2-0.3,0.5-0.5,0.7-0.8c-0.1,0.3-0.3,0.6-0.4,0.9
		C11.7,10.7,11.5,10.6,11.4,10.8c0,0.1-0.1,0.2-0.1,0.3C11.3,11,11.4,10.9,11.4,10.8 M12.3,13.4C12.3,13.4,12.3,13.3,12.3,13.4
		c0.1,0,0.1,0.1,0.1,0.2c0,0,0,0.1,0,0.1c0,0.3,0.1,0.5,0.1,0.8c-0.3-0.6-0.7-1.3-1-2c0.2-0.2,0.4-0.3,0.6-0.5c0,0.1,0.1,0.1,0.2,0
		c0,0,0.1-0.1,0.1-0.1c-0.1,0.2-0.1,0.5-0.1,0.7c-0.1,0.2-0.2,0.3-0.3,0.5C12,13.4,12.2,13.5,12.3,13.4 M12.5,10.5
		C12.5,10.5,12.5,10.6,12.5,10.5c0.1,0.1,0.2,0,0.2,0c0,0,0,0,0.1-0.1c0.1-0.1,0.1-0.1,0-0.2c0.1-0.1,0.1-0.1,0.2-0.2
		c0.1,0,0.1,0,0.2,0c0.2-0.2,0.3-0.3,0.4-0.5c0,0,0,0,0,0c0,0.1-0.1,0.2-0.1,0.2c-0.1,0.1-0.1,0.1-0.2,0.2c0,0,0,0.1,0,0.2
		c-0.1,0.2-0.2,0.4-0.3,0.6c-0.1,0.1-0.2,0.3-0.3,0.4c-0.4,0.3-0.8,0.7-1.2,1c0-0.1,0-0.1,0.1-0.2c0.2-0.4,0.4-0.9,0.7-1.3
		C12.4,10.6,12.5,10.6,12.5,10.5 M13.6,12.1c-0.1,0.1-0.2,0.1-0.3,0.2c0.1-0.2,0.3-0.3,0.4-0.5C13.6,11.9,13.6,12,13.6,12.1
		 M14,12.2c0.1,0,0.1-0.1,0.2-0.1c-0.1,0.2-0.1,0.4-0.2,0.5c-0.2,0.3-0.4,0.5-0.6,0.8l0.4-1.2C13.8,12.3,13.9,12.3,14,12.2
		 M14.1,11.4c0.2-0.1,0.3-0.2,0.5-0.3c0,0,0,0,0,0c-0.2,0.2-0.3,0.3-0.5,0.5C14.1,11.6,14.1,11.5,14.1,11.4 M16,9.1
		C16,9.1,16,9.1,16,9.1c-0.4,0.4-0.7,0.9-1,1.3c-0.2,0.2-0.4,0.4-0.7,0.6C14.9,10.3,15.4,9.7,16,9.1 M15.3,9
		c0.2-0.2,0.4-0.4,0.7-0.5C15.8,8.7,15.5,8.9,15.3,9C15.3,9.1,15.3,9.1,15.3,9 M16.3,7.6c0.1,0,0.1-0.1,0.2-0.1
		c0.1,0,0.1-0.1,0.1-0.1c0.1-0.1,0.2-0.2,0.3-0.3c0.1,0,0.2,0.1,0.2,0.1c0,0.3,0,0.6,0,0.9c0,0,0,0,0,0c-0.3,0.2-0.5,0.4-0.7,0.7
		c0,0,0,0,0,0c0.1-0.1,0.2-0.3,0.4-0.4c0.1-0.1-0.1-0.3-0.2-0.2c0,0-0.1,0-0.1,0.1c0,0,0,0,0,0c0-0.1-0.1-0.2-0.2-0.1
		c-0.3,0.2-0.6,0.4-0.8,0.6C15.7,8.3,16,7.9,16.3,7.6 M17.1,6C17.1,6,17.1,6,17.1,6C17.1,5.9,17.1,6,17.1,6c0.1,0,0.1,0,0.1,0
		c0.1,0.1,0.2,0.2,0.3,0.3c0,0,0,0,0,0c-0.1,0-0.1-0.1-0.2-0.1c-0.1-0.1-0.2,0-0.2,0.1l0-0.1C17,6.1,17,6.1,17.1,6 M18.7,7.6
		c0,0.1,0,0.1,0,0.2C18.8,7.9,18.9,8,19,8c0,0,0,0,0,0c0.2,0.3,0.4,0.6,0.6,0.8c-0.3-0.3-0.7-0.7-1-1c-0.1-0.1-0.3,0.1-0.2,0.2
		c0.3,0.4,0.7,0.7,1,1.1C19.3,9,19.2,8.9,19,8.7c-0.4-0.4-0.7-0.7-1.1-1.1c0,0-0.1,0-0.1,0c-0.1-0.2-0.3-0.4-0.4-0.6c0,0,0,0,0,0
		c-0.1-0.1-0.1-0.2-0.2-0.3c0.3,0.3,0.6,0.4,1,0.5C18.4,7.3,18.5,7.5,18.7,7.6 M18.7,6.8C18.9,6.9,19,7,19.1,7.1
		c-0.1,0-0.1,0.1-0.1,0.1c-0.2-0.2-0.4-0.4-0.6-0.5C18.5,6.7,18.6,6.8,18.7,6.8 M19.5,7.3c0.9,0.9,1.9,1.9,2.8,2.8
		c0.1,0.1,0.2,0,0.2-0.1c0.2,0.3,0.4,0.5,0.6,0.8c0.1,0.2,0.2,0.4,0.3,0.6c0,0,0,0.1,0,0.1c0,0.1,0.1,0.2,0.1,0.3
		c-0.3-0.3-0.5-0.6-0.8-0.9c-0.4-0.6-0.8-1.1-1.3-1.6c-0.1-0.1-0.2,0-0.2,0.1c-0.6-0.7-1.2-1.4-1.8-2.1C19.4,7.2,19.5,7.3,19.5,7.3
		 M21.8,12.8c0.1-0.3,0.2-0.6,0.2-1c0.1,0.1,0.1,0.1,0.2,0.2c0,0.1,0,0.2,0,0.2c0,0-0.1,0.1-0.1,0.1c0,0-0.1,0-0.1,0
		C22,12.6,21.9,12.7,21.8,12.8 M22.1,15.4c-0.2,0.2-0.4,0.4-0.6,0.6c0-0.2,0.1-0.3,0.1-0.5c0.2-0.3,0.4-0.5,0.7-0.8
		c0.1-0.1,0-0.1,0-0.2c0.2-0.3,0.5-0.6,0.7-0.9c0.1-0.1,0-0.2,0-0.2c0,0,0,0,0,0c0.1-0.1-0.1-0.3-0.2-0.2c-0.1,0.1-0.2,0.2-0.3,0.3
		c0,0-0.1,0-0.1,0c0.1-0.3,0.2-0.6,0.3-0.9c0.1,0,0.2-0.1,0.1-0.3c0,0,0,0,0,0c0,0,0-0.1,0-0.1c0-0.1,0-0.2-0.1-0.2c0,0,0-0.1,0-0.1
		l-0.3-0.3c0-0.2-0.1-0.3-0.1-0.5l0.5,0.5c0,0.1,0.1,0.1,0.2,0c0.2,0.2,0.4,0.4,0.6,0.7C23.5,13.5,22.9,14.5,22.1,15.4 M21.4,13.1
		c0,0,0-0.1,0.1-0.1c0,0,0.1,0,0.1,0.1c0,0,0,0,0.1,0c0,0,0,0,0,0L21.4,13.1C21.5,13.2,21.4,13.1,21.4,13.1 M20.9,15.1
		c-0.2,0.2-0.3,0.4-0.5,0.7c0-0.1,0-0.3,0-0.4c0.2-0.3,0.4-0.6,0.7-0.9c0,0,0,0,0.1,0C21.1,14.7,21,14.9,20.9,15.1 M21.1,16.5
		c-0.2,0.2-0.4,0.4-0.6,0.6c0,0,0-0.1,0-0.1c0-0.1,0.1-0.1,0.1-0.2c0.2-0.3,0.4-0.5,0.6-0.8C21.2,16.2,21.1,16.3,21.1,16.5
		 M20.7,17.7c-0.1,0.1-0.2,0.2-0.2,0.3c0-0.2,0-0.3,0-0.5c0.2-0.1,0.3-0.3,0.4-0.4C20.8,17.3,20.7,17.5,20.7,17.7 M20.5,12.5
		C20.5,12.5,20.5,12.5,20.5,12.5c0,0.1-0.1,0.2-0.1,0.3c0,0.1-0.1,0.1-0.1,0.2c0-0.1,0-0.2,0-0.3C20.3,12.6,20.4,12.5,20.5,12.5
		 M20.8,12.8c0,0.1,0,0.1,0,0.2c-0.1,0.1-0.2,0.2-0.2,0.3c0-0.1,0.1-0.2,0.1-0.3C20.7,12.9,20.7,12.8,20.8,12.8
		C20.8,12.8,20.8,12.8,20.8,12.8 M21.4,11.5C21.4,11.5,21.4,11.5,21.4,11.5C21.4,11.5,21.4,11.5,21.4,11.5
		C21.4,11.5,21.4,11.5,21.4,11.5c-0.2-0.3-0.4-0.5-0.6-0.8c0.3,0.2,0.6,0.5,0.9,0.7c0,0,0.1,0.1,0.1,0.1c0,0.1,0,0.2,0,0.3
		c0,0-0.1,0-0.1,0c-0.2,0.2-0.3,0.4-0.5,0.5c0-0.2,0.1-0.4,0.1-0.5c0-0.1-0.1-0.2-0.2-0.2c0,0,0,0-0.1,0c0-0.1-0.2-0.2-0.3-0.1
		c-0.1,0.1-0.2,0.2-0.3,0.3c0,0,0,0-0.1-0.1c0.1-0.2,0.1-0.4,0.1-0.6c0.2,0.1,0.3,0.3,0.5,0.4c0.1,0,0.1,0.1,0.2,0
		C21.3,11.8,21.5,11.6,21.4,11.5 M20,14.4C20,14.4,20,14.4,20,14.4c0.2-0.2,0.3-0.5,0.5-0.7c0,0.1-0.1,0.2-0.1,0.3
		C20.3,14.1,20.1,14.2,20,14.4 M17.2,20.8c0.3,0.6,0.6,1.1,1,1.7c-0.2-0.3-0.4-0.5-0.6-0.8c-0.2-0.2-0.3-0.5-0.5-0.7c0,0,0,0,0,0
		C17.1,20.9,17.2,20.8,17.2,20.8 M16.8,16.2C16.8,16.2,16.8,16.2,16.8,16.2c0.1,0,0.2,0,0.2,0c0,0,0,0,0,0c0.1,0.2,0.2,0.4,0.2,0.6
		c0,0-0.1,0.1-0.1,0.1C17.1,16.6,16.9,16.4,16.8,16.2 M17,20.4c0,0.1-0.1,0.1-0.1,0.2c-0.1-0.1-0.1-0.2-0.2-0.3
		c-0.1-0.2-0.1-0.3-0.1-0.5C16.7,20,16.9,20.2,17,20.4 M16.4,16.6c0.1-0.1,0.1-0.1,0.2-0.2c0.2,0.2,0.3,0.5,0.4,0.7
		c0,0-0.1,0.1-0.1,0.1c-0.1-0.2-0.2-0.3-0.3-0.5c0-0.1-0.1-0.1-0.2-0.1C16.4,16.7,16.4,16.7,16.4,16.6 M15.9,17.2
		c0.2,0.3,0.3,0.6,0.5,0.9c0,0,0,0,0,0C16.2,17.8,16.1,17.5,15.9,17.2C15.9,17.2,15.9,17.2,15.9,17.2 M16.2,13.5c0,0,0,0.1,0,0.1
		c-0.1,0.1-0.1,0.2-0.2,0.3c0,0,0,0-0.1,0C16.1,13.8,16.1,13.6,16.2,13.5 M16.9,8.8c0,0-0.1,0-0.1,0c-0.2,0.2-0.4,0.4-0.6,0.6
		c0,0,0,0,0,0c0-0.1,0-0.2,0.1-0.2c0.2-0.2,0.4-0.4,0.6-0.6c0,0,0,0,0,0C16.8,8.7,16.9,8.8,16.9,8.8C16.9,8.8,16.9,8.8,16.9,8.8
		 M16.2,10.3c0-0.1,0-0.1,0-0.2c0.2-0.2,0.4-0.5,0.5-0.7c-0.1,0.2-0.1,0.5-0.2,0.7C16.4,10.2,16.3,10.3,16.2,10.3 M17,10.6
		C17,10.6,17,10.6,17,10.6c-0.3,0.3-0.5,0.5-0.7,0.7c0.1-0.2,0.2-0.5,0.3-0.7c0,0,0,0,0,0c0,0,0-0.1,0-0.1c0-0.1,0-0.1,0.1-0.2
		c0.1-0.1,0.2-0.1,0.3-0.2c0,0.1,0,0.2,0,0.3C17.1,10.5,17.1,10.6,17,10.6 M17.1,12C17,12,17,12.1,16.9,12.1
		c0.1-0.1,0.2-0.3,0.3-0.5c0,0,0,0.1,0,0.1C17.1,11.8,17.1,11.9,17.1,12 M16.5,13.2c0-0.1,0-0.1,0-0.2c0,0,0-0.1,0-0.1
		c0.1-0.1,0.2-0.2,0.3-0.3C16.7,12.9,16.6,13.1,16.5,13.2 M16.8,15.6c-0.1,0.1-0.2,0.3-0.3,0.4c0,0,0,0,0,0c0.1-0.2,0.2-0.3,0.3-0.5
		C16.8,15.5,16.8,15.5,16.8,15.6 M17.4,13.3c-0.2,0.3-0.5,0.6-0.7,1c0-0.1,0-0.1,0-0.2c0,0,0.1-0.1,0.1-0.1
		C17,13.8,17.2,13.6,17.4,13.3 M18,9.4c-0.1,0-0.1,0-0.1,0.1c0,0-0.1-0.1-0.1-0.1c-0.1-0.2-0.2-0.3-0.3-0.5C17.6,9,17.8,9.1,18,9.2
		C18.1,9.3,18.1,9.3,18,9.4C18.1,9.4,18.1,9.4,18,9.4 M18.1,11c-0.1-0.1-0.1-0.3-0.2-0.4c0.1-0.1,0.1-0.2,0.2-0.2
		c0.1,0.1,0.2,0.3,0.3,0.4C18.2,10.9,18.2,10.9,18.1,11 M18.8,15.3C18.8,15.3,18.8,15.4,18.8,15.3c-0.1,0.1-0.1,0.2-0.2,0.2
		c0.1-0.2,0.1-0.4,0.2-0.5C18.8,15.1,18.8,15.2,18.8,15.3 M18.8,17.5c0,0.1,0,0.3,0,0.4c0,0-0.1,0-0.1,0c0-0.1,0-0.1-0.1-0.2
		C18.7,17.6,18.7,17.5,18.8,17.5 M18.6,17.1C18.6,17.1,18.6,17.1,18.6,17.1c0-0.2,0.1-0.4,0.1-0.6c0,0,0,0,0,0c0,0.1,0,0.3,0,0.4
		C18.7,17,18.6,17,18.6,17.1 M18.5,18C18.5,18.1,18.5,18.1,18.5,18c-0.1,0.1-0.1,0.2-0.1,0.2c0.1,0.1,0.2,0.3,0.2,0.4c0,0,0,0,0,0.1
		c-0.1-0.2-0.2-0.3-0.3-0.5C18.4,18.2,18.4,18.1,18.5,18 M18.3,15.2c0.1-0.2,0.2-0.4,0.3-0.6c0,0,0,0,0.1,0L18.3,15.2z M18.2,16.4
		c0-0.1-0.1-0.2-0.1-0.3c0-0.1,0.1-0.1,0.1-0.2c0,0,0,0,0,0c-0.1,0.2,0.1,0.2,0.2,0.1c0.1,0,0.1-0.1,0.2-0.1c0,0.1,0,0.1-0.1,0.2
		C18.4,16.3,18.3,16.3,18.2,16.4 M18.3,17.7c0,0.1-0.1,0.1-0.1,0.2c-0.1-0.2-0.1-0.5-0.2-0.7c0,0,0.1-0.1,0.1-0.1
		c0,0.1,0.1,0.2,0.1,0.3c0,0.1,0,0.1,0,0.2C18.2,17.7,18.2,17.7,18.3,17.7 M17.6,14c0.1-0.1,0.1-0.2,0.2-0.3
		c0.2-0.2,0.4-0.4,0.6-0.6c-0.1,0.1-0.1,0.2-0.2,0.4c0,0,0,0,0,0c0,0,0,0,0,0c0,0,0,0,0,0C17.9,13.6,17.8,13.8,17.6,14 M17.6,19
		C17.6,19.1,17.6,19.1,17.6,19c-0.2-0.2-0.3-0.5-0.5-0.8c0,0,0-0.1-0.1-0.1C17.3,18.5,17.5,18.8,17.6,19 M17.3,17.9
		C17.3,17.9,17.3,17.9,17.3,17.9l0.4,0.7c0,0,0,0.1,0,0.1c0,0,0,0,0,0C17.6,18.5,17.5,18.2,17.3,17.9 M17.5,17.3
		C17.5,17.3,17.5,17.4,17.5,17.3c-0.1,0-0.1-0.1-0.2-0.1c0,0,0-0.1,0.1-0.1C17.4,17.1,17.5,17.2,17.5,17.3 M17.4,15.8
		c0,0.2,0.1,0.4,0.1,0.5c0,0,0,0.1-0.1,0.1c-0.1-0.2-0.1-0.3-0.2-0.5C17.3,15.9,17.4,15.9,17.4,15.8 M17.5,14.5
		c-0.1,0.2-0.3,0.4-0.4,0.7c0,0-0.1,0.1-0.1,0.1c0-0.1,0-0.1-0.1-0.2c0-0.1,0.1-0.1,0.1-0.2C17.2,14.8,17.4,14.6,17.5,14.5
		 M17.6,11.5c0.1-0.2,0.1-0.3,0.2-0.5c0,0.1,0.1,0.2,0.1,0.2C17.7,11.3,17.6,11.4,17.6,11.5 M17.4,10.7c0-0.1,0-0.1,0-0.2
		c0-0.1,0.1-0.2,0.1-0.2c0,0.1,0,0.1,0,0.2c0,0,0,0,0,0.1C17.5,10.6,17.4,10.7,17.4,10.7 M18.1,11.7C18.1,11.7,18.2,11.8,18.1,11.7
		c0,0.2,0,0.3-0.1,0.5c-0.2,0.1-0.4,0.3-0.5,0.4c0,0,0-0.1,0-0.1C17.7,12.3,17.9,12,18.1,11.7 M19.5,10.7c-0.2-0.2-0.3-0.5-0.5-0.7
		c0,0,0-0.1,0-0.1c0.1,0.1,0.1,0.1,0.2,0.2c0.1,0.2,0.3,0.4,0.4,0.5C19.5,10.6,19.5,10.7,19.5,10.7 M19.1,14.7
		C19.1,14.6,19,14.6,19.1,14.7c0.1-0.3,0.3-0.6,0.6-1C19.4,14,19.2,14.3,19.1,14.7 M19.8,12.4c0-0.1,0.1-0.2,0.1-0.2
		c0,0,0-0.1,0.1-0.1c0,0,0,0,0,0c0,0,0,0,0,0c0,0.1-0.1,0.2-0.1,0.2C19.9,12.3,19.9,12.4,19.8,12.4 M19.8,14
		C19.8,14,19.8,14,19.8,14c-0.2,0.3-0.3,0.6-0.5,0.8c0,0,0,0,0,0.1C19.5,14.5,19.6,14.2,19.8,14 M20.2,16.3c0,0,0,0.1-0.1,0.1
		c-0.1,0.2-0.2,0.3-0.3,0.5c0,0,0-0.1,0-0.1c0.2-0.3,0.3-0.6,0.4-0.9C20.2,16,20.2,16.2,20.2,16.3 M20.1,19.9c0-0.1-0.1-0.1-0.1-0.2
		c0,0,0,0,0,0c0,0,0.1,0,0.1-0.1c0,0,0,0,0-0.1c0,0,0,0,0,0C20.1,19.7,20.1,19.8,20.1,19.9 M20.1,18.4L20,18.5c0-0.2,0-0.4-0.1-0.6
		c0.1-0.1,0.1-0.1,0.2-0.2C20.1,18,20.1,18.2,20.1,18.4 M20.2,22.5c0.1,0.1,0.1,0.2,0.2,0.4c-0.1-0.1-0.2-0.2-0.3-0.3
		c-0.1-0.1-0.2-0.3-0.3-0.4C20,22.2,20.1,22.3,20.2,22.5 M19.6,19c-0.1-0.1-0.2-0.3-0.3-0.4c0,0,0,0,0,0c0.1-0.1,0.1-0.1,0.2-0.2
		C19.5,18.6,19.5,18.8,19.6,19 M19.1,17.3c0-0.1,0-0.1,0-0.2c0.1-0.2,0.3-0.3,0.4-0.5c0,0,0,0,0,0C19.3,16.8,19.2,17.1,19.1,17.3
		 M19.2,17.7c0.1-0.2,0.2-0.4,0.3-0.6c0,0,0,0.1,0,0.1c-0.2,0.2-0.3,0.5-0.4,0.7C19.1,17.9,19.1,17.8,19.2,17.7
		C19.1,17.8,19.2,17.7,19.2,17.7 M19.5,21.3c-0.1-0.2-0.2-0.4-0.3-0.7c0.1,0.2,0.3,0.5,0.5,0.7c0.1,0.2,0.2,0.3,0.2,0.5
		c-0.1-0.1-0.3-0.2-0.4-0.3C19.5,21.4,19.5,21.3,19.5,21.3 M18.5,11.7c0.1-0.2,0.1-0.3,0.1-0.5c0,0.1,0.1,0.1,0.1,0.2
		c0,0,0,0.1,0,0.1C18.7,11.6,18.6,11.7,18.5,11.7C18.5,11.8,18.5,11.7,18.5,11.7 M19,13.3C19,13.3,19,13.3,19,13.3
		c0,0.1-0.1,0.3-0.2,0.4c-0.1,0.1-0.1,0.2-0.2,0.3c-0.2,0.2-0.4,0.3-0.6,0.5C18.4,14.1,18.7,13.7,19,13.3 M17.5,8l0.2,0.3
		c0,0,0,0,0,0c-0.1-0.1-0.3,0-0.2,0.2c0,0,0.1,0.1,0.1,0.1c-0.1,0-0.1-0.1-0.2-0.1c0-0.3,0-0.6,0-0.9c0,0.1,0.1,0.1,0.1,0.2
		C17.5,7.8,17.5,7.9,17.5,8 M16,12.4c0,0,0,0.1,0,0.1c-0.2,0.3-0.5,0.5-0.7,0.8C15.6,13,15.8,12.7,16,12.4 M15.6,11.4
		c0.1-0.1,0.1-0.3,0.2-0.4c0.1,0,0.1-0.1,0.2-0.1c0,0,0,0.1,0,0.1C15.8,11.1,15.7,11.2,15.6,11.4 M15.7,11.9c0-0.1,0.1-0.2,0.2-0.3
		c0,0,0-0.1,0.1-0.1c0,0,0,0,0,0.1c-0.1,0.2-0.2,0.4-0.3,0.6l-0.3,0.3C15.5,12.2,15.6,12,15.7,11.9 M15,16.1c0.5-0.6,1-1.1,1.5-1.7
		c0,0.1,0,0.1,0.1,0.2c-0.4,0.6-0.9,1.2-1.3,1.8C15.1,16.3,15,16.2,15,16.1 M14.5,16.5c0.1,0.1,0.2,0.2,0.3,0.4c0,0,0,0.1,0,0.2
		l0.2,0.4C14.8,17.2,14.7,16.9,14.5,16.5C14.5,16.6,14.5,16.6,14.5,16.5 M15.1,14.3c-0.2,0.3-0.3,0.6-0.5,0.9c0,0.1,0,0.1,0,0.2
		c0,0.1-0.1,0.1-0.1,0.2c-0.1-0.1-0.2-0.2-0.3-0.4C14.5,14.9,14.8,14.6,15.1,14.3 M13.8,14.8c0-0.1,0.1-0.3,0.2-0.4
		c0.1-0.2,0.3-0.3,0.4-0.5c0,0.1-0.1,0.2-0.1,0.2c0,0,0,0.1,0,0.1c0,0.1-0.1,0.1-0.1,0.2C14,14.5,13.9,14.7,13.8,14.8
		C13.8,14.8,13.8,14.8,13.8,14.8 M13.6,17.9c0.1,0.3,0.2,0.5,0.3,0.8c-0.1-0.2-0.3-0.4-0.4-0.6c-0.1-0.2-0.2-0.3-0.3-0.5
		c0-0.1-0.1-0.1-0.1-0.2C13.3,17.6,13.5,17.7,13.6,17.9 M13.7,15.8C13.7,15.9,13.7,15.9,13.7,15.8c0,0.1-0.1,0.1-0.1,0.1
		c0,0.1,0,0.1,0,0.2c0,0-0.1-0.1-0.1-0.1C13.5,16,13.6,15.9,13.7,15.8 M12.9,13.9c-0.1-0.1-0.1-0.2-0.2-0.3c0-0.2,0-0.3,0-0.5
		c0.2-0.2,0.5-0.4,0.7-0.6C13.2,13,13,13.5,12.9,13.9 M13.2,15.1c0,0,0,0.1,0.1,0.1c0,0.1,0,0.1,0.1,0.2c0,0,0,0.1,0.1,0.1
		c-0.1,0.1-0.1,0.2-0.2,0.3c-0.1-0.1-0.1-0.1-0.2-0.2c0,0,0,0,0,0c0-0.1-0.1-0.1-0.1-0.2C13.1,15.3,13.1,15.2,13.2,15.1 M20.6,25
		c-0.4-0.4-0.8-0.8-1.3-1.2c-0.5-0.8-1-1.7-1.5-2.5c0.6,0.7,1.2,1.5,1.8,2.2c0.2,0.2,0.3,0.4,0.5,0.6c0,0,0,0.1,0,0.1
		C20.3,24.6,20.5,24.8,20.6,25 M21.7,26.6C21.7,26.6,21.7,26.6,21.7,26.6l0.2,0.2c-0.5-0.5-1-1.1-1.5-1.6c0,0,0,0,0,0
		C20.8,25.7,21.3,26.1,21.7,26.6 M21.4,23.5c-0.1,0-0.2,0.1-0.1,0.2c0,0,0,0.1,0.1,0.1c0,0-0.1-0.1-0.1-0.1c0,0-0.1-0.1-0.1-0.1
		c-0.1-0.2-0.2-0.4-0.3-0.6C21,23.2,21.2,23.3,21.4,23.5 M21.9,23c0.1,0.3,0.3,0.5,0.4,0.7c-0.1-0.1-0.2-0.2-0.3-0.3c0,0,0,0,0,0
		c-0.1-0.1-0.2-0.3-0.3-0.4C21.8,23.1,21.8,23,21.9,23 M22.8,24.9l0.1,0.2c-0.2-0.2-0.4-0.4-0.6-0.7c-0.1-0.1-0.1-0.1-0.2,0
		c-0.1-0.2-0.3-0.4-0.4-0.6C22.1,24.1,22.4,24.5,22.8,24.9 M22.6,28.6C22.6,28.6,22.6,28.6,22.6,28.6c0.1,0,0.2,0.1,0.4,0.1
		c0,0,0.1,0.1,0.1,0.1c0,0.1,0.1,0.1,0.1,0.2C23,28.9,22.8,28.8,22.6,28.6 M23.2,30.6c-0.5-0.4-1-0.7-1.5-1.1c0,0,0,0-0.1-0.1
		C21.7,29.5,22.6,30.2,23.2,30.6 M21.1,26.5c0.5,0.6,1,1.2,1.5,1.7c-0.1,0-0.2-0.1-0.3-0.1c-0.2-0.2-0.3-0.4-0.5-0.7
		c0,0,0-0.1,0-0.1C21.5,27.1,21.3,26.8,21.1,26.5 M19.1,24.7c-0.1-0.2-0.2-0.4-0.3-0.6c0.5,0.6,1,1.3,1.5,1.9
		C19.8,25.6,19.4,25.2,19.1,24.7 M21.6,30.1c-0.4-0.4-0.8-0.7-1.1-1.1c0,0,0,0-0.1-0.1c0.2,0.2,0.4,0.3,0.6,0.5c0,0,0.1,0.1,0.1,0.1
		c0,0,0,0,0,0C21.3,29.7,21.4,29.9,21.6,30.1 M21.4,29.2c-0.7-0.9-1.5-1.8-2.2-2.7c0,0,0,0,0,0c0.2,0.2,0.4,0.3,0.6,0.5
		c0.7,0.8,1.5,1.6,2.2,2.3C21.8,29.2,21.6,29.1,21.4,29.2 M22.9,23.8c0.3,0.4,0.6,0.8,1,1.2c-0.4-0.3-0.7-0.6-1.1-1
		c0-0.1-0.1-0.1-0.1-0.2C22.7,23.9,22.8,23.9,22.9,23.8 M24.7,26.9c-0.1,0-0.1,0-0.2,0c-0.3-0.3-0.5-0.6-0.8-0.9
		c-0.1-0.1-0.1-0.2-0.2-0.4c0.4,0.5,0.9,0.9,1.3,1.4C24.8,26.9,24.7,26.9,24.7,26.9 M25,29.7c0.1,0.1,0.3,0.2,0.4,0.4
		c0.3,0.3,0.6,0.7,0.9,1c-0.1-0.1-0.2-0.1-0.3-0.2c-0.2-0.2-0.4-0.3-0.6-0.5c-0.1-0.1-0.2,0-0.2,0c-0.3-0.2-0.5-0.5-0.8-0.7
		c-0.1,0-0.1-0.1-0.2-0.1c0,0-0.1-0.1-0.1-0.1c0.1,0,0.2-0.2,0.1-0.2c-0.2-0.2-0.4-0.4-0.6-0.6c0,0,0,0,0,0c0.4,0.4,0.8,0.7,1.2,1
		C24.9,29.7,24.9,29.7,25,29.7 M25.3,28.5c0.1,0.1,0.2,0.3,0.4,0.4c0.2,0.2,0.3,0.5,0.5,0.7c-0.1-0.1-0.2-0.1-0.3-0.2
		c-0.3-0.4-0.7-0.7-1-1.1C25,28.4,25.1,28.4,25.3,28.5 M26.6,28.7c-0.3-0.1-0.5-0.3-0.8-0.4c-0.2-0.2-0.4-0.5-0.6-0.7
		C25.7,28,26.1,28.4,26.6,28.7 M27.4,30.6C27.4,30.6,27.4,30.6,27.4,30.6c-0.1-0.1-0.2-0.1-0.4-0.2c0,0,0,0,0-0.1
		c-0.1-0.1-0.2-0.3-0.3-0.4C26.9,30.2,27.2,30.4,27.4,30.6 M27.4,29.8c0.2,0.2,0.3,0.4,0.5,0.6c-0.1,0-0.1,0.1-0.1,0.1l-1-1.1
		C27,29.6,27.2,29.7,27.4,29.8 M28,28.8c0.1,0,0.1,0,0.2,0c0.1,0.1,0.2,0.1,0.3,0.2c0,0,0,0.1,0,0.1c0.5,0.4,1,0.8,1.5,1.1
		c-0.1,0-0.1,0.2,0,0.3c0.1,0.1,0.2,0.1,0.3,0.2c-0.7-0.4-1.4-0.8-2.2-1.2c-0.1-0.1-0.2-0.1-0.3-0.2c0.2,0.1,0.4,0.2,0.6,0.3
		c0.1,0.1,0.3-0.1,0.2-0.2c-0.4-0.3-0.9-0.7-1.3-1C27.5,28.5,27.7,28.7,28,28.8 M33.9,33.2c-0.3-0.1-0.7-0.2-1-0.3
		c-0.1-0.1-0.3-0.2-0.4-0.3c0,0,0-0.1,0-0.1c0-0.1-0.1-0.1-0.1-0.2C32.9,32.6,33.4,32.9,33.9,33.2 M34.1,31.3c0,0.1,0.2,0.1,0.2,0.1
		c0.1-0.1,0.3-0.2,0.4-0.3c0.1,0,0.1,0,0.2-0.1c-0.3,0.3-0.5,0.5-0.8,0.8c0,0,0,0.1,0,0.2c-0.3,0-0.7,0-1-0.1
		C33.4,31.6,33.8,31.4,34.1,31.3 M35.7,31c0.1,0,0.1-0.1,0.1-0.1c0,0,0-0.1,0-0.1c0,0,0,0,0,0l0.2-0.1c0,0,0.1,0,0.1,0
		c-0.4,0.4-0.8,0.8-1.2,1.2c-0.2,0-0.4,0.1-0.5,0.1c0.4-0.3,0.7-0.6,1.1-0.8C35.6,31,35.6,31,35.7,31 M35.8,28.9
		c0.2-0.1,0.4-0.1,0.6-0.2c-0.3,0.2-0.5,0.4-0.8,0.6c0.1-0.1,0-0.2,0-0.2C35.7,29,35.7,28.9,35.8,28.9 M36.4,28
		c0.1-0.1,0.2-0.2,0.3-0.3c0,0,0,0.1,0.1,0.1c0.5,0.1,0.9,0.2,1.3,0.3c0,0,0,0,0,0.1c-0.6,0-1.3,0.1-2,0.3c0,0,0,0,0,0
		c0.1-0.1,0.2-0.2,0.2-0.2C36.5,28.1,36.4,28,36.4,28 M38.9,28c-0.2-0.1-0.4-0.2-0.7-0.2c-0.1-0.1-0.2-0.3-0.3-0.4
		C38.3,27.6,38.6,27.8,38.9,28 M36.8,31.5c0.2-0.2,0.4-0.3,0.7-0.5c0,0,0,0,0,0c-0.3,0.3-0.7,0.5-1,0.8
		C36.5,31.7,36.7,31.6,36.8,31.5 M36.4,29.3c0.2-0.2,0.5-0.5,0.7-0.7c0,0,0,0,0,0c0.1,0,0.2,0,0.3,0C37,28.7,36.7,29,36.4,29.3
		C36.4,29.3,36.4,29.3,36.4,29.3 M37.7,28.6c0.1-0.1,0.1-0.1,0-0.2c0.2,0,0.5,0,0.7,0c0.1,0.1,0.2,0.2,0.4,0.3
		c-0.6,0.5-1.2,1.1-1.8,1.6c0,0,0-0.1,0-0.1l1.4-1.3c0.1-0.1,0-0.3-0.2-0.2c-0.7,0.5-1.5,1.1-2.2,1.6c0,0,0,0,0,0
		C36.5,29.8,37.1,29.2,37.7,28.6 M35.2,33.1c0.5-0.4,1-0.7,1.5-1.1c-0.4,0.4-0.7,0.9-1.1,1.3C35.4,33.2,35.3,33.2,35.2,33.1
		 M34.8,33.4C34.8,33.4,34.8,33.3,34.8,33.4c0.2,0.1,0.3,0.1,0.5,0.2c0,0,0,0-0.1,0.1C35.1,33.5,34.9,33.4,34.8,33.4 M34.2,33.8
		c0.1,0,0.1-0.1,0.2-0.1c0.1,0,0.2,0.1,0.4,0.1c0.1,0,0.1,0,0.1,0c0,0,0.1,0,0.1,0.1c-0.1,0.1-0.2,0.2-0.3,0.3c0,0,0-0.1-0.1-0.1
		c-0.1,0-0.1-0.1-0.2-0.1L34.2,33.8z M34.2,32.5l-0.6-0.4c0.3,0,0.7,0,1.1,0C34.5,32.2,34.3,32.4,34.2,32.5
		C34.2,32.5,34.2,32.5,34.2,32.5 M33.8,35.9c0.1,0,0.3,0,0.4,0c0,0,0,0,0.1,0c0,0.1,0.1,0.2,0.1,0.3c0,0.1,0,0.1,0,0.2
		C34.2,36.2,34,36,33.8,35.9 M33.4,35.9c0.3,0.3,0.7,0.6,1,0.9c0,0-0.1,0.1-0.1,0.1c-0.4-0.2-0.9-0.4-1.3-0.5
		c-0.2-0.1-0.4-0.3-0.5-0.4C32.8,35.9,33.1,35.9,33.4,35.9 M31.4,33.7c0.3,0.1,0.5,0.1,0.8,0.2c0.4,0.2,0.7,0.5,1,0.8
		c-0.3,0-0.5-0.1-0.8-0.2c0,0-0.1-0.1-0.1-0.1c-0.1-0.1-0.2-0.1-0.2,0C31.8,34.2,31.6,33.9,31.4,33.7 M31.3,34.9
		c-0.1-0.1-0.2-0.1-0.3-0.2c0.3,0.1,0.7,0.1,1,0.2c0,0,0,0,0.1,0C31.8,34.9,31.6,34.9,31.3,34.9 M30.1,35.8c0.3,0,0.6,0,0.8,0
		c0.3,0.2,0.5,0.3,0.8,0.5C31.1,36.1,30.6,36,30.1,35.8 M30,36c0.3,0.1,0.6,0.2,0.9,0.3c0,0,0,0.1,0,0.1c0,0,0,0,0,0c0,0,0,0,0,0
		c0.2,0.1,0.3,0.3,0.5,0.4c-0.7-0.3-1.4-0.7-2.1-1C29.6,35.9,29.8,36,30,36 M29.8,31.7C29.8,31.7,29.8,31.7,29.8,31.7
		c-0.1,0.1-0.1,0.1-0.2,0.1c-0.2-0.3-0.4-0.5-0.6-0.8c0,0,0,0,0.1,0c0.1,0,0.1,0,0.2,0c0.3,0.2,0.5,0.3,0.8,0.5
		C30.1,31.5,29.9,31.6,29.8,31.7 M29.7,34.5c-0.3-0.2-0.6-0.4-0.9-0.7c0,0,0,0,0,0c-0.1-0.1-0.2-0.2-0.3-0.3
		c0.3,0.2,0.6,0.4,0.8,0.6C29.4,34.3,29.5,34.4,29.7,34.5 M29,33.4C29,33.3,28.9,33.3,29,33.4c0,0,0.2,0.1,0.3,0.2
		c0.3,0.2,0.5,0.5,0.8,0.7C29.7,34,29.4,33.7,29,33.4 M30.7,33.9c-0.3-0.2-0.7-0.4-1-0.6c0.1,0,0.2,0.1,0.3,0.1
		C30.3,33.5,30.5,33.7,30.7,33.9 M30.4,34.1C30.4,34,30.4,34,30.4,34.1c0.1,0,0.3,0.1,0.4,0.2c-0.1,0-0.3,0-0.4,0c0,0,0,0,0,0
		C30.5,34.2,30.5,34.1,30.4,34.1 M30.4,31.7c0.1,0,0.3,0,0.4,0l1.1,0.8c-0.5-0.2-1-0.4-1.5-0.6C30.2,31.9,30.1,31.8,30.4,31.7
		 M31.7,31c0,0,0,0.1,0,0.1c0,0-0.1,0-0.1,0c-0.3-0.2-0.5-0.3-0.8-0.5C31,30.8,31.3,30.9,31.7,31 M27.9,30.7c0.1,0,0.2,0,0.3,0.1
		c0.1,0.1,0.2,0.2,0.3,0.3C28.3,31,28.1,30.9,27.9,30.7C27.9,30.8,27.9,30.7,27.9,30.7 M27.8,31.4c-0.1-0.1-0.2-0.2-0.3-0.3
		c0.7,0.5,1.4,1,2.1,1.4c-0.2,0-0.4-0.1-0.5-0.1c-0.2-0.1-0.4-0.2-0.6-0.4C28.2,31.8,28,31.6,27.8,31.4 M24.2,30.5
		c-0.2-0.2-0.4-0.5-0.6-0.7c0,0,0,0,0,0c-0.1-0.1-0.1-0.1-0.2-0.2c0.4,0.3,0.8,0.7,1.2,1C24.4,30.6,24.3,30.5,24.2,30.5 M26.8,33.6
		c-0.6-0.3-1.1-0.6-1.7-0.9c0,0,0-0.1,0-0.1c-0.1-0.1-0.2-0.3-0.3-0.4c0.6,0.4,1.3,0.9,1.9,1.3C26.8,33.5,26.8,33.5,26.8,33.6
		 M25.8,32.2c-0.2-0.2-0.4-0.4-0.6-0.5c-0.3-0.3-0.5-0.5-0.8-0.8c0.2,0,0.3,0.1,0.5,0.2c0.7,0.9,1.5,1.6,2.4,2.3
		c0.3,0.3,0.6,0.7,0.9,1c0,0-0.1,0-0.1-0.1C27.3,33.6,26.6,32.9,25.8,32.2 M29.2,35.2c-0.3-0.4-0.6-0.7-0.9-1.1
		c0.4,0.3,0.8,0.5,1.2,0.8c0,0,0.1,0.1,0.1,0.1c0,0,0,0,0,0c-0.2,0-0.2,0.3,0,0.3c0.2,0,0.3,0,0.5,0c0.1,0,0.1,0.1,0.2,0.1l-1,0
		c0,0-0.1-0.1-0.1-0.1C29.3,35.3,29.3,35.2,29.2,35.2 M39.3,29.9c0.1-0.1,0.3-0.3,0.4-0.5c0.1,0.1,0.2,0.1,0.4,0.2l0.8,1.2
		c-0.1-0.1-0.2-0.1-0.3-0.2c0-0.1-0.1-0.2-0.3-0.1c0,0-0.1,0.1-0.1,0.1c-0.1,0-0.1-0.1-0.2-0.1c0.1-0.1-0.1-0.3-0.2-0.2
		c-0.2,0.2-0.4,0.3-0.6,0.5c0,0-0.1,0-0.1,0c-0.9,0.8-1.9,1.5-2.8,2.3c-0.2,0.1-0.4,0.3-0.5,0.4c0,0,0,0,0,0
		c1.2-1.1,2.3-2.3,3.5-3.4C39.3,30,39.3,29.9,39.3,29.9 M41.6,32.1c-0.1,0-0.1,0.1-0.1,0.1c0,0-0.1,0-0.1-0.1c0-0.1-0.1-0.2-0.2-0.2
		c-0.1-0.1-0.2-0.1-0.3-0.2c0.1-0.1-0.1-0.3-0.2-0.2c0,0,0,0,0,0c-0.1-0.1-0.2,0.1-0.2,0.2c-0.1,0.1-0.1,0.1-0.2,0.2
		c0,0-0.1,0-0.1-0.1c0.2-0.2,0.4-0.3,0.5-0.5C41,31.6,41.3,31.8,41.6,32.1 M41.4,32.9c-0.1-0.1-0.2-0.2-0.3-0.3
		c0.1-0.1,0.1-0.1,0.2-0.2c0.1,0.1,0.3,0.2,0.4,0.3C41.5,32.8,41.5,32.8,41.4,32.9 M40.8,32.8L40.8,32.8c0.1,0.1,0.2,0.2,0.3,0.3
		c-0.1,0-0.1,0.1-0.2,0.1C41,33.1,40.9,32.9,40.8,32.8 M40.5,32.2c0.1-0.1,0.1-0.1,0.2-0.2c0.1,0,0.1,0.1,0.2,0.1
		c-0.1,0.1-0.2,0.1-0.3,0.2C40.6,32.3,40.5,32.2,40.5,32.2C40.5,32.2,40.5,32.2,40.5,32.2 M39.7,34.3c0-0.1,0-0.1,0-0.2
		c0.1-0.2,0.3-0.4,0.4-0.6c0.1-0.1,0.3-0.3,0.4-0.4c0.1,0.1,0.1,0.3,0.1,0.4C40.4,33.8,40.1,34,39.7,34.3 M39.9,35.8
		c0,0.1,0,0.1,0,0.2c-0.1,0.1-0.2,0.2-0.3,0.3c-0.1,0-0.1-0.1-0.2-0.1C39.7,36,39.8,35.9,39.9,35.8 M40.2,31
		c0.1,0.1,0.2,0.1,0.3,0.2c-0.2,0.2-0.4,0.4-0.6,0.5c-0.1,0-0.3-0.1-0.4,0C39.7,31.4,40,31.2,40.2,31 M39.1,31.5c-0.1,0-0.1,0-0.2,0
		c0.3-0.3,0.7-0.6,1-0.8c0.1,0,0.1,0.1,0.2,0.1C39.7,31,39.4,31.3,39.1,31.5 M37.9,32.4c0.1-0.2,0.3-0.4,0.5-0.5
		c0.1-0.1,0.3-0.1,0.4-0.2C38.5,32,38.2,32.2,37.9,32.4 M38.1,33.2C38.1,33.2,38.1,33.2,38.1,33.2c0-0.1,0-0.2,0.1-0.2
		c0.1-0.1,0.3-0.2,0.4-0.3c0.1-0.1,0.1-0.1,0-0.2c0,0,0,0,0,0c0.1-0.1,0.2-0.2,0.4-0.3c0.1-0.1,0.2-0.1,0.3-0.1c0,0,0,0.1,0,0.1
		C39,32.5,38.6,32.9,38.1,33.2 M38.9,33.7c0.1-0.1,0.2-0.2,0.3-0.3c0,0.1-0.1,0.2-0.1,0.3C39,33.7,39,33.7,38.9,33.7
		C38.9,33.7,38.9,33.7,38.9,33.7 M38.5,36.1c0,0-0.1,0.1-0.1,0.1c0,0,0,0-0.1-0.1c0.1-0.2,0.3-0.4,0.4-0.6c0,0,0.1-0.1,0.1-0.1
		c0,0.1,0,0.1,0.1,0.2C38.8,35.8,38.6,36,38.5,36.1 M38.3,37.2c0.1,0.1,0.2,0.1,0.4,0.1c0,0,0,0,0,0c-0.1,0-0.2,0-0.2,0
		C38.4,37.3,38.3,37.3,38.3,37.2C38.2,37.2,38.2,37.2,38.3,37.2 M38,35.5c0-0.1-0.1-0.2-0.1-0.3c0.2-0.2,0.3-0.3,0.5-0.5
		c0.2-0.1,0.3-0.2,0.5-0.4c0,0.1,0,0.2,0,0.3C38.5,34.9,38.2,35.2,38,35.5 M38.1,38c0,0-0.1,0.1-0.1,0.1c0,0,0,0-0.1,0
		c-0.1,0-0.3,0-0.4,0C37.7,38,37.9,38,38.1,38 M37.5,36.6C37.6,36.6,37.6,36.6,37.5,36.6c0,0.1-0.1,0.2-0.1,0.3c0,0-0.1,0-0.1-0.1
		C37.4,36.7,37.5,36.7,37.5,36.6 M37.6,35.9c0,0-0.1,0.1-0.1,0.1c0-0.1-0.1-0.2-0.1-0.2c0,0,0.1,0,0.1,0
		C37.5,35.8,37.6,35.9,37.6,35.9 M37.3,33.9C37.3,33.9,37.3,33.8,37.3,33.9c0.1-0.2,0.3-0.3,0.4-0.4c0,0,0,0.1,0,0.1
		C37.5,33.7,37.4,33.8,37.3,33.9 M37.5,34.6C37.5,34.6,37.5,34.7,37.5,34.6c-0.1,0.2-0.2,0.3-0.3,0.4c0-0.1,0-0.1,0-0.2
		C37.3,34.8,37.4,34.7,37.5,34.6 M37.1,36c0,0.1,0.1,0.2,0.1,0.3c-0.1,0.1-0.2,0.3-0.4,0.4c-0.1,0-0.2-0.1-0.3-0.1
		C36.8,36.3,37,36.2,37.1,36 M35.9,34.4C35.9,34.4,35.8,34.4,35.9,34.4c0-0.1,0.1-0.2,0.2-0.3c0,0,0.1-0.1,0.1-0.1c0,0,0.1,0,0.1,0
		c0,0,0,0,0,0C36.2,34.2,36,34.3,35.9,34.4 M36.6,35.8c0,0.1,0.1,0.2,0.1,0.2c-0.1,0.1-0.2,0.2-0.3,0.3c-0.1-0.1-0.1-0.1-0.2-0.2
		c0-0.1,0-0.2,0-0.3C36.3,35.8,36.5,35.8,36.6,35.8 M40,35C40,35,40,35,40,35c0.3-0.3,0.6-0.7,0.9-1c0,0,0,0.1,0,0.1
		c0,0.1,0,0.1,0,0.2C40.6,34.5,40.3,34.8,40,35 M40.3,36.2c0-0.1,0-0.2,0-0.2c0.2-0.2,0.4-0.4,0.6-0.7c0,0.2-0.1,0.4-0.2,0.5
		C40.6,36,40.5,36.1,40.3,36.2 M40.2,35.5c0.2-0.2,0.4-0.3,0.5-0.5c-0.2,0.2-0.3,0.4-0.5,0.6C40.2,35.6,40.2,35.5,40.2,35.5
		 M40.4,36.8c0.1-0.1,0.2-0.1,0.2-0.2c0,0,0.1,0,0.1,0l-0.6,0.5C40.2,37,40.3,36.9,40.4,36.8 M41.6,34.6c0,0.2-0.1,0.5-0.2,0.7
		c-0.1,0-0.1,0.1-0.2,0.1c0-0.1,0-0.1,0.1-0.2C41.3,35,41.4,34.8,41.6,34.6C41.5,34.6,41.5,34.6,41.6,34.6 M41.2,34.1
		c0-0.1,0-0.3-0.1-0.4c0.1-0.1,0.2-0.2,0.2-0.3c0.1,0.1,0.1,0.3,0.2,0.4C41.5,33.9,41.3,34,41.2,34.1 M41.7,33.1l0.1,0.5
		c0,0,0,0-0.1,0.1c-0.1-0.1-0.1-0.3-0.2-0.4C41.6,33.2,41.7,33.1,41.7,33.1 M42.1,32.4C42.1,32.4,42.1,32.4,42.1,32.4
		c0.1,0.1,0.1,0.2,0.2,0.2c0,0,0,0,0,0c0,0,0,0.1,0.1,0.1c-0.1-0.1-0.2-0.1-0.3-0.2c-0.1-0.1-0.2-0.3-0.3-0.4
		C41.9,32.3,42,32.4,42.1,32.4 M45.5,34.5C45.5,34.5,45.5,34.5,45.5,34.5L45.5,34.5C45.5,34.5,45.5,34.5,45.5,34.5
		c-0.1-0.2-0.2-0.3-0.3-0.4c0.1,0,0.1-0.1,0-0.2c0-0.1-0.1-0.1-0.1-0.2c0.1,0,0.2-0.1,0.1-0.2c-0.2-0.2-0.4-0.4-0.5-0.7c0,0,0,0,0,0
		c0,0,0-0.1-0.1-0.1c-1-1.2-2-2.3-3.1-3.4c-0.1-0.1-0.3,0-0.3,0.1c-0.1-0.1-0.2-0.2-0.3-0.2c-0.1-0.1-0.2-0.2-0.3-0.3
		c-0.1-0.1-0.2-0.1-0.3,0c0,0,0,0,0,0c-0.1-0.1-0.2-0.3-0.3-0.4c0-0.1,0-0.1,0-0.2c0.2,0.2,0.5,0.5,0.7,0.7c0.1,0.1,0.3,0,0.2-0.1
		c-0.2-0.6-0.5-1-1-1.4c-0.1-0.1-0.2,0-0.2,0.1c0,0,0,0,0,0c-0.3-0.2-0.6-0.5-1-0.7c-0.2-0.1-0.3,0.1-0.2,0.2c0.3,0.3,0.5,0.6,0.8,1
		c-0.6-0.5-1.3-1-1.9-1.4c-0.1-0.1-0.3,0-0.2,0.2c0.1,0.2,0.2,0.5,0.3,0.7c-0.3-0.1-0.6-0.1-0.9-0.2c0,0,0.1,0,0.1-0.1
		c0.1-0.1-0.1-0.3-0.2-0.2c0,0-0.1,0.1-0.1,0.1c0-0.1-0.1-0.2-0.2-0.1c-0.8,0.7-1.6,1.5-2.4,2.2c0,0,0,0.1,0,0.1
		c0,0.1,0.1,0.2,0.3,0.1l0.1,0c0,0,0,0,0,0c-0.4,0.4-0.8,0.7-1.2,1.1c0,0-0.1,0.1,0,0.1C33,31,32.9,31,32.8,31.1
		c-0.2-0.1-0.5-0.2-0.7-0.3c0,0,0,0,0,0c0,0,0,0,0,0c0,0-0.1,0-0.1,0c-1.5-0.8-2.6-2.2-4.2-2.8c-0.1,0-0.1,0-0.2,0.1
		c0,0-0.1,0-0.1-0.1c-0.2-0.1-0.4-0.3-0.6-0.4c-0.1-0.1-0.3-0.2-0.4-0.3c-1.2-1.5-2.4-3.1-3.7-4.6c-0.1-0.1-0.2,0-0.2,0
		c-0.3-0.3-0.5-0.5-0.8-0.8c0,0,0,0,0,0c-0.1-0.1-0.2-0.2-0.2-0.3c-0.1-0.2-0.2-0.4-0.3-0.6c0-0.7-0.1-1.4-0.3-2.1
		c-0.1-0.2-0.3-0.1-0.3,0.1c0.2,0.5,0.2,0.9,0.3,1.4c-0.1-0.3-0.3-0.5-0.4-0.8c0-0.2,0-0.4,0-0.5c0.2-0.3,0.3-0.7,0.5-1
		c0.9-1.2,1.8-2.5,2.7-3.7c0.1-0.1,0-0.2-0.1-0.2c0.2-0.5,0.4-0.9,0.4-1.5c0.1,0,0.1-0.1,0-0.2c0,0,0,0,0,0c0,0,0,0,0,0c0,0,0,0,0,0
		c0,0,0,0,0,0c0.1,0.2,0.2,0.3,0.3,0.5c0.1,0.2,0.3,0,0.3-0.1c-0.2-0.4-0.4-0.7-0.6-1.1c0,0,0-0.1,0-0.1c-0.6-1-1.2-2.1-1.7-3.1
		c-0.1-0.2-0.3,0-0.3,0.2c0.1,0.2,0.2,0.4,0.3,0.6c-0.7-0.9-1.5-1.8-2.4-2.6c-0.1-0.1-0.3,0.1-0.2,0.2c0.2,0.3,0.4,0.5,0.6,0.8
		c0,0-0.1-0.1-0.2-0.1c-0.1-0.1-0.3-0.2-0.4-0.3c0,0,0-0.1,0-0.1c-0.3-0.3-0.5-0.5-0.8-0.7c0,0,0,0,0,0c0,0-0.1,0-0.1,0
		c-0.5-0.3-1.1-0.5-1.7-0.6c0,0-0.1,0-0.1-0.1c-0.1,0-0.1,0-0.2,0c-0.1,0-0.2,0-0.2,0c-0.1,0-0.2,0.1-0.1,0.2
		c0.1,0.1,0.1,0.2,0.2,0.4c-0.2,0.2-0.5,0.4-0.7,0.6c0-0.1-0.1-0.2-0.2-0.2c-0.2,0.1-0.4,0.3-0.6,0.4c0,0-0.1,0-0.2,0
		c-0.2,0.1-0.3,0.2-0.5,0.3c0-0.1,0.1-0.1,0.1-0.2L15,6.6c0.1-0.1,0-0.2,0-0.2c0.1-0.1,0.2-0.2,0.3-0.3c0.1-0.1-0.1-0.3-0.2-0.2
		c-0.3,0.3-0.6,0.7-0.9,1c-0.5,0.4-1,0.8-1.5,1.2c-0.1,0.1,0,0.3,0.2,0.2C13,8.1,13.2,8,13.4,7.9c-0.2,0.2-0.4,0.5-0.6,0.7
		c0-0.1-0.2-0.1-0.2,0c-0.6,0.5-1,1.2-1.4,1.9c-0.1,0.2-0.3,0.4-0.4,0.6c-0.1,0.1,0,0.2,0.1,0.2c-0.1,0.2-0.1,0.3-0.2,0.5
		c0,0.1,0.1,0.2,0.2,0.2c-0.1,0.3-0.2,0.5-0.3,0.8c-0.1-0.1-0.2-0.1-0.3,0.1c-0.1,0.4-0.2,0.8-0.3,1.2c0,0.2,0.2,0.3,0.3,0.1
		c0,0,0-0.1,0-0.1c0,0.1,0.1,0.1,0.1,0.2c0,0.1,0,0.1,0.1,0.2c-0.1-0.1-0.3,0-0.2,0.2c0.2,0.7,0.5,1.4,0.8,2.1
		c-0.1-0.1-0.2-0.3-0.3-0.4c0,0,0,0-0.1,0c0-0.1-0.1-0.2-0.1-0.3c-0.1-0.2-0.3,0-0.3,0.1c0.3,1.2,0.8,2.4,1.4,3.5
		c-0.1,0-0.2,0.1-0.1,0.2c0.7,1.4,1.7,2.6,2.9,3.6c0.6,1.1,1.4,2.1,2.1,3c0,0.1,0.1,0.1,0.2,0c0,0,0,0,0,0c0,0,0,0.1,0,0.1
		c0.1,0.1,0.2,0.2,0.3,0.3c0,0,0,0.1,0,0.1c0.6,0.7,1.2,1.5,1.8,2.2c-0.1-0.1-0.2-0.2-0.3-0.3c-0.1-0.1-0.3,0-0.2,0.2
		c1.4,1.9,2.9,3.6,4.6,5.2c0.1,0.1,0.3,0,0.2-0.2c-0.1-0.1-0.1-0.2-0.2-0.3c0.7,0.8,1.5,1.5,2.4,2.2c0.1,0.1,0.3-0.1,0.2-0.2
		c-0.3-0.3-0.7-0.7-1-1c1.2,1,2.4,2,3.7,3c0.1,0.1,0.2,0,0.2,0c0,0,0,0,0.1,0.1c0.1,0.1,0.3,0.1,0.4,0.2c0,0,0,0,0.1,0
		c0.2,0.1,0.5,0.2,0.7,0.2c0.5,0.4,1,0.7,1.5,1.1c0.2,0.1,0.3-0.1,0.1-0.3c-0.2-0.2-0.4-0.3-0.7-0.5c0.1,0,0.1,0,0.2,0
		c0.4,0.2,0.8,0.4,1.2,0.5c0,0,0,0,0,0v0c0,0,0,0,0,0c0.1,0,0.2,0,0.2-0.1c0.7,0.2,1.4,0.4,2.2,0.6c-0.3,0.1-0.6,0.1-0.9,0.1
		c-0.2,0-0.1,0.3,0.1,0.3c0.8-0.1,1.5-0.3,2.2-0.4c0.4,0.1,0.8,0.2,1.2,0.3c0.3,0.1,0.5,0.2,0.8,0.3c0.1,0,0.1,0,0.1,0c0,0,0,0,0,0
		c0.2-0.1,0.5-0.2,0.7-0.4c0,0.1,0.1,0.1,0.2,0.1c0.2-0.1,0.4-0.2,0.5-0.3c0,0.1,0.1,0.2,0.2,0.1c0.1-0.1,0.2-0.1,0.3-0.2
		c0,0,0,0.1,0,0.1c0,0,0,0,0,0c-0.2,0.2-0.4,0.3-0.6,0.5c-0.2,0.1,0,0.4,0.2,0.3c0.4-0.2,0.7-0.5,1-0.8c0.5-0.4,1-0.7,1.5-1.1
		c-0.3,0.3-0.6,0.6-0.9,0.9c-0.1,0.1,0.1,0.3,0.2,0.2c0.8-0.7,1.6-1.5,2.3-2.3c0,0,0-0.1,0-0.2c0.1-0.1,0.2-0.3,0.4-0.4
		c0,0,0.1-0.1,0-0.1c0,0,0.1-0.1,0.1-0.1c0.1-0.1,0.1-0.3-0.1-0.3c0.1-0.1,0.2-0.2,0.3-0.3c0.1-0.1,0-0.3-0.2-0.2
		c-0.2,0.1-0.4,0.2-0.6,0.3c0-0.1,0-0.1-0.1-0.1c0.1-0.2,0.3-0.4,0.4-0.6c0.1-0.1,0.2-0.1,0.3-0.2c0,0,0.1-0.1,0.1-0.1
		c0.1-0.1,0.2-0.2,0.2-0.4c0,0,0.1-0.1,0.1-0.1c0,0,0-0.1,0-0.1c0,0,0,0,0,0c0.2,0.2,0.3,0.3,0.5,0.5c0.1,0.1,0.3-0.1,0.2-0.2
		C45.6,34.6,45.6,34.6,45.5,34.5"/>
</g>
</svg>
