<?xml version="1.0" encoding="utf-8"?>
<!-- Generator: Adobe Illustrator 19.1.1, SVG Export Plug-In . SVG Version: 6.00 Build 0)  -->
<svg version="1.1" id="Layer_1" xmlns="http://www.w3.org/2000/svg" xmlns:xlink="http://www.w3.org/1999/xlink" x="0px" y="0px"
	 viewBox="0 0 64.3 59.7" style="enable-background:new 0 0 64.3 59.7;" xml:space="preserve">
<style type="text/css">
	.st0{clip-path:url(#SVGID_2_);fill:#CB355B;}
	.st1{clip-path:url(#SVGID_4_);fill:#CB355B;}
	.st2{clip-path:url(#SVGID_6_);fill:#CB355B;}
	.st3{clip-path:url(#SVGID_8_);fill:#CB355B;}
	.st4{clip-path:url(#SVGID_10_);fill:#CB355B;}
	.st5{clip-path:url(#SVGID_12_);fill:#FFFFFF;}
	.st6{clip-path:url(#SVGID_14_);fill:#FFFFFF;}
	.st7{clip-path:url(#SVGID_16_);fill:#FFFFFF;}
	.st8{clip-path:url(#SVGID_18_);fill:#FFFFFF;}
	.st9{clip-path:url(#SVGID_20_);fill:#00819F;}
	.st10{clip-path:url(#SVGID_22_);}
	.st11{clip-path:url(#SVGID_24_);fill:#1D0C06;}
	.st12{clip-path:url(#SVGID_26_);fill:#CB355B;}
	.st13{clip-path:url(#SVGID_26_);fill:#00819F;}
</style>
<g>
	<defs>
		<rect id="SVGID_5_" x="4.4" y="6.7" width="188.3" height="47.1"/>
	</defs>
	<clipPath id="SVGID_2_">
		<use xlink:href="#SVGID_5_"  style="overflow:visible;"/>
	</clipPath>
	<path class="st0" d="M39.3,20.9c0.1-0.1,0.2-0.2,0.3-0.3c-0.4-0.5-0.8-0.9-1.2-1.4c-0.1,0.1-0.2,0.1-0.3,0.2
		C38.5,19.9,38.9,20.4,39.3,20.9 M51.7,30.9c0.1,0.1,0.1,0.1,0.2,0.2c0.4-0.7,0.9-1.3,1.3-2c-0.1,0.1-0.5,0.1-0.7,0.2
		C52.2,29.9,52,30.4,51.7,30.9 M51.1,26.1c0-0.1,0.1-0.2,0.1-0.2c-2.5-1.2-4.9-2.4-7.4-3.6C45.9,24.1,48.5,25.1,51.1,26.1
		 M44.7,35.5c0.3,0.1,0.5,0.2,0.6,0.1c0.4-0.4,0.7-0.8,1.1-1.2c0.4-0.4,0.9-0.7,1.3-1c0.4-0.3,0.9-0.5,1.3-0.8
		c0.4-0.4,0.7-0.9,1.1-1.3c0.4-0.4,0.8-0.7,1.3-1.3c-0.4,0-0.8-0.2-0.9-0.1c-0.7,0.6-1.3,1.2-2.1,1.7C47,32.7,46,34.2,44.7,35.5
		 M4.4,30.1c0.2-0.1,0.3-0.4,0.5-0.4c1.4-0.2,2.9-0.4,4.3-0.5c2.1-0.1,4.3-0.1,6.4-0.2c1,0,2-0.1,3-0.1c3-0.1,5.9-0.3,8.9-0.4
		c1.9-0.1,3.8,0,5.7-0.1c1.1,0,2.2-0.2,3.3-0.3c0.4,0,0.9-0.1,1.3,0c1.4,0.2,2.8-0.4,4.2-0.3c1.2,0.1,2.5,0.1,3.7,0.2
		c0.3,0,0.7-0.1,1-0.1c0-0.1,0-0.2,0-0.3c-2.7-0.1-5.3-0.2-8-0.3c-1.7-0.1-3.5-0.2-5.2-0.2c-1.7,0-3.3,0.1-5,0.2
		c-1.9,0.1-3.8,0.1-5.7,0.2c-1.7,0.1-3.3,0.1-5,0.2c-1.8,0.1-3.6,0.3-5.5,0.4c-0.9,0.1-1.8,0.2-2.8,0.3c-0.5,0-0.9-0.2-1.4-0.1
		c-1.3,0.2-1.4,0.1-1.6-1.5c0.5,0,1.1,0,1.6,0c2,0.2,3.9-0.2,5.8-0.2c2.1,0,4.1-0.6,6.2-0.6c1.9,0,3.8-0.2,5.7-0.2
		c3.4-0.1,6.8-0.2,10.2-0.1c2.9,0,5.7,0.2,8.6,0.4c-1.9-1.3-3.9-2.6-5.8-3.9c-0.9-0.6-1.8-1.2-2.6-1.9c-0.1-0.1-0.1-0.5,0-0.7
		c0.1-0.2,0.3-0.3,0.3-0.4c-0.4-0.6-0.8-1.1-1.1-1.6c-0.1-0.2,0-0.6,0.2-0.8c0.2-0.1,0.6-0.1,0.8,0c1.3,1,2.6,2,3.9,3
		c0.9,0.7,1.9,1.4,2.9,2.1c0,0,0-0.1,0-0.2c0-0.3-0.1-0.6-0.1-0.9c0.4,0,0.8-0.2,1.1-0.1c1.1,0.5,2.2,1.2,3.4,1.7
		c3,1.4,6.1,2.7,9.1,4.1c1.1,0.5,2.3,0.9,3.5,1.5c0.4,0.2,0.7,0.6,1.1,1c-1.3,1.3-2.7,0-3.9,0.3c-0.3,1.1-0.3,1.1-1.4,0.8
		c-0.4-0.1-1,0-1.3,0.3c-1.1,0.7-2.2,1.3-3.1,2.2c-0.9,0.9-2.1,1.4-3,2.3c0.3,0.5-0.1,1-0.9,1.3c-0.5,0.1-1,0.3-1.5,0.4
		c0.1,0.1,0.1,0.2,0.2,0.2c-0.2,0.3-0.3,0.7-0.5,0.9c-0.1,0.1-0.4,0.1-0.7,0.1c-0.8,0.3-1.2,1.5-2.4,1.2c-0.1,0-0.3,0.2-0.5,0.2
		c-0.2,0-0.5-0.1-0.6-0.2c-0.1-0.1-0.1-0.4,0-0.6c0.4-0.6,0.8-1.2,1.2-1.8c1-1.3,1.9-2.6,2.9-3.8c0.2-0.3,0.7-0.3,0.9-0.5
		c0.5-0.4,1-1,1.5-1.4c0.8-0.7,1.3-1.7,2.3-2c0.1,0,0.1-0.1,0.1-0.2c-0.4-0.2-0.7-0.4-1.1-0.6C49.4,28,49.2,28,49.1,28
		c-0.9,1-2.1,0.6-3.3,0.7c-0.2,0-0.5,0-0.7,0.3c0.5,0,0.9,0,1.4,0.1c0.3,0.1,0.8,0.4,0.9,0.7c0.1,0.5-0.4,0.6-0.9,0.7
		c-1.6,0.5-3-0.1-4.6,0c-0.8,0-1.7-0.3-2.6-0.4c-0.2,0-0.5,0.2-0.8,0.2c-2.5,0-5,0-7.6,0c-2,0-4.1,0-6.1,0c-2.6,0.1-5.2,0.2-7.9,0.2
		c-0.2,0-0.4,0-0.5,0.1c-0.7,0.5-1.2,0.6-2.5,0.4c0.4-0.1,0.6-0.1,0.7-0.2c0.2,0,0.4-0.1,0.6-0.1c0-0.1,0-0.2,0-0.2
		c-0.7,0-1.3,0-2,0c-1.6,0.1-3.3,0.2-4.9,0.3c-1.1,0.1-2.2,0.1-3.4,0.1c-0.3,0-0.5-0.1-0.8-0.2V30.1z"/>
	<path class="st0" d="M44.7,35.5c1.3-1.4,2.3-2.8,3.7-3.7c0.8-0.5,1.4-1.1,2.1-1.7c0.1-0.1,0.5,0,0.9,0.1c-0.5,0.5-0.9,0.9-1.3,1.3
		c-0.4,0.4-0.7,0.9-1.1,1.3c-0.4,0.3-0.9,0.5-1.3,0.8c-0.5,0.3-0.9,0.6-1.3,1c-0.4,0.4-0.7,0.8-1.1,1.2
		C45.2,35.7,44.9,35.6,44.7,35.5"/>
	<path class="st0" d="M51.1,26.1c-2.6-1-5.1-2-7.3-3.9c2.5,1.2,4.9,2.4,7.4,3.6C51.1,25.9,51.1,26,51.1,26.1"/>
	<path class="st0" d="M51.7,30.9c0.3-0.5,0.5-1.1,0.9-1.5c0.2-0.2,0.6-0.1,0.7-0.2c-0.4,0.7-0.9,1.3-1.3,2
		C51.8,31.1,51.7,31,51.7,30.9"/>
	<path class="st0" d="M39.3,20.9c-0.4-0.5-0.8-0.9-1.2-1.4c0.1-0.1,0.2-0.1,0.3-0.2c0.4,0.5,0.8,0.9,1.2,1.4
		C39.5,20.7,39.4,20.8,39.3,20.9"/>
</g>
</svg>
