<?xml version="1.0" encoding="utf-8"?>
<!-- Generator: Adobe Illustrator 19.1.1, SVG Export Plug-In . SVG Version: 6.00 Build 0)  -->
<svg version="1.1" id="Layer_1" xmlns="http://www.w3.org/2000/svg" xmlns:xlink="http://www.w3.org/1999/xlink" x="0px" y="0px"
	 viewBox="0 0 211.6 60.9" style="enable-background:new 0 0 211.6 60.9;" xml:space="preserve">
<style type="text/css">
	.st0{clip-path:url(#SVGID_2_);fill:#CB355B;}
	.st1{clip-path:url(#SVGID_4_);fill:#CB355B;}
	.st2{clip-path:url(#SVGID_6_);fill:#CB355B;}
	.st3{clip-path:url(#SVGID_8_);fill:#CB355B;}
	.st4{clip-path:url(#SVGID_10_);fill:#CB355B;}
	.st5{clip-path:url(#SVGID_12_);fill:#FFFFFF;}
	.st6{clip-path:url(#SVGID_14_);fill:#FFFFFF;}
	.st7{clip-path:url(#SVGID_16_);fill:#FFFFFF;}
	.st8{clip-path:url(#SVGID_18_);fill:#FFFFFF;}
	.st9{clip-path:url(#SVGID_20_);fill:#00819F;}
	.st10{clip-path:url(#SVGID_22_);}
	.st11{clip-path:url(#SVGID_24_);fill:#1D0C06;}
</style>
<g>
	<defs>
		<rect id="SVGID_5_" x="10" y="6.7" width="188.3" height="47.1"/>
	</defs>
	<clipPath id="SVGID_2_">
		<use xlink:href="#SVGID_5_"  style="overflow:visible;"/>
	</clipPath>
	<path class="st0" d="M44.9,20.9c0.1-0.1,0.2-0.2,0.3-0.3c-0.4-0.5-0.8-0.9-1.2-1.4c-0.1,0.1-0.2,0.1-0.3,0.2
		C44.1,19.9,44.5,20.4,44.9,20.9 M57.3,30.9c0.1,0.1,0.1,0.1,0.2,0.2c0.4-0.7,0.9-1.3,1.3-2c-0.1,0.1-0.5,0.1-0.7,0.2
		C57.8,29.9,57.6,30.4,57.3,30.9 M56.7,26.1c0-0.1,0.1-0.2,0.1-0.2c-2.5-1.2-4.9-2.4-7.4-3.6C51.5,24.1,54.1,25.1,56.7,26.1
		 M50.3,35.5c0.3,0.1,0.5,0.2,0.6,0.1c0.4-0.4,0.7-0.8,1.1-1.2c0.4-0.4,0.9-0.7,1.3-1c0.4-0.3,0.9-0.5,1.3-0.8
		c0.4-0.4,0.7-0.9,1.1-1.3c0.4-0.4,0.8-0.7,1.3-1.3c-0.4,0-0.8-0.2-0.9-0.1c-0.7,0.6-1.3,1.2-2.1,1.7C52.6,32.7,51.6,34.2,50.3,35.5
		 M10,30.1c0.2-0.1,0.3-0.4,0.5-0.4c1.4-0.2,2.9-0.4,4.3-0.5c2.1-0.1,4.3-0.1,6.4-0.2c1,0,2-0.1,3-0.1c3-0.1,5.9-0.3,8.9-0.4
		c1.9-0.1,3.8,0,5.7-0.1c1.1,0,2.2-0.2,3.3-0.3c0.4,0,0.9-0.1,1.3,0c1.4,0.2,2.8-0.4,4.2-0.3c1.2,0.1,2.5,0.1,3.7,0.2
		c0.3,0,0.7-0.1,1-0.1c0-0.1,0-0.2,0-0.3c-2.7-0.1-5.3-0.2-8-0.3c-1.7-0.1-3.5-0.2-5.2-0.2c-1.7,0-3.3,0.1-5,0.2
		c-1.9,0.1-3.8,0.1-5.7,0.2c-1.7,0.1-3.3,0.1-5,0.2c-1.8,0.1-3.6,0.3-5.5,0.4c-0.9,0.1-1.8,0.2-2.8,0.3c-0.5,0-0.9-0.2-1.4-0.1
		c-1.3,0.2-1.4,0.1-1.6-1.5c0.5,0,1.1,0,1.6,0c2,0.2,3.9-0.2,5.8-0.2c2.1,0,4.1-0.6,6.2-0.6c1.9,0,3.8-0.2,5.7-0.2
		c3.4-0.1,6.8-0.2,10.2-0.1c2.9,0,5.7,0.2,8.6,0.4c-1.9-1.3-3.9-2.6-5.8-3.9c-0.9-0.6-1.8-1.2-2.6-1.9c-0.1-0.1-0.1-0.5,0-0.7
		c0.1-0.2,0.3-0.3,0.3-0.4c-0.4-0.6-0.8-1.1-1.1-1.6c-0.1-0.2,0-0.6,0.2-0.8c0.2-0.1,0.6-0.1,0.8,0c1.3,1,2.6,2,3.9,3
		c0.9,0.7,1.9,1.4,2.9,2.1c0,0,0-0.1,0-0.2c0-0.3-0.1-0.6-0.1-0.9c0.4,0,0.8-0.2,1.1-0.1c1.1,0.5,2.2,1.2,3.4,1.7
		c3,1.4,6.1,2.7,9.1,4.1c1.1,0.5,2.3,0.9,3.5,1.5c0.4,0.2,0.7,0.6,1.1,1c-1.3,1.3-2.7,0-3.9,0.3c-0.3,1.1-0.3,1.1-1.4,0.8
		c-0.4-0.1-1,0-1.3,0.3c-1.1,0.7-2.2,1.3-3.1,2.2c-0.9,0.9-2.1,1.4-3,2.3c0.3,0.5-0.1,1-0.9,1.3c-0.5,0.1-1,0.3-1.5,0.4
		c0.1,0.1,0.1,0.2,0.2,0.2c-0.2,0.3-0.3,0.7-0.5,0.9c-0.1,0.1-0.4,0.1-0.7,0.1c-0.8,0.3-1.2,1.5-2.4,1.2c-0.1,0-0.3,0.2-0.5,0.2
		c-0.2,0-0.5-0.1-0.6-0.2c-0.1-0.1-0.1-0.4,0-0.6c0.4-0.6,0.8-1.2,1.2-1.8c1-1.3,1.9-2.6,2.9-3.8c0.2-0.3,0.7-0.3,0.9-0.5
		c0.5-0.4,1-1,1.5-1.4c0.8-0.7,1.3-1.7,2.3-2c0.1,0,0.1-0.1,0.1-0.2c-0.4-0.2-0.7-0.4-1.1-0.6C55.1,28,54.8,28,54.7,28
		c-0.9,1-2.1,0.6-3.3,0.7c-0.2,0-0.5,0-0.7,0.3c0.5,0,0.9,0,1.4,0.1c0.3,0.1,0.8,0.4,0.9,0.7c0.1,0.5-0.4,0.6-0.9,0.7
		c-1.6,0.5-3-0.1-4.6,0c-0.8,0-1.7-0.3-2.6-0.4c-0.2,0-0.5,0.2-0.8,0.2c-2.5,0-5,0-7.6,0c-2,0-4.1,0-6.1,0c-2.6,0.1-5.2,0.2-7.9,0.2
		c-0.2,0-0.4,0-0.5,0.1c-0.7,0.5-1.2,0.6-2.5,0.4c0.4-0.1,0.6-0.1,0.7-0.2c0.2,0,0.4-0.1,0.6-0.1c0-0.1,0-0.2,0-0.2
		c-0.7,0-1.3,0-2,0c-1.6,0.1-3.3,0.2-4.9,0.3c-1.1,0.1-2.2,0.1-3.4,0.1c-0.3,0-0.5-0.1-0.8-0.2V30.1z"/>
	<path class="st0" d="M50.3,35.5c1.3-1.4,2.3-2.8,3.7-3.7c0.8-0.5,1.4-1.1,2.1-1.7c0.1-0.1,0.5,0,0.9,0.1c-0.5,0.5-0.9,0.9-1.3,1.3
		c-0.4,0.4-0.7,0.9-1.1,1.3c-0.4,0.3-0.9,0.5-1.3,0.8c-0.5,0.3-0.9,0.6-1.3,1c-0.4,0.4-0.7,0.8-1.1,1.2
		C50.8,35.7,50.6,35.6,50.3,35.5"/>
	<path class="st0" d="M56.7,26.1c-2.6-1-5.1-2-7.3-3.9c2.5,1.2,4.9,2.4,7.4,3.6C56.8,25.9,56.7,26,56.7,26.1"/>
	<path class="st0" d="M57.3,30.9c0.3-0.5,0.5-1.1,0.9-1.5c0.2-0.2,0.6-0.1,0.7-0.2c-0.4,0.7-0.9,1.3-1.3,2
		C57.4,31.1,57.4,31,57.3,30.9"/>
	<path class="st0" d="M44.9,20.9c-0.4-0.5-0.8-0.9-1.2-1.4c0.1-0.1,0.2-0.1,0.3-0.2c0.4,0.5,0.8,0.9,1.2,1.4
		C45.1,20.7,45,20.8,44.9,20.9"/>
	<path class="st0" d="M105.9,31c-0.3,1.2-1,3.4-2,4.7c-0.3,0.1-0.6,0.3-0.7,0.7c0,0,0,0,0,0c-2.9,1.9-4-1.2-4.7-3
		c-0.3-0.9-0.6-1.8-0.8-2.7c1-2.3,1.7-4.7,1.2-6.9c0.3-0.3,0.5-0.8,0.1-1.3c-2.3-3.5-6.8,1-8.3,3.1c-2,2.6-4,7.3-3.4,11.1
		c-0.7-1.4-1-3-1.2-4.6c-0.4-5.7,1.8-16.6,9.5-16.2C102.9,16.3,107.5,24.5,105.9,31 M93.7,41.9c-1.4-0.3-2.6-0.8-3.6-1.6
		c2-0.2,4.2-3.6,5.1-5.1c0.3-0.5,0.6-1,0.9-1.5c0.4,1.3,1.1,2.6,1.9,3.7c1,1.4,2.1,2.1,3.2,2.2C99.3,41.5,96.6,42.4,93.7,41.9
		 M95.4,30.3c-0.3,0.7-0.7,1.3-0.9,1.8c-0.8,1.6-3.6,7.6-4.8,4.1c-0.7-2.1,0.7-5.7,1.7-7.5c0.2-0.4,2.6-3.6,4.3-4.8
		C95.2,25.9,95.1,28.1,95.4,30.3 M96.9,13.9C85.6,12.1,81.9,29,85.1,37c3.7,9.3,16,9.4,20,0.5c0.4-0.5,0.8-1,1.2-1.6
		C111.3,27.7,106.9,15.5,96.9,13.9"/>
	<path class="st0" d="M195.7,49.9c-1.3,3.1-2.4-0.8-2.8-2.5c-1-3.8-2.4-12.1,2.8-13c0.3,3,0.5,6,0.5,9
		C196.2,45.3,196.4,48.2,195.7,49.9 M191.5,23.3c0.2-1.6,1.1-2.6,2.8-3.2c0.1,1.9,0.2,3.7,0.4,5.6C194.2,26.5,193.1,25.6,191.5,23.3
		 M188.1,24.3c-0.3,2.8-2.8,3.1-4.9,3.2c0-0.8-0.1-1.6-0.1-2.4c0-1.6-0.7-6.6,3.1-5.4C187.1,20,188.2,23.3,188.1,24.3 M170.8,32.6
		c-1.7,0.7-1.4,0.3-1.9-1.3c-0.3-0.9-0.6-1.9-0.8-2.9c-0.1-0.5-0.1-1-0.1-1.5c0.3-0.8,0.6-1.5,1-2.3c0.2-0.3,1.6-2.3,2.7-3.3
		c0.1,0,0.1,0,0.2,0c0.2,2.2,0.5,5.1,1.1,7.9C172.7,30.9,172.1,32.1,170.8,32.6 M123.5,30.2c-2-5.5-2.1-11.5-0.3-17.1
		C125.2,18.5,124.9,24.5,123.5,30.2 M198.4,42.8c0-2.9-0.3-5.7-0.6-8.6c0.6-0.4,0.5-1.5-0.2-1.9c-0.2-2-0.4-4-0.6-6
		c1.1-2.3,0.3-5.2-0.5-7.5c0-0.4-0.3-0.8-0.8-0.9c-2.5-0.7-4.8,1.1-6,3.4c-0.8-2.3-2.5-4.3-4.6-4.3c-4.1,0-4.4,4.6-4.2,8.1
		c-0.3,0.2-0.4,0.5-0.4,0.9c-0.1,3,0,5.9,0.2,8.9c-0.2-0.1-0.4-0.1-0.6,0c-2.6,0.6-4.1-2.7-5-6.4c0.2-2.4,0-4.8-0.6-7.2
		c0.2-0.3,0.3-0.8,0.1-1.2c-0.9-2-2.4-1.7-3.8-0.8c-3,0.5-4.6,3.6-4.9,7.1c-0.7,2.1-1.1,4.3-1.3,6.5c-1.7-3.8-1.9-8-2.1-12.2
		c0-1-1.5-1.6-2.1-0.6c-0.7,1.7-2,2.7-4,2.8c-0.8,0.1-1.4,0.9-1,1.7c1.6,3.1,2.1,6.2,1.6,9.5c-1.7-1.3-2.9-3.4-3.6-5.6
		c0.1-4.7-0.4-9.5-1.4-14.2c3.2-0.2,6.4-0.6,9.6-1.1c1.4-0.2,0.8-2.3-0.6-2.1c-3.2,0.5-6.3,0.8-9.5,1.1c-0.4-1.5-0.8-3.1-1.2-4.6
		c-0.3-1.2-2.1-1-2.2,0.3c0,1.5,0,3,0,4.5c-1.8,0.1-3.6,0.1-5.4,0.1c-1.4,0-1.4,2.2,0,2.2c1.9,0,3.7,0,5.6-0.1c0.3,4,1,7.9,2.1,11.7
		c0.2,0.8,0.5,1.7,0.8,2.5c0,1-0.1,1.9-0.3,2.8c-0.2,0.7-0.4,1.3-0.8,1.9c-0.5-4.2-3-8.9-4.8-12.1c-0.5-0.9-2.1-0.5-2.1,0.6
		c0,2,0,4.1-0.2,6.1c-0.2,1.8,0,5.6-1.1,7.1c-1.8,2.5-3.5-2.2-4-3.6c-0.1-0.3-0.2-0.6-0.3-0.9c0.5-2.3,0.3-4.7-0.2-7.1
		c-0.2-1-1.9-1.1-2.1,0c-0.4,2.4-0.4,4.8,0.1,7.2c-0.2,1.2-0.6,2.5-1,2.8c-1.2,0.8-1.8,0.1-2.2-1.3c0.3-2.3,0.2-4.8-0.4-7.2
		c-0.2-1-1.9-1.1-2.1,0c-0.2,1.4-0.3,4.7,0.2,7.5c-0.4,1.9-1.1,3.8-2.1,5.6c-1.1-1.4-2.1-2.9-2.9-4.5c0.9-2.7,1.4-5.6,1.7-8.2
		c0.6-5.4,0-10.8-2.6-15.7c-0.4-0.7-1.6-0.8-1.9,0c-3.3,7.7-3.1,16.4,0.3,23.8c-1.5,3.4-4.7,8.6-6.7,3.2c-1-2.7-0.7-5.6-0.1-8.3
		c0.1-0.5,0.3-1.1,0.4-1.6c0.3-1.4-1.8-2-2.1-0.6c-0.1,0.5-0.3,1-0.4,1.5c-0.9,3.5-2.5,6.6-4.6,9.5c-0.8,1.1,1.1,2.2,1.9,1.1
		c0.8-1.1,1.6-2.2,2.2-3.4c0.2,1.6,0.7,3.2,1.6,4.6c2.2,3.4,5.1,2.6,7.4-0.3c0.7-0.9,1.3-1.9,1.8-2.9c1,1.6,2.1,3.1,3.3,4.5
		c0.5,0.6,1.3,0.3,1.7-0.2c1-1.5,1.8-3,2.4-4.6c0.6,0.8,1.3,1.2,2.3,1.2c1.5,0,2.4-1.6,3-3c0.8,1.9,2.3,4.5,4.2,4.8
		c3.8,0.5,4.5-6.9,4.6-12.1c0.4,0.9,0.7,1.7,1,2.6c0.3,1,0.6,1.9,0.9,2.9c0.1,0.3,0.3,2,0.2,3.5c-0.9,0.5-1.9,0.9-3,1.3
		c-0.7,0.3-1.2,1.3-0.5,1.8c2.3,2,5.3,0.5,5.9-2.3c1.3-1.1,2.3-2.4,2.8-4.1c1,1.8,2.4,3.3,4.4,4.2c0.6,0.3,1.4,0.1,1.6-0.7
		c1-3.9,0.7-7.7-0.9-11.3c0.9-0.2,1.7-0.6,2.4-1.2c0.3,4.8,1.1,9.5,4.1,13.5c0.6,0.8,2,0.6,2.1-0.6c0-1.3,0.1-2.6,0.2-3.8
		c0.4,0.9,0.9,1.7,1.4,2.3c2,2.2,4.4,1.2,5.5-1.2c0.1-0.3,0.3-0.7,0.4-1c1.3,2.9,3.3,4.9,6.5,4.2c0.1,0,0.1,0,0.2-0.1
		c0.4,4.2,1,8.4,2,12.6c0.3,1.2,2.3,1,2.2-0.3c-0.7-6.3-1.3-12.7-1.6-19.1c0-0.1,0-0.3,0-0.4c2.4-0.1,4.9-0.7,6.2-2.6
		c0.2,0.4,0.5,0.7,0.8,1c1.3,1.2,3.2,1.1,4.7,0.3c0.1,1.2,0.3,2.5,0.4,3.7c-3.8,0.7-5.8,4.8-5.8,8.7c0,3.1,0.8,12.3,4.8,12.9
		C199,54.5,198.4,45.1,198.4,42.8"/>
	<path class="st0" d="M112.9,14.5c-1.4,0-1.4,2.2,0,2.2C114.3,16.7,114.3,14.5,112.9,14.5"/>
</g>
</svg>
