<?xml version="1.0" encoding="utf-8"?>
<!-- Generator: Adobe Illustrator 19.1.1, SVG Export Plug-In . SVG Version: 6.00 Build 0)  -->
<svg version="1.1" id="Layer_1" xmlns="http://www.w3.org/2000/svg" xmlns:xlink="http://www.w3.org/1999/xlink" x="0px" y="0px"
	 viewBox="0 0 65.3 21.1" style="enable-background:new 0 0 65.3 21.1;" xml:space="preserve">
<style type="text/css">
	.st0{clip-path:url(#SVGID_2_);fill:#CB355B;}
	.st1{clip-path:url(#SVGID_4_);fill:#CB355B;}
	.st2{clip-path:url(#SVGID_6_);fill:#CB355B;}
	.st3{clip-path:url(#SVGID_8_);fill:#CB355B;}
	.st4{clip-path:url(#SVGID_10_);fill:#CB355B;}
	.st5{clip-path:url(#SVGID_12_);fill:#FFFFFF;}
	.st6{clip-path:url(#SVGID_14_);fill:#FFFFFF;}
	.st7{clip-path:url(#SVGID_16_);fill:#FFFFFF;}
	.st8{clip-path:url(#SVGID_18_);fill:#FFFFFF;}
	.st9{clip-path:url(#SVGID_20_);fill:#00819F;}
	.st10{clip-path:url(#SVGID_22_);}
	.st11{clip-path:url(#SVGID_24_);fill:#1D0C06;}
</style>
<g>
	<defs>
		<rect id="SVGID_11_" x="6.5" y="1.4" width="45.8" height="18.9"/>
	</defs>
	<clipPath id="SVGID_2_">
		<use xlink:href="#SVGID_11_"  style="overflow:visible;"/>
	</clipPath>
	<path style="clip-path:url(#SVGID_2_);fill:#FFFFFF;" d="M15.3,11.2c-0.1,0.5-0.4,1.4-0.8,1.9c-0.1,0-0.2,0.1-0.3,0.3c0,0,0,0,0,0
		c-1.2,0.8-1.6-0.5-1.9-1.2c-0.1-0.4-0.2-0.7-0.3-1.1c0.4-0.9,0.7-1.9,0.5-2.8c0.1-0.1,0.2-0.3,0.1-0.5C11.6,6.4,9.8,8.2,9.2,9
		c-0.8,1.1-1.6,2.9-1.3,4.4c-0.3-0.6-0.4-1.2-0.5-1.8c-0.2-2.3,0.7-6.7,3.8-6.5C14.1,5.3,15.9,8.5,15.3,11.2 M10.4,15.5
		c-0.6-0.1-1-0.3-1.4-0.6c0.8-0.1,1.7-1.5,2-2c0.1-0.2,0.2-0.4,0.4-0.6c0.2,0.5,0.4,1,0.7,1.5c0.4,0.6,0.8,0.8,1.3,0.9
		C12.6,15.3,11.5,15.7,10.4,15.5 M11.1,10.9c-0.1,0.3-0.3,0.5-0.4,0.7c-0.3,0.6-1.5,3-1.9,1.7c-0.3-0.9,0.3-2.3,0.7-3
		c0.1-0.2,1-1.5,1.7-1.9C11,9.1,11,10,11.1,10.9 M11.7,4.3c-4.5-0.7-6,6.1-4.7,9.3c1.5,3.7,6.4,3.8,8,0.2c0.2-0.2,0.3-0.4,0.5-0.6
		C17.4,9.8,15.7,4.9,11.7,4.3"/>
	<path style="clip-path:url(#SVGID_2_);fill:#FFFFFF;" d="M51.2,18.7c-0.5,1.3-0.9-0.3-1.1-1c-0.4-1.5-0.9-4.9,1.1-5.2
		c0.1,1.2,0.2,2.4,0.2,3.6C51.4,16.9,51.5,18,51.2,18.7 M49.6,8.1C49.6,7.4,50,7,50.7,6.8c0,0.8,0.1,1.5,0.2,2.2
		C50.6,9.3,50.2,9,49.6,8.1 M48.2,8.5c-0.1,1.1-1.1,1.3-2,1.3c0-0.3,0-0.6,0-1c0-0.6-0.3-2.6,1.2-2.2C47.8,6.7,48.2,8.1,48.2,8.5
		 M41.3,11.8c-0.7,0.3-0.6,0.1-0.8-0.5c-0.1-0.4-0.2-0.8-0.3-1.2c0-0.2,0-0.4,0-0.6c0.1-0.3,0.2-0.6,0.4-0.9
		c0.1-0.1,0.7-0.9,1.1-1.3c0,0,0.1,0,0.1,0c0.1,0.9,0.2,2.1,0.5,3.1C42,11.1,41.8,11.6,41.3,11.8 M22.3,10.8
		c-0.8-2.2-0.9-4.6-0.1-6.9C23,6.1,22.9,8.5,22.3,10.8 M52.3,15.9c0-1.1-0.1-2.3-0.2-3.4c0.2-0.2,0.2-0.6-0.1-0.8
		c-0.1-0.8-0.2-1.6-0.3-2.4c0.4-0.9,0.1-2.1-0.2-3c0-0.2-0.1-0.3-0.3-0.4c-1-0.3-1.9,0.4-2.4,1.4c-0.3-0.9-1-1.7-1.8-1.7
		c-1.7,0-1.7,1.9-1.7,3.3c-0.1,0.1-0.2,0.2-0.2,0.3c0,1.2,0,2.4,0.1,3.6c-0.1,0-0.1,0-0.2,0c-1,0.2-1.6-1.1-2-2.5
		c0.1-1,0-1.9-0.2-2.9c0.1-0.1,0.1-0.3,0-0.5c-0.4-0.8-1-0.7-1.5-0.3c-1.2,0.2-1.8,1.4-2,2.8c-0.3,0.8-0.4,1.7-0.5,2.6
		C38.1,10.4,38,8.7,37.9,7c0-0.4-0.6-0.6-0.8-0.2c-0.3,0.7-0.8,1.1-1.6,1.1c-0.3,0-0.5,0.4-0.4,0.7c0.6,1.2,0.9,2.5,0.6,3.8
		c-0.7-0.5-1.1-1.4-1.5-2.2c0-1.9-0.2-3.8-0.6-5.7C35,4.3,36.3,4.2,37.6,4c0.6-0.1,0.3-0.9-0.2-0.9c-1.3,0.2-2.5,0.3-3.8,0.4
		c-0.1-0.6-0.3-1.2-0.5-1.8c-0.1-0.5-0.9-0.4-0.9,0.1c0,0.6,0,1.2,0,1.8c-0.7,0-1.4,0-2.2,0c-0.6,0-0.6,0.9,0,0.9c0.7,0,1.5,0,2.2,0
		c0.1,1.6,0.4,3.2,0.9,4.7c0.1,0.3,0.2,0.7,0.3,1c0,0.4,0,0.8-0.1,1.1c-0.1,0.3-0.2,0.5-0.3,0.7c-0.2-1.7-1.2-3.6-1.9-4.9
		c-0.2-0.4-0.8-0.2-0.8,0.2c0,0.8,0,1.6-0.1,2.4c-0.1,0.7,0,2.2-0.4,2.8c-0.7,1-1.4-0.9-1.6-1.4c0-0.1-0.1-0.2-0.1-0.4
		c0.2-0.9,0.1-1.9-0.1-2.8c-0.1-0.4-0.8-0.4-0.9,0c-0.2,1-0.2,1.9,0,2.9c-0.1,0.5-0.2,1-0.4,1.1c-0.5,0.3-0.7,0-0.9-0.5
		c0.1-0.9,0.1-1.9-0.2-2.9c-0.1-0.4-0.8-0.4-0.9,0c-0.1,0.6-0.1,1.9,0.1,3c-0.1,0.8-0.4,1.5-0.8,2.2c-0.5-0.6-0.9-1.2-1.2-1.8
		c0.4-1.1,0.5-2.2,0.7-3.3c0.3-2.2,0-4.3-1-6.3c-0.1-0.3-0.6-0.3-0.8,0c-1.3,3.1-1.2,6.6,0.1,9.5c-0.6,1.4-1.9,3.4-2.7,1.3
		c-0.4-1.1-0.3-2.2,0-3.3c0.1-0.2,0.1-0.4,0.2-0.7c0.1-0.6-0.7-0.8-0.9-0.2c-0.1,0.2-0.1,0.4-0.1,0.6c-0.4,1.4-1,2.6-1.9,3.8
		c-0.3,0.5,0.4,0.9,0.8,0.4c0.3-0.4,0.6-0.9,0.9-1.4c0.1,0.6,0.3,1.3,0.6,1.8c0.9,1.4,2,1,3-0.1c0.3-0.4,0.5-0.7,0.7-1.2
		c0.4,0.6,0.8,1.2,1.3,1.8c0.2,0.2,0.5,0.1,0.7-0.1c0.4-0.6,0.7-1.2,1-1.8c0.2,0.3,0.5,0.5,0.9,0.5c0.6,0,1-0.6,1.2-1.2
		c0.3,0.8,0.9,1.8,1.7,1.9c1.5,0.2,1.8-2.7,1.9-4.9c0.1,0.3,0.3,0.7,0.4,1.1c0.1,0.4,0.2,0.8,0.3,1.2c0,0.1,0.1,0.8,0.1,1.4
		c-0.4,0.2-0.8,0.4-1.2,0.5c-0.3,0.1-0.5,0.5-0.2,0.7c0.9,0.8,2.1,0.2,2.4-0.9c0.5-0.4,0.9-0.9,1.1-1.6c0.4,0.7,1,1.3,1.7,1.7
		c0.2,0.1,0.6,0,0.6-0.3c0.4-1.6,0.3-3.1-0.4-4.5c0.4-0.1,0.7-0.3,1-0.5c0.1,1.9,0.4,3.8,1.6,5.4c0.3,0.3,0.8,0.3,0.8-0.2
		c0-0.5,0-1,0.1-1.5c0.2,0.4,0.3,0.7,0.6,0.9c0.8,0.9,1.8,0.5,2.2-0.5c0.1-0.1,0.1-0.3,0.2-0.4c0.5,1.2,1.3,2,2.6,1.7c0,0,0,0,0.1,0
		c0.2,1.7,0.4,3.4,0.8,5.1c0.1,0.5,0.9,0.4,0.9-0.1c-0.3-2.5-0.5-5.1-0.7-7.7c0-0.1,0-0.1,0-0.2c0.9-0.1,2-0.3,2.5-1
		c0.1,0.1,0.2,0.3,0.3,0.4c0.5,0.5,1.3,0.5,1.9,0.1c0.1,0.5,0.1,1,0.2,1.5c-1.5,0.3-2.3,1.9-2.3,3.5c0,1.2,0.3,4.9,1.9,5.2
		C52.6,20.6,52.3,16.8,52.3,15.9"/>
	<path style="clip-path:url(#SVGID_2_);fill:#FFFFFF;" d="M18.1,4.6c-0.6,0-0.6,0.9,0,0.9C18.6,5.4,18.6,4.6,18.1,4.6"/>
</g>
</svg>
