<?xml version="1.0" encoding="utf-8"?>
<!-- Generator: Adobe Illustrator 19.1.1, SVG Export Plug-In . SVG Version: 6.00 Build 0)  -->
<svg version="1.1" id="Layer_1" xmlns="http://www.w3.org/2000/svg" xmlns:xlink="http://www.w3.org/1999/xlink" x="0px" y="0px"
	 viewBox="0 0 124.7 59.7" style="enable-background:new 0 0 124.7 59.7;" xml:space="preserve">
<style type="text/css">
	.st0{clip-path:url(#SVGID_2_);fill:#CB355B;}
	.st1{clip-path:url(#SVGID_4_);fill:#CB355B;}
	.st2{clip-path:url(#SVGID_6_);fill:#CB355B;}
	.st3{clip-path:url(#SVGID_8_);fill:#CB355B;}
	.st4{clip-path:url(#SVGID_10_);fill:#CB355B;}
	.st5{clip-path:url(#SVGID_12_);fill:#FFFFFF;}
	.st6{clip-path:url(#SVGID_14_);fill:#FFFFFF;}
	.st7{clip-path:url(#SVGID_16_);fill:#FFFFFF;}
	.st8{clip-path:url(#SVGID_18_);fill:#FFFFFF;}
	.st9{clip-path:url(#SVGID_20_);fill:#00819F;}
	.st10{clip-path:url(#SVGID_22_);}
	.st11{clip-path:url(#SVGID_24_);fill:#1D0C06;}
	.st12{clip-path:url(#SVGID_26_);fill:#CB355B;}
	.st13{clip-path:url(#SVGID_26_);fill:#00819F;}
</style>
<g>
	<defs>
		<rect id="SVGID_5_" x="-69.9" y="6.7" width="188.3" height="47.1"/>
	</defs>
	<clipPath id="SVGID_2_">
		<use xlink:href="#SVGID_5_"  style="overflow:visible;"/>
	</clipPath>
	<path class="st0" d="M25.9,31c-0.3,1.2-1,3.4-2,4.7c-0.3,0.1-0.6,0.3-0.7,0.7c0,0,0,0,0,0c-2.9,1.9-4-1.2-4.7-3
		c-0.3-0.9-0.6-1.8-0.8-2.7c1-2.3,1.7-4.7,1.2-6.9c0.3-0.3,0.5-0.8,0.1-1.3c-2.3-3.5-6.8,1-8.3,3.1c-2,2.6-4,7.3-3.4,11.1
		c-0.7-1.4-1-3-1.2-4.6c-0.4-5.7,1.8-16.6,9.5-16.2C22.9,16.3,27.5,24.5,25.9,31 M13.7,41.9c-1.4-0.3-2.6-0.8-3.6-1.6
		c2-0.2,4.2-3.6,5.1-5.1c0.3-0.5,0.6-1,0.9-1.5c0.4,1.3,1.1,2.6,1.9,3.7c1,1.4,2.1,2.1,3.2,2.2C19.3,41.5,16.6,42.4,13.7,41.9
		 M15.4,30.3c-0.3,0.7-0.7,1.3-0.9,1.8c-0.8,1.6-3.6,7.6-4.8,4.1c-0.7-2.1,0.7-5.7,1.7-7.5c0.2-0.4,2.6-3.6,4.3-4.8
		C15.3,25.9,15.2,28.1,15.4,30.3 M16.9,13.9C5.6,12.1,1.9,29,5.1,37c3.7,9.3,16,9.4,20,0.5c0.4-0.5,0.8-1,1.2-1.6
		C31.3,27.7,26.9,15.5,16.9,13.9"/>
	<path class="st0" d="M115.7,49.9c-1.3,3.1-2.4-0.8-2.8-2.5c-1-3.8-2.4-12.1,2.8-13c0.3,3,0.5,6,0.5,9
		C116.2,45.3,116.4,48.2,115.7,49.9 M111.5,23.3c0.2-1.6,1.1-2.6,2.8-3.2c0.1,1.9,0.2,3.7,0.4,5.6C114.2,26.5,113.1,25.6,111.5,23.3
		 M108.1,24.3c-0.3,2.8-2.8,3.1-4.9,3.2c0-0.8-0.1-1.6-0.1-2.4c0-1.6-0.7-6.6,3.1-5.4C107.2,20,108.2,23.3,108.1,24.3 M90.9,32.6
		c-1.7,0.7-1.4,0.3-1.9-1.3c-0.3-0.9-0.6-1.9-0.8-2.9c-0.1-0.5-0.1-1-0.1-1.5c0.3-0.8,0.6-1.5,1-2.3c0.2-0.3,1.6-2.3,2.7-3.3
		c0.1,0,0.1,0,0.2,0c0.2,2.2,0.5,5.1,1.1,7.9C92.8,30.9,92.1,32.1,90.9,32.6 M43.6,30.2c-2-5.5-2.1-11.5-0.3-17.1
		C45.3,18.5,45,24.5,43.6,30.2 M118.4,42.8c0-2.9-0.3-5.7-0.6-8.6c0.6-0.4,0.5-1.5-0.2-1.9c-0.2-2-0.4-4-0.6-6
		c1.1-2.3,0.3-5.2-0.5-7.5c0-0.4-0.3-0.8-0.8-0.9c-2.5-0.7-4.8,1.1-6,3.4c-0.8-2.3-2.5-4.3-4.6-4.3c-4.1,0-4.4,4.6-4.2,8.1
		c-0.3,0.2-0.4,0.5-0.4,0.9c-0.1,3,0,5.9,0.2,8.9c-0.2-0.1-0.4-0.1-0.6,0c-2.6,0.6-4.1-2.7-5-6.4c0.2-2.4,0-4.8-0.6-7.2
		c0.2-0.3,0.3-0.8,0.1-1.2c-0.9-2-2.4-1.7-3.8-0.8c-3,0.5-4.6,3.6-4.9,7.1c-0.7,2.1-1.1,4.3-1.3,6.5c-1.7-3.8-1.9-8-2.1-12.2
		c0-1-1.5-1.6-2.1-0.6c-0.7,1.7-2,2.7-4,2.8c-0.8,0.1-1.4,0.9-1,1.7c1.6,3.1,2.1,6.2,1.6,9.5c-1.7-1.3-2.9-3.4-3.6-5.6
		c0.1-4.7-0.4-9.5-1.4-14.2c3.2-0.2,6.4-0.6,9.6-1.1c1.4-0.2,0.8-2.3-0.6-2.1c-3.2,0.5-6.3,0.8-9.5,1.1c-0.4-1.5-0.8-3.1-1.2-4.6
		c-0.3-1.2-2.1-1-2.2,0.3c0,1.5,0,3,0,4.5c-1.8,0.1-3.6,0.1-5.4,0.1c-1.4,0-1.4,2.2,0,2.2c1.9,0,3.7,0,5.6-0.1c0.3,4,1,7.9,2.1,11.7
		c0.2,0.8,0.5,1.7,0.8,2.5c0,1-0.1,1.9-0.3,2.8c-0.2,0.7-0.4,1.3-0.8,1.9c-0.5-4.2-3-8.9-4.8-12.1c-0.5-0.9-2.1-0.5-2.1,0.6
		c0,2,0,4.1-0.2,6.1c-0.2,1.8,0,5.6-1.1,7.1c-1.8,2.5-3.5-2.2-4-3.6c-0.1-0.3-0.2-0.6-0.3-0.9c0.5-2.3,0.3-4.7-0.2-7.1
		c-0.2-1-1.9-1.1-2.1,0c-0.4,2.4-0.4,4.8,0.1,7.2c-0.2,1.2-0.6,2.5-1,2.8c-1.2,0.8-1.8,0.1-2.2-1.3c0.3-2.3,0.2-4.8-0.4-7.2
		c-0.2-1-1.9-1.1-2.1,0c-0.2,1.4-0.3,4.7,0.2,7.5C49.7,34.3,49,36.2,48,38c-1.1-1.4-2.1-2.9-2.9-4.5c0.9-2.7,1.4-5.6,1.7-8.2
		c0.6-5.4,0-10.8-2.6-15.7c-0.4-0.7-1.6-0.8-1.9,0c-3.3,7.7-3.1,16.4,0.3,23.8c-1.5,3.4-4.7,8.6-6.7,3.2c-1-2.7-0.7-5.6-0.1-8.3
		c0.1-0.5,0.3-1.1,0.4-1.6c0.3-1.4-1.8-2-2.1-0.6c-0.1,0.5-0.3,1-0.4,1.5C32.7,31,31.2,34.1,29,37c-0.8,1.1,1.1,2.2,1.9,1.1
		c0.8-1.1,1.6-2.2,2.2-3.4c0.2,1.6,0.7,3.2,1.6,4.6c2.2,3.4,5.1,2.6,7.4-0.3c0.7-0.9,1.3-1.9,1.8-2.9c1,1.6,2.1,3.1,3.3,4.5
		c0.5,0.6,1.3,0.3,1.7-0.2c1-1.5,1.8-3,2.4-4.6c0.6,0.8,1.3,1.2,2.3,1.2c1.5,0,2.4-1.6,3-3c0.8,1.9,2.3,4.5,4.2,4.8
		c3.8,0.5,4.5-6.9,4.6-12.1c0.4,0.9,0.7,1.7,1,2.6c0.3,1,0.6,1.9,0.9,2.9c0.1,0.3,0.3,2,0.2,3.5c-0.9,0.5-1.9,0.9-3,1.3
		c-0.7,0.3-1.2,1.3-0.5,1.8c2.3,2,5.3,0.5,5.9-2.3c1.3-1.1,2.3-2.4,2.8-4.1c1,1.8,2.4,3.3,4.4,4.2c0.6,0.3,1.4,0.1,1.6-0.7
		c1-3.9,0.7-7.7-0.9-11.3c0.9-0.2,1.7-0.6,2.4-1.2c0.3,4.8,1.1,9.5,4.1,13.5c0.6,0.8,2,0.6,2.1-0.6c0-1.3,0.1-2.6,0.2-3.8
		c0.4,0.9,0.9,1.7,1.4,2.3c2,2.2,4.4,1.2,5.5-1.2c0.1-0.3,0.3-0.7,0.4-1c1.3,2.9,3.3,4.9,6.5,4.2c0.1,0,0.1,0,0.2-0.1
		c0.4,4.2,1,8.4,2,12.6c0.3,1.2,2.3,1,2.2-0.3c-0.7-6.3-1.3-12.7-1.6-19.1c0-0.1,0-0.3,0-0.4c2.4-0.1,4.9-0.7,6.2-2.6
		c0.2,0.4,0.5,0.7,0.8,1c1.3,1.2,3.2,1.1,4.7,0.3c0.1,1.2,0.3,2.5,0.4,3.7c-3.8,0.7-5.8,4.8-5.8,8.7c0,3.1,0.8,12.3,4.8,12.9
		C119,54.5,118.4,45.1,118.4,42.8"/>
	<path class="st0" d="M32.9,14.5c-1.4,0-1.4,2.2,0,2.2C34.3,16.7,34.3,14.5,32.9,14.5"/>
</g>
</svg>
